<?xml version="1.0" encoding="utf-8"?>
<!-- Generator: Adobe Illustrator 22.0.1, SVG Export Plug-In . SVG Version: 6.00 Build 0)  -->
<svg version="1.1" id="path" xmlns="http://www.w3.org/2000/svg" xmlns:xlink="http://www.w3.org/1999/xlink" x="0px" y="0px"
	 viewBox="0 0 1080 1080" style="enable-background:new 0 0 1080 1080;" xml:space="preserve">
<style type="text/css">
	.st0{fill:#A14A7B;}
</style>
<path class="st0" d="M600.8,331.4c30.8-6.1,62.7-8.4,94.1-8.8c7.9-0.1,17.4,3.2,24.8,0.5c4-1.4,6.8-4.1,9.6-6.9c3.1-3.1,5-3.7,9.5-4
	c6.1-0.4,13.1-0.5,18.4-4c7.5-5,13.2-13.5,19.4-20c6.2-6.6,12.3-12.9,19.4-18.5c6.3-4.9,9-9.9,11.8-17.3c3.4-9.1,8.7-18.9,16.1-25.2
	c3.7-3.1,6.2-6.2,4.6-11.3c-1.6-5.1-4-9.5-5-14.9c-2.1-11.4-2.4-22.2,2.2-33.1c2.3-5.5,7.3-14.9,14.2-14.9c10.3,0,6.5,16.3,6.8,22.3
	c0.3,4.5,2,7.6,4.2,11.3c1.4,2.2,1.9,4.4,3.1,6.7c0.9,1.7,0.2,2.9,1.8,1.9c1.8-1.1,2.6-9.4,3.3-11.8c1.9-5.8,4.1-11.6,7.3-16.7
	c2.7-4.4,6.1-8.3,10.6-10.9c4.3-2.6,11.7-7.3,16.7-7.4c10.1-0.1,3.3,15.1,2.5,20.2c-0.9,5.9-1.4,11.9-1.1,17.8
	c0.1,1.7-0.5,14.8,0,14.9c3.6,1,8.1-25.2,8.5-27.4c1.6-9.8,3.2-19.6,3-29.5c-0.3-8.5-1.4-19.3-8.2-25.3c-4-3.6-10.8-4.9-15.7-2.2
	c-2,1.1-7.6,11.2-8.3,11.1c-2.7-0.5,0.1-10.4,0.9-12.2c2.4-5.3,7-8.7,12.7-9.7c11.6-1.9,21.1,3.3,26.5,13.5c4,7.6,6.3,16.8,7.4,25.4
	c0.2,1.3,0.8,27.2,1,27.2c1,0.3,8.7-21.1,10.1-24.8c2.8-7.6,5.6-16.4,5-24.7c-0.3-3.9-0.9-10-4-12.8c-4.4-3.9-10.8-0.8-14.7,2
	c-2,1.3-2.8,3.2-3.4,0.7c-0.4-1.5,1.4-4.1,2.2-5.5c2.7-4.5,7.4-7.8,12.6-8.6c14.8-2.3,19.9,17.6,19.9,28.5c0.1,10-2.3,19.5-5.3,29.1
	c-3.8,12-8.1,23.7-12.2,35.5c-1.2,3.3-2.3,6.8-3.4,10.2c-1,3.1-3.5,7.3-3.8,10.3c-0.3,2.9,1.4,1.9,2.6,4.3c1.5,3.2-1.5,4.9-1.3,7.6
	c0.2,2.4,1.9,2.5,3.8,3.8c3.2,2.2,5.3,4.7,7.2,8.1c1.6,2.8,3,5.4,2.7,8.7c-0.2,3-1.6,5.5-1.3,8.6c0.5,5,3.4,9.3,6.8,12.9
	c7.5,8.2,17,14.5,25,22.3c7.3,7.1,14,13.5,19.3,22.3c3.1,5.1,0.5,8.6-0.1,13.9c-0.4,3.5,1.6,8.3-0.2,11.4c-1.6,2.9-6.8,4.1-9.1,6.2
	c-3.7,3.4-3.6,6.6-9.1,7c-5.9,0.5-12.2-1.1-17.4-4.1c-4.5-2.7-7.6-7.7-13.3-6.7c-7.5,1.4-14.1,7.6-22,7.3
	c-9.9-0.3-18.6-1.3-28.3,2.2c-6.4,2.2-7.5,5.6-10.3,11.2c-3.2,6.3-9.2,11.5-13.6,16.9c-12,14.6-18.7,32.8-30.7,47.2
	c-2.4,3-6.3,4.8-7.8,8.3c-1.8,4.1-0.6,9.3-1.4,13.7c-1.7,9.9-3.9,21.1-7.6,30.3c-1.8,4.5-4.5,8-4.9,13c-0.5,6,2.2,10.3,4.5,15.6
	c1.7,4,3.3,7.7,2.5,12.2c-0.6,3.2-2,5.6-4.7,7.5c-2.2,1.5-4,1.7-4.9,4.4c-1.6,5,2.1,8.3-1.8,12.4c-2.5,2.7-1.9,3.6-3,6.6
	c-1.4,4.3-2.3,2.3-5.7,4c-3.5,1.8-0.9,2.2-1.5,5.2c-0.7,3.1-3.5,1.9-4.5,4.2c-0.8,2,2.3,3.8,1.4,5.5c-1.6,2.9-4.4-1.3-3.6,3.8
	c0.5,3.5,2,7.3,2.7,10.9c1.1,5.5,2.7,11.4,5.2,16.5c5.2,10.5,15.8,18.5,24.4,26.1c9,7.9,19.3,15.2,26.7,24.8
	c5.9,7.6,10.1,17.3,13.9,26.2c3.7,8.8,2.8,18.7,6.1,27.6c3.5,9.5,10.1,18.3,12,28.4c3.8,19.8,13.2,40.6,25.5,56.7
	c8,10.5,17.4,20.6,26.9,29.7c6.5,6.2,14.6,9.9,21.2,15.9c3.5,3.2,8.6,9.1,8.5,14.2c-0.1,6-8.8,5.8-13.1,6.7
	c-7.5,1.3-15.1,2.3-22.8,3.1c-10.7,0.9-19.2-0.4-27-8.3c-2-2-4.1-4-5.1-6.8c-1-2.7,0.8-5.7,0.1-8c-0.8-2.9-1.4-1.6-4.2-1.6
	c-4.4,0-4.2-1.6-6.1-5.2c-3.2-5.9-8.5-7-14.5-7.2c-2.9-0.1-3.4-1.1-5.8-2.2c-1.4-0.6-5.5,0.7-5.7,0.6c-0.8-0.7,5.3-10.3,5.8-11.8
	c1.5-4.1,1.7-8.5,1.4-12.9c-0.5-8.4-2.6-16.1-5.5-23.8c-4.7-12.9-9.5-25.7-14-38.5c-2-5.5-2.9-11.5-5.3-16.8
	c-2.8-6.1-8.5-9.2-11.9-14.8c-2.7-4.4-3.4-9.6-6.9-13.7c-3.8-4.4-9.5-7.6-14.4-10.4c-10.2-5.7-21.1-9.9-31.4-15.4
	c-5.9-3.2-12.8-9.9-19.3-11.5c-1.3-0.3-3.8-0.9-5-0.4c-3.2,1.2,1.6-1.9-2.1,1.8c-0.5,0.5-0.5,1.7-1.2,1.9c-3.1,1-4.6-7-5.8-9.4
	c-0.8-1.6-1.6-4.4-3.1-5.5c-3.2-2.3-0.7-0.4-2.5,1.4c-1.5,1.4,0.1,1.8-1.7-0.2c-1.3-1.4-1.4-4.2-2.9-5.9c-3.1-3.5-7.1-0.2-9.4-3.5
	c-2.6-3.8-2.4-12.1-3.1-16.6c-2.9,2.6-6.6,5.5-10.4,6.7c-3.7,1.2-6.8-0.8-10.4-0.2c-3,0.5-5,3.4-7.5,4.9c-2.9,1.6-5.9,2.7-8.5,4.8
	c-2.6,2.1-4,4.3-7.3,5.2c-4.2,1.2-8.8,1.3-13.1,2.2c-6.1,1.4-12.8,5-19.2,3.9c-3.2-0.5-6-2.2-9.5-1.2s-5.2,4.2-9,4.1
	c-4-0.1-15.8-9.5-19-6.6c-2,1.7-0.9,7.1-1.5,9.6c-0.9,3.6-2.6,7.1-3.6,10.7c-2.4,8.3-4.1,16.8-4.9,25.4c-0.8,8.6-0.9,17.4-0.4,26
	c0.5,6.2,1.6,12-0.8,17.9c-1.6,3.9-3.7,7.2-4.7,11.2c-1,4-0.8,8.1-1.6,12.2c-1.3,6.8-5.7,12.2-7.4,18.9c-1.9,7.1-2.7,14.6-4.5,21.8
	c-1.4,6.1-3.5,12.1-5,18.1c-1.3,5-0.9,9.7-1.2,14.8c-0.5,9.5-4,18.9-2.5,28.4c1.4,9.2,1.6,19.5,4.4,28.4c2.2,6.9,8.3,12.8,12.1,18.9
	c3.4,5.5,4.5,10.7,4.5,17.1c0,3.2,0.3,5.6-2.9,7c-3.6,1.6-8.5,0.7-12.1-0.2c-8.5-2.1-19.3-4.9-25.5-11.5c-5.5-5.9-7.5-13-6.9-21
	c0.7-10-2.9-19.6-7.8-28.1c-2.9-5-5.8-9.1-4.7-15.2c1.4-8,5.3-15.4,6.8-23.5c1.2-6.6,1.8-13.1,3.4-19.6c3.2-12.2,8.1-23,7.9-35.9
	c-0.2-11.2,0.5-22.6-0.2-33.8c-1-17.8-7.1-33.1-12.4-49.9c-1.1-3.5-2.4-7.1-2.7-10.8c-0.3-4,1.3-7.9,0.6-11.9
	c-0.6-3.2-3-5.5-4.4-8.2c-1-2-1.8-7.6-4.1-5.4c-1.4,1.4-0.5,5.8-2.4,6.8c-2.8,1.4-3-3.6-4.6-5c-5.8-5.3-5.8,12.9-8.8,12.4
	c-2.8-0.5-0.9-13-4.9-10.2c-1.4,1-0.9,5.9-3.2,6c-2.4,0.2-1.7-6.2-4.8-5.3c-1.9,0.5-2,5.2-4,6.2c-3.2,1.7-5.6-2.2-9.3,0.3
	c-2.9,1.9-4.6,6.2-5.8,9.4c-1,2.6-0.6,4.2-2.2,1.6c-0.9-1.4-1.6-13.5-3.1-13.5c-2.5,0.1,0.8,11.3-3.8,8.8c-1.7-1-3-5.9-4.6-7.6
	c-1.8-1.9-7.4-6.4-10-3.7c-2.2,2.2,0.5,5.5-0.5,7.8c-1.4,3.3-2.2-0.8-4.3-1.9c-6.1-3.1-2.5,8.9-5.6,10.1c-2.5,1-3.4-10.3-5-11.4
	c-2.7-1.9-3,7.1-3.3,9.2c-0.1,0.6-0.5,5-1.5,5.2c-1.4,0.2-2.1-4.7-2.4-5.6c-3.1-7.4-9.1-2.3-11.7,2.8c-3.1,6.1-9.1,8.6-13.3,14
	c-4.2,5.3-8.9,10.6-14.5,14.5c-12.1,8.5-26.7,12.8-38.9,21.2c-22.5,15.5-43.6,32.1-68.6,43.6c-6.4,3-13.2,5.3-19.3,9
	c-6.6,4-12.1,9.5-17.6,14.8c-12,11.3-22.1,23-17.6,40.9c1.7,6.7,4.8,12.9,6.7,19.5c1.9,6.4,4.1,12.5,6.6,18.7
	c2.5,6.2,5.4,12.1,8.2,18.3c2.9,6.5,4.8,13.4,7.6,19.9c3.7,8.4,9.3,15.7,14.9,22.9c4.5,5.9,9.3,9,15.1,13.3c4,3,11.8,11.7,7,16.6
	c-4.5,4.6-13.9,4.8-19.8,5c-5.7,0.3-11.3-0.4-17-0.2c-7.8,0.2-14.6,1.4-19.3-6c-2.1-3.2-3.4-7.1-4.2-10.9c-0.5-2.8-0.6-5.3-3.2-7.1
	c-4.9-3.3-12.5-0.5-17.2-3.6c-4.9-3.1-4.5-14.2-5-19.1c-0.4-4-0.4-7.9-1.1-11.9c-2.8-16.7-8.9-33.1-13.7-49.3
	c-3.1-10.7-5.8-22.4-10.8-32.4c-6-11.9-14.3-22.9-15.6-36.6c-0.4-3.5-0.5-7-1.2-10.5c-0.5-2.9-2.2-6.8-1.7-9.7
	c1.2-5.7,12.5-8.5,17.2-10.4c2.8-1.2,15.6-5.8,9.8-10.9c-3.4-3.1-17.7,6.8-21.2,8.3c-12.6,5.4-24.8,11.2-31,24.6
	c-7,15.2-4.2,33.1-2.6,49.1c1.3,12.2,2.8,24,2.2,36.4c-0.6,11.5,2.6,22.6,4.4,33.8c1.3,7.9,2,15.3,0.4,23.2
	c-1.5,7.3-4.7,14.4-5.8,21.7c-1.1,7,0.4,14.3-0.5,21.3c-0.6,5.9-5.7,19.7-13.5,19.4c-5.7-0.2-10.9-9.7-14.6-13.1
	c-5-4.7-10.9-8.5-16.9-11.7c-15.6-8.2-5.8-24.5-1.3-36.8c0.5-1.4,1.1-2.7,1.2-4.2c0.1-3.5-3-6.3-3.1-9.6c-0.1-3.8,3.2-4.6,5.3-6.8
	c2.4-2.6,3-6.3,3.2-9.7c0.4-9.2-1.7-18.5-2.9-27.6c-1.1-8.5-1.9-17.1-2.2-25.7c-0.6-14.3,1.7-28.3,1.1-42.7
	c-0.7-14.2-2.9-28.3-3.7-42.7c-0.6-10.2-0.4-20.5,1.5-30.5c1.3-7,3.8-13.9,11.6-15c7.1-1.1,14.8,0.7,21.7-1.2
	c7.3-2.1,13.9-6.8,20.7-9.8c14.1-6.4,29.4-10.2,43-17.5c7.4-4,15-8.8,21.3-14.4c4.9-4.3,4.4-10.1,3.3-16.1
	c-3-15.8-13.1-28.5-18.7-43.2c-3.5-9-6.6-18.4-6.6-28.2c0-4.1,0.8-8.2,1.1-12.3c0.6-7.9,1.5-16.3-0.1-24.1c-0.6-3.1-1.4-5.6-0.8-8.7
	c0.1-0.5,3.3-10.4,4-10.1c-1.3-0.5-5-1.8-5.3-3.4c-0.4-2.2,4.3-3.3,5.6-5.2c6.3-9.3-12.1-2.8-12.7-5.2c-0.8-3.5,21.6-5,7.7-10.4
	c-2.6-1-9.4-0.9-11.1-2.8c-2.8-3.1,3.5-5.8-2-7.8c-5.6-2.2-6.8-1.8-9-7.6c-1-2.7-2.6-4.4-4.7-6.4c-1.2-1.1-20.1-15.6-18.3-17.7
	c0.4-0.5,7.1,3.1,7.6,3.3c3.5,1.4,7.8,3.3,11.6,1.8c6.1-2.5,11.3-8.5,18.2-9.3c1.2-0.2,3.6,0.9,4.6,0.4c2.2-1.1,0.5-2.7,1.8-3.8
	c2.1-1.8,3.8,2,6.1-0.6c1.2-1.3,0.8-5.7,3.1-5.6c2,0.1,4.7,7.1,5.3,8.3c1.3,2.5,3,5.1,3.9,7.9c1.1,3.3,0.5,7.2,2.9,10
	c5.7,6.8,16.7,3.1,22.9-0.8c6.5-4,11.4-10.2,17.6-14.6c8.2-5.8,16.6-11.6,25.1-16.8c15.9-9.6,33.8-15.7,51.6-21.1
	c14.1-4.2,28.4-5.8,42.8-8.4c16.1-2.9,29.8-11.2,45-16.7c13.3-4.9,27.8-6.6,41.6-9.5c5.5-1.3,10.7-3.3,15.8-5.8
	c3.9-1.9,10.4-4,12.3-8.4c2-4.2-1.7-7.4,4.1-9c7.5-2.1,14.7-4.7,22.2-7c2-0.6,5-0.7,4.2-3.2c-0.4-1.1-6.7-3.8-6.6-4.5
	c-0.1,0.2,21.8,1.4,23.8,1.2c3.1-0.4,5-1.4,6.4-4.6c0.5-1.4,0.1-12.3-1.1-11.8c-0.6,0.3,6.8,11.2,9.6,11.2c5.1,0,1.4-9.5,2.8-9.8
	c1.7-0.3,1.5,12.8,10.3,8c1.7-0.9,7-12,6.3-12.1c2.7,0.5-0.8,13.4-0.4,14.9c1.1,4,5.5,0.8,8.5,0
	C583.9,334.4,592.5,333.1,600.8,331.4z"/>
</svg>
