<?xml version="1.0" encoding="utf-8"?>
<!-- Generator: Adobe Illustrator 22.0.1, SVG Export Plug-In . SVG Version: 6.00 Build 0)  -->
<svg version="1.1" id="Layer_4" xmlns="http://www.w3.org/2000/svg" xmlns:xlink="http://www.w3.org/1999/xlink" x="0px" y="0px"
	 viewBox="0 0 1080 1080" style="enable-background:new 0 0 1080 1080;" xml:space="preserve">
<style type="text/css">
	.st0{fill:#E08A1B;}
</style>
<path class="st0" d="M969.6,272.7c4.5-20.1,1.9-34-5-53.1c-6.8-18.8-23.2-30.2-40.6-16c-6.5,5.3-11,12.4-18,17.5
	c-5.8,4.2-13.8,16.1-21.2,15.7c-4.8-0.3-6.4-5-10.3-6.1c-4.1-1.1-8.4,1.3-12.8,1.2c-8.4-0.3-16.8-4.6-24.9-4.6c-2.9,0-5.2,1-8,1
	c-3.7,0-9.2-0.6-12.8-1.7c-4.1-1.3-6.1-4.4-9.7-6.2c-1-0.6-2.3,2.4-3.8,1.3c-1.8-1.2-2.1-2.9-3.5-4.8c-5.6-7-9.8-15.5-18.8-18.8
	c-8.6-3.2-20.6-2-28,3.4c-18,13.3-14.2,34.1-17.8,53.4c-2.1,11.5-2.4,19,0.6,30.4c1.9,7.3,1.8,16.1,4,22.8
	c2.7,8.4,10.3,14,12.5,21.7c2.6,8.5,1.7,22.2,1,31.2c-0.4,5.3-3.3,8.6-2.6,13.6c0.7,4.3,3,4.7,2.6,9c-0.4,3.4-3.4,8.8-4.8,12
	c-0.8,1.7-6.9,9-6.9,9.7c3.4,0.5,5.1,0.6,7,3.6c-3.7,1.5-6.6,4.6-10.3,6.2c-1.6,0.7-4.2-0.6-5.3,0.1c-0.9,0.5-0.3,3.1-1.3,3.8
	c-7.3,5-15.2,5.4-24.3,4.9c-18.9-1-38.1-5.5-57-4.8c-16.1,0.6-32.1,5.1-48.4,6.1c-17.5,1-29.7,7.5-45.3,9
	c-8.6,0.9-16.6,4.2-25.2,5.1c-8.3,0.9-14.7,2-22.1,5.7c-5.9,2.9-12.4,4.8-18.3,8.1c-6.8,3.7-14.2,4.2-20.9,8.9
	c-6.9,4.9-16.3,8.5-21.9,14.9c-4.3,4.9-8.4,10.4-14.7,15.1c-4.4,3.3-11.3,5.9-15,10c-1.6,1.8-1,3.9-2.5,5.9
	c-4.5,5.8-10.2,11.3-13.8,17c-9.2,14.9-24.7,23.7-40.4,33.8c-7.1,4.7-16.2,6.6-24,10.7c-3.8,2.1-6.2,3.3-10.4,4.6
	c-4.4,1.3-14,2-11.3,7.2c-9.9,2.1-16.1,7-26.2,7.7c2.2,1.2,4.4,2.6,6.6,3.8c-4.5,0-9,0.1-13.5,0.1c1,1.5,2.2,3,3.2,4.6
	c-4.7,0.4-9.3,0.8-13.9,1c4.9,7.4-16.4,9.6-20.3,10.1c2.3,1.6,4.6,3.3,6.8,4.9c-4.1,0.8-7.2-0.3-5.6,4.1c-8.5-1.1-15.2,4.2-22.2,7.8
	c3.6,1.9,7.1,3.9,10.7,5.8c-5.7-0.2-11.4-0.3-17.1-0.5c1.3,2.6,2.7,5.1,4,7.6c-8.2,0.4-11.6,3.5-18.6,6.3c15.1,3.9-6,11.7-10.3,14.1
	c1.6,1,3.1,2.1,4.8,3c-4.3,1-8.5,2.2-12.7,3.2c3,0.4,2.8,1.6-0.8,3.8c1.9,0.2,3.8,0.5,5.7,0.7c-3.6,1.4-29.1,10.4-21.4,15.1
	c-2.5,1.9-3.6,4-4.5,4.9c-1.9,2.1-6.7,7.4-10.4,10.4c1,2,2.9,1.8,5.6-0.9c0.6,1.7-7.9,5.1-8.8,5.7c2.9,3.4,2,2.7-1.1,4.8
	c2.6,0.1,5.1,0.2,7.7,0.2c-3.5,2.4-6.7,2.5-1.5,4.8c-5.8,3.7-11.5,7.5-17.3,11.2c1.2,2.1,6.8-0.3,8.7-0.7c0.7,2.2-4.7,3.8-6.4,4.8
	c0.5,1.6,1.8,1.7,4,0.3c-3.5,1.8-19.9,13.4-13.2,17.9c-1.6,2.7-4.2,2.3-6.1,4.3c-2.5,2.6-2,3.7-3.9,6.2c-4.2,5.4-9.3,10.3-13.7,15.5
	c3.2,2.9,6.5-6,9.6-3.1c-2.4,3.9-4.7,7.7-7,11.6c5.3-2.1,7.7-8.5,14.2-8.1c-2.9,3-5.9,6.1-8.8,9c1,1.6,2.4,1.2,4-1
	c-0.7,2.8-16.3,14.9-13.8,17.5c1.1-0.4,2.1-1,2.8-2c2.1,4-6.7,9.7-5.9,10.9c0.7,0.9,6-4.7,6.8-3.6c1.1,1.3-10.5,12.7-7.4,14.9
	c1,0.8,7.7-9.7,8.3-9.2c0,0-9.1,19.4-2.8,19.8c0,0,2.3-11.6,4.2-10.7c4.9,2.1-6.8,26.4-1.8,27.8c-0.9-0.3,13-19.7,15.2-16.9
	c2.8,3.4-8.6,10.4-7.9,12.4c1,2.5,10.7-6.4,11.4-7.1c-0.3,3.7-9.4,15-8.9,16.9c0.6,2.6,15-7.6,14.2-8.9c2.5,4-7.7,10.8-6.8,13.7
	c0.9,3.1,11.4-10.7,11.8-11.5c0.1,0.5,0.4,0.8,0.9,0.9c0,0.1-3.3,10-2.4,10.8c0.1,0.1,8-16.9,9-17.9c0-0.2-0.9,8.6-0.4,8.8
	c-1.6-0.6,4.5-12.4,6-13.3c-0.2,0.9-0.3,1.8-0.1,2.7c-0.9-0.6,13.6-14.4,14.4-15.5c-0.3,1.3-3.6,14.7-1.4,15.4
	c-0.4-0.1,22.1-35.1,24.1-38.1c4.2-6.4,8.3-10.2,12.8-13.1c6.2-4,10.1-3.5,13.9-11.4c4.8,2.8,4.8-3.5,8.8-5.6
	c2.8-1.4,4.1,1.3,7.2-0.3c3.3-1.8,8.5-14.2,12.7-13c4.5,1.3-1.7,24.5-1.9,30.3c-0.3,9.3,0.2,18.5-0.6,27.9
	c-0.6,6.5-2.6,14.1-1.2,20.5c2.1,9.5,11.1,16.3,18.2,22.7c6.4,5.7,14,9.8,22.1,12.2c12.4,3.5,31.4,2.5,43.6-0.8
	c18.2-4.9,16.8-26.7,11.4-40.6c-2.8-6.9-14.4-18.7-8.7-26.8c2.2-1.1,4.4-2.4,6.6-3.5c0.6-3.4,1-6.8,1.6-10.4c-1.1-5,0.3-6.7,4.3-5
	c0.5-1.2,0.9-2.5,1.6-3.6c0.4-1.4,1.2-2.5,2.7-3c2.1-0.2,3.9,0.5,5.4,2c6.3,0.4,3.9,3.9,8-3.2c4.1-7,4.4-13.2,10.7-18.5
	c5.8-4.8,12.9-7.4,20.3-8.6c7.5-1.1,18.4-6.9,22.5,2.5c0.9-1.9,1.8-3.9,2.8-5.8c0.4-2.4,1.7-3.1,4.2-2.2c2.3-1.8,5.2-3.6,7.6-5.8
	c6.1-5.6,15.6-6,17.7-12.6c5.3,4.7,2.8-1.1,6.7-4.2c4.9-3.8,8.5,1.2,12.4-0.4c2.9-1.2,2.5-6.2,6-7.4c6.8-2.5,6.1,4.2,9.2-5.7
	c3.8,4.7,5.4,0.6,8.2-2.2c4.7,9.2-5.8,11.4-9,19.7c-0.9,2.6,0.1,5-1.2,8.3c-2,4.8-6.9,10.4-10.3,14.3c-8,9.6-12.3,12.9-11.8,25.9
	c0.3,7.3-1,15.6,2.7,22.3c5.3,9.8,10.5,18.8,14.6,29.8c3.5,9.5,6.6,17.7,15.6,23.2c16.6,10.3,39.1,15.5,58,19
	c24.6,4.7,65.8,14,71.6-19.6c2.8-16.5-8.7-33.7-26.5-36.1c-4.6-0.6-32.1-8.6-30.3-15.3c1.9-7.1,10.9,0.1,13.2-8.5
	c5.7,2.9,6.6,1.4,10.9-0.7c2.8-1.3,6-2.1,8.9-3.1c1.5-0.6,2.9-1,4.5-1.6c2.6-0.3,3.9-1.9,3.8-4.9c1.4,0.2,2.9,0.4,4.4,0.6
	c0.7-1,1.4-2.1,2.1-3.2c1.3-0.6,5-2,6-2.7c5.2-3.9,6.7-4.5,8-10.2c1.9,1,3.8,2.1,5.6,3.1c2.4-8.8,7.2-9.3,11.3-15.8
	c3.5-5.6,6.9-12.2,10.3-18.1c1.7-3,2.6-6.8,4.7-9.7c3.7-5.1,2.8-2.2,6.1-5.7c2.3-2.4,1.9-5.1,5.1-7.5c2.9-2.2-0.2-3.1,5.8-2.2
	c0.3-4.8,0.6-8.5,2.1-11.2c0.2-0.4,3.2-2.4,4-3.6c1.2-1.8,0.2-4.7,2-6.6c2.4-2.5,3.4,1.4,6,0.3c4.4-1.9,7.7-8.6,13.8-4.4
	c4.5,3,4.6,14.2,4.9,19.6c0.5,5.6-1.2,12.2-1,17.4c0.3,5.1,1.5,1.2,2.6,5.3c0.6,2.1,0.2,4.5,0.5,6.9c0.3,2.2,1.6,3.9,1.9,5.2
	c-0.5,0.8-1,1.4-1.4,2.2c-1.7,1.7-0.9,3.1,2.6,4.3c1.1,3,3.2,9.6,6.8,9.9c-2.6,2.9-5.2,5.9-7.8,8.7c9.4,6.3,4.1,8.5,4.8,18
	c0.2,3.3,1.6,4.6,2.3,7.6c0.7,2.1,0.3,4-1.1,5.7c1.4,0.7,2.5,1.7,3,3.1c0.8,5.9-2,12.1-2.9,18.1c-0.7,4-2.7,10.7-1.4,14.7
	c0.8,2.5,6.6,8.1,8.1,10.4c9.3,14.5,14.5,22.1,32.5,26.4c12.8,3.1,23.2,10.9,36,13.4c16.3,3.1,37,8.2,53.3,4.3
	c21.4-5.1,4.8-26.6-5.1-36.2c-4.4-4.3-9.5-8.3-14.5-11.6c-4-2.6-11.8-4.7-14.7-8.4c-5-6.3-0.7-14.8-2.1-21.7
	c-0.7-3.3-4.6-6.9-4.7-10.1c-1.7-2.1-0.6-3.6,3.3-4.7c4.5-1.4,5.4-3.8,2.7-7c-0.5-6.8-8.6-20.4,5.1-17.4c-3.9-5.5-7.8-11-11.6-16.4
	c3.1-1.8,6.4-3.6,9.5-5.4c-3.5-2.4-4.4-6.1-3.5-10.1c1.2-5.7,1-4.7,7.2-4.7c0.3-1.4-0.6-2.3-2.7-2.5c-3-0.9-3.6-2.8-1.6-6
	c-1.4-5.3-1.7-7.3-4.8-12.3c1.8,0.6,6.5,3,7.8,1.1c-9.9-12.4,0.9-3.3,4.9-5.6c-3.2-3-8.3-13.8,1.2-14.5c3.2-0.3,6,4,7.4,6.5
	c4.2,7.2,0.7,2.9,1.7,8.8c0.2,1.5,1.1,2.4,2.9,2.7c-1.1,1.5-1.7,3.1-1.6,4.9c0.6,3.3,0.7,6.8,1.5,10.5c2.3,9.8,14.9,7.8,5.4,19.4
	c1.4,0.9,7.6,3.8,8.3,5.9c0.7,2.4-2.5,6.1-2.1,7.1c0.9,2.7,4.3,2.4,6,4.5c2.7,3.2,1.4,5.7,0.8,10.3c-0.7,4.6,0.2,8.6,0,13
	c-0.4,9.5-2.1,13.1,7.9,16c-4.5,7.4-9.1,12.3-10,21.4c-1.2,13.7,4.1,8.6,7.8,17.9c4.5,11.1,8.6,25.4,20.3,31.1
	c15,7.3,35.2,7.2,51.5,10.5c10.8,2.1,30.4,6.7,35.9-6.3c4.6-10.6-5.5-33.4-14.2-38.6c-8.4-4.9-13.8-5.8-16.1-16.3
	c-2-9.3-3-19.6-3.7-28.9c-0.6-7.7,1.3-15.6,2.6-22.2c1.6-8.6-0.8-15.4,1.2-22.9c3.5-13.1,1.6-26.4,2.7-39.7c0.9-11-1-21.9-0.2-32.8
	c0.3-3.6-0.7-6.6-0.5-9.7c0.2-3.3,4.8-11.1,4.8-11.6c-0.4-2.5-4-3.2-4.8-5.6c-1-3.2,2.5-9,3.2-11.8c1-3.9,2.4-9.4,2.3-14.1
	c-0.1-6.6-4.8-10.5,2.6-12.4c-4.1-9.6,0.7-14.7,0.8-23.3c0.1-5.8-0.8-4.9,0.4-10.8c1.2-6.4,2.1-2.1-1.3-9.4c2.6-1.3,5.2-2.1,8.1-2.1
	c0.4-1.8-4.8-4.5-6.1-5.2c2-0.9-1.6-20.6-1.8-23.9c-0.2-3.8-0.9-12.9,0.3-17c0.6-2,3.7-5.1,3.8-6.6c0.1-1.6-3.1-2.7-2.8-5
	c1-6.1,3.4-6.8,1.9-14c-1.1-5.2-0.3-5.5,0.5-10.1c0.5-2.9,1.6-4.8,1.6-6.9c0,0.3-1.9-4.3-2-4.8c0.7-0.9,1.3-1.8,1.9-2.7
	c-0.8-1.2-1.4-2.4-2.2-3.6c0.9-6.4-1.8-3.2,3.6-8.6c-2-2.2-5.4-2.5-6-5.9c1.7-0.7,3.3-1.3,5-2c-2.4-1.8-10.2-6-10.6-9.1
	c-0.5-3.8,2.6-5.5,2.4-8.9c-0.3-3.3-3-6.1-3-9.9c0.4-0.7,0.9-1.4,1.2-2.1c2.7-1.4,2.9-3,0.6-4.8c-0.3-4.4-2.9-2.8-2.6-8.4
	c0.1-0.9,0.6-6.3,0.6-6.6c2.9-1.5,3.4-3.8,1.3-6.7c-0.4-1.4-0.7-2.9-1-4.4c-1-5.2-1.6-9.5-0.9-14.7c2.3-17.1,9.4-32.7,14.6-49
	c1.8-5.7,4.1-7.6,6.5-12.2c3.5-6.9-0.9-3.3,0-8.6C964,290.5,968.5,282.2,969.6,272.7z"/>
</svg>
