<?xml version="1.0" encoding="utf-8"?>
<!-- Generator: Adobe Illustrator 22.0.1, SVG Export Plug-In . SVG Version: 6.00 Build 0)  -->
<svg version="1.1" id="Layer_4" xmlns="http://www.w3.org/2000/svg" xmlns:xlink="http://www.w3.org/1999/xlink" x="0px" y="0px"
	 viewBox="0 0 1080 1080" style="enable-background:new 0 0 1080 1080;" xml:space="preserve">
<style type="text/css">
	.st0{fill:#77395E;}
</style>
<g>
	<path class="st0" d="M390.4,463.1c36.7-1.7,74.1-3.4,111.5-5.2c0.1-1,0.2-2.1,0.3-3.1c8.8,3.6,17.5,7.1,28.1,11.4
		c2.3,2.6,6.1,7,11.2,12.8c1.9,9.2,4.9,20.5-4.2,33.3c-6.9,1.5-15.8,3.4-25.1,5.5c-2.8,3.5-6,7.3-10.1,12.4
		c-9.6-0.8-19.5-1.6-30.3-2.4c-6,4.6-13.1,10-20.1,15.3c-11.7-7.3-22.2-12.7-31.5-19.7c-24.5-18.5-52-17-79.8-12.4
		c-27.3,4.5-50.9,18.7-74.9,31.5c-4.7,2.5-8.8,5.1-14,7.1c-20,7.6-36.1,20.7-47.2,39.7c-5.5,9.3-12.1,18.1-18.9,26.5
		c-12.1,15.1-18.4,32.2-18.7,51.4c-0.2,15.7-2,30.8,1.8,47c4.4,18.9,14.5,31.2,28.8,41.9c2.7,2,5.9,3.2,8.5,5.2
		c39.3,29.4,84.3,28.8,128.9,20.7c18.2-3.3,36.9-12.9,51.7-28.8c2.6-0.1,7.7,1.2,10.7-0.8c30.7-20.3,61-41.4,80.3-73.9
		c8.4-14,10.4-30.2,9.8-46.5c-0.4-10-1.2-19.9-1.9-31.7c5.4-1.5,10.6-3,17.6-4.9c5.1-6.8,11.6-15.5,18.6-24.8
		c5.5-0.6,11.2-1.2,17.7-1.9c4.2-4.3,8.8-9,13.9-14.3c4.5,1.3,8.5,2.4,13,3.6c2.8,8.2-3.1,20.3,8.9,22.8
		c2.4,22.6-9.1,38.9-21.6,55.3c-8.6,11.3-15.4,24-22.4,36.4c-6.6,11.7-12.5,23.8-20.3,38.7c0.3,1.5,1.2,6.3,1.3,6.8
		c-4.5,14-8.6,24.1-11,34.7c-5.1,23-9.2,46.2-13.8,69.3c-5.5,27.8-24.5,47.5-42,68c-7,8.2-19,14.4-21.6,23.5
		c-3.3,11.6-12.7,16.6-17.7,25.4c-6.3,11-11.1,22.8-16.2,34.4c-4.4,9.9-8.3,20-13.5,32.8c5.7-1.1,11.8-0.5,13.4-2.9
		c5.6-8.3,11.4-17.3,13.8-26.8c5.4-21.6,16.5-39.1,31-55.6c17.1-19.4,32.2-40.6,49-60.3c6.4-7.5,15-13,24.4-20.9
		c10.1-27,15.7-63.7,16.6-113.8c3.5-2,7.8-4.5,12.1-6.9c31.4-39.2,51.3-83.2,55.5-135c2.5-1.9,5.8-4.4,9.3-7.1
		c0.2-3.1,0.4-6.3,0.6-9.2c14.9-1.8,29.7-3.6,46.6-5.7C636,614.3,627.2,666,627.7,719c1.9,3.8,3.8,7.7,4.8,9.7
		c-2.7,15-4.6,28.4-7.5,41.6c-6.5,29.2,3.4,57.8,2.5,87c-1.2,37.6-12.2,70.7-36.3,101.5c3.8,1.5,7.2,2.8,12.4,4.9
		c11-23.8,21.7-46.9,32.3-69.9c-2.6-28.5-1.2-56.5,5.9-84.5c4.5-17.7,6.9-36.2,3.7-54.8c-1.8-10.6-4.8-21.8,2.9-28.1
		c3-18.9,6.4-35.2,8.1-51.6c1.8-17.4,1.3-35.1,2.9-52.5c1.5-16.5-6-33.3,0.8-47.7c9.2-3.4,17.7-4.9,24.2-9.3
		c12.4-8.3,23.4-18.4,35.4-27.4c4.7-3.5,10.4-5.7,15.5-8.7c7.1-4.2,14-8.6,21.8-13.4c7.1,20.4,28.6,25.6,46.4,33.2
		c20.6,8.9,43.7,12,70.6,18.8c12.3,12.7,32.7,18.8,55.2,21.6c15.3,1.9,30.1,7.5,45.2,11c10.7,2.4,21.5,4.1,32.6,6.1
		c1.6-2.7,3.7-6.2,5.8-9.6c-15.9-4.9-28.6-9-41.4-12.6c-10.5-2.9-21.4-4.6-31.9-7.7c-8.1-2.4-16.1-5.6-23.8-9.1
		c-26.4-12.1-52.6-24.8-79.1-36.7c-6.9-3.1-14.6-5.1-22.1-6c-15.6-1.9-29.5-7.6-42.7-17.1c10.7-17.5,21.5-35.2,32.3-53
		c-0.8-0.6-1.6-1.1-2.4-1.7c4.8-4.5,9.6-9,13.8-13.1c7.8,9,15.9,18.4,22.1,25.7c26.6,5.6,47.6-3.9,70.3-8.8c2-4.6,4-9.2,7-16.2
		c4.9-2.4,11.6-5.7,17.9-8.8c1.2-6.7,2.1-11.9,3.1-17.9c9.7,9.8,10.1,21.5,10.3,33.3c0.3,18.4,0.6,36.8,1.3,55.1
		c0.1,3.1,2.4,6.1,3.7,9.1c13.6-4.4,37-32,45-50.9c9.5-22.4,12-45.7,9.8-71.6c-4.7-5.3-3.6-17.9-18.8-21
		c15.2,47.6,8.8,88.7-26.6,126.9c-2.1-18-4.1-33.2-5.7-48.3c-2.5-24.6-7.6-48-27.7-65.7c1.3-4.7,2.6-9.6,3.9-14.4
		c-12.9-28.3-13.4-28.8-37.7-48.2c-1.3-1-0.2-4.8-1.5-6c-12.3-12.3-23.8-25.3-41-31.6c-17.5-6.5-34.5-14.5-53.2-22.5
		c11.4-5.6,21.9-10.7,34.1-16.8c31.4-2.1,63.2,3.6,96.3,27c-4.9-11.4-7.1-16.6-9.1-21.1c-35.9-14.5-35.9-14.5-91.4-15.7
		c-17.7,8.7-34.5,17-52.7,25.9c1.8,3.8,2.6,8.4,4.8,9.2c11.5,4.2,23.2,7.6,35,11c14.3,4.1,29.4,6.1,40.3,19.4
		c-14.5-2.1-29-4.1-43.4-6.2c-11,21.8-43.8,26.8-44.3,57.9c4,8.2,8.1,16.4,13.9,28.2c-26.1-3.7-48.7-7-72.9-10.5
		c15.8-29.1,24.4-61.7,45-90.6c0.2-8.1-0.2-18.3,9.7-25.3c4.6-3.3,8.6-8,11.7-12.9c10-16,24.7-28.3,26.9-50
		c1.5-14.8,13.8-28.4,20.1-43c7.4-17,13.3-34.5,9.5-53.9c-1-5.1,1.2-10.8,2.1-17.7c-4.5,1.9-7.5,3.2-10.3,4.4
		c-4.5,29.2-15,55.8-26.5,82.5c-10.5,24.2-28.3,43-41.4,65.1c-4.6,7.7-12.2,13.5-11.3,23.9c0.2,2.2-1.5,5.1-3.2,6.7
		c-22.2,20.9-32.7,48.7-43.5,75.9c-5.5,13.8-6.4,29.5-9.4,44.6c-20.5,7-42.5,14.5-61.3,21c-15.8-0.8-29-1.5-43.9-2.2
		c-2.4,9.3-4.7,17.8-6.9,26.4c-16.2-9.3-32.8-19.3-49.8-28.3c-17.1-9-34.6-17.4-52.3-25.4c-17.3-7.7-35.5-13.6-52.3-22.1
		c-11.7-5.9-21.5-15.5-32.8-22.5c-7.8-4.8-16.3-10.2-25.1-11.6c-30.9-5-54.9-23.7-81-38.4c-8-4.5-16.1-9-24.3-13.3
		c-16.7-8.8-26.5-25-40.3-36.9c-2.2-1.9-4.3-3.8-10.4-3.7c1.5,4.9,1.4,11.5,4.6,14.5c17,15.8,32.6,33.3,53.7,44.2
		c20.9,10.8,44.3,19,61.9,33.9c26.2,22.2,58.3,32.4,86.4,50.4c4,2.5,9.6,2.4,17.3,4.2c1.2,2,3.7,6.3,4.6,7.9
		c13.8,7.5,24.9,14.7,36.8,19.8c23.5,10.1,47.5,18.9,71.2,28.6c11.5,4.7,22.7,10.3,37.2,17c-6.9,5.6-11,8.9-14.5,11.8
		c-9.9-2.2-18.5-10.7-25.6-2.6c-18.9-5.2-36.8-11.1-55.1-15.1c-18-3.9-36.6-7-54.9-2.5c-18.5,4.6-38.5-0.4-56.4,9.7
		c-33.1-19.1-68.3-33.1-108.9-37.9c-2.8,2.4-7.1,6.1-12.6,10.9c-16.1,3-34.3,5.3-52,9.7c-35.9,8.9-71.7,14.9-108.9,7.9
		c-10.1-1.9-21,1-32.4,6.4c5.7,2,11.3,5.1,17.2,5.7c18.3,1.9,36.6,2.9,55,4.1c3.2,0.2,6.7-0.1,9.8-1c3.3-0.9,6.4-4.3,9.4-4
		c25.6,2.3,48.5-9.4,73-12.9c41.6-6,44.3-2.5,81.3,8.1c23.6,6.8,46.4,16.7,71.7,16.9C380.4,455.6,384,459.4,390.4,463.1z"/>
</g>
</svg>
