<?xml version="1.0" encoding="utf-8"?>
<!-- Generator: Adobe Illustrator 22.0.1, SVG Export Plug-In . SVG Version: 6.00 Build 0)  -->
<svg version="1.1" id="Layer_4" xmlns="http://www.w3.org/2000/svg" xmlns:xlink="http://www.w3.org/1999/xlink" x="0px" y="0px"
	 viewBox="0 0 1080 1080" style="enable-background:new 0 0 1080 1080;" xml:space="preserve">
<style type="text/css">
	.st0{fill:#77395E;}
</style>
<g>
	<path class="st0" d="M725.7,575c-14.1-6.8-29-16.1-45.1-13.5c-15,2.4-28.5,5.9-44,7.2c-9.6,0.8-14.5,2.6-23.2,6.6
		c0.6,3.9-1.4,4.9-6,3c-4,0.8-8.1,1.6-12.1,2.5c-70.5,13.6-141.9,16.3-213.2,20c-69.1,3.5-136,10.5-204.7,0.8
		c-27.7-3.9-55.2-9.8-82.7-14.3c-14.4-2.4-37-3.5-49.6-11.3c-8.6-5.3-11.9-22.3,1.7-21.1c-3.6-8.7-8.7-13.7-8.2-22.5
		c0.6-11.4,11-21.2,19.2-28.8c18.4-17,38.2-29.1,60.1-41.1c43.8-24.2,90-50.1,137.7-65.7c48-15.8,97-23.5,146.4-33.4
		c23.8-4.8,47.1-12.1,71-16.6c11.8-2.2,23.9-3.2,35.8-5.1c5.2-0.8,38.3-4.5,27.5,2.3c2.7,0.6,5.3,1.2,8,1.8
		c-2.8,11.2,30.4,10.1,13.1,21c2.7,2.6,4.7,2.1,6.1-1.5c0,11.2,20,9.5,30.2,11.5c11.9,2.3,23.5,4.9,35,8.4
		c24.1,7.3,48.4,13.7,71.9,22.8c22.6,8.8,46,23.3,70.6,25.5c19.9,1.7,44.6,2.9,50.6,26.6c1.6,6.3-3.5,4.8-0.4,10.4
		c2.3,4.2,10.4,7.8,14.4,10.9c9.5,7.3,18.6,15.1,28.5,21.8c20.8,14.1,45.9,18.9,69.6,26.5c23.1,7.4,44.9,17.2,67.7,25.2
		c12.7,4.5,20.7,8.8,31.3,17.3c8.2,6.5,16.3,15.1,0.2,13.5c3.5,2.9,7,5.9,10.5,8.8c-2.6,4.7-8.6,0-9.4,4.5
		c4.2,3.7,9.9,18.7,3.4,11.9c-4.7,10.9-13.5,6.8-21.9,3.3c2.4,3.1,4.8,6.3,7.2,9.4c-15,7.7-30.4,17.6-45.5,22.3
		c2.9,9.2-2.5,42.3-12.8,45.6c3.1,7.4,6.4,21.5,0.5,28.6c-4.1,4.9-3.4,4.1-11.7-1.2c0,2,3.7,30.1-4.4,15.4c0.8,14.8-11.6-3.5-15-7.5
		c-7.6-9-14.7-18.5-21.4-28.3c-17.6-25.6-36.9-50.2-53-76.8c-11.7-19.2-23-40-44.1-50c-11.6-5.5-24.2-11-36.8-13.7
		c-1.7-0.6-3.3-1.2-5-1.8c-5.6-1.7-7.8,0.4-6.8,6.3c-4.5,2.6-11.3,5.1-16.2,2.2c4.9,4.5,27.7,16.4,17.9,23.7
		c1.8,1.8,3.5,3.5,5.3,5.3c-5.2-1.9-7.1-0.6-5.8,3.9C761.6,600.2,732.9,578.5,725.7,575z"/>
</g>
</svg>
