<?xml version="1.0" encoding="utf-8"?>
<!-- Generator: Adobe Illustrator 22.0.1, SVG Export Plug-In . SVG Version: 6.00 Build 0)  -->
<svg version="1.1" id="Animal" xmlns="http://www.w3.org/2000/svg" xmlns:xlink="http://www.w3.org/1999/xlink" x="0px" y="0px"
	 viewBox="0 0 1080 1080" style="enable-background:new 0 0 1080 1080;" xml:space="preserve">
<style type="text/css">
	.st0{fill:#A14A7B;}
</style>
<path class="st0" d="M428.8,366.9c4.6-1,4.4,5.9,8.7,5.5c-0.4-2.3-2.7-6.9-1.9-9.1c1.2-3.3,3.8,0.9,5.5,2.5
	c2.3-13.9,0.4-27.5,3.7-41.3c3.6-15,9-29.8,16.2-43.4c10.9-20.5,26.9-41.2,48-52c2.9-1.5,19.8-7.1,14.3,2.6
	c-2.1,3.7-8.1,5.8-11.3,8.7c-5.8,5.1-11.2,10.7-16.4,16.3c-19.1,20.5-34.9,47.5-40.1,75.3c-1.4,7.5-1.9,15-2,22.6
	c-0.1,4.6,1.7,10.1,3.8,3.5c0.8-2.6,1.8-6.7,6-4.1c2.7,1.7,0.4,9.8,3.5,10.3c0.3-3.2-1.7-16.7,4-16.4c0.3,3.5,0.6,7,1,10.5
	c1.5-1.5,3-3,4.6-4.5c2.2,4.1-1.5,8.5-0.1,12.7c1.2-2.1,2.6-7.2,5.2-8c5-1.5,1.5,5.8,2.9,7.6c1.1-1.2,2.3-2.4,3.4-3.6
	c3,2.1,1.3,5.5,1.1,8.4c3.8-0.6,7.6-1.3,11.4-1.9c0.1,4.3,2.3,4.5,6.1,5.6c5.3,1.6,10.2,3.3,14.6,6.8c3.7,2.9,6.4,7.2,10.9,9.2
	c5.3,2.3,5.8,2.6,4.2,8.6c1.7-0.8,3.3-1.8,4.8-2.9c0.5,1,0.7,2.4,1.4,3.3c1.6,1.9,1.2,0.4,2.9,1.3c1.5,0.8,2-0.4,2.3,2.2
	c0.2,1.6-1.4,3.4-2.2,4.7c1.4-1,2.7-2.9,4.5-2.1c2.3,1,0.6,3.5,1.3,5.3c4.9-1.2,5,1.2,6.9,5.4c1.7-1.7,3.4-3.3,5.1-5
	c-3.2-2.8-4.9-4.8-5.3-9.2c2.3,0.6,7.4,3.7,8.3,0c0.8-3.5-6.3-4.2-4-7.8c1.1-1.7,5.3-0.3,2.1-3.9c-0.9-1.1-3-0.7-3.8-2
	c-2.3-3.5,2.3-2.7,4.4-2.4c1-5.6-6.1-4.8-7-9.2c-1-5.1,5.8-0.8,8.1,0c-1.7-1.9-4.1-3.6-4.6-6.3c-0.2-1.2,0.5-2.4,0.4-3.7
	c-0.4-4.1-4.4-6.9-4.5-11c-0.2-5,1.5-3,3.5-0.6c2.9,3.5,5.3,4.9,10.1,5.4c0.4-3.3-2-5.1-3-7.9c-0.8-2.3-0.1-3.9-0.5-6.1
	c-0.5-2.3-1.6-3.1-1.6-5.1c0-3.4,2.4-0.2,0.4-4.7c-0.4-0.9-2.4-2.8-2.5-3.6c-0.1-1.7,1.4-1.9,1.7-3.3c0.6-2.1-0.9-3.6-0.4-5.6
	c0.2-0.7,2.1-1.1,2.1-1.9c0.2-1.5-1-1.9-1.2-3.1c-0.4-2.7,0.7-5.2,0.4-8.2c-0.4-3.8-1.6-7.5-2.2-11.2c8.6,0,1.4-8.3,1.1-13.7
	c1.9,0.2,3.9,0.4,5.8,0.5c-1.1-4.7-2.6-9.3-1.5-14.2c1.4,0.6,2.8,1.2,4.2,1.8c0.8-8.8,1.6-17.5,2.3-26.3c-2,0.3-4,0.6-6,0.9
	c0.3-6.3,0-8.7,6.6-11.1c6-2.1,13.6-1.4,18,3.6c3.3,3.8,4.7,11-1.8,12.1c-2.8,0.5-2.4-1-3.8,0.9c-0.8,1.2-1.1,5.1-1.4,6.4
	c-0.9,4.2-1.9,8.4-2.8,12.7c9.6-1.4,2.9,6.7,2.5,11.3c-0.3,3.3,2.8,4.3,3,6.9c0.4,4.1-4.8,6.7-4.5,11.3c1.7-0.1,3.3-0.2,5-0.3
	c-0.7,2.7-2.7,5.5,1,6.8c-0.8,1.4-1.6,2.7-2.3,4.1c0.7,1.1,1.4,2.2,2,3.4c0.3,1.7-0.8,4-0.9,5.7c-0.2,5.2,2.4,10.2,1.9,15.5
	c-1.7,0.9-2,2.1-0.9,3.6c0.1,0.7,0.3,1.5,0.4,2.2c0,2.7-0.2,4.3,0.3,6.9c0.7,4.3-1.4,6.7-3.5,10.6c3.8,1.5,8.1-6.1,10.8-3.4
	c2.6,2.6-4.1,8.2-5.2,10.5c2-1.2,3.9-2.6,5.7-4.1c0,3.1,1.1,6.7-0.2,9.7c-1.1,2.6-4,4.3-6,6c1.7,1,3.4,1.9,5.1,2.9
	c-1.4,1.5-2.7,2.9-4.1,4.4c2,0.4,4,0.4,6,0.3c-1.7,2.1-3.6,4.1-5.6,5.9c3.5,0.2,5.8-3.9,9.4-3c-2.1,4.5-8.3,5.3-9.7,10.3
	c2.5,0.2,7.9-3.5,8,1.1c0.1,3.6-6.5,5.2-8.1,7.8c5.2,0.1,9.7-2.9,14.8-3.4c-0.6,2.7-3.4,2.2-5.3,3.4c-2.6,1.6-4.8,3.7-7.5,5.2
	c-1.6,0.9-4.3,1.7-2.6,4.1s5.1-0.8,6.7,2.4c-1.6,1.2-3.7,1.8-4.9,3.5c0.2,0.4,0.3,0.8,0.5,1.2c1,1.3,0.5,2.4-1.4,3
	c-2.4,3.2-6.2,4.9-7,9.2c4.5-0.4,7.4-5.5,10.4-8.4c2.6-2.6,3.7-3.3,3.5,0.6c-0.1,1.5-2.2,5.4-0.3,6.3c3.2,1.4,9.9-10.5,11-12.5
	c16.6-30.6,35.9-60.1,53.5-90.2c34.4-58.6,68.8-118.4,114.2-169.3c18.7-20.9,46.9-47.3,77.7-37.6c21.8,6.9,25.2,31.9,23.9,51.6
	c-2,29.4-10.3,59-21.3,86.1c-6.3,15.5-13.3,30.6-20.7,45.5c-7,14.2,0.7,28.9,0.2,43.9c-0.6,17.1-11.3,33.3-21.9,46.1
	c-10.9,13.1-24,24.3-38.1,33.8c-14.9,9.9-31.1,17.3-47.9,23.4c-19.3,7-39.4,10.7-59.1,16.2c1.1,1.2,2.3,2.5,3.4,3.7
	c-1.8,1.5-3.5,3.1-5.3,4.6c3.1-0.1,6,0.2,7.7,3.3c0.8,1.5,0.3,2.2,0.7,3.6c-0.3,0.5-0.6,1-0.8,1.5c1,0.6,2.1,1.3,3.1,1.9
	c-1.1,1.4-2.1,2.7-3.2,4.1c7.4,4.2,7.6-0.4,11.2-5.8c0.6-0.9,6.3-7.6,7-7.1c2,1.5-4.6,7.5-2.9,9.7c4.5-3.8,7.6-9,12-12.9
	c2.1,2.6-0.7,4.8-0.7,7.5c0.7-0.4,1.3-0.8,2-1.3c0.6-0.7,1.2-0.6,1.7,0.5c0.7,1.2,1.3,1.3,1.8,0.4c0.8-0.8,1.4-1.6,2.1-2.5
	c2.3-2.8,4.4-5.9,8.2-6.7c1.5,5.5-5.9,6.1-1.7,11.9c0.9-0.9,10.5-13.7,11.9-11.4c1.4,2.2-5.3,6.9-3.7,8.9
	c6.9-4.4,11.6-12.7,20.3-13.9c-2.1,7.1-11.4,8.8-13.6,16c5.8-2.1,10.4-6.2,15.2-9.9c5.8-4.6,8.6-6.8,15.4-3.2
	c-0.8,1.3-1.7,2.5-2.5,3.8c2.3-1.1,10.3-8,10.7-2c0.3,4.9-10,7.1-12.1,11c4.5-1.4,8.4-4.6,11.9-7.6c2.8-2.4,5.3-5.6,9.4-5
	c-0.3,0.3-3.8,3.9-3.2,4.2c1.2,0.6,5.8-2.5,6.7-3c3.4-1.6,6.9-3,10.6-1.6c-7.4,6.3-18.7,8.2-23.9,17.1c7.7,0.9,15.1-1.7,22.7-2
	c3-0.1,4.1,0.1,6.1,2.1c2.1,2.2,1.4,3.8,4.4,3.1c2-0.5,2.8-4.1,5.3-1.6c1.2,1.2-0.9,3.1,0.9,4.4c3.2,2.5,8.8-5.7,8.3,1.6
	c4.7-0.1,13.4-4.5,13.4,2.8c2.4-0.5,4.7-1,7.1-1.5c-1,1.6-2,3.2-3,4.8c3,1.4,7.5-2.4,10-3.4c-0.4,2-0.9,4.1-1.3,6.1
	c0.5-0.2,3.6-1.6,4.2-1.5c1.3,0.3,1.2,1.1,2,1.4c1,0.4,0.8,1.1,2.3,1.3c1.1,0.2,2.9-1.7,4.1-1.2c2.3,0.8,1.2,3.1,3.1,4.3
	c1.9,1.2,5.9,0.1,8,0.2c-1,4.2-5.3,12.1,0.5,13.5c6.3,1.4,14.2-3.6,21-3c-2.1,2.3-4.3,4.6-6.4,6.9c5.8,0.9,11.4-2,17.2-1
	c-0.2,2.5-1.2,4.3,1,5.9c2.7,1.9,6.6-0.1,9.4-0.5c3.7-0.5,4.2-0.1,5.7,2.4c1.9,3,1.1,3.4,5.2,4.5c8.9,2.4,18.9,5.2,28,6.4
	c6.4,0.8,15.7-4.5,21.3-0.1c-2.1,1.6-3.6,3.8-5.7,5.4c-1.8,1.4-4,1.6-5.7,2.8c-3,2-5.1,6-4.3,9.7c0.3,1.4,2.8,3.6,2.4,5
	c-0.4,1.8-2.2,0.9-2.6,2c-1.5,3.7,3.9,5.2,1.3,8.9c-5.9-6.3-9.9-13.4-17.9-16.9c-9.2-4-17.2-10.3-26.3-14.4c-2.1,5.7-2.3,9-7.7,3.6
	c-2-2-4.5-7.8-8.2-6.1c-2.3,1-1.3,4.3-4,4.7c-3,0.4-9.5-8.7-11.8-10.5c-0.7,1.4-1.4,2.7-2.1,4.1c-4.9-3.1-9.9-6.3-14.8-9.4
	c-0.4,2.4-0.8,4.8-1.1,7.2c-1.4-0.9-2.8-1.9-4.1-2.9c0.1,1.4,0.2,2.9,0.3,4.3c-4.7-0.4-5.2-7.2-10-8c3.5,14-7.8-9.5-5.7,4.3
	c-4.6-1.1-5.3-7.3-9.9-8.4c0.3,1.9,0.6,3.9,0.9,5.8c-4.4,0.1-5.2-5.7-9.2-6.4c0.6,2.1,1.2,4.3,1.8,6.4c-5-2-6.3-8.8-11.8-10
	c0.8,1.7,3.7,5.4,1.6,6.4c-1.4,0.6-2.8-1.2-3.7-1.9c-1.6-1.4-3.7-6.8-6.3-6.8c-0.9,0,3,7.7,3.3,8.4c-5.9-1.5-7-8.9-12.4-11.2
	c0.5,1.9,0.9,3.9,1.4,5.8c-4.2-0.8-5.7-5.8-9.9-6.6c0.4,1.6,0.7,3.1,1.1,4.7c-4.7-0.4-4.9-7.3-8.9-8c-4.1-0.7-1,2.2,0.2,3.8
	c7.7,10.1-12.7-0.5-15.6-0.3c1.2,3.5,5.3,5.5,4.5,9.6c-0.9-0.2-3.7-1.2-4.7-0.7c-0.4,0.2-0.6,2.4-1.4,2.6c-3.6,1.1-6.1-3.9-9.2-4.8
	c2.4,3.2,7.3,7.5,6.4,11.8c-0.8,3.8-5.5,5.6-7.8,8.3c3.6-0.4,16.6-13.9,19.2-11.6c2.1,1.9-5.4,9.7-6.6,11.1
	c6,2.1,10.4-12.8,15.9-8.9c3,2.1-1.4,4.3-3.3,5.7c-3.8,2.8-5,3.6-3.3,8.3c2.4-1.7,10.9-11.2,14.1-8.2c3.4,3.3-6.2,9.3-8.1,11
	c2.5,2.5,6.9-1.7,9-2.8c3.9-2.1,7.9-3.1,12.3-2.2c-2.8,3.4-11.4,4.6-10.4,10.4c8.7-4.2,16.7-10.8,26.7-11.3
	c-1.5,3-19,12.4-17.4,14.3c1.9,2.3,12-6.1,14.9-7.4c2.1-1,12.8-5.8,9.8,0.5c-1.9,4.1-15,5.4-13.9,10.9c3.5-1.4,7-3,10.5-4.3
	c2.8-1.1,9.7-4.6,12.8-3.4c6.4,2.4-12.6,8.2-14,10.2c4.6,3,19.5-9.7,22.4-4.8c2.8,4.7-13,7.7-15.3,9.6c5,1.5,9.8-1.6,14.6-2.5
	c1.1-0.2,3.7-0.8,4.7,0c0.5,1.1,0.9,2.2,1.4,3.3c1.5,0.4,3.1,0.8,4.6,1.2c-1.7,5.5-8.4,3.7-12.1,6.4c-2.7,2-2.4,8.6-0.4,11.3
	c2.2,2.8,6.6,2,9.6,2.9c6.4,2,2,4-0.6,7c4.2,3.9,11.1,1.3,15,5.8c-1.9,0.9-3.7,1.8-5.6,2.7c3.6,1.4,22.5,3.5,10.9,8.6
	c3.4,1.2,10.3,0,12.6,3.3c3.4,4.7-4.1,2.9-5.9,4.7c2.3,1.3,15.2,1.2,14.7,5.8c-0.3,2.4-6.2,2.2-7.8,2.8c2.8,1.9,7.3,0.7,9.8,3
	c2.9,2.8,0.6,4-2.6,4.8c2.7,3.1,13,2.1,13.3,7.2c0.2,2.7-3.9,2.4-1.8,5.8c1.9,3,9,2.4,10.4,5.6c0.2,0.5-0.7,2.6-0.6,3.6
	c0.1,1.4,1.4,2.4,1.5,3.7c0.5,3.7-1,3.9,2.2,7c6.2,5.9,15.4,6.7,21.8,12.4c-2.2,1.1-4.4,2.1-6.6,3.2c5.7,2.4,11.7,4.4,17.3,7.1
	c4.5,2.2,3.7,6.9,7.6,9.1c4.2,2.4,10.7-0.4,13.7,4.6c2.2,3.7-1.5,6.6,2.1,10.2c3.1,3.2,8.3,4.9,11.9,7.6c3.8,2.8,7.6,6.4,12.5,4.8
	c2.3-0.7,5.5-4.6,7.7-2.2c1.8,2,0,8.4-1.7,10.1c-3,3.1-8.2,0.9-11.4,3.6c-2.8,2.4-2.1,6.5-3.9,9.5c-1.3,2.2-7.4,6.3-9.9,3.6
	c-2.3-2.5,2.5-4.8,3.4-7c1.5-3.9-2.1-5-4.7-7.1c-4.5-3.6-7.9-8.4-12.2-12.1c-4-3.5-6-0.4-9.8-1.8c-4.4-1.6-7.5-9.5-9.6-13.2
	c-8.6,9.3-16.5-11.5-19.7-17.4c-1.3,2.7-1.6,5.7-5.2,4.2c-2.4-1-3.9-5.1-5.1-7.2c-1.7-2.8-3.2-5.9-5.1-8.6
	c-3.1-4.3-6.2-4.2-10.6-6.4c0.4,4-3.5,7.9-6.3,4.8c-3.8-4.1-1.6-11.3-4.9-15.9c-0.1,1.5,1,15.2-1.7,14.7c-2.2-0.4-2.2-7.3-2.3-9
	c-0.1-1.6,1.2-9.8-0.4-10.6c-2.5-1.1-2.9,8-3.1,9.5c-5-2.9-3-11.3-4.2-16c-2.7,2.9,0.1,7.2-1.8,10.4c-4.7-5.6-2.2-13.3-3.3-19.9
	c-3.1,4-1.2,9.1-2.8,13.6c-3.7-1.4-3.4-6.6-3.3-9.7c0-1.5,1.4-9.3-0.4-10.2c-1.3-0.6-1.1,12.1-1.1,13c-6.3-3.8-4.4-12.6-5.5-18.7
	c-3.3,5.1,3.1,14.6-2.9,18.4c-2-8.5-2.4-17.3-3.9-25.9c-0.5,2.3-0.3,7.3-2.2,8.9c-3.5,2.8-4.2-2.1-4.4-4.7
	c-0.2-2.9,0.5-17.5-4.2-8.2c-1.6,3.2,0.9,6.5-0.5,9.1c-2.1,3.9-6.2-2.3-7.5-4.2c-2.4-3.6-5.2-7.1-7.4-10.8s-2.5-8.3-6.6-10.5
	c0,2.2-0.1,4.3-0.1,6.5c-1.1-1.1-8.9-14.1-8.4-14.7c-1.6,1.8,1.5,7.6,2,9.3c-5.2-0.1-7.3-9.1-10-12.4c0.6,3.1,1.2,6.2,1.8,9.3
	c-5.2-3.5-6-11-11.8-13.8c0.6,2.4,1.2,4.9,1.8,7.3c-6.2,1.1-5.8-10.3-10.4-12.1c-3.9-1.6-1.3,2.3-0.4,3.9c2.3,4.1,4.7,8.3,7,12.4
	c-4.8-1.2-4.8-8.1-9.8-8.9c0.7,1.9,1.4,3.9,2.1,5.8c-6.5-6.8-10.7-15.4-16.1-23c-0.4,7.4,7.2,12.4,6.9,19.8
	c-6.8-3.7-9-13.8-12.4-20.1c0,3.9,3.5,7.2,2.5,11.2c-4-3-4.7-8.5-8.4-11.7c1.2,2.9,2.5,5.8,3.7,8.7c-3.3-1.3-4.5-5-7.2-7
	c0.7,2,1.4,4,2.2,5.9c-3.9,0.3-3.9-3.2-6.1-5.4c-0.5,0.8-1,1.6-1.5,2.4c-2.2-1.6-2.9-4.1-4.1-6.5c-0.2-0.4-3.4-5.4-3.6-4.8
	c-1,3.1,5.7,14.4,7.9,16.9c4.4,5.2,12.7,1.3,16.7,7.5c-1.9,0.2-11.2-0.3-7.9,2.6c1.2,1,5.5,1.1,6.9,1.5c3.5,0.9,6.5,2.1,8.6,5.2
	c-4.2-0.5-8.2-1.5-12.2-2.8c2.4,3.2,19.5,8.7,13.3,13c-1.4,1-6-0.3-2,2.8c3.2,2.5,5.6-0.1,7.8,4.7c-1.5,0.2-3.1,0.4-4.6,0.6
	c2.1,3.7,7.7,3.1,9.1,7.4c-3-0.4-6.1-0.8-9.1-1.3c2.5,5.1,16.1,3.4,16.7,10.2c0.1,1.4-1.2,1.7-1.2,2c0,1.2,0.7,2.2,1.1,3.7
	c0.5,1.7,0.4,2.4,0.6,4.1c-1,1.3-0.8,2.5,0.6,3.5c0.6,0.6,0.9,1.4,1,2.2c0.2,2.1-0.7,3.2-0.6,5.1c0.1,1.6,0.9,3.6,1.4,5.1
	c0.7,2,1.4,3.5,2.8,5c0.8,0.9,2.7,1.1,3,2.4c0.3,1.3-1.7,2.2-1.8,3.4c-0.1,1.5,1.6,5,2,6.6c1,5.2,3.1,6.7,7.4,9.8
	c-3.1,3.7-7.4,0.2-11.2,1.4c4.7,1.7,9.4,3.3,11.5,8.1c2.4,5.3-0.1,5.1-4.8,5.7c3,2.1,5.9,3.3,6.1,7.1c0.1,1.4-1.1,3.7-1.2,5
	c-0.3,2.6,0.1,5.1,0.7,7.6c-1.6-0.5-3.3-1-4.9-1.4c1,1.1,5.2,4.4,5.3,5.7c0.2,2-2.2,1.9-2.4,3.5c-0.5,3.4,5.2,4.6,5.1,8.3
	c-2.6-0.1-5.1-0.1-7.7-0.2c3.6,4.9,12.9,12.8,1.7,14.2c1.6,3.3,5.1,7.7,3.1,11.5c-2.1-1.2-4.3-2.5-6.4-3.7c1.7,5.2-0.3,9.7-1.6,14.7
	c-1.5,5.6-1.6,11.4-2.1,17.2c-1-0.8-4.3-5.3-5.8-4.8c-2.6,0.9,0.3,5.3,1.1,6.8c0.6,1.1,3.1,3.5,2.7,5c-0.6,2.1-1.4,1-2.3,1.7
	c-0.5,0.5-2.7,3.3-3.3,3.6c-1.8,0.8-1.7-0.2-4-1c-9.2-3.2,0.9,8.3-2.2,11.1c-1,0.9-2.1-1-3-0.5c-3,2-1,3-1.3,5.9
	c-0.5,4.5-2.5,2.4-5.3,0.3c0.6,4.8,0.7,7.9-5.1,6.8c0.1,1.9,0.3,3.9,0.4,5.8c-0.4,0-4.3-0.7-4.6-0.5c-1.1,0.7-0.5,2.4-1.2,2.9
	c-0.9,0.6,0.1,1.1-1.3,1.6c-0.6,0.2-3.7-1.5-4.3-1.8c0.9,2.1,1.9,4.3,2.8,6.4c-7,0.3-10.7,0.6-15.4,5.9c-1.2-2.2-1.6-4.7-4.7-3.8
	c-3.2,1-2.2,5.1-2.2,7.5c-3.3-0.3-4.1,0.4-6,3c-2-2.7-1.2-6.2-1-9.3c-1.5,1.3-4.5,2.7-5.2,4.7c-0.8,2.1,1,5.1,1.4,7.2
	c-4.9-1.2-5.4-7.6-9.9-9.4c0.6,4,1.2,8.1,1.8,12.1c-4.9-1.6-6.2-7.7-10.9-9.5c-1.3,3.7,1.3,7.7-0.6,11.4c-3-0.7-2.6-4.1-4.1-6.1
	c-1.2,1.3-2.4,2.6-3.5,4c-1.5-2.6-3.1-5.1-4.6-7.7c-0.1,0.5-1,5.4-1.4,5.8c-1.5,1.5-0.9,0-2.9,0.2c-3,0.2-4.3-1.2-6.5,1.6
	c-1.7-2.4-2.3-4.1-4.9-4.3c-1.2-0.1-2.7,1.3-4.1,1.3c-2.4-0.1-2.6-2.2-4.7-3c-1.8-0.7-3.3,0-4.9-0.9c-2.1-1.2-2.4-4.6-4.6-5.4
	c-0.7-0.3-2.1,1-2.8,0.7c-1.2-0.5-1-1.1-1.8-1.9c-1.4-1.3-2.8-5.7-4.6-6.5c-4.4-1.9-2.4,6.6-6.6,7.2c-0.3-2.4,0.4-5.8-1.6-7.3
	c-0.6-0.5-2.7-0.5-3.5-0.8c-2.9-1.2-2.7-1.7-4-4.6c-1.6,0.8-4,2.5-6,2c-2.9-0.8-2-3-3.5-4.7c0.1-1.9-0.8-2.5-2.5-1.7
	c-1.2,0.5-2.1,0.1-2.7-1.2c-1.9-1.3-3.4-3.6-5-5.2c-0.9,1-1.8,2-2.8,2.9c-0.7-1.4-1.5-2.8-2.4-4.1c-0.7-1.6-1.9-2.2-3.6-1.8
	c-1.3-1.4-1.1-4.9-3-5.9c-2.2-1.2-2.9,1.2-5.1-1.8c-2.6-3.6-4-7.2-7.3-10.5c-4.2-4.2-9.1-7.6-13.4-11.8c-1,1.9-2,3.8-3,5.7
	c-4.5-4.3-2-11-4.5-16.1c-0.4,2.1,0.1,6.8-1.5,8.4c-2.8,2.8-3.8-1.2-4.3-3.5c-0.6-2.2-0.4-9.2-2.5-10.3c-2.9-1.5-2.3,2.9-2.9,5.2
	c-3.2-3-3.5-7.2-3.8-11.3c-3.8,0.6-4.5-0.8-6.3-4c-2-3.5-3.2-5.7-6.4-8.4c-7.8-6.7-15.7-13.1-23.7-19.6c2.7,8.7,16.5,13.6,15.1,23.8
	c-5.9-2-7.4-9.4-13.3-11.4c3.1,7,9,12.2,12.5,18.9c-5.7,0.7-6.9-6-11.5-7.8c-2.7,7.2,9.4,10.5,10.1,16.7c0.8,6.9-7.2-1.6-9.2-3.6
	c-2,8.8,12.4,12.3,9.5,21c-2.8-2.9-5.7-5.7-8.5-8.6c1.9,2.9,10.7,11.8,8.1,15.6c-1-1-4.8-6.3-6.3-6c0.7-0.1,3.4,7.5,3.5,8.8
	c0.4,5,0.6,7.3,3.6,11.7c5.1,7.4,11.1,14.4,15.2,22.5c0.9,1.9,3.6,6.3,0.1,6.9c-2.6,0.5-6.2-5-7.6-6.7c-5.5-6.7-10.3-17.2-19.7-18.9
	c1.2,1,2.3,2.1,3.5,3.1c-0.6,1.2-1.2,2.4-1.9,3.6c0.1,1.5,1.8,3.3,2.8,4.2c2.1,1.9,5.3,2.1,5,5.5c-0.4,4.4-3.3,2.7,1.6,6.4
	c4.7,3.5,3.1,4.5-1.5,5.9c0.9,3.4,13.9,8.1,8,10.7c-2.2,1-4-1.7-1.9,1.6c1.3,2.1,4.5,3.6,6.3,5.3c-5.4,6.3,6.7,7.8-0.9,14
	c3.6,3.4,8,5.8,10.1,10.5c-2-0.4-3.9-0.9-5.9-1.3c-0.1,7.7,11.5,9.3,15.2,14.5c-2.9,1.8-5.6-0.2-8.4-1c1.7,3.3,12.3,6.8,8.1,10.6
	c-1.5,1.4-3.5-0.1-4.2,2.9c-0.5,2.2,1.6,4.6,2.8,6.3c1.5,2.1,3.4,3.9,4.7,6.1c1.8,3.2,0.2,4,0.4,7.2c0.4,6.5,8.5,9,8.1,16.3
	c-0.1,3.1-0.8,4,1.6,6.9c2,2.4,4.1,4,5.3,7c0.5,0.8,0.8,1.7,0.9,2.6c0.5,0.9,0.1,1.5-1.2,1.6c-0.5,0.3-0.9,0.6-1.4,0.9
	c0.3,0.8,0.7,1.6,1,2.5c0.8,3.4,2.5,6.9,3.7,10.2c2,5.8,4.7,15.6,10.2,19.2c3.6,2.3,14.5-0.7,8.5,6.7c1.3,1.3,4.2,2.3,3.2,4.5
	c-0.9,1.9-3.9,1.2-5.6,0.9c-5.4-0.9-9.7-4.1-15.1-1.5c-5.4,2.6-14.3,13.9-19.4,4.8c4.6-2.3,10.9-4.4,9.3-10.3
	c-1.8-6.7-4.5-12.4-5.1-19.4c-0.4-4.3,0.6-11.1-3-14c-1.8-1.5-3.3-0.3-4.8-3.2c-1.1-2.2-0.8-4.7-1.2-7c-1-5.1-5.2-7.7-6.1-12.9
	c-0.5-3-0.2-5.7-0.5-8.6c-0.3-3.6-0.9-2.9-3.1-5c-4.9-4.7-1.6-9.1-4.2-14.9c-0.9-2.1-3-3.8-4.9-4.9c-3.1-1.9-3.6-2.4-6.2,0.6
	c-1.4-4.2,2.1-9.1-1.1-12.8c-1.6,4.9-0.9,10.6-4.1,15c-1.7-3.3,0-7.5,0.3-10.9c0.3-4.3,0.1-8.8-0.2-13.1c-3.5,3.3-3.7,8.4-6,12.3
	c-2.1-3-1-5.6-0.2-8.8c1.1-4.2,1.8-8.4,1-12.7c-1.5,4.3-2.9,8.6-4.4,12.8c-3.7-8.1,2.3-16,2.8-24c-3.4,0.9-2.9,6.1-6.7,6.4
	c-0.8-5.7,4.9-12.7,0.9-17.9c-2.4,0.8-3.5,7.3-6.3,3.6c-2.3-3,2.9-8.5,2.4-11.9c-4.3,1.4-4.7,6.7-5.8,10.4c-6.5-4,1.2-15.6,3.4-20
	c-4.1-0.4-5.5,3.8-9.1,4.7c-0.9-5,3.8-9.3,2.5-14.3c-1.9,2-3.8,3.9-5.7,5.9c-1.1-5.4,5.7-12.2,1.6-17.2c-1.4-1.7-2.3-1.3-4.4-1.7
	c-3.7-0.7-6-1.9-8.7-4.7c-1.4,2.5-6.6,16.1-8.9,9.3c-1.9-5.5,4.3-12.5,6.5-17c-7.9,2.1-8.5,11.7-14.7,15.9c-0.9-6,2.5-11.2,6.3-15.5
	c3.3-3.7,7.8-6.3,6.5-11.9c-5.3,4.6-9.8,9.9-13.7,15.7c-1.6-6.4,2.1-10.6,6.2-15c5.4-5.7-0.4-3-4.2-1.3c-1.5-5,6.7-7.8,9.2-10.8
	c-6-0.7-8.8,10-15.8,8.9c4.6-8.3,12.5-14,18-21.7c-5.9,1.2-9.8,8.9-15.5,9.4c-6.7,0.6,2.1-9.1,3.9-10.8c1.5-1.4,10.4-6.9,9.5-9.9
	c-1.6-5-10.6,4.4-12.2,5.3c-4.4,2.3-5.6,0.4-2.9-3.1c2.1-2.6,4.7-4.6,7.4-6.4c1.6-1.1,8.5-4.7,5.9-7.2c-2.8-2.7-10.3,4.2-12.8,5.2
	c1.8-7.3,9.8-8.6,14.2-13.7c-3.4-2.9-5.9-1.5-9.4-0.5c-2.4,0.7-4.5,1.8-3.7-1.7c1.4-5.9,12.2-3.4,13.8-9.8
	c-3.7,0.2-10.7,5.4-13.7,1.3c3.3-3.1,13.9-4.7,15.2-9.4c1.5-5.6-5.3-2.5-7.7-2.1c-3.8,0.6-5-1.3-2-4.3c3.1-3.1,8.4-3.7,12-6.1
	c-2.3-0.7-10.8,5.1-11.7,0.5c-0.5-2.8,5.9-4.9,7.9-5.8c2.3-1.1,9-4.5,2.5-3.8c-1.9,0.2-3.3,2.3-5.1,2.6c-3.4,0.5-4.4-2.7-6-5.2
	c-4,3.5-0.6,8.7-2.4,12.9c-1.3-0.6-2.6-1.3-3.9-1.9c-0.2,3.1-0.4,6.1-0.6,9.2c-1.3-0.7-2.7-1.4-4-2.1c-1.8,2.8,1.9,7.4,0.3,9.8
	c-2.4,3.7-3.2-2.7-4.8-3.6c-3.2,2.1,2.4,10.9-1,10.8c-2.4-0.1-5-8.2-5.8-3.3c-0.5,2.9,6.5,11.5,2.9,13.3c-3.5,1.8-6.8-7.8-7.8-10
	c-4.1,7.4,5.3,14.1,4.4,20.7c-1.8-0.3-3.6-0.7-5.4-1c1.3,3.4,5.7,5.6,4.1,9.8c-1.3-0.6-2.6-1.1-3.9-1.7c0.1,4.5,5.9,5.8,4.8,10.9
	c-2.1-1.3-4.2-2.6-6.4-3.8c-0.6,5.5,6.1,8.6,5.5,14.1c-2.1-1.5-4.1-3-6.2-4.5c-1.2,5.1,5,8.7,3.7,13.8c-1.4-0.9-2.9-1.8-4.3-2.7
	c-1.3,1.2,3.9,7.7,4.7,9c-3,1.7-4.2-1.7-6.8-2.5c0.4,3,6.4,5.6,5.2,8.8c-0.9,2.5-4.6-0.2-6.5-0.6c2.3,3.7,5.3,7.1,4.4,11.8
	c-3-1.4-8-3.5-10.2,0.2c-1.5,2.6,0.7,6.6,0.9,9.3c0.3,3.5-1.2,6.6-1.3,10c-0.1,4,1.7,7.9,2.6,11.7c-10.5,1.5-1.1,10.2-1.6,16.9
	c-2-0.8-3.9-1.6-5.9-2.4c1.1,6.7,2,13.5,2.3,20.3c0.2,4.5-1.3,10.4-0.6,14.8c1.1,6.6,5.9,1.8,9.4,4.6c1.4,1.1,2.6,6.3,1.6,7.6
	c-1.1,1.7-5.4,0.6-7.3,0.1c-5.2-1.4-9-3.5-14.6-3.5c-4.6,0-23.2,1.6-19.3-7.8c3.2-7.7,12.3,4.6,14.1-4.3c0.6-3.1,0.4-6.5,0.7-9.7
	c0.5-5.8,2.3-11.8,2.2-17.6c-0.1-4.8-5.5-4.9-4.3-9.6c0.7-2.8,6.3-6.7,6.1-9.6c-0.2-2.6-3.5-2.2-3.7-5.4c-0.2-3.3,3.1-7.7,4.2-10.8
	c-8.4-1-3.6-6.2-0.2-11.2c0.8-1.1,2.7-3.2,2-4.6c-1.5-2.8-4.5,1.7-6.4,1.2c0.5-4.6,4.2-9.3-2-11.5c0.5-0.9,1.5-2,1.6-3.1
	c0.1-1.2-1-1.4-1.1-2.4c-0.3-2.6,1.5-5.5,0.9-7.9c-0.5-2.1-2-1.6-1.3-4.2c0.5-2.2,3.4-4.4,4.6-6.2c-5.9-1.9-1.6-6.7-0.2-10.4
	c-1.6,0.3-3.1,0.6-4.7,0.9c0-5.8,9.2-12.4,7.4-17.2c-1.6,1.1-3.1,2.3-4.7,3.4c-3.3-5.2,3-7.4,5.3-11c2.2-3.5,0.6-2.8-3.3-2.2
	c0-5.8,6.1-9,6.8-14.5c-4-1.7-6.7,3.9-9.7,5.4c-0.9-4.9,4.1-7.3,5.8-11.2c-3.9,2.8-6.6,4.7-11.1,1.8c3.7-5.3,10.7-7.3,14.1-12.9
	c-2.3,0.2-8.6,6.8-9.5,3.1c-1.1-4.2,12.1-12.4,14.4-15.5c-6,0.4-10.5,5.3-16.5,5.9c1.4-5.9,9.5-5.7,10.7-10.7c0.3-1-1.4-1.4-1-2.4
	c0.4-1.3,1.4-2.2,2.2-3.2c2.5-2.8,6.1-4.5,8.3-7.7c-4,2.4-8,4.8-11.9,7.2c2.5-8.2,11.3-10.9,17.2-16c-3.9-0.9-6.2,3.2-9.9,3.2
	c2.3-8.4,12.9-7.3,15.4-14.4c-3.4,1-6.8,1.9-10.2,2.9c1.3-6.4,9.5-8.7,14.4-11.5c-1.7,0.3-3.5,0.6-5.2,0.9c-0.8-4,5.8-4.2,7.4-6.8
	c1-1.6,0.4-3.9,1.2-5.6c1.2-2.7,4-4.6,5.9-6.8c-3-2-6.3-2.9-7.8-6.5c-1.4-3.4-1.1-9.7-6.7-7.6c-3.5,1.3-6.7,6.6-8.9,9.4
	c-3.7,4.6-7.2,9.5-10.5,14.4c-6.1,9.1-11.5,18.5-16.8,28.1c-5,8.9-9,17.5-16.1,25.1c-14.5,15.5-31.5,25-51.6,31.4
	c-19.2,6.1-40,14.4-60.4,14.8c-9.6,0.2-20-1.5-26.9-8.8s-9.2-17.5-14-26c-16.5,10.2-32.6,21.3-52.8,21c-22.1-0.4-44.2-3.2-65.4-9.6
	c-10.4-3.2-20.4-7-30.5-11c-8.4-3.3-16.5-6.7-23.2-13c-6.2-6-12.6-13.9-12.9-22.9c-0.3-9.7,5.3-18.8,11.4-25.9
	c23.1-26.9,59.8-35.8,92.9-43.7c43.8-10.5,87.9-19.7,132-28.8c25.7-5.3,51.5-10.4,77.1-16.1c12-2.7,24.2-5.4,36.4-7.3
	c6.1-1,24.3-3.5,13.1-11.9c0.7-0.9,1.5-1.8,2.3-2.6c-2.6-1.5-5.7-5-8.5-5.8c-1.9-0.5-6,2.1-7.4,1.2c-2.2-1.5,0-3-3.1-3.7
	c-2.3-0.5-6.3,2.1-8.5,2.8c1.9-10.8-6.5-2.8-12.6-3.7c-5.1-0.8,1.5-3.5,2.7-6.2c-4.6,1.6-9.4,2.7-14.3,3.3c0.2-4.4,4.6-4.6,7.4-6.7
	c-4.9-2.1-14.2,0.9-19.6,1.4c1.2-4,6.1-4.7,9.4-5.9c-5.6-4.1-11.5,4.3-18.3,0.5c1.2-3.5,7.3-4.2,8.3-7.7c1.6-5.5-10.1-3.9-13.2-4.7
	c-14.7-3.7-28.7-9-43.1-13.8c-2.7-0.9-4.8-2.9-7.6-3.7c-4.1-1.1-7.3-0.3-11.3-2.5c-7-3.8-14.1-5.3-21.7-7.5
	c-3.2-0.9-4.8-1.4-7.8-0.1c-2.9,1.2-5.5,3.5-9,2.9s-2.4-2.3-3.7-4.1c-2-2.6-3.8-2.5-4.2-6.3c6.1,0.4,10.1,0.8,13.5-4.9
	c1.1-1.9,1.9-3.4,1.2-5.6c-0.8-2.7-4.7-5.1-2.4-8.4c-0.8,1.1,4.9-1.5,3.6-1.3c5.1-1,5.4,4.8,7.1,8.8c2.6,6.1,9.7,7.4,15.1,10.6
	c2.4,1.4,5.8,4.1,8.7,4c2.5-0.1,4-2.7,6.6-2.5c2,0.1,4.9,3.1,6.7,4.1c3.7,2.3,3.1,2.2,6.2-0.1c1-0.7-0.1-1.2,2.6-1.2
	c3,0,7.1,2.5,10,3.4c3.3,1,6.6,2,10.1,2.2c1.5,0.1,3.2-0.3,4.7,0c0.6-0.1,1.2-0.1,1.8-0.2c0.7,0.8,1.2,1.6,1.5,2.6
	c0,0.6,0.2,0.9,0.7,1c0.6,0.4,1.1,0.3,1.6-0.5c0.3,0.1,2-0.5,2.8-0.3c2.6,0.5,5.2,3.1,7.8,4c5.1,1.7,12,1.6,15,7
	c4.1-2.7-0.9-6.1,1.4-9c2.7-3.4,4.9,2,7,3.4c0.8-2,1.4-7.3,4-5.5c1.4,1,1.3,6.3,1.9,8c2.7-1.2,2-10.8,6-7.3c2.2,2,0.8,7.9,1.9,10.5
	c2.3-2.2,1-6.3,4.9-7c0.4,2.4,0,10,4.5,9.1c2.8-0.5,2.6-5.9,3-7.9c5.2,0.9,2.6,8.3,6.4,10.8c0.3-2,0.3-8,3.8-6
	c2.1,1.2,0.4,7.5,0.3,9.3c2.7-2,1.8-5.8,3.9-8.1c3.2,3.1-0.2,8.4,3.2,11.5c1.8-5.1,2-12,9.2-11.2c-1.1-3.7-0.9-5.3,1.4-8.5
	c-1.5-0.5-8.1-1.3-8.4-3.1c-0.4-2.5,5.1-3,6.8-4.1c-4.3-1.5-9.1,1.5-12.7-2.4c2-1,4-2,6.1-2.9c-2.3-1-2.9-1.2-3.8-3.2
	c-0.6-1.3,0.7-1.9-0.3-3c-0.6-0.7-2.7-0.5-3.6-1.2c-2.6-2.1-1.5-3.5-1.3-5.8c0.3-2.9,0.7-3.8-0.6-6.8c-2.9-6.5-5.3-10.9-4.3-18.3
	c0.8-6.1,2.9-11.8,8.5-15c-3.2-2.3-7.9,1.7-8.6-3.2c-0.1-1.1,1.8-1.8,1.3-3.5c-0.3-1.2-2.5-2.4-3.4-3.3c2.2-0.7,4.3-1.3,6.5-2
	c-2.1-1.2-6.4-2.2-4.3-4.8c1.2-1.4,6.6-1.1,8.5-1.4c-1.1-1.7-13.8-6-11.1-8.6c1.8-1.7,9.1,1.5,11.2,1.9c-0.9-4.7-7.8-3.5-9-8
	c2.6-0.1,5.2-0.2,7.8-0.3c-6.9-5.9-18.1-4.6-26.5-4.1c-12.2,0.6-24.3,1.3-36.4,3c-26.2,3.5-51.8,9.4-77.2,16.6c-6,1.7-12,3.7-18,5.2
	c-4,1-7.5,1.6-5.8-3.7c2.3-7.5,12.1-10.9,18.7-13.2c22.5-7.9,46.3-12.1,69.6-16.7c14.4-2.8,28.9-5.1,43.6-5.6
	c14.4-0.5,28,2.4,41.8,6.3c1.6-4.1-3-6.6-4.7-9.6c3.9-1.1,7,2,10,4c-0.7-1.8-4.4-6.3-2.9-8.2c2.8-3.5,6.4,4.9,7.4,6.1
	c2.1-3.3-2.2-6.9,0.4-10.1c2.1,2.3,4.2,4.7,6.3,7C430.1,372.9,429.4,369.9,428.8,366.9z M699.7,541.5c-3.6,1.4-11.6,0.6-13.7,4.1
	c5.4,0,8,0.1,12.6,2.4c1.4,0.7-0.2,1.4,2.4,1c1.9-0.3,3.3-2.5,4.1-4c1-1.7,2-7.2,5-6.3c3.3,1.1-0.5,6.7-0.2,8.8
	c2.6-3.3,5.7-5.7,3.6-10c-0.9-1.9-3.3-3.3-4.5-5.1c-1-1.5-1.5-3.3-2.6-4.7s-3.7-4.6-5.3-2.5c-2,2.7,4.1,8.4,4.4,10.8
	c-5.5-0.2-11.2-0.3-16.1,2.6C692.8,540.1,696.9,538.5,699.7,541.5z M726.2,534.6c-1.9,5-8.3,6.9-8.5,12.7c5.6-1.4,8.7-6.8,13.4-9.8
	c2.6,4.1-1.7,7.1-3.1,10.6c3.1-1.4,7-3.8,8.5-6.9c1.6-3.3,0.2-4.8-1.8-7.7C732.6,536.5,729.1,534.7,726.2,534.6z M525.7,745.6
	c4.5,3.5,7.9,8.8,13.8,10c-0.3-4.6-2.8-6.3-5.1-10.1c-2.5-4.1-3.4-8.4-3.4-13.2c-2,3.6-3.9,7.8-1.5,11.8
	C528.2,744.6,527,745.1,525.7,745.6z M487.7,697.4c-1-3.6,0.1-8.2-3.2-10.9c-4.3,4-1.4,14.8,4.1,16.3c1.8,0.5,6.8-0.4,6.6-3.1
	C495,697.3,489.1,697.7,487.7,697.4z M498.2,680.3c-2-1.5-5.3-6-8.3-4.7c-2.7,1.2-2.4,4.9-0.8,6.9
	C491.5,685.7,501.2,685.9,498.2,680.3z M479.5,699.7c-1.6,3.5-3.4,10.4,0.5,13.2c3.3,2.4,7.6-1.4,10-4.2
	C482.8,708.4,482.3,705.8,479.5,699.7z M758.2,539.8c-1.4-1-14.1-12.7-14.4-11.6c-0.4,1.5,3.9,4.3,4.8,5.4c2.3,2.9,4,6.3,4,10.1
	C754.5,542.4,756.3,541.1,758.2,539.8z"/>
</svg>
