<?xml version="1.0" encoding="utf-8"?>
<!-- Generator: Adobe Illustrator 22.0.1, SVG Export Plug-In . SVG Version: 6.00 Build 0)  -->
<svg version="1.1" id="Animal" xmlns="http://www.w3.org/2000/svg" xmlns:xlink="http://www.w3.org/1999/xlink" x="0px" y="0px"
	 viewBox="0 0 1080 1080" style="enable-background:new 0 0 1080 1080;" xml:space="preserve">
<style type="text/css">
	.st0{fill:#77395E;}
</style>
<g>
	<path class="st0" d="M462,506.7c8.5-19.6,23.4-34.2,37.3-50.1c2.6-2.9,5.2-6.1,6.2-10c1.4-5.2-0.5-10.5-0.7-15.7
		c-0.1-5.6,0.7-11.1,1.8-16.6c1-5.3,4-11,4.2-16.2c0.1-2-0.6-3.9-0.3-6c0.3-2.5,1.7-4.7,1.8-7.4c0.2-5.2-2.2-9.8-1.5-15.1
		c0.6-4.9,3.3-9.3,4.8-13.9c1.7-5.4,2-8.1-0.9-12.9c-2.5-4.2-4.7-8.1-3.9-13.2c0.3-2.2,1.8-4.1,2.1-6.3c0.4-2.9-0.7-4.3-1.6-7.1
		c-1.6-4.8-0.3-7.7,1.3-12.1c1.7-4.4-0.5-10.5,1.6-14.6c1.1-2.1,2.4-1.7,3.9-3.1c1.4-1.3,1.9-3.6,2.5-5.5c1.1-3.1,1.6-5.5,4.5-7.2
		c2.2-1.3,3-0.9,4.5-3.3c2.8-4.4,3.9-9,8.1-12.7c1.9-1.7,3.5-2.7,5.1-4.7c1.4-1.9,2.1-4.2,3.6-6.1c1,3.1-0.8,6,1.2,8.9
		c2.5,3.6,7.2,2.7,10.5,4.9c-3.5,0.9-7.8,1.3-10.9,3.2c-3.3,2-6.8,5.2-9.9,7.5c-4.1,3.1-4,3.9-4.1,8.6c-0.1,4.9-3.6,4.5-6.1,7.9
		c-0.5,0.3-1,0.6-1.5,0.9c0.8,1.3,1.2,2.8,1.2,4.3c0,2.2-0.9,3.8-1.9,5.8c-2.5,4.8-0.6,4,1,8.8c1.4,4.3-1.6,7.4-1.5,11.4
		c0.1,4.3,4.3,5.6,5.4,9.5c2.1,8.4-5.5,16.3-2.1,24.8c0.4,0.2,0.8,0.4,1.2,0.5c0.2,1.2,0.5,2.5,0.7,3.7c0.4,1.8,1,3.5,1.5,5.4
		c1.1,4.3,1.3,8.9-0.2,13.1c-2.8,7.7-10.3,13.8-9.2,22.9c0.5,4.5,3,9.4,4,13.9c1.1,5.2,0.9,10.5,2.2,15.6c13.7-6,25.5-10.9,40.3-4.5
		c6.6,2.7,12.1,7.3,18.3,10.5c6,3.1,9.7-4,13.8-8.1c4.2-3.9,10.3-6.9,14-11.1c3.5-4,3.9-9.5,8.4-13.1c9.9-8.3,19.7-0.6,29.2,3.6
		c-3.8-26-7.6-50.8-5.2-77.1c1.1-12.9,2.3-26.1,4.5-38.9c2.1-12.4,6.4-24.5,9-36.9c5.6-25.6,9-51.8,11.4-77.8
		c1.3-13.7,1.6-27.7-0.1-41.3c-0.8-6.7-2.3-13.1-4.3-19.5c-1.9-6.2-5-12.4-5.9-18.9c4.6,2.6,6.7,9.7,8.5,14.4
		c2.5,6.7,4.3,13.5,5.6,20.6c2.3,13.2,2.2,26.8,1,40.1c-2.5,28.8-6.7,57.3-12.5,85.5c-5.9,28.3-11.9,55.7-11.5,84.6
		c0.2,14.4,0.3,28.5,2.9,42.7c0.8,4.3,1.2,28.3,12.1,21.2c4.2-2.7,4.3-14,6.7-18.5c2.5-4.9,6.8-8.7,11.5-11.5
		c3.8-2.3,11.8-7.6,16.4-5.9c7.6,2.9,0.7,9.4-2.8,11.9c4.9,1.1,10.2,1.6,14.8,3.7c3.2,1.5,10.9,5.4,12.6,8.6
		c4.2,7.9-19.4-0.5-23,1.1c2.1,2.7,5.2,5.4,2.2,7.5c-2.4,1.8-7.4,0.9-10.2,1c0.1,3.5,3.4,3.1,5.8,4.6c3.1,2,4.3,6,6.4,8.9
		c1.8,2.6,4.9,4.9,5.9,8.2c0.9,3.1-1.3,6.6,2.8,7.9c1.4-4.3,2.4-7.3,5.5-10.8c1.9,1.9,3.8,5.9,6.2,4.2c1.8-1.2,1.2-4.9,1.2-6.6
		c0-6.6,0.1-9.8,4.4-14.8c7.1,10.6,5.6,20.3,4.3,32.3c2.9-2.9,8.1-6.6,11.4-1.7c3.8,5.6-6.2,11.7-9.6,14.7
		c-4.9,4.2-9.8,7.4-16.4,8.2c-2.9,0.3-6,0.2-8.9,0c-2.1-0.1-6.9-1.6-8.8-0.8c-2.3,1-3.4,6-2.4,8.6c1.5,4.3,8.9,6.2,12.7,8.1
		c12.3,6.3,24.4,12.3,38,15.4c29.1,6.6,60.3,8.2,89.9,4.3c29.8-3.8,59.4-9.4,89.5-10.8c15.7-0.7,31.4,0,46.8,3.2
		c7.2,1.5,14.2,3.5,21,6.3c5.5,2.1,15.4,4.9,18.2,10.4c-12.9-2.9-24.7-9.3-37.9-11.9c-14-2.8-28.3-4.3-42.5-3.8
		c-28.2,0.9-55.7,6.8-83.5,10.3c-27.7,3.5-55.7,4.6-83.4,1.2c-12.9-1.6-26.4-3.6-38.3-9c-12.1-5.5-23.8-10.9-35.2-17.6
		c1,10.2,4.6,20.4-4.9,28.1c-4.9,3.9-9.4,2.6-14.9,3.9c-3.4,0.8-6.4,3.9-9.3,5.7c-3,1.8-6.4,3.4-9.6,4.9c-5.5,2.6-11,3.2-10,10.1
		c1.2,7.9,3.4,15.7,3.4,23.7c-0.1,15.6-10.2,24.6-20.6,34.6c4.5,3.1,9.1,6.2,13.4,9.5c3.3,2.5,5.9,2.9,10.1,3.4
		c9,1.1,16.8-4.2,25.8-0.6c3.7,1.5,7.5,4.2,10.8,6.3c0.7,0.2,1.4,0.4,2.1,0.6c0.1,1.1,0.5,2.2,1.2,3.1c1,1,2,1.5,3.3,2.1
		c6.8,2.9,17.7-1.2,22.4,5.8c1.8,2.6,1.5,5,5.1,6.1c3.3,0.9,6.9-0.4,10.1,1.5c1.7,1,1.8,2,3.2,3.2c2.1,1.9,0.6,2,4.2,1.6
		c1.8-0.2,3.7-0.9,5.6-0.7c1.2,0.1,4.7,2.7,5.2,2.7c4-0.1,5.7-5.6,10.8-4.3c2.1,0.5,2.5,1.9,5.2,1.6c2-0.2,4.5-2.1,6.1-3.1
		c3.1-1.9,7-4,9.7-6.5s4.5-6.8,6.5-9.9c1,3.8-2,7.3-0.3,11c1.4,3.2,4.8,5.3,8.3,4.8c-1.1,2.4-6,2.2-8.5,3.2c-4.4,1.7-7.5,4.2-12.2,5
		c-3.8,0.6-7.3,0.5-10.5,2.8c-1.6,1.1-1.6,2.1-3.6,2.8c-2.4,0.8-4.8,0-7.2,0c-3.9,0-3.9,2.6-7.3,3.5c-3.5,1-8.1-2.6-11.5-3.1
		c-3.9-0.7-7.6,1.4-11.5-0.2c-3.6-1.4-5.7-6-9.5-6.8c-4-0.9-7.2,1.5-11.2-0.7c-3.7-2-5.7-5.5-8.4-8.6c-6.3-7.2-18.9-2.3-27.4-4.9
		c-4.4-1.3-8.2-4.3-12.5-5.7c-2.1-0.6-3.8-0.3-6.1-0.5c-2.3-0.2-3.2-1-5.3-1.7c-3.9-1.4-8.7-0.7-12.7-1.1
		c-5.7-0.6-11.3-1.5-16.8-3.1c-4.2-1.2-8.4-3.6-12.8-4.1c-5.1-0.6-9.3,2-13.7,3.9c-9.5,4-19.4,7.7-29.2,10.8c-4.8,1.5-9.8,3-14.9,3
		c-2.5,0-7-1.5-8.4,1.4c-1.2,2.6,2.1,9,2.6,11.6c1,5.6,1.2,11.1,0.6,16.8c-0.7,5.8-2.3,11.1-4.3,16.6c-1.2,3.3-2,4.5,0.5,7.2
		c6.5,6.6,15.4,9,21.2,16.7c2.8,3.7,4.5,7.8,6.1,12.1c1.6,4.8,1,9.8,2.5,14.5c3,9.5,11.5,14.4,9.2,25.6c-1.2,5.8-2,7.4,2.2,11.9
		c3.5,3.7,5.7,6.5,4.3,11.8c-1.3,5.4-0.3,7.2,1.6,12.2c0.8,2.1,1.4,4.4,1,6.7c-0.4,2.3-2.4,3.6-2.9,5.9c-1.1,4.2,2.8,8.8,2.1,13.4
		c-0.5,3.3-0.9,2.7,0.8,6c1.5,2.8,1.2,4.8,2.2,7.8c1.5,4.5,7.3,7.1,11.1,9.5c5.7,3.6,10.6,3.4,16.7,5.8c-4.4,1.4-11.8,1.7-12.8,7.4
		c-0.5,3.1,3.1,10.2-1.7,3.3c-2.7-3.8-5.7-5.6-9.1-8.5c-3.6-3.1-4.8-6.7-7.2-10.7c-2.7-4.8-8-4.5-8.8-10.5c-0.2-1.3,0.4-3.5-0.1-4.8
		c-0.9-2.2-2.5-2.2-3.6-4c-2.5-4.2,1.5-9.2,0.5-13.5c-0.6-2.8-2.9-4.6-3.3-7.5c-0.4-2.3,0.5-4.4,1.1-6.5c0.5-1.6,1.7-3.3,1.5-5.2
		c-0.3-2.5-2.3-2.9-3.3-4.9c-2.2-4.3-0.6-9-1-13.4c-0.2-2.2-0.2-2.2-1.5-3.6c-0.4,0-0.7-0.1-1.1-0.1c-1.6,0.6-2.5,0-2.7-2
		c-3.3-4.1-3.9-11.9-3.9-17c0-11.8-1.9-16.9-12.3-22.7c-8.9-5-14.5-13.9-20.8-21.7c-18.8,20-38.6,38.6-59.3,56.7
		c-10.7,9.4-21.7,18.4-33.3,26.8c-5.3,3.8-10.6,7.6-15.9,11.3c-6.7,4.7-6.7,7.1-5.2,14.8c2.7,13.5,6.1,27.5,5.2,41.4
		c-0.5,6.6-2.4,12.5-4,18.9c-0.7,2.6-1.6,5.6-1.2,8.2c0.5,3.4,3,5.9,3,9.7c0,5.9-3.8,10.7-4,16.4c-0.2,5.6,4.9,10.3,3.7,15.8
		c-0.5,2.4-2.5,3.7-3.5,5.8c-1.3,2.6-1.1,4.5-1.1,7.5c0,2.1,0.3,4.3-0.6,6.4c-1.4,3.2-3.7,3-6.1,5c-4.1,3.7-1.9,10.7-6.5,14.6
		c-2,1.7-2.7,0.7-4.2,3.7c-1.3,2.8-1.9,5.5-4.8,7.1c-2.3,1.3-5.3,0.9-7.6,2.3c-2.5,1.5-5.1,5.2-6.6,7.6c-4,6.9-4.3,13.9-6.6,21.3
		c-2.8-4.2-1.8-11.1-8.7-11.5c-2.1-0.1-4.2,1.8-6.2,1.6c-3-0.3,2.4-3.3,3.7-4.4c4.1-3.6,6.3-8.7,10.1-12.5c3.8-3.8,9.8-4.7,12.7-9.5
		c2.2-3.7,6-7.2,7.1-10.9c0.7-2.5,0.9-4.4,2.5-6.7c1.7-2.3,4.2-3.7,4.9-6.7c0.5-2.2-0.6-4.5-0.2-6.9c0.5-2.8,2.3-4.4,3.9-6.6
		c3.5-4.8-0.1-9.7,2.3-15.2c0.9-2,3-4.2,2.8-6.7c-0.2-2.1-2.7-4.6-3.7-6.4c-2.9-5-4.7-10.8-3.2-16.7c1.3-5,6.2-7.6,5.3-13.2
		c-0.5-3-2.6-6.1-3.6-8.9c-1.3-3.5-2.1-7.2-2.6-10.9c-0.8-6.2-0.7-12.5-0.3-18.7c0.2-2.7,2.6-19.5,1.1-20c-2.9-1-12.5,7.3-15.4,9.1
		c-6.2,3.8-12.4,7.6-18.9,11.1C316,839.6,262.2,851,210.8,831.8c-11.9-4.4-23.6-10.3-34.1-17.6c-3.9-2.7-9.2-5.8-11.1-10.3
		c-1.2-2.8-1.1-4.5-3.3-6.9c-1.7-1.7-3.7-2.6-5.1-4.7c-3.2-5.3-4.2-13.2-5.5-19.2c-1.3-6.7-2.2-13.4-2.6-20.2
		c-0.8-13.1-0.2-26.5,2.2-39.5c4.7-26.1,16.7-50.1,32.6-71.1c8.9-11.7,18.8-22.7,29.8-32.4c10.8-9.6,22.7-18,33.2-28
		c-9.4-2.6-18.6-5.7-27.7-9.1c-4.4-1.6-8.9-3.1-12.7-6c-3.5-2.6-6.2-6.1-9.9-8.4c-1.5-0.9-3.9-2.6-5.9-2.6c-2.5,0-4.6,2.1-7.5,2.3
		c-4.2,0.4-8.2-2-11.4-4.5c-3.2-2.5-4.6-6.5-7.6-8.9c-3.7-3.1-8.4-0.2-12.6-0.9c-3.8-0.6-6-3.8-10.2-3.3c-4.2,0.6-6.9,3-11.3,1.3
		c-4.9-1.9-5.3-2.3-10.3-0.2c-4.5,1.9-7,0-11.4,0.3c-8.5,0.6-15.3,7.2-22,11.2c-4.1,2.5-8.1,2.5-12.4,4c-3.7,1.3-7.1,4.1-10.3,6.5
		c1-3.9,4.9-6.5,4.3-10.8c-0.8-5.3-6.2-5.9-9.6-8.7c5.4-1.8,10.6,2.2,16.2,1.3c5.2-0.8,12.6-0.9,17.2-4c4.2-2.9,3.5-8.1,9.4-8.7
		c1.8-0.2,3.8,0.7,5.6,0.2c2.7-0.8,3.1-3.4,5.8-4.3c5.4-1.8,9.6,3.1,14.6,0c5.1-3.2,7-3.6,12.8-1.1c3.3,1.4,4.5,1.7,8.1,0.7
		c2.7-0.8,4-1.9,7-0.5c5.4,2.5,7.6,7.8,14,8.7c5.3,0.8,10.3-0.5,15.4,1.6c2.2,0.9,3.8,2.2,5.6,3.8c3.1,2.8,4.7,3,9.1,3.6
		c13.5,1.7,25.4,4,37.5,10.7c6.2,3.3,12,7.1,18.1,10.6c2.6,1.5,5.5,4,8.7,3.4c3.1-0.5,7.2-4.7,9.7-6.5c11.9-8.6,24.2-16.5,36.9-23.8
		c27.9-16.3,56.2-31.6,86.3-43.5c-5.5-9-11.5-17.2-13.5-27.7c-1.6-8.4-4.2-13.9-12.4-17.4c-4.4-1.9-9.1-3.1-13.3-5.7
		c-2.1-1.3-4.5-3-5.9-5.2c-0.5-0.6-1-1.1-1.6-1.7c0.4-0.8,0.6-1.7,0.8-2.6c-2-5.2-12.2-4.2-16.1-9.5c-1.5-2.1-0.8-2.8-3.6-3.8
		c-2-0.7-4.5,0-6.7-0.3c-5.6-0.9-5.9-4-9.9-6.8c-3.2-2.2-8.4-0.9-11.5-3c-2.2-1.5-1.2-2.5-2.7-4.3c-1.2-1.5-2.7-1.7-4.3-2.6
		c-2.9-1.6-4.9-2.6-6-6c-0.6-1.9-0.5-3.5-1.6-5.4c-1.5-2.3-4-3.7-5.7-6c-2.4-3.2-2.9-6.8-4-10.4c-1.3-4-4.6-6.3-6-10.2
		c3.8,1.5,7.2,4.3,11.4,1.8c3.3-2,3.3-6.4,6.5-8.4c-0.7,4.3-2.3,9-1.7,13.3c0.6,4.2,1.5,12.4,3.8,16.2c1.6,2.6,5.5,3.9,7.8,6.1
		c3.5,3.2,5.1,2.5,9.2,4.1c3.7,1.5,5.4,5.9,9.6,6.1c2,0.1,3.7-1.3,5.9-1c2.1,0.3,4.2,1.9,5.9,3.2c3.1,2.6,4.5,5.3,8.9,5.9
		c4.3,0.7,7.1,0.1,9.9,4.1c2,2.8,2.3,7.4,5.8,9c3.5,1.6,8.1,0.3,11.9,2c7.9,3.5,10,12,16.8,16.7c7.1,4.9,14.5,7.6,20,14.8
		c5.6,7.5,6.7,16.2,8.8,24.9c0.9,3.8,1.1,5.4,4.9,5.9c5.3,0.8,10.6-0.2,16,0.8C444.5,495.2,452,501.7,462,506.7z"/>
</g>
</svg>
