<?xml version="1.0" encoding="utf-8"?>
<!-- Generator: Adobe Illustrator 22.0.1, SVG Export Plug-In . SVG Version: 6.00 Build 0)  -->
<svg version="1.1" id="Animal" xmlns="http://www.w3.org/2000/svg" xmlns:xlink="http://www.w3.org/1999/xlink" x="0px" y="0px"
	 viewBox="0 0 1080 1080" style="enable-background:new 0 0 1080 1080;" xml:space="preserve">
<style type="text/css">
	.st0{fill:#D89B13;}
</style>
<path class="st0" d="M270.4,511.8c19.8-20,38.5-39.9,61.7-56.1c21.2-14.8,43.9-27.4,67.2-38.4c78.6-37.3,161.5-50.5,247.7-49.9
	c37,0.3,73.7,5.4,110.7,4.9c18.3-0.2,36.1-1,54.1-4.5c21.3-4.1,36.9-7.8,57.5,0.8c32.4,13.5,65.2,26,97.7,39.4
	c25.9,10.6,60.8,22.9,70.7,51.5c4.2,12.1,11.1,35.1-0.5,44c-11.3,8.6-32.1,11.9-46.1,14.5c-36.3,6.7-72.1,16.5-108.5,23.2
	c-37.3,6.8-75.6,12.9-113.3,17.6c-8.5,1.1-16.9,2.4-25.3,3.7c-11.1,1.7-10.6,5.1-16.8,14.6c-8.7,13.3-14.9,26.4-26.2,37.6
	c-14.1,14.1-27.5,28.8-47.1,34.9c-5.4,1.7-14.2,4.3-17.6-1.2c-2.7-4.5-0.7-20.1-0.3-25.6c0.2-3.6,2.9-11.7,1.6-14.8
	c-2.1-4.9-7.9,0.3-13.7,2.3c-8.7,3-10.8,2.6-7.7-6.8c1.9-5.8,2.8-11.5,4.8-17.3c2.6-7.3,5.9-9.2-3.1-9.7c-4-0.2-8,0.3-12,0.6
	c-17.4,1.3-34.8,2.9-52.2,4.3c-32.5,2.6-65,4.2-97.5,5.6c-13,0.6-26,1.4-39,1.4c-14.2,0-28.5,3.5-42.9,4.3
	c-32.2,1.9-59.5-0.3-90.2,12.4c-15.8,6.5-31.7,12.2-47.8,17.9c-8.1,2.9-15.9,6.1-24.2,8.6c-6.7,2.1-14.6,2.7-20.7,6.1
	c-16.3,9.1-30.2,24.5-46,34.8c-18.5,12.1-36,23.8-56.9,31.2c-10,3.5-20,8-30.2,10.9c-2.7,0.8-18.7,3.8-20.6,1.4
	c-0.8-1,33.4-25.9,36.3-28.8c13.4-13.7,25.3-31.5,34.1-48.7c4-7.8,8.1-16.5,16.2-20.7c10.2-5.2,8.4-2.5-1.1-8.7
	c-5.4-3.5-13-10.8-17.2-15.6c-6.4-7.3-3.5-8.4,5.9-8c15.8,0.8,31.4,5.7,46.8,9c14.2,3,23.4,10.9,34.9-0.7
	C220.2,566.7,245.5,540.4,270.4,511.8z"/>
</svg>
