<?xml version="1.0" encoding="utf-8"?>
<!-- Generator: Adobe Illustrator 22.0.1, SVG Export Plug-In . SVG Version: 6.00 Build 0)  -->
<svg version="1.1" id="Animal" xmlns="http://www.w3.org/2000/svg" xmlns:xlink="http://www.w3.org/1999/xlink" x="0px" y="0px"
	 viewBox="0 0 1080 1080" style="enable-background:new 0 0 1080 1080;" xml:space="preserve">
<style type="text/css">
	.st0{fill:#77395E;}
</style>
<path class="st0" d="M773.2,607.4c-0.9-1.1-1.6-2.3-2.2-3.5c-4.4,3.4-5.6,10.2-7.4,15.2c-2.4,6.5-4.7,13.1-6.6,19.7
	c-2.9,10.3-6,22.5-13.2,30.6c-8,9-18.9,14.3-27.5,22.5c-4.3,4-7.5,8.2-13.1,10.6c-5.2,2.3-10.9,3.4-16,5.9
	c-5.1,2.5-9.1,6.3-13.9,9.1c-5.2,3-10.8,2.3-15.8,5.6c-10.4,7-21.4,10.1-34,11.4c-5.2,0.6-9.5-2.2-14.5-0.8
	c-5.2,1.4-9.8,4.2-15.1,5.4c-5.6,1.3-11.1-0.1-16.5,1.6c-6.8,2.1-11.5,3-18.5,0.6c2.3-5.7,9.4-10.8,13.7-15.2
	c3.6-3.6,7-7.2,9.8-11.5c5.6-8.8,11.4-23.1,9.8-33.5c-2.9,4.5-5.1,10.1-8.5,14.3c-0.8,1-1.5,2.8-3.1,2.9c-3.1,0.2-1.6-1.9-2-4.2
	c-0.9-5-3.7-7-8.8-5.7c-1.1,0.5-2.3,1-3.4,1.6c-0.3-0.4-0.6-0.9-0.9-1.3c-1.9-0.2-3.6,0.1-5.6,0c2.8-7.7,5.6-15.4,8.4-23.1
	c-9,1.3-11.5,10.4-16.6,16.4c-5,6-16.5,0.2-14.8,11.3c-3.8-8.8-2.5-18.5-2.2-27.8c-9.4,5.9-10.3,21.3-10.4,31.1
	c-0.1,13,3.7,25.6,5.5,38.4c-3.8-0.7-4.5-0.9-7.6,1.5c-2.1,1.5-4.2,3.3-6.6,4.4c-1.5,0.7-3.6,1.6-5.3,1.3c-3.6-0.6-2.7-3.2-3.3-6.9
	c-2.5-16.6-5.2-33.1-7.2-49.8c5-0.5,7.4-0.6,11.7-3.5c3.8-2.6,7.6-5.5,11-8.7c3-2.8,6.6-5.9,9.2-9.1c3-3.8,3-8.8,5.2-13.1
	c1.6-3.1,3.8-5.8,5.1-9.1c1.5-4.1,0.6-8.1,1.5-12.2c1-4.2,3.9-7.6,4.1-12c0.4-5.7-3.4-8.7-6-13.2c-1.8-3-2.7-5.7-5.3-8.1
	c-3.1-2.9-6.9-4.8-9.9-7.8c-3.3-3.3-6.1-5.2-10.4-7c-4.9-2-8.5-5.5-13.2-7.6c-1.1-0.5-5.4-1.3-6-2.3c-0.4-0.6,0-4.3,0-5.3
	c0-4.8,0.6-9.9,0.3-14.7c-0.5-8.7,0.9-18,1.1-27c0.1-8.3-1.1-18,0.3-26.1c0.5-2.9,0.4-2.1,1.8-4.6c0.9-1.6,1.8-3,3.3-4.3
	c3.4-3,8.4-4.2,12.7-5.3c16.7-4.3,31.7,2.6,47.9,6c9.1,1.9,15.9,3.1,25,0.9c10.2-2.5,16.8-5.5,23.7-13.8c5.6-6.8,9.8-14,13.6-21.9
	c1.3-2.8,3.3-5.3,4.3-8c2.2-6.2-1.1,2.2,0.8-3.9c0.9-2.7,1.5-3.6,2.4-6.2c-0.7,2-0.1-2.9-0.1-3.1c0.5-2.4,1.2-4.8,1.7-7.3
	c0.9-4.9,1.3-9.8,1.2-14.7c-0.1-4-0.7-7.9-0.8-11.8c-0.2-3.7,2-10.2,0.9-13.5c-0.9-2.6-4.4-3.2-6-0.5c-1.9,3.1,1.2,10.3,1.6,13.8
	c0.9,6.9-0.6,10.9-2.8,17.3c-3.5,10-5.2,21.3-10.4,30.6c-4,7.2-8.7,14.3-13.5,21.1c-3.8,5.3-9.1,12.9-15.7,15.2
	c-3.8,1.4-5.9-1.3-9.6-0.7c-2.7,0.4-4.4,2.1-7.3,2.1c-5.6,0.2-11.7-1.6-17.3-2.3c-5.3-0.7-10.3-2.6-15.5-3.9
	c-6.2-1.5-12.8-0.9-19.1-0.7c-4.3,0.1-8.7,0-12.6,1.9c-2,1-6.3,5.9-8.6,5.6c-2.9-0.4-2-3.8-1.9-7.1c0.1-8,0.5-16.5-0.4-24.3
	c-0.8-7.2-1.6-14.1-1.4-21.3c0.2-9.1,1.2-14.9,7.9-21.3c3.7-3.5,7.9-6.3,12.2-9c4.9-3.1,8.4-6.6,12.1-11
	c6.2-7.3,11.6-15.4,15.1-24.4c2-5.2,3.2-10.6,4.8-15.9c0.7-2.4,1.6-4.8,2.4-7.2c0.5-1.6,1.1-3.3,1.6-4.9c-0.1-2.3,0.8-3.1,2.9-2.6
	c3.7-1.6,7.2-2,10.7-4.5c3.9-2.7,7.6-5.9,11-9.3c7.9-7.8,11.9-17.6,15.8-27.8c3.9-10.3,8-20.7,11.1-31.3c1.6-5.5,2.5-11.2,4.1-16.8
	c0.6-2,1.7-4.3,1.9-6.3c0.3-2.8-0.4-4-1.6-6.7c-3.2,9.3-6.2,18.7-10,27.8c-3.6,8.6-8.9,16.4-12.6,25.1c-3.9,9-7.4,17.9-12.4,26.3
	c-1.9,3.2-4.2,8.7-7.1,11.1c-1.5,1.2-3.4,0.7-5.6,1.3c-2.3,0.6-4.2,2.3-6.4,3.1c0-11.1-0.1-22.2-0.7-33.3c-0.3-5.2-1-10.3-1.3-15.5
	c-0.2-5,1.2-10,0.1-15c-3.5,1.1-4,0.5-4.6,3.9c-0.4,2,0.3,4.7,0.4,6.7c0.3,5.2,0.7,10.6,0.2,15.8c-1,11.1-4.1,21.9-4.7,33.1
	c-0.5,11-6.7,10.9-16.3,12.8c-11,2.1-20.9,6-31.4,9.7c0-7.6,0.5-12,5.7-17.9c5.6-6.4,9.8-13.2,13.5-20.9c3.4-7,7.3-14.1,10.2-21.3
	c1.3-3.1,1-6.2,1.9-9.2c1.1-3.9,2.5-7,3-11.2c0.4-3.4,0-9.8,2.2-12c1.9-1.9,6.1-2.7,8.5-4.1c6.8-4,11-9.5,14.7-16.3
	c4.1-7.5,8-15.1,10.9-23.1c1.6-4.4,3.1-8.8,4.6-13.2c1.6-4.8,3.4-7.4,1-12c-7.7,10-13.2,23-19.3,34.1c-5.6,10.3-8.9,22.3-20.4,27.5
	c0.5-6.5,1.7-12.9,2-19.4c0.3-5.7-1-12.6,0-18.1c1-5.5,6.4-7.5,10.4-10.8c4.6-3.7,8.8-7.9,13.2-11.8c4.3-3.9,8.1-6.1,13.2-8.5
	c3.1-1.4,4.5-2.1,7.9-1.8c2.5,0.3,4.6,1.2,7.2,0.4c1.6-0.5,3-1.4,4.3-2.5c0.9-0.9,1.8-2,2.5-3.1c1.7,0.6,3.4,1.3,5.1,1.9
	c3.8,1.3,4.9,1.8,8.4-0.2c1.9-1.1,4.6-4.9,6.7-3.7c1.1-6.3,2.5-12.2-3.1-16.9c-4.7-3.9-12.1-3.8-17.8-4.6c7.4-8.3,5.2-17.1-1.5-25
	c5.2-1.9,7.6-5.2,11.7-8.4c3.7-2.8,6.2-3.2,8.3-7.8c4-9.2-5.4-18.5-14.7-18.8c-5.9-0.2-5.1,0.7-6-5.1c-0.7-4.4-2.1-8.3-6.1-10.7
	c-3.6-2.1-8.6-2.6-12.5-1.1c-2.2,0.8-4,2.3-5.6,4c-2.4,2.7-1.6,3.6-4.9,1.5c6.2-9.3,10.8-15.4,3.5-25.3c-2.8-3.8-6.2-8.7-11.3-9.1
	c-5.9-0.5-9,4.7-12.1,8.8c0-5.1,0.7-12.4-6.7-12c-6.2,0.3-8.5,8-10.1,12.8c-0.4,1.2-0.6,3.7-1.4,4.6c-1.5,1.7-0.9,0.4-3.3,0.6
	c-2.7,0.3-4.4,0.2-6.7,2c-2,1.5-3.7,3.9-5,6c-0.5,0.8-1.2,3-2,3.6c-1.6,1.2-0.7-0.2-2.8,0.6c-1.3,0.5-2.9,2.2-4.4,2.3
	c-3.2,0.1-2.1-1.5-2.7-3.9c-1-4.1-4.4-6.2-7.6-8.6c-0.6-0.5-1.7-1.6-2.4-1.8c-2-0.7-0.6-0.6-3,0.4c-2.9,1.3-4.9,4.4-6.3,7.1
	c-2.7,5.2-6.1,8.7-9.6,13.5c-1.1-1.3-4.3-3.8-4.7-5.4c-0.7-2.4,1.2-6.6,2.1-8.8c2.1-5,4.7-9.6,6.3-14.8c3.7-12-8.9-16.6-16.5-7.7
	c-2.4,2.8-3.2,10.2-6.5,9.9c-3.5-0.4-4.1-5.5-5.7-7.9c-5.5-8.2-15.6-8-22-1.1c-3.5,3.8-2.1,5.4-2.3,9.9c-0.3,6.7-6.5,3.3-11.1,6
	c-3.3,2-5.3,5.4-5.7,9.1c-0.7,6,2.3,7.3,6.7,10.3c3.2,2.2,5.3,3.1,1.9,6.6c-2,2-4.3,2.2-6.8,3.4c-3.7,1.8-6.3,4.9-7.4,8.9
	c-2.8,10.1,4.7,16.1,11.6,22c-7.7,7.2-6.4,15.8-11.4,24.2c-8.4-5.1-22.3-17.5-30.6-6.1c-3,4.1-7.3,10.7-3.1,15.2
	c2.2,2.3,3.3,1.6,6.2,1.7c3.7,0,5.9,0.6,8.9,3.1c-3.2,2.8-4.4,3.3-8.3,4.5c-3.2,1-6.4,4-6.7,7.5c-0.9,8.9,10,12.8,17,12.8
	c2.6,0,4.8-0.3,6.6-2.4c1.8-2.2,0.9-6.9,2.7-8.6c4.9-4.5,10.1,8.8,12,11.8c-4.4-1.3-5.8-7.4-11-7c1.5,2.7,4.5,7.6,7.3,9.1
	c3.4,1.8,7.8,0.3,11.5,0.8c4.8,0.7,6.4,2.8,9.2,6.3c3.2,4,7.2,7.6,10.7,11.3c3.3,3.5,3.3,4,3,8.7c-0.1,2.5-0.1,4.9,0.1,7.4
	c0.4,5.9,1.1,11.8,1.8,17.7c1.3,11.1,2.9,23.3,6.6,33.8c1.9,5.2,4.7,9.6,7.6,14.3c2.8,4.5,3.8,9.3,4.3,14.5
	c0.9,9.5,3.2,19.2,6.2,28.4c3.2,9.8,7.8,19.1,14,27.3c6,8,13.9,13.6,8.5,24.6c-14.2-8.6-29.5-16.1-40.8-28.5
	c-4.7-5.2-9.7-10.6-13.7-16.4c-2.1-3.1-2.8-5.7-3.9-9.2c-0.8-2.9-2.5-5.3-3.2-8.2c-0.7-2.8-0.2-5.6-0.5-8.4
	c-0.4-3.9-1.7-7.8-2.5-11.6c-1.9-8.2-3.9-16.5-6.4-24.5c-2.5-8.1-4.8-16.1-6.3-24.5c-0.7-4-0.8-17.3-5.2-18.3
	c0.1,0.6,0.4,1.2,0.7,1.7c-0.8,0.5-3-1.4-3.6-1.7c4.9,10.1,2.5,20.4,4.2,30.9c2,12.7,4.5,25.4,7.5,37.9c2.5,10.3,4.7,22.7,9.9,32
	c5,8.8,11.9,17,19.1,24.1c7,7,14.9,13,23.4,18.2c4.6,2.8,9.3,5.5,13.9,8.2c4,2.4,7.9,3.5,9.1,7.9c1.8,6.5,1.3,14.3,1.6,21
	c0.2,5,1.1,11.1-0.1,16c-8.7-6.2-17.4-12.1-27.5-15.8c-9.7-3.5-19.2-5.7-27.9-11.6c-7.6-5.2-15.3-11.5-17.6-20.7
	c-2.9-11.9-5.5-23.9-8.2-35.9c-2.6-11.4-6.1-22.8-8.3-34.3c-1-5.5-1.6-11.1-1.7-16.7c0-1.7,1.1-7,0-8.2c-0.8-0.8-3-1.9-4.2-0.4
	c-0.9,1,0.3,8,0.4,9.6c0.1,3.1,0.1,6.1,0.1,9.2c-0.1,6-0.2,11.9,0.3,17.9c1,12,3.4,23.9,6.4,35.5c2.9,11.2,5.8,24.2,11.5,34.4
	c4.3,7.6,17.2,13.7,24.7,17.7c15.5,8.2,34.6,10.3,47.3,23.6c6.8,7.2,7.9,14.8,6.5,24.2c-0.5,3-0.5,5.6-0.3,8.6
	c0.8,17.8,0.1,35.5-0.9,53.3c-0.5,9.5-0.8,19-0.8,28.6c0,6.1,1.6,14.3,0,19.8c-0.4,1.2-1.4,3.3-2.2,3.9c-1.8,1.3-6.5,0.2-8.6-0.2
	c-2.8-0.6-5.4-1.7-8-2.7c-1.2-0.5-6.5-1.7-7.1-2.7c-0.8-1.3,2-8.3,2.4-10.2c0.8-3.4,1.5-6.8,2.4-10.2c1.3-4.8,1.5-9.2,1.5-14.2
	c-1.8,4-1.8-2.2-2.1-4.2c-0.3-2.1-0.7-3.9-1.1-5.9c-0.9-4.4-0.2-6.2,0.8-10.4c1.9-8.7-2.9-14.4-4.9-22.4c-1.2,5.6-2.7,11-4.3,16.4
	c-0.7,2.5-1,10.3-3.1,12.3c-1.9,1.9-1.6,0.9-3-1.4c-2.2-3.7-3.7-6.9-8.9-4.9c0.1,0.2-5.6,6.3-6.6,8.4c-1,2.1-1.2,4.3-3,4.6
	c-1.5,0.2-5-2.6-6.1-3.3c-10.9-6.9-10.9,5.3-11.9,13.6c-2.3-1.1-3.9-3.2-6.2-4.4c-4.2-2.1-5-1.1-6.9,2.7c-0.4,0.7-1.5,4-2.2,4.3
	c-0.7,0.3-5.1-2-6.1-2.4c-3.1-1.2-2.6-1.5-4-3.7c-0.5-0.7-0.2-2.7-1.2-2.9c-0.9-0.3-0.5,3.7-0.5,3.8c-10.3-2.1-16.7-7.9-23-16
	c-2.7-3.4-3.2-5.2-4.2-9c-0.4-1.4-1.8-5.9-3.4-6.4c0.1,0.1,0.4,6.2,0.4,6.7c-10-3.6-17.7-12.5-25.1-19.9c-4.2-4.2-8.3-8.6-12.1-13.2
	c-2-2.4-8-13.2-11.2-10.8c-2.9,2-0.5,11,0.1,13.5c0.5,2.2,2,4.7,1.9,7c0,2.7-1.8,4.5-1,7.4c1.2,4.7,6,9.8,8.6,13.9
	c3.2,5.1,6.1,10.3,9.5,15.1c7,9.7,15.2,18.7,21.9,28.5c0.7,1,1.3,2.3,2.1,3.1c3.7,3.7,0.6,0.6,3.4,1.7c1.8,0.7,2.9,0.5,4.3,2.1
	c3,3.3,4.5,6.3,8.4,8.9c5.2,3.5,12.1,9.5,15.1,15.1c1.4,2.6,1.6,5.3,4.1,7.3c2.4,2,5.9,3.1,8.5,4.7c6.3,3.8,11.6,9,16.6,14.4
	c2.4,2.6,3.8,6,6.2,8.6c3.3,3.5,7.4,6.4,9.8,10.7c3.3,5.8,1.6,14,6.1,19c1.3,1.4,3.2,1.8,4.2,3.6c1,1.8,0.1,3.1,0.2,5
	c0.5,4.6,3.7,5.5,6.8,8.1c1.8,1.5,3.1,3.3,4.1,5.5c1.9,4,2,4.8,6.3,6.9c5.1,2.6,10.9,4.1,16.5,4.8c1,0.1,2.3-0.1,3.3,0.2
	c4,1.2,1.3-0.2,2.8,2.9c1.3,2.6,1.2,6.6,1.7,9.6c1.3,7.3,2.6,14.5,3.9,21.8c1.1,6.3,2.3,12.7,3.4,19c0.6,3.2,1.1,6.3,1.7,9.5
	c0.4,2.4,2.8,8.5,1.9,10.9c-0.1,0.4-3.4,4.7-3.9,5.2c-1.3,1.7-3.1,2-4.3,3.3c-1.1,1.2-1.2,3.4-2.4,5.3c-1.6,2.3-4.1,3.9-6.2,5.7
	c-3.8,3.5-4.1,6.7-5.5,11.5c-1.8,6.3-4.7,11.9-5.6,18.4c-1.5,11.4,0.7,23.7,6.4,33.6c2.7,4.7,4.9,9.7,8.6,13.7
	c3.8,4.2,8.3,6.2,12.9,9.1c5.4,3.5,2.7,5.2,1,10.5c-1.8,5.6-0.6,10.5-0.7,16.2c-0.1,13-3.8,26.5-6.2,39.3c-2.4,12.7-2,25.7-4.3,38.3
	c-2.4,13.2-4.8,26.4-7.2,39.5c-2.3,12.5-6.9,25.7-7.8,38.3c-0.5,7.2,9.4,9.3,15,6.1c10.5-5.9,12.9-20.3,15.7-30.7
	c6.9-25.4,9.4-51.8,12.9-77.9c3.3-24.2,3.6-53.7,17-75.1c6.2-10,20.7-9.9,31.3-12.1c12.5-2.6,25-5.1,37.5-7.8
	c12.6-2.6,27.2-3.8,39.2-8.7c5.1-2.1,8.1-5.9,11.8-9.7c4-4.2,9.1-7.3,12.9-11.6c3.3-3.7,5.3-8.4,8-12.5c3.4-5.2,7.1-10.1,10.6-15.2
	c2.9-4.2,4.7-9.1,8-13c3.8-4.4,9.1-7.3,13.3-11.2c3.7-3.4,6.6-7.5,10.5-10.8c4.4-3.9,8.8-7.7,12.9-11.9c8.9-9.2,17-19.2,24.5-29.6
	c7.3-10.1,13.1-20.7,18.2-32.1c4.9-11,11.4-22.1,14.4-33.9C777.2,631,780.5,614.9,773.2,607.4z M444.5,110.6
	c1.6,2.4,3.6,4.7,6.1,6.1c1.3,0.7,2.7,0.9,4,1.5c2.6,1.1,1.4-0.2,3.4,2.1c3.3,3.9,8.4,9.6,10.2,14.5c-7.7-2.7-19.7-10-26.1-1.6
	C442.8,125.7,443.6,118.1,444.5,110.6z M414.7,145.4c0.8-1.9,1.6-2.8,3.1-4.1c1-0.9,2.5-1.6,3.6-2.3c4.1-2.5,4.2-2.1,8.1,0.8
	C425.3,144.3,420.5,144.8,414.7,145.4z M448.3,243.7c-0.7,8.8-1,17.7-0.9,26.5c-2.9-18.8-5.8-37.5-8.7-56.3c1.9,1.5,3.8,3.1,5.8,4.6
	c3.3,2.7,3.9,3,4,7.3C448.5,231.8,448.8,237.8,448.3,243.7z M448,214.7c-4-3.9-10.2-8-12.1-13.3c-1.8-5-2.5-12.1-0.5-17.1
	c-1,0.5-2.1,1.1-3.1,1.6c-0.1-1.3-0.2-2.6-0.4-4c-3.8,1.4-2.9,2.1-2.2,6.1c0.5,3.3,1.1,6.5,1.6,9.8c-4-3.1-9.7-10.5-10-15.8
	c-0.4-6,6.5-9,2-15.9c-0.6,2.3-1.2,4.6-1.8,7c-0.4-2.7-0.8-5.5-1.2-8.2c8.4,2,20.8,0.4,21.5-10.9c1.3,3.3,1,7.1,2.8,10.2
	c1.9,3.1,4.7,3.9,7.6,5.6c3.6,2.1,6,5.3,8.9,8.2c3.3,3.4,7.4,5.9,10.6,9.1c5.2,5.2,5.2,17.9,6.8,24.8c2.4,10.4,2.5,19.7,2.7,30.3
	c-6.6-5.9-13.2-11.9-19.8-17.8c-1.3-1.2-2.8-2.3-4-3.6c-3.6-3.9-0.5-1.3-2-3.3C453.6,215.3,451.7,213.1,448,214.7z M456.8,270.1
	c-1.3-14-5.7-29.7-2.8-43.8c11,9.5,26.9,19.7,27.4,35.4c0.5,16.6,1.2,33.1,1.2,49.7c-7.2-4.6-13.5-11.1-19.6-16.9
	C456.7,288.5,457.6,278.4,456.8,270.1z M482.6,357.2c-8-3.7-12.7-14.2-15.7-21.9c-4.1-10.3-6.7-21.9-5.8-33.1
	c6.8,5.5,19.4,12,21.1,21.4c1,5.6,0.3,12,0.5,17.7C482.9,346.5,483.5,352,482.6,357.2z M504.3,124.6c2,2.8,1.9,6.5,1.5,9.7
	c-0.2,1.7-0.6,5.5-1.8,6.7c-1.2,1.2-5,1.7-6.4,2.2C499.8,137,502.1,130.8,504.3,124.6z M501,161.9c6.3-3.4,13.3-8.4,10.3-16.3
	c-1-2.6-1.6-2.6-1-5.3c0.4-1.8,1.6-3.8,2.3-5.5c1.6-3.9,3.3-7.7,6.5-10.6c2.9,6,3.9,11.9,5,18.4c1,6.1,0.4,9.4-2,15.1
	c-2.6,6.2-3.7,8.1-9.5,11.3c-6.3,3.5-12.6,6.9-18.9,10.3C492,172.1,494.2,165.6,501,161.9z M511.5,176.8c-5.4,7.3-10.4,15-17.8,20.6
	c0-2.9-0.6-6.7,0-9.5c0.7-3.2,0.7-3,4-4.9C500.7,181.3,509.5,174.6,511.5,176.8z M492.3,211.1c1.1-5.9,5.7-8.6,9.7-12.6
	c4.5-4.5,7.8-9.9,12-14.7c3.6-4.1,5.9-9,9.7-12.9c3.5-3.6,7.9-6.1,11.8-9.2c2.1-1.7,4-3.5,6-5.2c3-2.7,3.2-3.5,6.8-1.3
	c5.9,3.6,6.8,7.3,6.8,14c0,4,0.2,6.4-1.4,9.9c-1.2,2.7-3.3,5.6-5,8c-3.3,4.8-7.8,8.9-12.8,11.9c-2.5-3,0.1-16.8-5.3-13.5
	c-3,1.8-1.6,2-0.9,4.8c0.4,2,0.5,4,0.5,6.1c-0.2,4.3-0.5,7-4,9.5c-12.3,8.7-24,18.2-34,29.4C491.2,227.2,490.8,219.1,492.3,211.1z
	 M492.8,244c2.8,0.5,12.7-14.5,15.3-17c6.2-6,13.2-11.1,20.3-15.8c-1,12.9-3.5,26.6-6,39.3c-1.2,6.1-7.7,9.6-12.2,13.3
	c-5.5,4.5-11,9.1-16.5,13.6C493.4,266.3,493.1,255.2,492.8,244z M495.3,316.2c-0.1-6-0.1-11.9-0.1-17.9c0-4.6-1.2-10.7,1.3-14.9
	c2.4-4,7.5-7.3,10.9-10.4c3.9-3.6,7.7-7.7,12.2-10.5c3.3,21.7-6.6,50.6-23.4,64.8C495.9,323.7,495.4,319.9,495.3,316.2z
	 M496.1,354.4c13.1-9,29-10.7,44.3-13.5c-1.3,7.7-1.6,16.4-4,23.7c-2.1,6.7-5.9,13.8-9.7,19.6c-7.4,11.4-18.4,21.7-30.6,27.9
	C496.1,392.9,496.1,373.6,496.1,354.4z"/>
</svg>
