<?xml version="1.0" encoding="utf-8"?>
<!-- Generator: Adobe Illustrator 22.0.1, SVG Export Plug-In . SVG Version: 6.00 Build 0)  -->
<svg version="1.1" id="Layer_4" xmlns="http://www.w3.org/2000/svg" xmlns:xlink="http://www.w3.org/1999/xlink" x="0px" y="0px"
	 viewBox="0 0 1080 1080" style="enable-background:new 0 0 1080 1080;" xml:space="preserve">
<style type="text/css">
	.st0{fill:#77395E;}
</style>
<g>
	<path class="st0" d="M77.8,462.1c9.7-1.9-3.8-10.1-4-12.3c-0.2-2,1-14.8,1.5-13.1c-4.6-16.8-10.6-22-5.1-33.6
		c-1.9,4-2.3-31.5-2.4-32.7c-0.1-3.2-4.8-34.2,1.1-34.4c-7.2-3.4-4.4-15.2-3.8-21.1c0.7-3.1,0-5.8-2.3-7.9c4.5-0.1,6.4-1.5,5.5-4.1
		c0.6-18.2-5.8-34.3,10.4-49.4c39.6-36.9,131.6,21.9,167.6,43.1c94.2,55.4,186.3,110.6,254.5,196.9c4.2-10.7,10.2-13.7,10.1-24.7
		c-0.2-14.6-20.8-29.7-30.6-37.9c-24.2-20.4-59.5-39.5-77.4-66c-7-10.3-10.3-17.6,4.3-10.3c10.4,5.2,20.6,25.3,28.7,33.8
		c22,23.2,48.4,42.9,71.9,64.7c-0.7-4.2-0.4-8.2,1-12.2c3.6,2.5,5.6,6,6,10.5c1.4-1.9,2.7-3.8,3.9-5.8c1.5,1.9,3.6,13.5,3.6,16.2
		c4.7-1.6,2.8-12.2,3.5-16.2c10.6-0.8,0.7-2,10-9.7c3,7.6,0.6,18.6,3,27c8.4,0.3,30-41.8,37.9-50.6c15.8-17.4,32-33.2,45.6-52.5
		c1.6-2.3,26.1-40,26.6-21.8c0.4,14.3-32.6,39.9-41.3,48.4c-18.2,17.5-36.5,34.7-50.1,56.2c-2.5,4-13.3,18.5-13.5,24
		c-0.3,7.9,6.8,9.4,12,15.6c9.9,12,2.5,14.4,16,0.3c15.6-16.4,30.3-32.5,47.3-47.5c28.6-25.2,56-45.8,89.7-62.8
		c65-32.7,133.9-71,203.3-93.1c22.9-7.3,61.7-19.4,84.6-6.8c12.5,6.8,23.2,26.5,17.5,38.1c5.7-11.5,0.6,9.2,0.5,9
		c1.1,10,6,18.6-1.8,23.1c0.1-0.6,4.7,12.7,1.1,4.4c2.3,5.4-2.5,15.2-1.7,18.1c0.5-0.3,5.7,24-3.3,28.2c7.8,4.5-1.2,18.5-3.3,27.5
		c-0.7,2.9-6.7,23.5-6,26.1c0.4,1.6,4.1,4.2,2,8.4c-2,0-3.5,1-4.4,2.9c7.1,1.6-7.5,26.7-9.6,26.1c1.6,1.1,3.2,2.1,4.8,3.2
		c-3.9,0.2-4.6,1.7-2.4,4.5c-2.4,1.6-4,1-4.9-1.9c-1.9,7.4,2.7,1.6,5,5.8c-7.3,1.3-3.1,1.7-6.4,7.7c-4.2,7.8-9.3,1.9-3.9,9
		c-7.7,0.5-9.9,26-24.2,23.6c1.4,2.7,2.9,5.2,4.7,7.7c-15.5,2.7-28.2,12.1-44.2,14.6c-19.3,3-39.4,3.8-58.8,2.1
		c14.5,7.8,27,18.9,41.2,27.2c-8.1,4.6,2.4,3.3,6.3,7.5c3.3,3.6,8.9,8.9,12.8,13.2c-2.1,3-5.7-5.8,0,2.7c2.6,3.9,4.3,8.5,7,12.4
		c3.1,4.4,12.6,11.1,13,15.1c-6.2-5.3,14.8,28.6,15,34.5c-3.3-3.3-5.2,34.2-6.6,39.7c-13.1-10.9-10,20.6-11.3,29.9
		c3.1-0.6-11.6-2.6-5.4,4.1c-3.3-1.5,12.1,4.6,1.2,6.8c-1.6-0.4-2.8-1.3-3.6-2.7c-2.2,16.7-20.4,18.5-15,32.4
		c-2,1.5-11,7.4-13.5,4.7c2.1,6.8-1,9-9.1,6.7c-0.3,7,7.5-3.6,6.8,3c-0.3,3.5-5.8,1.9-6.5,3c-0.2,0.4-9.8,10.8-10.3,11.2
		c-5.3,3.5-14.1,1.9-19.2,6.6c-0.2,1.8,1.1,2.3,3.6,1.4c-3.8,3.4-8.1,4.2-12.8,2.4c2.6,3.4-14.6,12.9-16.1,10.8
		c2.7,7.1-18.3,7.4-21.9,6.7c-4,5.8,6.8,4.1-7.2,6.5c-5.3,0.9-11.9-0.1-17.1-1c7.6,4.2-37.2,4.3-33.8,9c-13-2.2-25.5-5.8-36.9-12.7
		c-7.5-4.6-9.1-8.6-15.1-13.4c-4.1,3.6-6.8,2.8-8.2-2.1c-2.3-7.2-4.2-7.7-5.8-1.6c-2.2-8.4-12.2-8.6-14.6-16.2
		c-0.9,1.9-1.9,3.8-2.8,5.7c-0.9-2.7-1.8-5.4-2.7-8.1c-2.7,13.5-6.5-17.8-14.7,0.7c-3.1-4.4-14-22.3-16.2-11.7
		c-6.5-14.9-4.9-5.5-6.4-0.9c-1-2.2-2.2-10.6-4.5-11.6c-6.5,5.5-8-4.8-13.8-13.3c-5.9-8.7-13.7-15.9-20.5-23.7
		c-7.6-8.7-15.7-17.2-23.2-25.9c0,0.1-18.4-20.2-16.3-12c2.3,9.1,11.1,15.4,10.9,25.7c-0.1,5.9-5.5,19.8-7.3,26.2
		c-3.5,12.2-10.6,23.6-21,7c-4.2-6.7-2.6-16.1-7.6-23.2c-5.7-8.3-12.2-8-13.6-18.6c-1.9-14.6,7.5-22.3,1.8-37.8
		c-0.2,1.9-0.4,3.9-0.6,5.8c-4.3-3.2-0.5-20.9-2.8-21c-3.8,22.8-10,42.6-24.1,61.2c-5.5,7.3-25.6,39.2-33,41.7
		c-2.2-5.9-15.8,17.3-17.5,18.6c-0.7,0.5-12.7,4.3-14.7,5c-5.2,2-5.3,6.9-9.9,8.4c5.8-14.6-11.8,5.9-6.5,2.5c5.1-7-7.6-0.2-9.5,8
		c-3.4-10-7.8-3.2-12.1,6.7c-2.3-1.1-2.5-2.8-0.7-5.1c-9.8,9.3-17.8,11.6-26.2,18.5c-3.5,2.9-7.6,8-11.4,10.5c-1.5,1-14.5,6-7,0.8
		c-6.4,3.2-12.6,6.6-18.8,10.1c-0.4-6.4-10.2-1.9-19.5-1.8c-12.8,0.1-26.4-2.4-38.9-5c5.2-6.7-13.9-7.1-17.6-8.6
		c-13.9-5.8-20-14-31.2-10.6c0.7-1.8,1.3-3.7,1.9-5.6c2-4.4-1.3-5.1-9.9-2c5.3-11.1-4.1-1.5-5.6-2.2c0.7-9.6-0.6,0.4-4.8-3.7
		c6.5-8.3-10.5,2-2.8-6.9c-3.4-3.4-8,9.2-1.8-4c-14.2,5.7-5-3.6-15.8-2.9c2-11.2,3.2-2.8-5.4-7.4c-4.6-2.4-2.5-8.4-1.8-8.6
		c-1.9,0.8-3.8,1.7-5.5,2.9c0.4-2.5,1.2-4.8,2.3-7c-9.7,7.1-6.1-3.8-9-8.3c-9.9,10.3-7.1-14.4-7.8-14.8c-15.2,2.2,1.3-19.7-10.1-29
		c0.4,9-0.3,11.2-1.9,6.6c-0.9-3.3-1.7-6.7-2.3-10.1c-1.8-2.7-1.5-8.5-2.2-11.5c0.6,2.6-4.7-5.4-5.3-8.1c-1.2-5.2,4.2-11.9-5.4-9.9
		c1.3-4.6,2.8-9,4.6-13.4c-24.7-3.1,51.9-84.5,61.6-91.9c-2.1-1.4,84.5-43.6,90.7-46.8c-0.7-4.7-85.8-2.5-95.2-3
		c-31.5-1.7-57.3-7.5-81.7-26.8c1.2-0.8,2.4-1.6,3.6-2.4c-3-1.8-5.5-4.1-7.5-7c1.4-2.7,2.4-2.5,3.2,0.4c6.6-4.1-6.9-9.6-8.9-11.2
		c9.2-1.5-2.8-3.3-4.8-5c1.4-10.4,7.2,0.8-2.4-14.2c0.1-4.4-8.6-10.8-2.8-13.6C80.5,464.1,79.2,463.1,77.8,462.1z"/>
</g>
</svg>
