<?xml version="1.0" encoding="utf-8"?>
<!-- Generator: Adobe Illustrator 22.0.1, SVG Export Plug-In . SVG Version: 6.00 Build 0)  -->
<svg version="1.1" id="Layer_4" xmlns="http://www.w3.org/2000/svg" xmlns:xlink="http://www.w3.org/1999/xlink" x="0px" y="0px"
	 viewBox="0 0 1080 1080" style="enable-background:new 0 0 1080 1080;" xml:space="preserve">
<style type="text/css">
	.st0{fill:#77395E;}
</style>
<g>
	<path class="st0" d="M409.5,683.5c-6.5,4.4-9.7,9.9-14.7,15.7c-9.9,11.3-22.1,21.4-33,32c-10.1,9.8-21.6,17.3-32,26.5
		c-2.7,2.4-11.4,12.5-16,7.7c1.4,1.5-0.6-6.3-0.2-4.9c-0.5-1.6-1.6-2.2-3.2-2c0.2-1,0.3-1.9,0.5-2.9c-0.6-1.4-1.8-4.6-2.7-6.9
		c-0.8-2-1.7-4-2.5-6.1c0.3-0.9,0.6-1.8,0.9-2.6c-0.4-3.5-1.5-5.9-3.4-8.9c-0.9-0.5-1.7-1-2.6-1.6c0.1-1.1,0.3-2.3,0.4-3.4
		c-2.3-8-4.2-14.9-4.4-23.3c-0.1-3.2,0.4-6.8,0.1-10c-0.7-1-1.5-1.9-2.2-2.9c0.9-1.2,1.7-2.4,2.6-3.6c0.5-2.1-1.6-4.7-1.2-6.9
		c0.2-0.8,2.3-4,2.9-5.2c1.9-3.6,2-5.5,5.9-8.6c2-1.7,4.1-3.2,6.2-4.9c9.7-8,20.2-15.7,30.3-23.2c-4.5-5.5-14.4-8.3-21.1-10.5
		c-8-2.7-15.5-4.5-23.8-5.5c-9.2-1-18.4-0.8-27.7-0.6c-8.9,0.2-19-0.6-27.6,1.7c-5.8,1.6-11.9,4.8-17.6,7
		c-6.5,2.4-12.4,6.7-18.6,9.7c-6.8,3.3-13.4,5.5-20,9.6c-6.2,3.9-11.8,8.9-18.3,12.3c-13.1,7-25.9,14.6-38.4,22.5
		c-6.6,4.1-13.3,7.6-20.6,10.4c-5.4,2-12.1,5.6-18,5.8c-14.9,0.3-19.3-9.6-15.8-23.2c3.3-12.9,6.4-25.4,12.9-37.2
		c3.2-5.9,6-11.9,9.3-17.7c2-3.4,4.1-6.8,6.6-10c1.3-1.8,2.9-3.4,4.1-5.3c0.8-1.1,0.5-2.6,1-3.4c1.2-1.7,3.5-2.7,4.6-4.4
		c1.1-1.7,0.6-3,1.6-4.6c1.4-2.3,3.2-4.1,4.6-6.7c1.4-2.4,3.3-4.6,4.5-7.2c1.4-3,0.7-6.2,3.6-8.1c-0.3-0.2-0.5-8.1-1.2-9.7
		c-1.3-2.8-4.4-6.2-6.1-8.1c-4.3-5.5-10.8-10.7-14.9-17.1c-5.4-8.2-10.5-15.5-14-24.7c-1.6-4.3-3.3-7.6-6-11.3
		c-2.4-3.5-2.9-6.8-5-10.6c-3.2-6.1-8.4-10.9-10.9-17.4c-2.4-6.1-4.7-11.8-7.4-17.8c-3.4-7.8-4.6-15.8-3.2-24.2
		c1.3-8,4.5-7.8,12-6.4c32.1,5.9,58.3,24.9,85.5,41.6c14.6,8.9,29,18.3,43.7,26.9c7.2,4.1,13.6,9.8,21,13.6
		c5.5,2.8,12.1,3.1,18.3,3.7c16.9,1.7,32.8-4,48.5-9.8c13.7-4.9,27.4-10.8,39.9-18.4c-8.3-3.1-48.5-12.5-43.2-24.6
		c0.7-1.7,5.2-6.9,6.5-8c1.5-1.2,3.1-1.1,4.8-1.6c4.3-1.1,2.9-0.4,5.4-2.9c0.6-0.7,2.3-2.9,3-3.7c0.6-0.1,1.2-0.2,1.9-0.3
		c0.3-1.3,0.6-2.7,1-4c3.3-4.4,6.2-2.6,11.1-3.9c-1.7-4.4-1.5-7.5,3.1-9.5c2.6-1.1,5.5,0,8.1-0.8c4.8-1.5,1.5-0.7,4.8-4.2
		c3.5-3.7,8.9-1.7,13.2-2.9c5.4-1.4,2.1-4.4,6.4-7.1c4.3-2.7,11.1,1.6,14.5-1.6c3.1-2.9,0.6-5.2,6.7-5.9c1.6-0.2,3.4,0.5,4.9,0.3
		c3.7-0.7,3.2-2.2,6-4.3c4.5-3.3,9.3-1.3,14.4-0.2c0.2-8.7,7.4-8.4,14.2-7.1c5.4,1,5.4,0.1,10.4-1.2c4.3-1.1,8.7,0.1,13.1,0.9
		c0.4-8,10.4-6.5,15.9-5.5c0.9,0.2,4.5,1.6,5.3,1.2c0.4-0.2,0.1-1.9,0.5-2.1c2.7-1.8,1.4-2.7,5.8-2.8c2.7-0.1,7.3,1.6,9.7,0.8
		c2-0.7,2.8-4.1,6.1-4.7c2.1-0.4,4.4,0.3,6.6-0.2c3.3-0.6,6.1-2.6,8.9-4.1c3.1-1.6,4.9-3,8-4.9c1.1-0.7,3.9-1,4.6-1.9
		c0.8-0.9,0.2-3.6,1.1-4.8c1.7-2.3,3.4-1.9,4.5-4.4c0.7-1.7,1.2-5.5,1.8-7.4c0.7-2.5,1.7-4.9,2.4-7.3c0.6-0.4,1.3-0.8,1.9-1.1
		c-0.3-1-0.6-2.1-1-3.1c0-1-0.5-2.6-0.6-3.6c-0.1-2.6-0.3-5.5-0.3-8.1c0-1.5,0.6-3.2,0.7-4.5c0.1-1.2-0.6-2.5-0.2-3.8
		c3.2-8.9,26.6,0.5,32.1,3.7c10.9,6.3,20.7,12.8,30.6,20.7c10.8,8.7,21.3,17,31.2,26.7c8.9,8.7,20.1,15.5,28.6,24.3
		c8.6,9,23.3,8.8,36.1,10.8c12.5,2,25,4.7,37.4,8c27.4,7.2,54.9,16.7,80.6,28.6c12.6,5.9,24.9,12.9,35.5,22
		c10.4,9,20.3,19.4,32.2,26.3c24.8,14.3,50.9,26.6,75.6,40.9c9.8,5.7,16.7,14.4,24.7,22.1c4.4,4.2,8.4,10.1,14,12.8
		c5.8,2.8,11.5,4.6,17.1,8.1c4.8,3,10.4,6,13.8,10.6c3.4,4.5,7.8,7.6,11.5,12c10.4,12.2-8.1,16.2-12.8,24.6
		c4.3,2.2,14,6.1,13.7,12.2c-0.3,6.1-11.8,8-16.1,9.9c-3,1.4-5.3,2.8-8.5,3.9c-4.5,1.5-8.1,1.8-10.3,5.5c-0.8,1.4-2,7.9-5,7.3
		c-2.6-0.6-1.7-6.9-2.2-8.6c-12.2,3.2-24.3,8.1-36.6,10.9c-6.7,1.5-13.5,2.4-20.3,4s-13.5,4.2-20.4,4.8c-13.3,1.3-25.9-3.5-39-1.9
		c-12.4,1.5-24.8,2-37.3,3.9c-6.6,1-12.9,1.5-19.6,1c-3-0.2-6.3-1.1-9.3-1.1c-4.4,0-2.6,0-6,2.8c-9.9,8.5-19.2,17.7-28.6,26.7
		c-10.7,10.2-20.9,20.3-33.9,27.4c-7.2,3.8-18.7,15.7-27.2,10.5c-3.7-2.2-7.4-9.2-8.5-13.4c-0.8-3.1,0.9-4.9,0.9-7.8
		c0-2.5-1.5-5.3-1.6-7.9c-0.1-3.2,0-6.9,0.5-9.9c0.2-1,1.7-1.9,1.8-2.9c0.2-1.3-1-1.9-0.9-3.1c0.2-4.3,2.9-8.1,3.6-12.8
		c-13.3,0-26.5,0.5-39.9,0.2c-7.4-0.2-14.5-0.5-21.8-1.2c-6.1-0.6-7.2,0.6-10.5,5.7c-7.9,12-17.4,23.1-25.9,34.7
		c-7.8,10.7-17.5,20.5-28.2,28.4c-9.4,6.9-20.3,13.2-31.7,16.1c-2.4,0.6-5.5,1.3-7.9,1.5c-1.6,2.2-2.9,2.1-3.8-0.3
		c-0.8-1-1.6-2-2.5-2.9c-2.8-5.8-1-13.8-0.4-20.1c1-11.8,1.1-25.2,4.7-36.2c1.6-4.9,3.5-10.2,4.8-15.3c0.8-3.3,0.7-6.6,2.4-9.3
		c1.8-3,5.2-5.9,7.6-8.6c-6.6,0.9-15.7-1.7-22.5-2.3c-11.4-1-23-1.3-34.4-1.4c-20.7-0.1-41.6,4.2-62.2,2.8
		C418.8,674.3,414.5,680.1,409.5,683.5z"/>
</g>
</svg>
