<?xml version="1.0" encoding="utf-8"?>
<!-- Generator: Adobe Illustrator 22.0.1, SVG Export Plug-In . SVG Version: 6.00 Build 0)  -->
<svg version="1.1" id="Layer_4" xmlns="http://www.w3.org/2000/svg" xmlns:xlink="http://www.w3.org/1999/xlink" x="0px" y="0px"
	 viewBox="0 0 1080 1080" style="enable-background:new 0 0 1080 1080;" xml:space="preserve">
<style type="text/css">
	.st0{fill:#A14A7B;}
</style>
<path class="st0" d="M1043.1,455.9c-1.3-3-5-10.9-9.7-9.3c-3.9,1.4-2.3,6.9-4,9.7c-2.6,4.1-9.6,7-13.6,9.6c-5.4,3.5-10.7,7-16,10.5
	c0.2-1.2,0.4-2.3,0.6-3.5c-2.9,1.8-2.4,2-5.4,1.1c-2.4-0.7-4.9-2.7-7.2-3.8c-5.3-2.4-10.9-4.3-16.8-4.3c-2.6,0-5.2,0.6-7.8,0.4
	c-2.5-0.2-3.4-1.5-5.9-0.3c-3.5,1.7-6.2,8.5-10.7,7.9c-3.8-0.5-8.1-8-11.3-10.3c-4.7-3.3-10.2-5.2-15.9-5c-6.1,0.2-10.2,2.5-14,7.1
	c-3.5,4.3-3.9,7-4.5,12.4c-5.6-2.4-7.3-6-10.9-10.5c-3.1-3.8-8.1-4.1-12.6-5.2c-6.2-1.4-11.9-4.3-18-5.7c-6.9-1.6-12.1,1-18.3,3.6
	c-1.4-1.6,0.6-3.7-0.8-5.2c-1.5-1.5-3.1,1.5-5.3,0c-3.3-2.2,2.1-7.4,1.2-11c-0.9-3.3-3.3-7-4.4-10.4c-1.6-5-3.9-9.9-5.9-14.8
	c-8.3-20.2-19.4-40.1-30.6-58.8c-5.2-8.8-12.9-17.4-16.7-26.9c-1.9-4.6-0.6-9-0.1-13.9c0.5-5.2,0.6-10.5,0.8-15.7
	c0.1-5.7,0.1-11.5,0.7-17.2c0.6-6.1,0.8-7.1-5.4-8.7c-3-0.8-8.5-2.5-10,1.7c-1.1,3,3.1,5.8,5.4,7.2c-1.2,1.9,0.4,6.4,0.7,8.7
	c0.5,3.6,0.9,7.2,1.1,10.8c0.4,5.8,0.2,11.6-1.1,17.3c-1,4.4-3.3,8.9-2.5,13.5c0.7,4,3.1,8,4.8,11.6c-0.8-2.8,1.3-0.3,2.1,0.5
	c2.4,2.4,4.4,6.5,6.1,9.4c3.8,6.4,7.4,13,11,19.5c7.2,13,14.1,26.2,20.7,39.5c3,6,7.7,12.3,5.8,19.5c-0.7,2.6-2.6,4.5-5.2,5.8
	c-1.1,0.5-1.9,0.2-2.8,0.7c-0.8,0.5-2.6,2.3-3.4,2.5c-2.5,0.7-8.2-1.5-10.8-1.9c-4-0.7-8-1.5-12-2.2c-7.4-1.4-14.8-2.8-22.2-4.1
	c-29.4-5.1-58.5-11.3-87.9-15.8c-30.7-4.7-61.6-8.3-92.5-11.8c-30.5-3.4-61.1-6.5-91.7-7.4c-30.5-0.9-60.8,1.5-91.3,3.3
	c-59.3,3.4-118.8,4.9-177.5,14.3c-33.7,5.4-66.9,12.2-99.5,22.1c-15.1,4.6-29.9,9.8-44,17c-6.8,3.5-13.4,7.3-19.8,11.5
	c-5.3,3.5-14.2,7.9-16.2,14.4c1.7-0.2,3.3-0.5,4.9-1.1c-8.9,10.2,2.3,24.6,11,30.6c-5.5,1.3-11.4-6.8-15.1-9.8
	c-3.7,4.9,22.8,17.3,25.8,18.7c11.6,5.6,24,10,36.5,13.3c13,3.5,25.5,6.1,39,7.2c5.9,0.5,11.6-1.2,17.5-0.6
	c6.4,0.7,12.8,2.5,19.1,3.6c13.3,2.3,26.6,4.2,39.8,6.6c12.9,2.3,28,6.9,41.1,5.6c2.9-0.3,2.6-1.2,6.1-0.8c3,0.4,6,0.7,9,1
	c4.3,0.4,8.6,0.6,12.9,0.8c9,0.3,18,0.7,27,1.7c-1.8,0-3.6,0.3-5.2,1.2c6.8,2.4,14.1,1.4,21.1,2.8c-11,1.9-19.6,4-30.3,5.4
	c-13,1.8-25.9,4.3-38.7,7.1c0.5,0,0.6-0.4,0.3-1.1c-21.6,3.1-42.9,7.8-64.2,12.4c-18.8,4.1-38.3,6.7-56.8,11.7
	c-8.6,2.4-17,5.6-25.5,8.3c-9.6,3.1-19.1,5.3-28.4,9.1c-8.9,3.6-17.6,7-25.6,12.3c-12.3,8.1-30.3,14.4-23.9,32.6
	c5.4,15.2,25.2,24.1,38.7,30.2c40.3,18.4,83.3,25.9,126.9,32c11.3,1.6,22.7,2.7,34,3.9c5.3,0.6,10.7,0.7,15.9,1.6
	c2.4,0.4,5,1.8,7.3,2.1c2,0.2,2.7-0.5,4.7-0.9c4.1-0.7,9,0.3,13.1,0.6c5.9,0.3,11.8,0.6,17.7,0.9c11.5,0.5,22.9,0.9,34.4,1
	c45.6,0.7,91.2,2.3,136.7,1.6c21.1-0.3,42.2-2,63.2-4.5c11.2-1.4,22.4-2.8,33.5-4.4c5.2-0.8,10.5-1.5,15.7-2.3
	c3.8-0.6,11.3-3.3,15-2.2c2.9,0.9,2.8,3.9,4.7,6c1.1,1.3,4.2,4,5.9,4.4c2.7,0.7,2.4-0.2,3.9-2.1c2.2-2.9,4-6.5,6.6-9.2
	c3.3-3.5,7.1-3.8,11.6-4.6c21.2-3.7,42.2-8,63.3-12.1c21.6-4.1,42.8-8.6,64.1-14.4c11.2-3,22.5-5.9,33.8-8.4
	c2.6-0.6,9.1-3.3,11.6-1.3c2.6,2.1,1.3,7.9-0.3,10.1c-2.3,3.2-6.6,4.4-9.6,6.8c-2.1,1.6-3.9,3.6-6,5.1c-4.6,3.3-9.8,5.8-14.8,8.5
	c-14.9,7.8-29.1,17-44.5,24c-8,3.6-11.2,10.8-13.1,18.9c3.8-2.1-0.4,4.6-1.3,6.3c-2.2,4.1-4.8,8.1-7.4,11.9
	c-2.2,3.3-4.5,6.6-7.2,9.6c-0.8,0.9-1.9,1.7-2.7,2.6c-0.2,0.7-0.4,1.5-0.6,2.2c-0.5,0.4-1,0.5-1.5,0.2c-0.4,0.4-2.9,2-3.3,2.4
	c1.2,2.2,3.6,2,5.5,3c1.3,0.7,3.2,2.9,4.2,3.2c3.8,1.2,3.1-1.5,4.2-4.6c1.4-4.1,4.8-7.9,7-11.7c2.6-4.4,4.9-9,7.2-13.6
	c2.4-4.8,4.4-10.7,7.6-15c2.6-3.5,7.3-5.3,11.2-7.3c9.7-5,19.1-10.5,28.5-16.1c16.3-9.7,36.8-18.4,49-33.3c1.3-1.6,2.3-3.5,3.6-5.2
	c1.4-1.8,3.6-3.3,4.7-5.1c2.3-3.4-0.8-6.1,2-8.8c3.2-3.1,9-3.3,12.4-6.6c3.9-3.9,4.4-5.8,10.3-2.7c-0.2-3.1-0.4-6.1-0.6-9.2
	c10.8,4.3,17.9,3.7,28.7-0.1c5.1-1.8,10.3-3,15.4-4.6c2-0.6,3.6-1.1,5.1-2.5c2.1-2,0.4-3.3,3.2-2c3.3,1.5,6.8,8.9,8.9,11.7
	c3.7,4.9,7.6,9.7,11.6,14.4c6.9,8.3,14.3,16.2,21.5,24.3c2.4,2.8,4.5,7.4,7.7,9.3c1.5,0.9,3.4,0.6,5,1.3c2.5,1,4.5,3.3,6.4,5.1
	c7.3,7.2,14.6,14.7,21.3,22.4c5.5,6.3,7.8,14.5,13.3,20.8c2.6,3,6,2.9,8.4,5.5c3.6,3.9,6.5,8.9,9.5,13.3c3.2,4.5,6.3,9.1,9.5,13.5
	c1.3,1.7,2.6,3.4,3.7,5.3c1,1.7,1.6,5.3,2.9,6.6c3.1,3,6.8-1.4,9-4.1c1.2-1.5,2.9-3,1.9-5.1c-1.9-3.9-2.2,0.4-3.4,0.3
	c-3.2-0.4-7.5-7-10.3-10.2c-3.9-4.4-7.8-8.8-11.5-13.4c-6.3-7.6-7.2-16.7-12.4-24.8c-2.7-4.2-5.6-8.4-8.5-12.5
	c-2.6-3.6-3.8-8.1-6.5-11.4c-2.8-3.4-7.5-5.2-10.8-8.2c-3.5-3.1-6.8-5.9-8.7-10.3c-1.7-3.8-2.2-7.7-4.4-11.3
	c-3-4.9-6.1-9.9-9.2-14.8c-2.6-4.2-5.6-8.1-8.8-11.9c-1.8-2.1-3.5-4.3-5.1-6.5c-0.5-0.7-2-2.2-2.1-3c-0.4-2.1,0.2-1.1,1.8-2.9
	c6.7-7.3,12.8-12.7,15.8-22.7c0.6-1.9,0.5-5.2,1.5-6.8c1-1.7,3.4-2.2,5.3-3.6c2-1.4,3.7-3.3,5.2-5.2c0.9-1.2,2.5-4.8,3.8-5.4
	c2.5-1.1,10.9,5.8,13.7,7.9c4.7,3.5,9,7.5,13,11.8c8.7,9.1,14.5,17.9,19.8,29.2c1.6-5.5-3.2-11.6-6-15.9c-3.4-5.1-7.3-9.9-11.4-14.4
	c-4.1-4.5-8.5-8.7-13.3-12.5c-3-2.3-11.1-7.4-11.3-11.8c-0.1-2.1,2.5-5.4,3.2-7.3c1.2-2.9,1.2-6.1,2.2-8.8c2-5.4,7.5-9.7,10.3-14.9
	c5.9-10.6,5.4-23-0.8-33.4c-3.1-5.2-9.2-8.7-12-13.9c-1.4-2.5-1.5-5.8-2.6-8.5c-0.9-2.4-3.6-5.6-3.6-8.2c-0.1-4.9,5.7-9.9,9-12.8
	c1.9-1.7,3.7-3.8,6.5-4c2.7-0.2,4,1,6.8-0.1c5.3-2,7.8-7.9,11.9-11.4c4.5-3.9,10-6.4,15.1-9.3c3.1-1.8,6.2-3.8,9.4-5.3
	c3.3-1.5,4.5-0.7,7.6-0.9C1042.2,463.8,1044.9,460.2,1043.1,455.9z M967,502.8c-1.6-2.1-5.4-5.6-6-8.1c-0.8-3.4,1-4.4,3.2-6.7
	c2.8-2.9,5.7-8.5,9.9-7.1c2.1,0.7,4.6,4.1,6.1,5.7c2.2,2.3,2.5,1.8,1,4.5C978.8,495.8,971,499.5,967,502.8z"/>
</svg>
