<?xml version="1.0" encoding="utf-8"?>
<!-- Generator: Adobe Illustrator 22.0.1, SVG Export Plug-In . SVG Version: 6.00 Build 0)  -->
<svg version="1.1" id="Animal" xmlns="http://www.w3.org/2000/svg" xmlns:xlink="http://www.w3.org/1999/xlink" x="0px" y="0px"
	 viewBox="0 0 1080 1080" style="enable-background:new 0 0 1080 1080;" xml:space="preserve">
<style type="text/css">
	.st0{fill:#A14A7B;}
</style>
<path class="st0" d="M961.3,462.4c2.8,5.3,6.7,10,9.4,15.5c2.8,5.6,4.6,11.6,6.9,17.4c2.4,5.9,7.1,10.9,11,16
	c4.2,5.4,8.5,10.7,12.6,16.1c15.5,20,25.2,45,26.7,70.4c1.5,25.6,1.2,54.4-7.5,78.9c-3.8,10.5-9.9,20-17.5,28.2
	c-7.6,8.3-17.3,13.9-25.2,21.8c-7.3,7.3-12.5,16.2-15.3,26c-3,11-7.5,20.8-16.1,28.8c-20,18.5-48.2,0.2-71.1-1.1
	c-12.2-0.7-24.1,1.7-34.7,8c-10.5,6.3-20.3,14.6-29.7,22.5c-18.5,15.5-37.4,35.3-47.4,57.7c-4.8,10.6-7,22.2-11,33.2
	c-2.2,6.1-12.4,22.1-19.8,12.4c-3.1-4.1-4.3-11.8-4.6-16.8c-0.4-6.7,0.9-13.6,1.7-20.2c1.5-12.1,5.6-24.5,5-36.7
	c-0.9-17.9-13-33.9-30.1-39.3c-21-6.7-46,5.5-62.7,17.6c-9.8,7-19.6,14.3-28.3,22.6c-3.9,3.7-7.5,7.6-10.8,11.8
	c-3.5,4.5-6.2,11-11.3,13.9c-9,4.9-19.8-1.6-22.6-10.6c-2.9-9.6,2.1-19.5,8.9-26c2.9-2.9,6.5-5.1,9.4-8.1c3.9-3.9,7.8-7.9,11.8-11.8
	c8.4-8.3,17.6-14.4,27.5-20.4c10.5-6.3,21.5-12.2,31.2-19.7c4.4-3.3,7.9-6.8,7.6-12.7c-0.3-4.7-2.5-10-6.5-12.5
	c-4.4-2.9-9.5-2-14.2-1.2c-5.9,1-11.8,1.8-17.7,1.2c-4-0.4-8.3-1.8-9.3-6.3c-0.9-3.6,2.7-8.6,5-11.1c3.6-3.9,8.3-4.9,13.2-6.4
	c6.8-1.9,13.6-4,20.2-6.4c4.7-1.7,9.3-3.6,14-5.4c2.3-1,4.9-1.6,5.4-4.4c0.6-2.9-2-6.7-2.8-9.4c-1.6-4.7-1.3-8.9-6.9-10
	c-5.8-1-12.5-0.3-18.4-0.5c-7.2-0.2-14.4-0.1-21.6-0.4c-12.9-0.4-25.8-2.3-38.1-6.3c-6.1-2-12-3.7-18.2-5c-4-0.9-8.7-2.6-10.8,2.1
	c-1.2,2.7-1.2,6.6-1.7,9.5c-0.6,3.4-1.1,6.8-1.6,10.2c-1,6.5-1.4,13.6-3.7,19.8c-4.2,11.4-12.5,23.1-20.7,31.9
	c-8.8,9.5-19.4,17.4-29.1,26c-9.2,8.3-18.2,16.9-28.7,23.8c-22.4,14.6-47.8,20.2-74,23.8c-27.1,3.6-54.1,5.8-81.4,5.9
	c-27.1,0.1-53.4,4.3-80.1,8.4c-6.5,1-13,2.4-19.5,2.9c-4.5,0.3-9-0.2-9.3-5.5c-0.6-12.7,15.2-17.3,24.8-21.1
	c8.9-3.5,19.1-2.9,25.5-11.2c2.4-3,4-5.3,0.3-7.6c-5.6-3.5-13.5-5.2-19.8-7.5c-12.6-4.7-25.4-9.5-38.6-12.4
	c-5.7-1.2-11.5-2.1-17.4-2.5c-7.2-0.4-14.2,1.1-21.4,1c-4.8-0.1-10.7-1.1-14.3-4.5c-3.7-3.4-4.2-7.8-0.1-11.1
	c3.8-3,10.8-4.7,15.5-5.9c6.7-1.8,13.6-1.1,20.4-0.8c13.6,0.7,27.1,1.8,40.6,2.8c6.8,0.5,13.8,1.4,20.7,0.9c1.9-0.2,7.5,0.4,7-2.8
	c-0.3-1.7-4.9-4.6-6.3-5.5c-5.3-3.7-11.2-6.5-16.8-9.8c-3.1-1.9-10.7-5.3-8.8-10.3c1.6-4.2,10.7-6.2,14.6-7
	c6.3-1.4,12.4-0.9,18.2,1.8c12.1,5.3,23.7,12.1,35.2,18.6c11.4,6.5,23.2,8.2,35.1,2c11.8-6.1,23.3-13.2,34.3-20.5
	c9.6-6.4,18-13.1,25-22.3c2.6-3.3,5.1-6.7,8.6-9.1c1.9-1.3,4.5-1.9,6.1-3.5c2-2,3.4-6.4,4.8-8.8c2.9-5.3,5.9-10.5,9-15.8
	c2.4-4.2,4.5-8.4,2.8-13.2c-1.4-4.4-6.6-8.3-6.8-12.9c-0.2-2.8,1.2-4.9,0.8-7.9c-0.5-2.7-1.7-5.1-2.9-7.4c-1.5-2.9-3.4-7.5-7.2-7.7
	c-4.2-0.2-8.9,4.6-12.2,6.6c-9.2,5.7-21,7.9-27.9,16.7c-5.9,7.5-17.2,17.1-25.7,6.9c-2.9-3.4-2.2-8-4.4-11.8c-1.9-3.2-4.8-4.8-8.5-5
	c-11.2-1.1-24.8,3.2-35.1,7.3c-10.7,4.3-20.6,10.4-29.7,17.6c-4.2,3.2-8,7-12.3,10.1c-4.2,2.9-11.2,7.5-16.4,7.8
	c-5.1,0.3-6-3.4-6.3-7.9c-0.5-6.7,5.2-10.5,9.4-15c9.2-9.8,19.6-19.2,27.8-29.7c0.8-1,3.5-4.5,2.9-5.8c-1-1.9-5.2-1.2-6.7-1
	c-6.5,1.3-12.7,3.7-19.1,5.3c-4.8,1.2-30.1,9.8-29.9,0.5c0.1-4.1,6.7-8.5,9.6-10.5c3.8-2.7,8-4.7,12.4-6.2c9.1-3,20.4-1.9,26-11.3
	c-6.4-2.5-11.4-4.9-17-8.7c1.6-1.5,2.8-3.9,4.8-5c2.5-1.3,6.2-1.1,8.9-1.4c7.2-0.8,14.4-1.1,21.7-1.9c6.5-0.7,12.8-3.1,19-5.1
	c6.7-2.2,13.6-4.4,19.7-7.9c4.8-2.8,9.9-6.6,13.8-10.6c5.3-5.5-2.9-8.4-7.1-10.5c-12.7-6.5-25.5-13.1-38.3-19.5
	c-25.5-12.5-51-26-77.4-36.5c-5.8-2.3-11.7-4.3-17.4-6.9c-6.6-3.2-12.7-7.3-19-11.2c-12-7.4-23.8-15.1-35.6-22.9
	c-19.2-12.8-37-26.9-47.1-48.2c-5.2-10.9-8.8-23.2-8.1-35.3c0.8-12.5,6.6-23.5,14-33.3c7.4-9.9,16.2-18.6,25.8-26.2
	c8.3-6.6,19.2-11.5,26-19.6c3.2-3.8,4.4-8.2,4.5-13.1c0.2-6.7,0.8-12.9,3-19.3c3.8-10.5,10.8-19.9,19.8-26.7
	c18.7-14.3,43-14.2,62-0.5c4.8,3.4,8.5,7.7,12.9,11.4c4.7,3.8,8.6,2.8,13.7,0.3c6.5-3.3,10.8-1.9,18-1.6c7.3,0.4,14.5-0.1,21.8-0.4
	c6.6-0.3,12.9,0.9,19.5,1c6.7,0.3,12.4-2.5,19.1-2.7c14.6-0.5,29.3-1.5,43.9-2c28.4-0.9,56.8-3,84.7,3.2c6.5,1.4,11.7,2.9,18.2,2.3
	c6.8-0.6,13.7-1.1,20.5-0.1c6.3,1,12.4,2.7,18.8,3.3c7.3,0.8,14.8,0.5,22.2,0.3c13.9-0.4,27.5-1.3,41.3,0c5.8,0.6,11.6,1.4,17.1,3.4
	c2.9,1,5.4,2.4,8,4c3,1.9,6.3,2.5,9.7,3.5c12.9,4,25.7,8.3,38.6,12.6c12.8,4.4,25.6,3,38.8,5.1c13.3,2.1,26.3,7.5,38.5,13.2
	c5.4,2.5,10.9,5.2,16.9,5.7c6.9,0.6,12.3-4,18.9-3.7c6.4,0.2,12.5,0.8,18.9,0.4c6.9-0.4,14-0.9,20.9,0.7c6,1.3,11.3,4.1,17.7,4.3
	c6.7,0.2,12.5-0.2,18.9,2.3c13,4.8,25.5,12.8,37.7,19.4c12.1,6.5,24.9,12.4,35.9,20.5c11.3,8.4,21.9,17.7,32.4,27.1
	c10.4,9.2,19.3,18.4,25.6,30.9c8.7,17.2,24.5,50.2,1.6,63c-9.8,5.5-18.1,3.3-27.8-0.8C954.1,447.9,957.5,455.2,961.3,462.4z"/>
</svg>
