<?xml version="1.0" encoding="utf-8"?>
<!-- Generator: Adobe Illustrator 22.0.1, SVG Export Plug-In . SVG Version: 6.00 Build 0)  -->
<svg version="1.1" id="Layer_4" xmlns="http://www.w3.org/2000/svg" xmlns:xlink="http://www.w3.org/1999/xlink" x="0px" y="0px"
	 viewBox="0 0 1080 1080" style="enable-background:new 0 0 1080 1080;" xml:space="preserve">
<style type="text/css">
	.st0{fill:#77395E;}
</style>
<path class="st0" d="M561.2,598.1c8.6,28,32.8,57.9,52.7,79.1c5,5.3,10.9,7.6,16.5,12c6.3,5,8.7,11.4,13.8,17.3
	c12.5,14.5,32,13.5,45.3,25.1c13.7,12,17.5,32.2,23,48.5c3.8,11.4,9.3,21.8,12.3,33.5c3.9,15.3,11.9,28.6,16.4,43.8
	c4,13.8,7.8,26.7,11.3,40.6c1.7,6.9,5.4,12.3,8.3,18.6c1.9,4.2,3.1,17.2,6.8,20.3c10.4,8.9,14.9-13.3,16.1-20
	c2.2-12.4,8.2-25.8,8.4-38.3c0.2-13.5-9.1-28.9-13.9-41c-10.6-26.2-18.1-52.7-28.6-78.9c-3.1-7.8-4.1-16-6.7-23.9
	c-1.2-3.8-3.1-5.5-3.5-9.6c-0.2-2.3,3-5.4,2.7-8c-0.8-7.1-4.6-9.5-2.4-17.2c2-7,7.7-14.4,9.9-21.9c4.1-14-1.5-27.1-2.2-40.9
	c-0.5-9.6,0.9-15-2.3-24.8c-1-2.9-3.5-4.5-4.3-7.6c-1.2-4.7,0.2-9.8-0.8-14.6c-2-8.9-8.3-15.8-10.6-24.6c-2.3-8.7-4.3-15.2-8.5-23.6
	c-2.5-5-25.5-39.1-22.8-41.6c2.6-2.4,8.9,5.3,10.7,4c4.9-3.5-24.8-36.7-21.4-40.2c2-2,14.3,6.7,16.1,4c4.8-7.5-41.2-26.7-45.5-30.8
	c-6.9-6.5-8.2-17-14-24.3c-1.8-2.2-8.6-5.9-9.1-8.3c-1.1-5.1,1.5-2.2,4.8-6.5c11.9-15.3,11.9-16.3,31.1-14.2
	c4.2,0.5,39.5,2.5,39.5,2.4c3.9-9.7-38.8-9.5-38.1-7.4c-3-9.8,41.8-6,42.8-8c3.8-7.8-39.5,0-42.6,0.9c-4.4,1.2-10.2,4.8-15,2
	c-5.3-3.1-2.7-5.6-5-11.7c-3.2-8.4-8.6-9.2-15.5-13c-6.1-3.4-9.2-7.8-17-3.6c-8,4.3-11.3,34-14.7,34.8c-1.7,0.4-13.6-8.6-15.7-10.3
	c-4.2-3.4-13.2-10.7-13.4-15.8c-0.1-3.5,7.3-15.4,9-19.3c2.9-7,6.6-14.7,12.1-20.1c1.2-1.2,3.9-0.9,5.1-2c1.5-1.4,3-4.4,4.6-5.6
	c3.1-2.2,6.8-3.8,10.4-5.7c7.4-4,14.4-8.8,21.9-12.7c12.6-6.6,32.8-12.5,47.3-14.2c6.4-0.7,10.8-0.4,17.2-1.6
	c8.4-1.6,16.9-3.8,25.7-5.2c8.3-1.3,16.2-3.6,24.4-5.4c4.9-1.1,9.6-3.7,14.4-4.6c4.6-0.9,9.2,0.7,13.7-0.4
	c14.7-3.6,29.9-11.7,44.2-16.4c15-4.9,29.9-9.1,44.3-15.1c5.1-2.2,11.7-1.8,16.8-3.8c3.9-1.5,6.2-4.2,10.1-5.8
	c7.1-3.1,17-5.5,24.6-7.4c8.2-2.1,14.1-6.3,22.1-9.1c3.5-1.2,7.9-1.7,11.5-2.8c3-0.9,5.2-2.4,8.5-2.7c1-0.1,6.6,2.8,6.7,2.8
	c0.7-0.4-1.1-8.9,0-10.7c1-1.7,8.2-3.8,9.9-4.4c2.9-1,7.9-3.4,10.3-3.8c2.9-0.5,7.7,0.5,10.3-1c3.4-1.9,5.5-8.3,9.6-10.9
	c1.6-1,4.9-1.6,6.5-2.2c4.2-1.4,9.7-4.3,14.3-4.5c1,0,9.4,3.2,10,2.6c3.2-2.9-5.4-11.3-7.6-12.6c-6-3.3-9.3-1.4-15.2,0.5
	c-5.9,2-11.6,6.4-17.7,2.4c-1.1-0.7-6.3-11.8-6.4-11.8c-1.1,0.4,0.5,14.6-1.3,17.4c-2.8,4.3-14.5,9.7-19.2,12.2
	c-4.6,2.4-9.9,3.1-14.6,5.2c-7.5,3.4-13.8,10.3-21.6,12.9c-4.5,1.5-8.4,0.7-12.8,1.8c-5.2,1.3-10.8,6.8-16.1,6.8
	c-2.3,0-4.8-4.4-6.7-4.1c-2.2,0.4-2.3,4.3-4.1,5.4c-1.8,1.1-4.9,1.4-6.6,2.6c-1.9,1.4-0.7,6-2.7,6.7c-1.9,0.7-4.9-2.7-7.9-1.7
	c-4.5,1.5-7,6.4-12.1,7c-2.2,0.3-4.8-4.8-6.7-4c-3.1,1.2-2.7,6.1-5.4,8c-7.8,5.7-11.1-2.2-16.5-1.3c-3.8,0.6-1.6,0.7-5.9,2.8
	c-3,1.5-4.9,5.9-8.4,7.5c-4.9,2.3-9.3,0.9-14.2,2.3c-7.2,2.1-13.9,1.9-19.9,4.3c-1.3,0.5-5.1,3.9-7.1,4.8c-3.4,1.5-10,2-13.9,3
	c-8.8,2.2-11.6,4.7-16-2.7c-1.2-2-3.3-26.2-5.2-26.1c-2.4,0.1-1,26-1.7,28.6c-3.7,12.4-8.7,4.9-17.6,6.5c-2.7,0.5-4.9,3-7.7,3.6
	c-2.3,0.4-1.7-3-3.1-2.9c-1.3,0-8.2-0.2-10,0.4c-1.8,0.6-2.3,4.8-4,5.4c-1.9,0.6-4.7-1.7-6.7-1.3c-1,0.2-3.9,3.2-5,3.5
	c-1.7,0.5-2.4-4-4.3-3.5c-0.9,1.8-1.8,3.6-2.7,5.4c-3.1,0.9-10.4-5.4-16.1-2.7c-3.7,1.8-4.9,6.3-8.8,7.7c-6.6,2.5-6.6-0.8-12.6-1
	c-9.4-0.4-11.2,3.9-20.1,8c-3.2,1.5-6,4.8-9.8,4.8c-3.6-0.1-11.2-8.6-10.3-8.8c-0.3,0.1-0.8,12.7-2.3,14.3c-4.6,5.4-6.6,0.2-9.7,2.3
	c-1.6,1.1-2.8,6-5.5,7.5c-4.6,2.6-8.5-4-10.7-2.8c-2.4,1.3,1.6,12.8-3.6,15.7c-4.5,2.5-9.4-3.4-11.1-2.3c-1.7,1.1,0.1,10.1-3.5,13
	c-1.8,1.4-11.2,1.8-11.2,1.7c1.5,1.7,2.8,3.5,4,5.4c0.1,1.8-0.6,3.4-2,4.7c-0.7,2.5-7.9,14.8-10,16.7c-3.9,3.4,1.7,1.9-3.7,4.3
	c-2.6,1.1-8.3-0.9-12.4,0.8c-5.9,2.5-13.2,15.8-18.7,16.3c-4.2,0.4-9.6-5.1-13.4-6.7c-0.2-0.1-14.9-6.1-13.4-6.7
	c-3.7,1.3,1.8,6.8-5.4,4c-1.4-0.6-7.8-11.8-6.7-12c0.6-0.2,1,12.1-2.6,13.8c-5.9,2.7-9.9-10.6-12.1-9.8c-2.7,1.1,2,11.8-9.8,7.3
	c-1.5-0.6-12.3-13.7-11.7-14c-1.5,0.6,0.7,14.9-1.8,17.5c-6.9,7.2-10.3-5.2-12.9-4.1c-2.8,1.1,5.1,10.5-4.9,10.8
	c-3.4,0.1-9.9-9.5-9.9-9.5c-0.3,0.1,0.3,11.1-1.1,12.8c-4.4,5.5-4.2,1.1-9.1,3.5c-2.7,1.4-6.4,5.5-9.3,5.8c-3.8,0.3-6.4-5.1-8.7-4.7
	c0.8-0.2-12.3,28.3-17.4,21.4c0.4-0.9,0.9-1.8,1.3-2.7c-2.9-3.9-10.6,8.7-11.4,9.4c-2.1,1.7-5.6,2.2-7.1,3.7
	c-0.9,0.8-2.6,4.8-3.6,5.4c-6.4,3.9-14.5,7.7-21.1,12.8c-7.6,5.8-12,13.5-21,16.7c-6.1,2.2-6.2,2-11.7-0.6
	c-1.2-0.6-12.8-12.1-15-8.6c-1.8,2.9,20.7,14.6,11.7,24.9c-4.2,4.8-3.9-1.8-7.7,0.6c-3,1.9-5,4.9-8,6.7
	c-13.6,7.9-26.9,15.5-40.6,22.2c-12.8,6.3-22.8,17.4-35.6,23.2c-3.8,1.7-8.5,0.8-12.1,2.8c-2.6,1.4-4.1,5.3-6.8,6.8
	c0.2-0.1-8.7,2.6-9.3,2.6c-1.2-0.1-11.3-4.8-10.7-5.4c0.1-0.1,3.1,11.2,0,14.7c-2,2.4-10.4,4.8-13.3,6c-9.1,3.9-17.9,8.4-26.8,13.1
	c-8.9,4.7-18.8,9.7-28.7,11.4c-3.7,0.6-26.7-6.2-23.6-9.1c0.2-0.2,4.5,10.7,4.1,12.7c-1.3,6.8-3.4,5.6-8.2,8.9
	c-5.9,4.1-23.3,10.3-10.9,21.2c4.8,4.3,12.3-8.8,18.3-12.8c2.6-1.7,9.8-8.8,13.9-6.8c4.2,2.1,1.4,8.8,1.5,8.8
	c-7.4-3.5,19.7-13.3,20.1-13.4c2.2-0.8,5.3-4.3,8-4c1.7,0.2,8.1,6.7,8,6.7c-0.2,0.1-1.8-8.3-0.6-10.2c1.8-2.7,9.8-3.5,12.7-4.6
	c7.4-2.7,15.8-5.7,22.8-9.4c18.5-9.8,36.8-22.7,54.8-30.8c13.7-6.2,28.6-14.3,43-19.8c1.2-0.4,2.7,1.9,4.2,1.1
	c1.9-1.1,0.7-3.7,2.1-4.7c2.4-1.7,5.1-5.2,8.4-7.4c8.8-5.9,16.6-10.7,25.6-15.8c28.7-16.2,57.2-39.9,85-59.3
	c18.8-13.1,39-23,61.8-26.6c18.9-3,60.1-5.1,67.6,17.8c3.3,10-0.7,26-1.8,36.2c-0.9,8.9-7.1,14.3-17.7,8.1
	c-10.1-5.9-6.4-11.2-2.4-18c1-1.8,13.1-24.6,5.4-24.1c0,0-9.8,20.3-11.9,22.5c-4.9,5.2-12.2,8-14.2,15.1c-2.1,7.3,4.5,13.9,2.4,21.1
	c-0.5,1.8-27.7,25.8-21.8,28.3c-0.2-0.1,3.7-6.5,6.5-6c2.2,0.4,4,7.8,5.6,7.4c1-0.3,0.5-18.6,5.4-17.4c-3.1-0.8,9.5,26.9,14.7,18.7
	c-0.4,0.6-13.3-15.6-8-17.4c-3.5,1.1,20.4,18.5,18.7,8c0.3,2-21.7-12-10.7-16.1c2.1-0.8,9.4,10.4,12,8c1.9-1.7-4.8-7.2-2.7-9.4
	c-0.5,0.5,16.1,1.4,16.1,1.3c-0.7-1.8-4.4,9-4.5,9.8c-0.6,4.9,0.7,10.6,0.3,15.7c-0.8,10.4-3.9,20.4-4.8,30.7
	c-0.1,1.3-2.2,44.1-0.4,44.2c5.8,0.6,5.3-36.1,5.8-40.6c0.6-5.8,3.1-8.9,5.6-14.1c0.7-1.5,3.7-17.7,3.4-17.5
	c6.6-2.8,11.4,44,12.6,49c1.2,4.8,12.1,38.1,18.1,35.3c1.5-0.7-7.9-27.8-7.8-30.5c0.1-6.5-2.6-6.1,2.5-5.1
	c-0.7-0.1,17.6,10.5,18.7,11.6C553,564.1,557.8,586.7,561.2,598.1z"/>
</svg>
