<?xml version="1.0" encoding="utf-8"?>
<!-- Generator: Adobe Illustrator 22.0.1, SVG Export Plug-In . SVG Version: 6.00 Build 0)  -->
<svg version="1.1" id="Layer_1" xmlns="http://www.w3.org/2000/svg" xmlns:xlink="http://www.w3.org/1999/xlink" x="0px" y="0px"
	 viewBox="0 0 1080 1080" style="enable-background:new 0 0 1080 1080;" xml:space="preserve">
<style type="text/css">
	.st0{fill:#A14A7B;}
</style>
<g id="Layer_4">
	<g>
		<path class="st0" d="M1013.9,659.5c-17.8-15-41.7-22.6-64.6-20c-12.2,1.4-25,5.4-36.9,8.6c-4.6,1.2-10,1.7-14.3,3.7
			c-4.7,2.1-6.8,6.2-10.9,8.6c-8.5,5-20.1,2.1-30,4.4c-12,2.9-21.9,7.6-34.2,9.5c-26.4,4.1-56.4,9.7-82.8,2.7
			c2.1-8.7,6.5-18.3,10.5-26.2c5.3-10.5,9.7-9.7,21-12.5c9-2.2,22-5.2,29.7-11.1c4.1-3.2,4.8-5.5,9.8-8.5c4.2-2.4,8.4-4.4,11.7-8
			c8.6-9.6,3.2-15.2,18-15.8c11.3-0.5,21.1-0.1,31.9-4c19.2-7,32.4-20.1,48.1-33.1c9.4-7.8,13.1-14.4,17.4-25.5
			c4-10.5,12.1-22.5,10.7-33.9c-1.5-12.5-9.2-14.2-18.9-17.3c-6.9-2.2-6.8-0.6-5.9-7.1c0.7-5.1,5.3-10.1,6.7-15.1
			c4.6-15.7-6.2-43.9-27.2-36.4c-9.7,3.5-10.7,13.3-14.9,20.9c-1.7,3.1-3.1,5.2-5.9,7.9c-6.4,6.3-1.6,5.3-11.1,2.6
			c0.4-4,5.4-5.5,6.1-9.5c0.6-3.6-4.4-13.4-7.4-16.1c-8.1-7.2-25.8-7.1-36-10.8c-7.6-2.8-7.1-1.8-6.3-7.6c0-0.1,3.5-5.1,3.6-5.2
			c0,0,0.1-2.4,0.6-3.1c6.7-10.4,14.6-19.7,6.8-33c-3.4-5.7-14.5-13.6-21.6-13.3c-4.8,0.2-4.7,3.6-8.3,5.1
			c-5.6,2.2-8.1,0.8-13.5,4.8c-18,13.4-20,33.9-24.2,55.5c-1.7,8.6-5.1,18.8-9.3,26.6c-6.6,12.3-5.9,22.5-9.5,35.6
			c-1.1,4-4.9,6.6-5.8,9.2c-1.8,5,0.1,8.3-3.6,13.4c-7.6,10.7-19.7,9-31.6,10.2c-6.6,0.6-10.6,2-15.7,6.1c-4,3.2-4.9,7.8-7.2,11.8
			c-5.6,9.3-1.8,18.2-6.4,26.7c-2,3.8-6.5,7.5-10.2,9.3c-6.1,3-4.3,5-7.2-1.8c-2.8-6.5,0.6-10.9,2.1-16.7c1.1-4.2,0.1-9,2.5-13.5
			c5.7-10.5,18.4-10.9,24.9-20.8c7.3-11,2.7-24.3-9-30.2c-10.4-5.3-20.4,1.3-29.6-4.9c-13.9-9.4-0.5-15.4,7.1-24.8
			c7.2-8.8,4.7-17.8,8.2-27.7c3.8-10.8,13.2-19.2,22.8-24.7c4.5-2.6,8-4.5,12-7.7c1.6-1.2,5.4-2.2,6.8-3.6c3-3-0.5-3.7,4.6-8
			c4-3.3,9.4-2.9,14-4.1c5.5-1.4,11.5-3,17.1-6.2c14.8-8.3,33.2-15.6,48.5-20.5c17.5-5.7,41.3-12.1,50.4-29.9
			c5-9.9-0.1-23.7-11-26.7c-11.6-3.2-27.8,2.2-39.6,3.6c-12.6,1.5-22.9,9.8-35,12.8c3.6-0.9-5.3-0.9-5.6-0.8c-2.7,0.4-6.1,1.9-9,2.4
			c-5.4,0.9-9.2,0.8-14.1-1.3c-23.7-10.1,10.4-40.3,18.1-53c4.3-7.1,3.2-12.8,6-20c2.5-6.3,5.4-10.7,7.5-17.2
			c3.6-11.6,7.8-19.6-3.2-29.6c-6.6-6-25.2-9.4-32.4-3.1c-8.3,7.2-9.2,19.2-16,27.5c-5.2,6.2-6.2,3.1-14.6,3
			c-5.6-0.1-10.4,0.9-14.8,4.6c-7.6,6.6-10.3,24.2-2.6,31c-4.3,4.2-3,5.3-5,9.4c-1.8,3.6-2.8,9.1-7.9,7.8c-4.3-1.1-3.9-7.7-5.9-10.5
			c-2.9-3.9-4.6-5.8-9.3-8c-7.9-3.6-16.5-3-23-9.4c-2.2-2.1-5.5-5.1-5.5-8.7c-0.6-3,0.5-5.3,3.2-7c-1.1-1.5-2.2-2.9-3.3-4.4
			c1.4-1.9,2.8-3.7,4.3-5.6c-0.6-1.3-1.3-2.7-1.9-4c0.4-3.7,1.1-7.6,0.4-11.3c-1.7-8.5-7.9-16.4-15.2-21
			c-14.9-9.4-33.2-17.6-44.6,1.3c-2.2,3.7-3.1,7.8-5.4,11.5c-2.1,3.3-5.6,5.3-7.1,9.1c-3.9,10.1,1.8,16.9,6,24.2
			c9.2,15.9,10.2,37.9,15,55.9c4.5,16.9,2.7,35.2,9.1,51.6c2.7,7,9,14.4,7.3,22.9c-0.9,4.2-2.9,6-4.3,9.9c-2.1,5.6-0.5,12-4.1,17.2
			c-8.2-5-12-10.2-13.5-20c-1.3-8.2,3.5-16.5,3-25c-0.5-8.7-0.6-18-4.8-25.9c-1.8-3.4-5.9-7-6.7-10.9c1-1.2,1.9-2.3,2.9-3.5
			c-0.7-3.8-1.4-7.7-2-11.5c-7.9,1.9-5.5-1.5-1.6-4.9c-9.2-5.6-16.2-14.1-28.5-12c-15.4,2.6-14.3,17.6-13.6,29.6
			c0.6,10.7-1.5,21.2-1.1,31.7c0.2,5.9,1.4,12.5-0.6,18.2c-2.1,6.1-7.3,10.2-8.2,16.9c-3.1,22.1,16.8,38.7,24.5,57.6
			c9,22.2-0.7,39.3-4.8,61c-1.4,7.3-7.8,23.1-15.7,26.1c-11.6,4.3-11-14.2-12.5-22c-4.3-22.2-13.4-41.9-16.3-64.6
			c-1.3-10-1.2-20.9-6-30c-2.4-4.5-4.8-6.6-5.5-11.7c-1.1-7.7,1.7-18.1,1.8-26c0.3-22.9,10.6-45.3,9.1-69.4c-0.3-5.1-2.1-9.9-2.2-15
			c-0.1-7.4,4.4-9,6.1-15c0.6-2-2-3.6-1.2-6c0.4-1.2,1.7-2.9,2.3-4.1c2.9-6.1,6.4-7.1,5.4-16c-2.1-17.4-32.5-47.8-51.6-32.5
			c-9.9,7.9-1.6,17-17.6,15.3c-12.8-1.3-24-0.9-31,11.9c-11.6,21.1,17.6,36,23.6,53.8c2.1,6.4-0.9,7.6-3.1,12
			c-2.5,5.1-4.9,9.2-6.7,15.1c-1.4,4.4-3,9.7-7.6,11.7c-8.6,3.6-8.1-2.2-9.9-8.3c-3.5-11.5-8.6-20.6-8-32.7s1.8-23.3-8.2-32.4
			c-4-3.6-6.9-2.2-11.4-4c-4.8-1.9-8.5-6.7-13.4-8.5c-10.7-3.9-25,1.6-32.7,10.2c-1.1,1.2-3.7,2.1-4.5,3.5c-0.8,1.5,1.2,3.7,0.1,5.2
			c-2.2,3.2-3.8,3.5-7.2,6.3c-8.5,7-14.1,15.9-10.6,27.5c2,6.9,17.1,24.6,12.1,31.3c-2.9,3.9-13.9,0-18.4,0.7
			c-6.8,1-8.6,3.7-14.1,7.4c-4.7,3.1-10.5,4.8-14.9,8.4c-4.1,3.3-6,9.2-10.7,11.6c-3.4,1.8-12.1,2.8-16.1,3.4
			c-12,1.8-2.4,2.6-8.6-1.9c-2-1.5-4.4-5.5-6-7.5c-7.2-9.2-14.4-22.7-24.4-29.3c-6-3.9-9.5-4-16-0.9c-9.1,4.4-7.7,8.3-17.2,1.7
			c-25-17.4-44.7,16.5-49.9,37.9C90,341.9,65.2,344.7,63,371.2c-0.6,7.6,2.3,15.7,2,23.4c-0.2,5.2-1.3,10.4-1.7,15.5
			c-1,12.2,1.3,20.2,12.4,25.4c9.5,4.4,16.4,1.1,25.7-1.2c10.2-2.5,20.9-4.1,30.9-4c9.3,0.1,21.6-0.1,30.4,4.3
			c12.2,6.2,8.9,17.7,16.8,27.7c-10.7,1.3-23.4,2.7-34,2.5c-11.7-0.2-19.8-9-32-7.4c-12.1,1.5-17.4,8.3-20.7,19.3
			c-4.3,14.1,2.9,16.6,12.6,24.2c3.4,2.7,5.7,6.5,10.4,9c4.7,2.5,9.5,4.5,14.2,7c8.8,4.6,21.2,6.6,28.1,13.5
			c4.8,4.8,6.1,13.7,11,17.9c2.7,2.3,5,1.7,8,2.7c5.3,1.9,5.9,2.2,11.1,5.8c6.2,4.4,14.5,9,21,12.4c3,1.6,5.9,1.2,9,3.1
			c5.5,3.6,10.5,10.8,15.1,15.5c7.9,8.1,11.8,12.8,22.6,16.4c9.7,3.3,18.1,9.3,27.8,12.8c8.3,3,17.2,6.1,25.9,8.4
			c11.7,3.1,25.3-0.8,36.5,4.3c10.8,4.9,4.4,9.3-4.7,12c-11.1,3.3-24.2,4.3-35.5,1.7c-21.9-5-44.3-14.8-62.9-27.4
			c-10-6.8-17.4-13.4-28.4-18.6c-8.7-4.1-9.3-10.9-16.7-16.9c-13.9-11.4-34.4-26.1-52.8-28.1c-17.9-2-50.5,3.2-40.8,27.9
			c3.2,8.2,8.7,11.7,15.2,16.8c6.1,4.8,17.1,8.8,21.3,15.5c7.4,12-7.7,6.8-15.1,6c-10-1.1-23.8-2.5-32.3,3.6
			c-6.9,5-10.6,13.1-6.1,20.5c1.8,2.9,6.1,5.2,8.3,8c3.6,4.4,5.9,10.1,10.6,13.6c7.6,5.7,19.6,4.9,28.5,7.6c10.3,3,16.9,8.5,26,12.1
			c6.6,2.6,13.5,0.1,19.4,1.3c5.2,1.1,8.9,3.9,14.8,4.1c12.3,0.3,24.2-0.9,36.6,0.9c12.6,1.9,25.7,5.3,37.7,9.3
			c6.8,2.3,13.6,4.9,20.4,7.5c6.8,2.5,11.8,2.2,9.2,9.2c-1.3,3.6-6.6,6.9-8.4,11.7c-2.8,7.3-3,10.9,2.4,17.1
			c6.8,7.7,17.3,12.7,26.3,17.4c10.9,5.6,22.8,8.4,33.7,13.8c7.8,3.9,14.1,10.6,21.1,14c-2.6,2.3-5.1,5.1-7.9,7.1
			c-3.2,2.3-8.2-3.9-6,4.5c0.7,2.7,2.6,3.2,4.7,4.6c6.2,4.3,3-7.1,9.7,2.2c-7.3,0.5-3.5,4.6-0.9,7.5c0.9,1.1,5.3,1.4,6.3,2.1
			c2.5,1.9,0.3,4.5,4.7,6.1c0.7-2.1,1.5-4.2,2.2-6.3c1.3,3.3,2,8.2,4.8,10.5c-12.2,5.8,0.7,5.5,4.5,9.4c1.9,2,2.4,9.2,3.8,12
			c2.3,4.4,6.8,7.4,9.5,9.5c2.2,1.8,4.6,1.1,6.7,4.6c1.3,2.1,2.9,12.3,3,14.6c0.3,5.1-5,5.5,3.1,8.9c4.8,2,10.5,2,7.1-4.5
			c5.3,4.4,11.8,6.4,17,11.2c-8,3.3-9.3-6.9-17.4,0.9c13.5,10,38.3,11.5,54.2,6.9c4.4-1.3,14.1-3.7,21.3-6.3
			c10.7-3.8,15-12.6,24-17.7c7.7-4.4,15.8-1.2,23.4-7.8c6-5.2,7.9-13.2,13.8-18.2c8.4-7,6.6-2.8,7.6-14.2c0.7-8.3,3-11.6,10.6-15.5
			c-0.1,11.6,15.7,4.4,20.1,2.7c3.2-1.3,10.2-4.6,13.5-5.3c2.2-0.4,4,2.3,6.5,1.4c2.8-1,2.2-3.4,4.4-4.3c4-1.6,5.8-0.1,9.7-3
			c6.8-5,2.8-5.7,10.8-7.1c13.7-2.3,28.4-0.6,42.5-2.9c10.6-1.7,23.7-3,32.5-9.7c5.8-4.4,6.4-5.8,6.7-13.1c0.2-3.8,0.9-7.6,0-11.3
			c-0.7-2.8-4.1-5.1-4.4-7.9c-0.9-7.7,2.6-6.4,9.9-6.5c5.7-0.1,11.4-0.2,17.1-0.2c14.4-0.1,28.1,0.5,42.4,1.8
			c13.1,1.2,25.4,3.6,38.1,6.9c11.7,3.1,23.2,10.5,35.3,11c3,0.1,16,1.5,18.2,2.4c4.4,1.8,11.9,3.8,16.7,3c10.2-1.7,39,0.6,45.3,0
			c11.1-1.1,22-11.1,31.8-16c11-5.5,13.5-12.3,7.5-24.3c-1.5-3.1-3.3-7.2-5-9.9c-3.8-6.2-0.4-3.3-6.9-6.8c-5.7-3-28.6-2.5-27.6-10.1
			c1.1-8.6,21.7-8.3,26.8-9.6C987.9,700.5,1038,679.8,1013.9,659.5z"/>
	</g>
</g>
</svg>
