<?xml version="1.0" encoding="utf-8"?>
<!-- Generator: Adobe Illustrator 22.0.1, SVG Export Plug-In . SVG Version: 6.00 Build 0)  -->
<svg version="1.1" id="Layer_4" xmlns="http://www.w3.org/2000/svg" xmlns:xlink="http://www.w3.org/1999/xlink" x="0px" y="0px"
	 viewBox="0 0 1080 1080" style="enable-background:new 0 0 1080 1080;" xml:space="preserve">
<style type="text/css">
	.st0{fill:#E08B1B;}
</style>
<g>
	<path class="st0" d="M170.5,458.8c-3.2-9.4-7.2-18.7-9.4-28.3c-1.3-5.6,0.5-11.8,0.5-17.7c0-3.6-0.5-7.4-1.7-10.8
		c-8-21.6-19.1-42.4-23.7-64.6c-6.9-32.8,9.2-61.4,25.2-88.5c11.4-19.4,24.8-37.7,49.4-51.4c-16.7,38.3-31.8,72.8-46.7,107.2
		c9.8,0.1,13.8,6.9,15.7,20.6c2.6,17.7,12.6,34.1,16.9,51.7c3.4,13.6,3.1,28.1,4.4,42.2c1.2,13.3,1.7,26.7,3.6,39.9
		c0.4,3.1,4.5,6.8,7.8,8.1c18.7,7.2,37.4,14.8,56.7,20.3c13.1,3.7,26-8.8,28.4-21.6c9.1-5,16-8.9,26.4-14.7
		c-60.9-25.8-97.1-68.4-118.4-124.6c12.6-3.6,5.8-10.9,3.1-17c-9.1-20.7-6.1-40.4,5.4-58.7c6.3-10,15.4-18.2,22.6-27.7
		c5.6-7.4,10.1-15.6,15.7-24.4c1.4,1.5,3.7,3.9,4.5,4.7c12.2-11,24.4-22,36.6-33.1c33.4-30.4,75-43.3,116.9-56
		c28.8-8.8,56.6-21.6,87.8-18.7c8.3,0.8,16.6,1.7,25.4,2.6c1.7,4.5,3.5,9.1,4.7,12.3c-32.5,10.4-60.9,27.4-88.8,45.2
		c-10.6,6.7-19.8,15.6-30.4,22.3c-4.5,2.9-8.8,13-16.8,3.9c-0.1-0.1-5.1,3.7-7.5,6c-18.4,17-36.6,34.1-55,51.1
		c-20.4,18.9-40.9,37.8-61.3,56.6c11.4,6.1,22.8,12.3,35.5,19.1c2.4-6.7,4-11.5,5.7-16.3c0.9,0,1.7,0,2.6,0
		c2.2,9.9,3.7,20.1,6.9,29.7c2,5.7,5.9,11.7,10.7,15.1c1.8,1.3,8.5-4.2,13.9-7.1c0.8,7,1.9,14.4,2.6,21.8
		c1.4,15.3,6.3,18.9,21.5,14.3c-6.7,17.6,5.5,25.7,15.3,34.2c8.9,0.6,4.8-20.3,18.4-7.3c4.2-15.4,10.3-24.3,24.9-11
		c1.2,1.1,4.4,1.8,5.7,1c14.9-9.6,31.9-4.6,47.8-6.7c7.2-1,15.7-1.2,22.1,1.6c12.9,5.7,22.1,1.3,31.3-6.9
		c5.2-4.6,10.8-8.6,13.2-10.4c15.5,5.4,28.4,14.4,40.1,13c23.3-2.7,43.6,4,64.6,10.9c4.8,1.6,9.6,3.5,14.5,4.1
		c20.9,2.6,30.1-9.5,25.3-34.3c12.3,3.3,19.5-1.4,18.9-13.9c-0.5-9.8-2.8-19.6-4.3-29.3c1.3-0.8,2.6-1.7,4-2.5
		c2.8,5.6,5.6,11.3,8.8,17.6c19.4-18.1,6.9-38.4,16.7-54.4c2.6,4.6,5.3,9.2,9.4,16.3c9.2-8.1,17.5-15.5,26.3-23.3
		c-36.3-10-71.7-19.2-106.8-29.6c-33.5-9.9-66.1-23-100-31c-28.6-6.7-58.6-7.8-87.9-11.9c-5.8-0.8-11.3-4-18-6.4
		c42.1-46.9,96.8-41.3,148.1-47.7c54.6-6.8,103,9.3,149.1,39.2c1.5-4.2,2.6-7.4,2.9-8.3c18.9,13.1,37.2,26.3,56.2,38.7
		c14.6,9.5,26.7,35.2,23.3,52.3c-1.9,9.6,1.6,18.4,2.9,27.4c1.7,11.8-4.7,25.4-9.9,37.3c-14.8,34.1-35.3,64.5-65.1,87.4
		c-8.5,6.6-18.9,10.7-29.2,16.4c11.8,7.3,23.2,14.3,37.5,23.1c1.1,1.9,3.4,8.7,8,13.4c2.4,2.5,9.4,3.3,12.8,1.7
		c20.7-10.1,41.2-20.9,61.4-32.1c4-2.2,8.6-6.9,9.1-11c2.1-16.2,2-32.7,4.2-48.9c2-14.4,5.9-28.6,9.1-42.8c0.2-0.9,1.1-1.6,1.1-2.4
		c0.8-8.7-0.8-18.5,2.6-25.9c21.7-47.5-23-63.9-42.5-91.8c-4.6-6.6-12.6-10.8-21.3-17.9c5.5-0.3,8.4-1.1,10.9-0.4
		c44.1,12.9,79.6,38.1,103.2,77.5c5,8.4,3.1,23.1,0.2,33.8c-5.6,20.7-14.2,40.5-21.6,60.7c-0.8,2.3-2.8,5.2-2.1,6.9
		c10.2,25.8-7,44.1-18.5,63.1c-13.5,22.3-31.6,40.8-54.4,54.9c-18.6,11.4-18.1,22.2-3,35.3c2.8-3.5,5-8.1,8.6-10.2
		c13-7.3,27.5-12.4,39.6-21c11.2-7.9,24.8-17.4,28.9-29.2c8.8-25.6,25.3-44.9,41.6-64.8c8.6-10.6,18.6-20,28.3-29.6
		c1.1-1.1,4.4,0.5,6.6,0.2c8.6-1.4,13.6-3.9,13.7-15.4c0.1-11.2,5.4-22.9,10.3-33.5c5.9-12.7,14.1-24.4,20.9-36.7
		c3.5-6.4,6.3-13.2,9.5-19.8c1.4,0.2,2.9,0.4,4.3,0.5c0.3,5.9,1.5,12,0.7,17.8c-4.3,31.6-16.6,60.6-27.1,90.5
		c-12.6,35.8-40.3,57.1-61.5,85c-28.4,37.3-67.4,57.6-104,82.7c-1.6,1.1-3.2,2.4-4.7,3.8c-0.6,0.6-0.7,1.8-1.6,4.2
		c33.5,15.7,69.2,1.1,104,10.4c-16.1,4.3-32.1,8.7-48.2,12.9c-40.8,10.5-81.8,20-122.2,31.8c-18.9,5.5-36.6,15.2-53.6,33.8
		c8.3,1.3,13.1,3.3,17.5,2.6c13.1-2.1,26-7.3,39.1-7.5c27.7-0.4,56.2-2.2,82.8,3.6c27.2,6,57.5,9.3,76.4,36.4
		c4.8,6.9,16.3,9.3,25,13.1c26.5,11.7,42.3,29.5,38,60.6c-3.5,25.2-5.8,50.7-9,75.9c-0.5,3.7-3,7.1-4.5,10.6
		c-1.4-0.1-2.7-0.2-4.1-0.4c0-12.2,0.8-24.5-0.2-36.6c-1.1-12.5-4.7-24.9-5.7-37.4c-0.5-6,2.4-12.3,3.7-18.4
		c-18.5-11.5-38.2-22.8-56.8-35.6c-10.1-7-19.2-15.9-27.4-25.3c-7.8-8.9-16.1-11.8-27.8-10.9c-12.9,1-26-1.4-39-1.2
		c-24.6,0.3-49.3,2-73.9,1.8c-11.2-0.1-22.3-3.6-33.5-5.4c-5.5-0.9-11.1-1.5-18.9-2.5c2.1,12.3,3.7,21.5,5.4,31.5
		c28.7-2.1,56.8-12.1,80.7-0.3c3.5,8.2,4.9,13.8,8,18.1c2.5,3.5,7,5.6,10.7,8.2c18.5,13.3,18.4,32.5-0.2,45.4
		c-2.5,1.7-5,3.4-9.5,6.6c17.7,0.1,21.4,13.7,27.3,24.3c6.2,11.3,12.6,23.2,15,35.5c3.2,16.3,4.3,33.4,3.2,50
		c-2.1,33.9-9.3,66.5-40.4,86.8c-8.5,5.5-19.2,8.9-29.3,10.3c-14.9,2-20.6-4.5-22-19.9c-2.8-30.2,3.8-59,13-87.4
		c1.3-4,2.9-9.2,1.4-12.6c-13-30-14.1-61.4-11-93.1c0.7-7.2,4.3-14.1,5.5-18c-20-7.3-40.1-14.4-59.9-21.9c-3.6-1.4-7.5-3.9-9.6-6.9
		c-8.6-12.6-19.6-8.1-30.5-5.1c-13.3,3.7-26.4,8.7-39.8,11.6c-19.6,4.2-39.4,7.9-59.2,10.2c-15.9,1.8-32.2,2.7-48,1.2
		c-28.5-2.7-56.8-7.2-85.1-11.5c-10.6-1.6-20.9-5.2-31.5-7.3c-3.1-0.6-7.9-0.6-9.7,1.2c-10.1,10.2-20.7,17.4-35.9,19.6
		c-15.6,2.3-30.7,8.7-47,13.6c8.4,22.2-0.5,47-8.5,71.5c-4.2,12.8-2.1,22.4,3.9,34c10.6,20.3,20.1,41.5,27.1,63.3
		c7.4,23.1-3.4,34.8-27.8,32.9c-28.3-2.3-49.9-17.1-62.8-41.3c-10.4-19.6-18.8-40.9-23.7-62.4c-3.1-13.6-1.8-30.5,3.8-43.1
		c5.7-12.9,19.6-22,29-33.5c3-3.7,5.7-10.8,4.2-14.7c-9.2-24-5.4-33.4,19-42.8c9.5-3.7,18.9-7.3,9.2-19.2
		c29.2-15.7,56.3,2.3,85.7,4.3c2.3-10,4.6-20.1,7.5-33.1c-20.5,0-39.9,2.1-58.6-0.4c-39.2-5.4-77.9-13.9-117-19.5
		c-8.8-1.3-20.9,1.5-27.5,7.1c-24.2,20.3-53.5,27.5-82.7,34.2c-9.3,2.1-12.7,3.8-16,12.8c-9.6,26.1-21,51.6-31.7,77.4
		c-1.5-0.3-3.1-0.5-4.6-0.8c2-15.9,2.4-32.2,6.5-47.5c5.3-19.8,13.8-38.7,20.4-58.2c5.4-15.9,18.4-21.7,32.7-25.7
		c12.1-3.3,24.7-4.7,36.6-8.3c10.1-3.1,19.2-10.5,29.3-11.9c22-3.2,44.4-6,66.4-4.9c27,1.3,53.9,6,80.6,10.5c8.6,1.4,16.5,7.2,25,10
		c4,1.3,8.7,0.2,13.2-1.7c-27.3-28.1-62.3-35.7-97.8-42.5c-41.7-8.1-83.3-16.7-125-25c0.1-1.9,0.2-3.8,0.3-5.8c26.4,0,52.8,0,79.2,0
		c0.3-1.4,0.6-2.8,0.8-4.2c-33.7-13.6-56.1-41.1-68.5-71.4c-11.8-28.9-36.4-49.9-43.4-80.2c-3.2-13.9-4.6-29.6-1.6-43.3
		c5.7-25.8,14.5-51,23.7-75.9c3.2-8.8,11.1-15.9,19.8-22.1c-6.4,36.2-12.7,72.5-19.4,110.9c1.3,0.2,6.8,1.1,12,1.9
		c11.3,22,22.5,44.2,34.2,66c1,1.9,5.1,2.2,7.7,3.2c3.3,16.5,5.4,33.4,10.3,49.4c2.7,9.2,3,21.6,16.6,24.4c10.7,2.2,21.4,4.7,31.8,8
		c14.3,4.6,18.7-5,25.1-14.2C214,511.9,201.7,501.9,170.5,458.8z"/>
</g>
</svg>
