<?xml version="1.0" encoding="utf-8"?>
<!-- Generator: Adobe Illustrator 22.0.1, SVG Export Plug-In . SVG Version: 6.00 Build 0)  -->
<svg version="1.1" id="Animal" xmlns="http://www.w3.org/2000/svg" xmlns:xlink="http://www.w3.org/1999/xlink" x="0px" y="0px"
	 viewBox="0 0 1080 1080" style="enable-background:new 0 0 1080 1080;" xml:space="preserve">
<style type="text/css">
	.st0{fill:#77395E;}
</style>
<g>
	<path class="st0" d="M863,240.7 M862.1,234.8c10.2-20.8,54.1-5.9,62.6,9.1c2.8,4.9-3.2,1.3,3.2,5.3c2.2,1.4,6.1,1.5,8.6,2.3
		c5.2,1.5,10.7,2.7,14.6,6.4c3,2.9,4.3,10.3,8.6,11.7c4.9,1.5,6-5.5,10.4-2.1c3.7-9.7,22-9.5,30.8-6.2c4.5,1.7,6,3.4,6.6,8.2
		c1.1,9.1-3.2,8.7,7,10.6c-3.8,3.5-9.4,7.3-6.8,12.6c1.8,3.7,11,6.1,5.9,11.7c-7.5,8.1-26.7-7-33.2-9.8c-15-6.3-13.4,9.1-19.8,18.2
		c-1.5,2.1-4.5,3.7-5.4,6.3c-1,2.9,1.1,9,1.2,12c0.4,8-1.6,15.8-1.3,23.8c0.3,8.1,0.2,10.6-3.6,17.3c-3,5.2-2.2,10.4-4.1,15.6
		c-3.5,9.7-14,4.8-21.1,10.7c-9.1,7.6-7.1,28-11.1,39.1c-4.2,11.8-9.3,22-18.2,30.4c1.3,0.2,2.6,0.4,3.9,0.6
		c-2.6,8-10.8,21.3,1,25.7c6,2.2,14.8,1.9,21.4,3.6c7.8,2.1,15.6,4.5,23,7.7c4.7,2.1,16.4,6.2,19.2,9.4c4.3,4.9-0.1,12.5,2.5,17.9
		c1.9,3.9,5.2,0.8,7.5,3.9c1.4,1.9,0.2,6.1,0,8.3c-1,16-6.8,30.6-13.7,44.7c-5.3,10.8-14.3,16.6-20.7,26.3
		c-2.6,3.9-7.2,9.3-8.8,13.6c-1.9,5.3,1.9,14,1.7,20c-0.3,6.5-1.8,12.7,0.3,19.1c2,6.1,6.5,11.8,9.6,17.4
		c7.5,13.5,15.8,17.9,28.1,26.3c4.2,2.9,11.2,7.5,13.2,12.6c2.2,5.7,0.2,5.6-4.2,8.4c-2.1,1.3-3,0.7-4.9,2.8c-1.6,1.8-1,5.5-3.2,6.8
		c-5.6,3.5-9.2-4.9-11.5-9.5c-2.3-4.7-3.9-9.1-7.5-13.1c-3.6-4-8.4-5.5-12.5-8.8c-8.4-6.7-16.7-21.6-20.8-31.4
		c-4.4-10.5-4.1-25.1-5.3-36.4c-0.7-6.7,1.8-12.8,2-19.5c0.2-6,0.3-10.6,2.6-16.3c5.7-14.1,15.9-25.8,24.3-38.3
		c4.2-6.3,24-29.6,11.4-32.9c-6.1-1.6-18.3,0.2-24.2,1.6c-6.1,1.4-8.4,6.8-14,8.3c-6.7,1.9-12.1-3.5-19-1c-6.3,2.2-9.4,9.2-14.5,6.1
		c-0.2,1.8-0.4,3.6-0.5,5.4c-4.5-0.6-3.8-5.5-6.9-7c-8-3.9-3.3,7.1-9.6,8c-4.6,0.6-4.6-9.3-7.9-10.3c-1-0.3-4.9,2.6-6.1,2.9
		c-3.3,0.8-6.1,0.3-9.4-0.1c-11.1-1.3-20.9-5.1-32.3-4.5c-12.2,0.5-19.5,3.8-31.2-1.5c-0.7,2.3-2.2,11.3-4.7,11.5
		c-0.7-3.2-0.7-10.9-3.2-13c-4.8-4.1-3.6,4.8-4.7,8.1c-2.4,7.7-14.8,9.5-18.8,0.9c-1.5,3.6-10.5,1.6-14.7,4.8
		c-5.5,4.2-8.3,10.9-14.3,15c-5.5,3.8-8.7,6-12.7,11.4c-1.8,2.4-3.9,5.8-6.3,7.6c-4.7,3.5-5.3,2.4-11.2,0.7
		c-2.4,14.2-6.8,4.4-17.2,5.1c1.6,5.3,6.2,8.7,9.3,13.4c4.3,6.6,9.3,11.5,14.5,17.4c5.3,6,9.9,12.3,14.2,19
		c3.1,4.8,8.6,9.9,7.5,15.4c8.3-3.6,12.4,11.5,14.8,17.4c3.5,8.6,10.1,16.5,15.7,24.4c5.2,7.4,10.4,18,18,23.3
		c3.6,2.5,23.9,6.6,23.3,10.8c-5.4,0-15.3-3-19.9,0.2c-4,2.8-5.6,9-5.4,13.3c0.6,14.7,8.8,30.1,14.1,43.5c2.9,7.3,6.1,14.4,8.1,22
		c1.7,6.3,0.9,11.7,3,17.9c2.2,6.7,4.2,12.8,5.9,19.6c0.9,3.3,9,16.3,2.8,17.4c5.5,2.2,5,13.1,7.5,18.4c1.8,3.8,4.9,6.7,6.2,10.6
		c1.6,5.1,0.6,11.7,0.7,17c0.1,4.5,0.3,18.7-5.6,16.9c-2.4-0.7-3.1-4.2-4.8-5.7c-5.4-4.9-7.1-3.7-11.2-0.4c-2.1,1.6-4.9,8.5-8.8,3
		c-2-3,3-11.4,4.1-14.3c3.3-9,1.9-17.1-2.4-25.9c-4.1-8.5-3.6-15.5-4-25.1c-0.3-8-6.4-16.3-7.5-26c-2.4-21.1-11.6-41.6-15.2-62.7
		c-0.8-4.7-1.8-9.6-3.6-14c-2.3-5.5-5.7-6.8-9.1-11.1c-6.1-7.7-6.3-18.1-8.2-27.1c-1.8-8.9-6.6-11-13.6-15.9
		c-2.1-1.5-8.4-5.6-8.1-10.1c0.6-7.1,7.4-3.5,1.4-11.6c-13.8-18.7-28.6-36.4-43.3-54.5c-7.6-9.4-13.8-21.1-22.5-29.5
		c-8.9-8.6-17.2-2.7-26.9-6.8c-5.3-2.2-2.7-5.5-7.4-0.3c-3.4,3.8-4.3,6.9-9.2,9.5c-13.8,7.3-10.3-4.8-11-14.2
		c-1.5,0.5-2.9,1-4.4,1.4c-0.3-1.2-0.3-4.1-1.8-4.1c0,8-0.1,20.2-12.3,17.2c-4.6-1.1-4.1-4-6.7-7c-3.2-3.8-7.2-3.7-9.2-8.2
		c-0.8,1-6.1,6-6.2,6.2c-2,2.6,1.3,3-2.4,4.8c-1.6,0.8-9.1,0.2-10.5,0c-4.2-0.7-4.2,0.9-4.8-3.8c-1.5,1.4-1.7,4.1-3.2,5.2
		c-2.5,2-3.5,0.2-5.6,1.5c-2.1,1.3-5.8,8.2-8.4,8.7c-4.1,0.8-2.1-1.7-5.5-2.9c-3.6-1.3,0.1-2.1-5.5,0.3c-2.4,1-4.9,3.1-7.1,4.5
		c-5.5,3.6-9.9,7.1-14.1,12.1c-3,3.5-8,11.2-14.1,8c-4.7-2.5-3.2-7.1-10.2-7.3c-6.4-0.2-8.8,3.2-12.2,7.8c-4.4,6-9,10.1-13.9,15.3
		c-9.6,10.1-8.5,26.5-13.5,39.1c-4.7,12.1-16.2,18.7-23,29.1c-4.1,6.2-5.2,11.3-5.1,18.7c0,4.3,1.9,12.8-5.2,12.4
		c-7-0.4-2.3-8.2-6.1-10.7c-2.7-1.7-9.6,7.7-7.8,1.4c-6.2-1.4-1.9,2.1-4.7,3.9c-4.4,2.8-9.4,4.8-13.9,7.5
		c-8,4.8-15.3,10.5-22.8,15.9c-2.3,1.6-4.5,3.1-6.8,4.7c-2.1,3-4.2,3.2-6.4,0.4c-3.5,1.1-7.1,4-10.1,6c-6.2,4-12.1,4.9-17.9,8.9
		c-3.2,2.2-6.7,6.4-10.3,7.8c-1.7-3.2-3.3-3.2-4.9-0.2c-1.5,1.4-3.1,2.7-4.9,3.7c-4,1.8-5.6-0.2-9.4,0.6c-1.9,0.4-7.6,3.9-9.2,5.2
		c-6.5,5.1-4.8,12.1-9.2,18.3c-3.9,5.6-7.1,6-11.7,0.7c-2.9-0.8-3.8-2.3-2.5-4.5c1.2-2.2,0.2-3.2-3-3c1.4-2.3,2.8-4.7,4.2-7
		c-7.2,0-18.5,1.8-13.1-8.8c3.9-7.6,11.8-6.9,19.9-8.4c17.4-3.1,32.8-7.8,48.6-15.4c14.6-7,28.1-15.6,41.9-24.2
		c7.7-4.8,13.5-9.5,19.7-15.9c1.5-1.9,3.3-3.5,5.4-4.8c3.3-1,4.1-2.9,2.4-5.7c2.3-3.1,3.8-4.1,7.4-5.7c-6.6-1.3,2.4-6.8,5.4-11
		c3.7-5.3,7.6-10.3,11.3-15.6c3-4.3,8.8-9.4,4.1-14.1c-4-4-18.4-5.4-23.8-6.2c-6-0.9-12-0.2-18-1.5c-2.7-0.6-9.1-2-11.1-4.1
		c-4.7-4.9-1.3-1.7-0.1-7.1c1.4-6.2,2.7-7.7-1.2-14c-4.3-6.9-9.3-6.1-15.1-9.8c-4.7-3.1-3.7-8.8-7-12.9c-0.1-0.1-4.6-2.6-4.6-2.6
		c-1-3.6,2.3-2,2.4-5.3c0.2-6-1.1-4.8-7.3-3.3c-7.6,1.9-14.7,5-21.8,8.2c-26.6,12-56.1,19.8-84.4,26.8c-32,7.9-66.4,11-97.1-3.5
		c-12.3-5.8-16.9-16.1-25.2-26.1c-9.7-11.6-11.5-22-6.6-36.5c4.5-13.4,13.8-22.3,24-31.5c13.3-11.9,27.3-23.1,41.5-34
		c10.6-8.2,20.3-18.1,31.8-25c14.6-8.7,29.6-16.6,44.1-25.3c12.2-7.2,22.6-17.4,35.2-24.6c14.2-8.2,29.7-16.7,44.8-23.3
		c17.4-7.6,34.9-15,52.1-23c9.8-4.5,11.7-5.1,14.8-15.4c1.3-4.2,4.1-7.5-0.1-10.1c-3.5-2.2-8.1,0.7-11.8-2.3
		c12.5-7.3,23-10.9,32-22.9c10.6-14,23.5-24.7,42.1-21.6c7.3,1.2,12.4,4.9,18.6,7.9c4.6,2.3,13.2,4,19.7,5.6c6,1.5,11.7,3.2,17-1.4
		c2.4-2.1,3-5.3,5.4-7.4c2.7-2.4,6.7-3.7,10-5c3.8-1.5,6.4-2.6,10.5-2.5c3.2,0.1,5.6,1.7,8.7,0.1c2.4-1.2,3.5-5.1,5.3-7
		c2.7-2.9,6.3-4.6,9.9-6.1c7.1-3.2,19.1-3.3,25.1-8.2c7.2-5.9-3-18-6.7-23.8c-3.8-6-9.6-8.1-6.6-14.4c2.7-5.7,5.5-12.5,12.1-13.8
		c18.5-3.4,22.3,15.8,33.1,25.9c13.4,12.6,37.5,9.8,53.9,5.2c8.7-2.4,22-4,11.8-8.6c-6.2-2.8-2.6-1.6-6.6-7.6
		c7.1-2.3,39.3,7.4,40.3-0.3c1-7.7-15.3-1.4-15.9-8.3c-0.6-7.3,16.3-2.4,19.7-0.3c4.3,2.7,5.4,4.4,10.6,4.3c4.7,0,12-2.8,16.3,1.2
		c3.5,3.2-0.1,2.6,1.3,7c1.5,4.8,5.1,4,9.6,5c6.9,1.6,22.9,5.9,23.9-4.8c0.9-10-8.8-4.8-10.2-12.8c6.4-0.7,15.4,2.2,20.4,6.5
		c3.5,3,1,0.8,5.2,2.3c1.2,0.4,8.2-4,11-3.9c3.9,0.2,7.5,2.5,10.9,4c6.6,2.9,8.9,4.6,14.8,0.2c8.7-6.3,8.9-2,18.7-2.7
		c7.8-0.6,5.1-5.1,9.6-10.2c3-3.4,31.6-5.6,31.6-10.4 M853.1,431.7c0.9,8.2-1.3,14.8-5.1,22c-2.4,4.5-9,11.8-9.4,17
		c-0.6,6.8,3.2,6.4,8.8,7.1c5.8,0.7,13.5,4.7,19.1,3.9c9.8-1.4,16.7-25.3,21-33.3c6.6-12.4,17-26,18.4-40.1
		c-9.4-1.7-16.9,7-24.8,10.5C871.5,423,861.5,425.1,853.1,431.7z M389.6,379.7c9.8-2.5,33.2-6.1,17.6-19.6c-7-6-14.9-8.9-20.1-0.7
		c-1.9,3-7.1,11-6.4,14.9C381.5,379.3,385.2,378.9,389.6,379.7z"/>
</g>
</svg>
