<?xml version="1.0" encoding="utf-8"?>
<!-- Generator: Adobe Illustrator 22.0.1, SVG Export Plug-In . SVG Version: 6.00 Build 0)  -->
<svg version="1.1" id="Layer_4" xmlns="http://www.w3.org/2000/svg" xmlns:xlink="http://www.w3.org/1999/xlink" x="0px" y="0px"
	 viewBox="0 0 1080 1080" style="enable-background:new 0 0 1080 1080;" xml:space="preserve">
<style type="text/css">
	.st0{fill:#A14A7B;}
</style>
<g>
	<path class="st0" d="M633.4,676.6c-8.2-9.4-16.9-18.3-25.3-27.4c-3.3-3.6-7.1-3.4-11.4-2.1c-4.7,1.5-9.4,3-14.1,3.8
		c-12.4,1.8-24.8,3.3-37.2,4.7c-11.1,1.3-22.2,2.7-33.3,3.4c-19.3,1.1-38.6,1.3-57.9,2.5c-24.3,1.6-48.5,2.9-72.7,0.4
		c-2-0.2-4.1,0.2-6.2,0.3c-0.1,0.6-0.2,1.2-0.3,1.8c3.1,1.9,6.2,3.8,9.2,5.8c4.8,3,10.6,5.1,14.1,9.2c7.7,9,7.8,21.2,10,32.2
		c1.3,6.6-1,14-2.3,20.9c-1.3,7.1-5.4,9.2-11.4,5.5c-6.5-4-12.7-8.6-18.7-13.3c-5.3-4.2-10.2-8.9-15.2-13.4
		c-0.3,0.2-0.6,0.4-0.9,0.7c4.3,7.4,8.7,14.8,13,22.2c-0.7,0.5-1.5,1.1-2.2,1.6c-1.9-2-4-3.8-5.6-6c-13.2-19-26.4-38.1-39.3-57.3
		c-5.1-7.5-9.9-12.6-20.5-13.5c-27.3-2.3-54.5-6.7-81.6-11c-27.5-4.4-55-8.8-82-15.2c-23.2-5.5-46.1-13.2-68.6-21.2
		c-13.4-4.7-25.7-12.1-33.4-25.1c-4.4-7.5-2.3-13.1,5.9-14.8c-5-10.1-4.1-13.8,5.3-20.6c2.5-1.9,5.2-3.6,8-5.1
		c13.7-7.7,27.4-15.6,41.4-22.8c21.3-11,42.8-21.8,64.5-32c38.6-18.2,78.7-32,120.5-40.2c22.7-4.5,45.7-7.3,68.7-10.6
		c4.8-0.7,7.3-2.9,8.9-7.2c4.9-13.2,9.9-26.4,15-39.5c0.8-2.1,1.8-4.1,3.4-7.4c1.4,3.6,2.2,5.6,3.1,8c11.5-4.3,22.4-8.2,25.7-22.1
		c1.2-5.1,4.2-9.8,6.7-14.6c0.7-1.5,2.3-2.5,3.5-3.7c0.5,0.3,1.1,0.6,1.6,0.9c-0.4,2.4-1.1,4.8-1.2,7.2c0,2.2,0,5.3,1.3,6.4
		c1.4,1.2,4.7,1.3,6.4,0.4c6.7-3.5,13.6-7,19.6-11.5c4.1-3.1,7-7.9,10.5-11.9c1.3-1.4,2.8-2.6,4.2-3.8c0.5,0.4,1.1,0.8,1.6,1.1
		c-1.1,2.6-1.7,5.6-3.4,7.7c-4.3,5.2-2.9,10.4-0.8,15.7c3,7.6,7.1,8.1,12,1.7c2.5-3.2,5-6.4,7.5-9.5c0.8,0.5,1.6,1.1,2.4,1.6
		c-2,3.9-4,7.7-6,11.6c-2.5,5-1.8,11.8,2,12.4c2.7,0.4,6.2-2.6,9-4.6c2.3-1.6,4.2-3.8,7.4-6.7c0,2.6,0.2,3.3,0,3.7
		c-1.8,2.9-3.5,5.8-5.4,8.5c-5,7.1-4.6,10.2,2.5,16.4c3.6-2.8,7.4-5.7,11.1-8.5c0.4,0.4,0.8,0.7,1.2,1.1c-2.1,4-5,7.9-6,12.2
		c-1,4.4-0.2,9.2-0.2,14.7c4.6-1.9,7.4-3,11-4.5c-0.3,2.2-0.3,3-0.6,3.7c-0.7,1.4-1.7,2.7-2.3,4.1c-0.6,1.5-0.8,3.2-1.2,4.8
		c1.6,0,3.1,0,4.7-0.1c1.2-0.1,2.4-0.4,3.9-0.7c-2.3,9.5-2.3,9.4,7.8,9.8c6.5,0.3,13,0.7,19.3,1.7c5,0.8,8.6-0.7,12.2-4.1
		c7.4-7.1,14.9-14.2,22.8-20.7c3.5-2.9,8.4-3.9,12.2-6.5c16.6-11.1,31-25.5,50.5-32.2c9-3.1,20-0.1,26.4,6.7
		c7.5,7.9,15.9,14.9,23.9,22.3c5,4.6,10.6,8.7,15.2,13.6c9.2,9.9,18.1,20.2,26.9,30.5c3.5,4.1,6.3,9,9.8,13.1
		c4.3,5,4.3,6.8-1.5,10.3c-3.1,1.8-6.3,3.6-11,6.2c3.5,1.3,5.2,2.1,7,2.5c34.8,8.4,69.9,15.7,106,13.6c12.3-0.7,24.7-1.3,36.1-7.1
		c15.8-8,31.4-16.4,47.7-23.4c19.5-8.3,39.4-15.8,59.4-22.8c17.2-6,34.9-10.9,52.4-16.2c6.4-1.9,9.6,1.3,8,7.8
		c-0.5,1.9-1.3,3.7-2.2,5.5c-2.8,5.6-6.9,10.9-8.2,16.9c-2.2,10-8.8,16.5-14.7,23.8c-5.5,6.7-11,13.4-16.1,20.4
		c-5.2,7.2-10,14.7-15,22.1c-7.6,11-9,11.9-2.3,22.8c5.1,8.3,10.5,16.3,14.1,25.5c2.4,6.2,6.3,11.9,9.2,18c2,4.2,3.6,8.7,5.5,12.9
		c4,8.8,8.3,17.5,12.3,26.2c0.5,1.1,0.4,2.4,0.9,3.5c0.7,1.6,1.8,3,2.4,4.7c1.5,3.6,2.8,7.3,4.2,11c-3.8,0.3-7.8,1.6-11.2,0.6
		c-15.9-5-31.8-10.3-47.4-16c-9.2-3.4-18.1-7.7-27-11.8c-17.4-7.8-35.8-14-51.8-24.1c-17.4-10.9-36.5-14.6-55.5-18.3
		c-21.6-4.2-43.4-0.6-64.7,4.6c-5.6,1.4-11,3.4-16.4,5.1c0,0.6-0.1,1.2-0.1,1.8c2,1.4,4,2.7,6,4.1c2.6,1.7,4.2,3,1.2,6.4
		c-5.6,6.5-10.3,13.7-15.8,20.2c-7.5,8.9-15.2,17.5-23,26.1c-9.2,10.1-19,19.7-27.7,30.1c-6.1,7.2-11,14.8-20.9,17.9
		c-5.5,1.7-8.6,2.4-12.2-3c-1.7-2.6-5.8-3.6-9.2-5.5c-0.9,2.9-1.3,4.3-2.3,7.2c-2.7-3.1-4.8-5.2-6.6-7.6c-2-2.6-3.8-5.3-6.1-8.7
		C638.8,682.7,638.6,682.5,633.4,676.6z"/>
</g>
</svg>
