<?xml version="1.0" encoding="utf-8"?>
<!-- Generator: Adobe Illustrator 22.0.1, SVG Export Plug-In . SVG Version: 6.00 Build 0)  -->
<svg version="1.1" id="Layer_4" xmlns="http://www.w3.org/2000/svg" xmlns:xlink="http://www.w3.org/1999/xlink" x="0px" y="0px"
	 viewBox="0 0 1080 1080" style="enable-background:new 0 0 1080 1080;" xml:space="preserve">
<style type="text/css">
	.st0{fill:#A14A7B;}
</style>
<path class="st0" d="M1017.6,276.8c-3-15.3-22.4-12.8-33.7-13.8c-7.4-0.6-14.8-2.5-22.2-2c-7.4,0.5-14.7,3.4-21.9,5.1
	c-14.8,3.4-29.2,6-44.2,8.7c-15.4,2.7-29.9,8.8-45.1,11.7c-32.6,6.3-66.5,15.1-96.6,29.4c-15.3,7.3-30.3,15.3-45.7,22.4
	c-14.7,6.7-28.4,13.4-40.6,24.1c-14.5,12.7-28.5,26-42.8,38.9c-6.1,5.6-12.2,11.3-18.6,16.6c-5.7,4.7-13.7,12.9-21.1,13.8
	c0-6.9,5.9-13.1,9.6-18.7c4.9-7.4,9.8-14.8,14.8-22.2c9.2-13.7,18.9-26.8,29.4-39.6c21.4-26.1,42.5-51.4,65.9-75.7
	c22.3-23.1,45.3-46.8,64.7-72.4c9.5-12.5,18.8-26.4,25.8-40.5c7.1-14.5,13.8-28.6,9.7-45.1c-3.6-14.5-15.8-17.1-28.6-13.5
	c-16.5,4.7-32.3,10.1-48.1,16.9c-13.6,5.8-22.7,14.4-34.6,22.7c-12.9,8.9-25.4,18.4-38.3,27.2c-5.5,3.8-11.2,7.3-16.5,11.5
	c-5.9,4.7-9.7,9.4-16.7,12c-6.4,2.4-10.1,7.2-15.7,11.1c-6,4.2-12.8,7.1-19,11.2c-13.5,9-26.7,19.1-39.1,29.5
	c-12.2,10.1-26.3,17.4-38.5,27.5c-22.7,18.9-40.9,42.9-55.8,68.3c-7.3,12.6-13,28.3-14.1,42.8c-1,12.6,2.6,30.2,13.4,38.1
	c5.6,4.1,13.1,2.9,19.8,4.5c7.1,1.7,13.6,5.3,19.4,9.7c1.7,1.3,5.1,3.4,5.3,5.9c0.3,3.9-4.7,1.2-7.4,0.4c-7.2-2-14.9-5.2-22.3-6
	c-7.2-0.8-13.4-0.1-20.3-2.9c-6.6-2.6-11.7-6.9-16.9-11.6c-10.9-9.7-23.3-17.1-36.1-24c-6.6-3.5-13.4-6.6-20.2-9.7
	c-5.9-2.6-10.6-6.3-16.1-9.2c-6-3.1-13.4-4.4-19.6-7.5c-6.9-3.4-13.9-6.9-20.7-10.6c-27.2-14.9-53.2-31-79.2-48.2
	c-12.6-8.3-25.8-15.5-38.7-23.2c-14.5-8.7-27.5-19.6-42.3-27.9c-13.4-7.4-26.8-12.7-42.4-12.8c-7.4-0.1-13.7,0.5-21.1-0.8
	c-6.8-1.2-16.1-2.2-22.9-0.7c-4.3,1-10.9,5-9.9,10.4c0.7,4,10.4,9.7,14,11.2c7,2.9,14.7,2.9,22,4.2c8,1.4,12.8,5.2,19,10
	c5.6,4.3,12.5,6.4,18.9,9.3c7.3,3.3,13.7,8,20.3,12.5c12.5,8.6,24.2,18.3,37,26.3c12,7.5,24.1,13.6,35.6,21.9
	c12.7,9.1,27.1,14.8,39.7,23.8c12.5,9,25,16.1,38.6,23.2c6.6,3.4,13,5.7,19.7,8.5c7.1,3,13.2,8.1,20,11.6
	c14.1,7.3,28.4,13.7,43,19.8c-16.2,1-29.2,4.3-43.9,10.4c-15.4,6.4-30.2,16.6-43.9,26c-13.2,9.1-25.5,20.1-37.3,30.9
	c-5.1,4.7-10.1,9-15.7,13.1c-6.2,4.6-10,10.9-15.6,16.1c-23.7,21.9-43.5,44.9-59.7,73.1c-7.5,13.2-18,22.9-27,35.1
	c-10,13.4-20.6,26.6-29.4,40.9c-17,27.6-36.5,55.5-44.8,87.2c-3.3,12.6-4.1,27.1,10.3,32c15.1,5.2,32.9,1.2,47.3-4.4
	c62.3-24,110.5-72.9,158.6-117.5c13-12,26-24.3,38.8-36.6c13.6-13.1,29.3-23.3,44.2-34.9c28.8-22.5,59.8-41.5,90.2-61.4
	c-9.8,15.9-27,29.1-39.9,42.5c-12,12.5-25,24.6-34.6,39.1c2.3,1.7-2.1-3.2,0.1-0.5c-3.5,2.7,1.6,4.4-2.1,1.9
	c-8.2,12.7-18.8,23.3-26.5,36.5c-8,13.8-14.7,27.7-21.8,41.9c-14.1,28.2-23.6,57-29.5,87.8c-3.1,16.2-5.8,32-10.1,47.9
	c-4,14.8-6.3,29-8.5,44.3c-2.3,16.6-5,33.2-5.7,50.1c-0.5,12.4-2.2,32,14,34.5c26.1,4,51-21.7,65.1-40.2c18.3-24.1,32-51.5,43-79.8
	c5.6-14.4,11.3-28.7,17.1-43c6.2-15.2,11-31.2,18.9-45.6c6.9-12.6,14.4-24.4,20-37.4c6.1-14.1,15.6-28,23.1-41.4
	c16.5-29.3,34.4-56.4,46.5-88c2.7-7.2,3.4-14.9,6.2-22c2.8-6.9,7.6-4.3,13.9-1c6.8,3.6,11.8,9.5,19.6,11.3c4.4,1,7.4-0.3,11.7-0.3
	c4.6,0,8.8,2.5,13.1,3.9c-11,7.3-17.4,15.9-25,26.4c-3.2,4.5-8.4,9.6-7.5,15.6c0.7,4.9,6.2,10.5,8.8,14.6
	c3.6,5.8,7.3,11.5,11.7,16.7c3.9,4.6,8.8,8.5,11.5,14.1c2.8,5.7,3.3,12.3,5.3,18.3c1.5,4.4,1,6.4,5.4,6.5c2.8,0.1,5.1-1.3,6.4-3.9
	c-9.2-2.4-8.7-11.9-10-20.3c-1.5-10.3-8.3-13.6-14.7-21.3c-4.6-5.5-15.1-15.8-13.8-23c1.7-9.6,10.6-19.6,16.2-27.1
	c0,17.7,19.3,24.6,34.5,23.7c4.8-0.3,8.7-2.4,13-2.9c4.8-0.6,5.9,2.1,9.9,4.1c6,3,16.9-3.1,22.6-6.5c7.3-4.3,11.3-10.2,14.4-18
	c1-2.5,5-9.2,4.5-11.7c-0.8-4.1-8.6-5.4-8.8-9.9c-0.2-3,2.4-7.3,2.7-10.5c0.4-3.6,0.2-7.2-0.8-10.6c-2.1-7.6-7.9-13.6-14.2-18.1
	c4-1.9,8.3-4.6,12.6-5.9c4.5-1.4,2.6-2,5.4,0.8c1.1,1.1,2,3.7,2.7,5.1c3.7,8.2,7.7,18.4,9.8,27.2c1,4.3,0.1,9.6,3.5,12.9
	c2.9,2.8,8.9,3.9,12.6,5.4c7.1,2.8,13,6.2,14.6,14.3c14.9-8.7-11.4-16.1-17.8-20.6c-5.8-4.1-4.7-10.7-7.1-17.2
	c-2.7-7.4-6.1-14.7-9-22.1c-2-5.2-3.9-11.4-8.3-15.1c-5.8-4.9-13,1-18.5,4.3c-11.2,6.9-22.3,14.5-33.6,20.9c-2-7.8-1-15.9-3.3-23.7
	c-2.8-9.6-9-13.1-15.6-20c-3.1-3.2-11.7-10.1-9.8-15c2-5.2,20.6-6.8,25.4-8.1c36.5-9.6,67.4-29.1,100.5-46.3
	c33.2-17.2,66.4-37,101.1-51c34.9-14.2,70.6-26,105.3-40.9c18.8-8.1,36.7-17.7,52.5-30.8C1004.3,312.9,1021.5,296.4,1017.6,276.8z"
	/>
</svg>
