<?xml version="1.0" encoding="utf-8"?>
<!-- Generator: Adobe Illustrator 22.0.1, SVG Export Plug-In . SVG Version: 6.00 Build 0)  -->
<svg version="1.1" id="Layer_4" xmlns="http://www.w3.org/2000/svg" xmlns:xlink="http://www.w3.org/1999/xlink" x="0px" y="0px"
	 viewBox="0 0 1080 1080" style="enable-background:new 0 0 1080 1080;" xml:space="preserve">
<style type="text/css">
	.st0{fill:#77395E;}
</style>
<g>
	<path class="st0" d="M76.1,459.3c-6.9,2.7-9.2,6.6-11.8,9.5c-2.5,2.7-5.5,4.9-8,7.7c-5.1,5.7-9.2,12-12.8,18.7
		c-7.3,13.6-8.4,27.3,0.4,40.5c9.2,13.9,19.7,26.9,34.3,35.3c13.7,7.9,26.2,17.9,39.9,25.5c12.1,6.8,25.8,8.8,38.9,12.1
		c7.7,1.9,15.1,6.2,22.4,9.5c4.1,1.9,17.7,7.7,12.8,12c-3,2.6-16,3-20.2,3.7c-9.3,1.5-19.6,0.3-28.7,2.8
		c-14.6,4.1-30.3,5.7-44.5,11.1c-8.7,3.3-17,8.5-24.7,13.6c-5.5,3.7-16.3,9.6-17.9,16.8c-1.1,4.9,0.3,4.3,4.7,2.8
		c4.9-1.6,9.4-4.8,14.3-6.5c9.2-3.2,20.6-8,30.4-8c-0.2,4.3-5.5,5.3-8.7,6.5c8.5,11.6,25,0.6,35.3-2.4c14.6-4.3,30.9-6.7,46-5.2
		c7.4,0.8,14.9,2.8,22.4,2.3c3.8-0.3,13.3-5,16.7-3.2c2.5,1.3,2.7,4.7,2,7.2c-1.1,4.4-0.5,3.5-5.6,4.2c-7.1,1.1-14.3,1.7-21.4,2.4
		c-28,2.8-56.2,4.5-83.3,13C84.1,699,57,713,42.4,735.6c5.1,3.1,14.1-3.5,18.7-5.5c8.4-3.7,16.7-7.4,25.3-10.7
		c8.1-3.1,16.1-5.2,24.6-7c6.6-1.4,15.5-4.9,22.2-3.1c-12.1,11.2-28.1,18.1-39.6,30.4c4.8,3.1,4.7,3.4,9.7,2.4
		c3-0.6,8.5-2.8,11.2-4.3c6.4-3.5,10.6-7.4,18-9.1c14.4-3.2,31.1-8.1,45.9-4.6c-7.1,6.2-16.5,9.5-23.2,16.3c-2.2,2.2-4.4,4.4-3,8.1
		c2,5.3,5.2,1.8,9.8-0.2c11.2-4.9,22.6-9.1,34.5-11.8c5-1.2,12-3.5,17.1-3.1c4.2,0.4,6.6,1.9,11.1,1.1c11.1-1.9,21.5-7,32.8-7.4
		c11.6-0.4,22.3,4.4,33.8,4.2c11.7-0.2,19.7-3.9,29.5-9.3c7.8-4.3,19.3-6.3,27.4-3.8c-0.5-1.3-1.1-2.7-1.6-4
		c4.2-2.4,6.9,2.2,10.3,1.1c2.2-0.7,2.5-2.9,4.6-4.7c4.1-3.4,10.4-2.9,15.3-2.5c7.7,0.6,15.2-0.2,22.9-1c5-0.5,13.2-5.5,17.2-1.1
		c2.7-5.9,6.8-2,11.4-2.6c0.3-1.1,0.7-2.3,1-3.4c2,0.4,3.9,0.7,5.9,1.1c3.4,0.6,6.8,1.3,10.3,1.8c0.5,0.1,1.2-1.3,1.7-1.2
		c2.5,0.5,4.9,1.8,7,2.1c1.5,0.2,3.6-0.2,5.5,0.3c2.3,0.5,3.9,2.8,6.6,3c-1.1-1.4-2.1-2.9-3.2-4.3c5.9,4.2,15.5,3.5,22.3,5.4
		c-5.5,5.8-14.1,7.2-19.2,13.5c2.8,0.3,5.6,0.6,8.4,0.9c-4.4,4.9-14.4,8-15.1,15.1c18.7-4.4,37.5-10,56.8-10.3
		c0.2,2.1-32,16.3-22.3,20.8c2.8,1.3,13.6-2.7,16.5-3.3c7.8-1.5,15.6-2.9,23.5-3.3c7-0.4,11,1.3,17.3,3.1c5.6,1.6,10.7-0.9,15.9-2.9
		c10.9-4.1,21.6-9.7,31.9-15.1c12.3-6.4,23.6-8.7,37.4-10.7c7.8-1.1,16.4-1.5,24-3.6c5.9-1.6,10.8-5.4,16.9-6.5
		c10.4-1.8,21.7-2,32.3-1.2c11,0.8,20.8-5.3,32.1-4.7c-1-1.4-1.9-2.8-2.9-4.2c3-2.1,8.1,4.2,11.1,4.7c4.5,0.8,12.1-1.5,16.5-2.6
		c0.7-0.8,1.4-1.7,2.1-2.5c1.7,0.3,3.4,0.7,5.1,1c2.8,0.1,5.7,0.7,8.5,0.9c6.4,0.3,12.9,0.7,19.3,1.3c28.3,2.8,56.4,7.1,84.4,11.7
		c27.8,4.6,54.4,10.3,81.2,18.8c13.5,4.3,26.7,9.3,40,14c10.6,3.7,24.8,10.8,35.6,4.6c-7.3-16.7-28.7-24.2-44.2-30.4
		c-18.6-7.5-37.5-12.5-56.8-17.8c-20.4-5.6-41.9-7.9-62.5-13c-10.1-2.5-20.1-5.6-30.1-8.5c-7.8-2.2-20-3.4-26.5-8.4
		c1.5-0.1,9.6-0.2,9.7-0.2c-12-12.1-2.7-23.4-4.7-38.6c-0.8-5.7-1.2-10.7-3.2-16.1c-2.7-7.4-1.7-14.3-4-21.8
		c-8.5-28.4-17-57.6-28.1-85.2c1.1,0.7,4.1,3.4,5.5,2.5c-12.1-28.9-27.7-54.4-45.5-80.6c-8.8-13-16.7-26.7-28.8-36.9
		c-12.4-10.5-26.5-19.2-40.3-27.8c-13.7-8.6-29.6-12.6-44.1-19.7c-15-7.3-29.2-7.2-45.5-9c-15.9-1.8-31.4-4.7-47.4-3.5
		c-8.5,0.7-16.9,1.2-25.5,0.1c-3.5-0.5-5.9-1.9-9-2.5c-4.1-0.8-8.7-0.1-12.7-1.5c0.5,4.3-1.4,2.1-4.6,2.7c-2.4,0.5-4.7,0.8-7.2,1.3
		c-7.5,1.7-15.4,2.7-23,5.6c-13.7,5.4-26.9,6.5-41,10.3c-13.4,3.7-28.4,9-42.3,8.7c-16.4-0.3-32-4.9-48-7.7
		c-7.6-1.3-14.9-3.7-22.4-5.1c-7.8-1.5-15.1,0.3-22.9,0.3c-18.8,0.1-36.6,1.6-54.8,6.4c-31.3,8.2-57.8,27.7-82.2,47.8
		c-5.3,4.4-12.7,7.7-17.1,12.8c-5.9,6.7-10.1,13.7-17.3,19.4c-6.6,5.2-12.4,12.1-19.3,16.8C90.8,452.4,83,455.3,76.1,459.3z"/>
</g>
</svg>
