<?xml version="1.0" encoding="utf-8"?>
<!-- Generator: Adobe Illustrator 22.0.1, SVG Export Plug-In . SVG Version: 6.00 Build 0)  -->
<svg version="1.1" id="Animal" xmlns="http://www.w3.org/2000/svg" xmlns:xlink="http://www.w3.org/1999/xlink" x="0px" y="0px"
	 viewBox="0 0 1080 1080" style="enable-background:new 0 0 1080 1080;" xml:space="preserve">
<style type="text/css">
	.st0{fill:#A14A7B;}
</style>
<g>
	<path class="st0" d="M573.1,755c-25.6-13-50.4-29.8-72.3-48.7c-5.9-5.1-11.5-10.7-17.4-15.9c-6.8-6-10.8-5.1-19.3-4.1
		c-14.1,1.7-28.3,2.7-42.6,2.7c-31.1,0-61.3-2.3-92.2-5.4c-6.7-0.7-13.6-4.2-13.2,4.6c0.2,4.2,5.9,10.3,6.6,15.6
		c0.7,5.4,0.1,9.9,0.3,15.6c0.2,8.7-2.3,13.7,3.1,21c-5.8,3.6-3.7,3.5-0.3,8.5c-5.3-1.2-4.2,1.8-5.4,6.8c-7.1-2.7-14-6.3-19.9-11.2
		c-2.6-2.2-5-4.6-7.1-7.4c-2.6-3.4-5-13-4.3-1.9c-6.7-12-11.9-24.8-17-37.6c-3.9-9.9-7-25.2-15.9-29.6c-9.1-4.5-21.4-6.3-31.2-9.6
		c-12.3-4.2-22.1-5.6-35-6.2c-24.9-1.3-49.3-4.8-73.9-8.4c-14.2-2.1-51.9-1.4-53.4-20c6.2,3.5,17.9,2.1,23.4-3.4
		c-2.7-0.4-5.5-0.9-8.2-1.3c-3.3,0.6-5.1-0.8-5.4-4.2c-4.3-3.3-8.8-5.2-14.5-7.5c-5.1-2-7-4.8-10.5-7.3c-3.9-2.8-7-3.2-9-8.9
		c-5.4-15.7,33.3-37.8,43.5-46.4c36.4-30.6,83.4-53.4,128.4-66.9c24.5-7.3,49.3-11.5,74.2-17.2c5.2-1.2,16.8-1.6,21-4.8
		c3.1-2.4,5.6-10.1,7.3-13.5c4.8-9.8,8.8-20,13.5-29.8c19.6-41.3,49.1-81.6,85.8-108c-9.5,27.6-12.1,61.3-3.2,90.9
		c4.3,14.5,13.2,25.3,23.3,36c3.9,4.1,11.6,8.9,8.7,15.3c-1.6,3.6-7,3.8-8.4,7.8c17.3,9.9,30.2-2.5,42-13.5
		c13.7-12.8,27.6-24.1,43.1-34.6c11.6-7.9,36.1-25,49.2-18.6c12.6,6.1,24,17.5,33.7,27.6c9.2,9.5,20.4,19.2,31.4,24.2
		c9,4.1,19.2,9.8,28,15.4c2.5,1.6,4,3.4,6.3,4.7c0.8,0.5,5,0.7,5.6,1.2c1.9,1.8,4.6,6.8,7.2,9.4c1.6,1.6,0.6,4.4,1.5,5.5
		c2.1,0.2,4.3,0.4,6.4,0.6c0.2,1.5,0.4,3,0.6,4.5c4.4,11.2-2.5,14.9-10.9,19.1c16.2,9.5,34-10.1,47.6-18c7.3-4.2,14.9-7.8,22.2-12.1
		c6.7-4,15.1-11.5,23.4-11.7c18.1-0.5,18.1,24.8,29.1,35.3c12.2,11.7,32.6,15.7,46,26.2c7,5.5,9.2,13.2,18,15.2
		c9,2,18.4,1.2,26.7-2.7c16.5-7.8,32-19.5,47.8-28.7c32.4-18.7,67.8-47.6,105.8-51.6c-2.4,14.4-3.2,27.7-3.7,42.7
		c-0.7,19.7-6.3,37.8-8.6,57.3c-4.9,41,3.5,83.6,13,123c-19.3,0-36.7-10.8-53.1-20.1c-19.9-11.3-39.1-23.7-58.8-35.4
		c-16.4-9.8-33.5-22.3-51.8-28.1c-14.9-4.7-39.3-6.6-52.4,3.7c8.5,0.4,19.2,0.7,17.6,11.8c-1.3,8.5-13.6,17.4-19.9,22.7
		c-15.1,12.5-27.7,27.3-41.1,41.7c-2.6,2.8-4,6.2-8.2,7.5c-5.4,1.6-8.6-1-14.1-3.5c-9.8-4.6-19.7-9.3-29.2-14.4
		c-10.2-5.6-20.3-11.7-29.6-18.8c-5.3-4-5.5-5.3-11.2-5.4c-4.4-0.1-10.5,1.8-13.9,4.7c4.7,6.1,9.2,10.9,6.5,18.9
		c-1.4,4.1-12.6,13.8-10.9,16.2c-5.2,1.1-8.3,4.9-12.6,8c-4.6,3.3-9,8.5-13.5,12.2c-4.1,3.4-7.8,6.1-12,8.9
		c-4.2,2.8-11,12.2-15.8,11.6c0.6,6.8-8.3,9.1-13.7,12.3c1,1.2,2,2.4,3,3.6c-4.3,0-8.9,2-11.3,6.2c-0.8,1.3-0.5,4.9-1.1,5.8
		c-2.1,2.9-4.5,3.8-8.9,5.9c0.9,1.4,1.7,2.8,2.6,4.3C584.6,752.4,578.8,752.4,573.1,755z"/>
</g>
</svg>
