<?xml version="1.0" encoding="utf-8"?>
<!-- Generator: Adobe Illustrator 22.0.1, SVG Export Plug-In . SVG Version: 6.00 Build 0)  -->
<svg version="1.1" id="Layer_4" xmlns="http://www.w3.org/2000/svg" xmlns:xlink="http://www.w3.org/1999/xlink" x="0px" y="0px"
	 viewBox="0 0 1080 1080" style="enable-background:new 0 0 1080 1080;" xml:space="preserve">
<style type="text/css">
	.st0{fill:#A14A7B;}
</style>
<path class="st0" d="M65.6,482.3c1.5-3.6,2.8-7.4,3.9-11.2c0.8-2.6,1.8-4.8,4-6.3c0.7-0.5,1.2-1.7,1.6-2.7c0.5-1.4,0.5-3.1,1.2-4.4
	c2.6-5.2,3.3-11.9,9.9-13.9c0.6-0.2,0.9-1.5,1.5-2.5c3.3,3.6,6.2,1.1,9.1,0.9c0.1-1.2,0.2-2.3,0.3-2.9c1.2,0.7,2.3,1.4,3.4,2.1
	c0.6-1.2,1.3-2.3,1.8-3.6c0.3-0.8,0.5-1.7,0.8-2.9c1.2,1,2.1,1.8,3.1,2.6c1-1.5,1.9-2.8,2.7-4.1c1,0.6,1.6,1.1,2.3,1.5
	c0.9-1.1,1.6-1.9,2.6-3.1c0.5,1.2,0.9,2.1,1.4,3.2c1.4-1.6,2.1-2.5,3-3.5c3.1,4,3.6-1.5,5.7-1.8c0.9,0.6,1.7,1.2,2.5,1.8
	c1.1-1.1,2.1-2,3.2-3.1c0.4,1.3,0.7,2.2,1.2,3.6c1.4-0.8,2.7-1.3,3.6-2.1c1.7-1.5,3.3-3.1,4.8-4.6c1.6,1.2,3,3,3.7,2.7
	c1.2-0.5,2-2.3,2.8-3.3c1.1,0.3,2.6,1.3,3.1,0.9c0.9-0.8,1.2-2.3,1.8-3.9c1.1,1.3,2,2.4,3.1,3.8c1-1.5,1.8-2.6,2.2-3.2
	c1.9-0.7,3.2-1.3,4.6-1.6c0.6-0.2,1.5-0.2,2,0.1c1.8,1.2,2.7,0.3,3.5-1.3c0.4-0.9,1.1-1.6,2-2.8c0.6,1.2,0.9,2,1.3,2.8
	c0.9-3.8,2.7-3.9,4.8-2.5c2.3-5.8,2.4-5.9,6.1-2.6c-0.2-1-0.5-2.3-1.1-2.6c-2.4-1-3-3.2-3.8-5.4c-1-2.6-2.4-5.1-3.7-7.6
	c-0.8-1.6-2.2-2.9-2.7-4.6c-2.2-7-6.4-12.5-11.1-17.7c-2.6-2.8-4.9-5.8-7.1-8.8c-0.5-0.7-0.5-2.5,0-3.1c0.7-0.8,2-1,3.1-1.2
	c1.3-0.2,2.6,0,4.3,0c0.7,0.3,1.8,0.8,2.9,1.4c4,2.3,9.4,1.5,12.6,6c0.5,0.7,1.7,0.7,2.7,1c3.7,1.1,7.1,2.9,8.1,7
	c0.8,3.2,2.6,5.2,4.7,7.2c1.3,1.2,2.5,2.5,3.6,3.9c3,3.8,4.4,8.1,5.1,13.2c0.8,6.4,1.5,12.8,1.2,19.3c-0.3,5-0.7,10-2.7,14.6
	c-1.5,3.4-2.1,7.1-4.8,10.1c-2.7,3-4.9,6.4-8.4,8.6c-6,3.9-11.9,7.7-18.5,10.4c-5.7,2.3-11.2,5.3-16.9,7.5
	c-10.2,4-20.6,7.4-30.7,11.7c-5.4,2.3-10.7,4.8-15.1,9.4c-3.1,3.2-2.5,9.1,1.5,11.4c0.5-0.7,1.1-1.5,1.7-2.4
	c1.2,1.6,2.2,2.9,3.5,4.7c0.6-1.9,0.9-3.1,1.2-4.3c2.4,1.6,1.1,5.5,4.2,6.6c0.1-1.7,0.3-3.4,0.4-5c3.1,0,4.3,2.6,3.8,7.9
	c6.8-14.2,3.5,14.7,7.3-4.5c2.5,3.9,3.6,7.9,5.6,2.1c5.3,11.9,17.6,4.8,21.5,10c4.3-10.6,8.2,11.7,8.2-3.1c1.9,2.6,4.2,4.7,6.8,6.4
	c-0.4-2.1,0.1-3.5,1.5-4.3c4,2.1,4.1,12.1,5.9,1.2c6.3,9.2,5.6,11.6,7.9,2.3c7.4,11.1,13.4,0,17.3,8c0.9-5.6,7.5-6,10.2-2.1
	c-0.3-2.3,0.3-3.9,1.9-4.7c0.9,1.5,1.7,3.1,2.7,4.8c1.1-1.5,1.6-2.3,2.2-3c3,1.3,2.7,6.3,6.7,6.5c0.2-1.8,0.3-3.7,0.5-5.5
	c3.7,4.4,6.2,12.1,6.9,0.8c16.8,18.6,0.1,2.1,7.4,1.8c1,12,4.6-2.3,11.7,5c1.1-10.8,11.4-1,13.8,1.9c0.7-9.5,5,0.8,1.9-8.7
	c18.2,12.9-0.5-4.8,12.5,5.2c3.1-10.3,10.9,4,11.7-6c0.6,0.9,3.1,6.3,5.1,5.1c0.7-0.4,4.2-7.9,4.2-7c9.2,8.4,7.3-6,15.1,5.3
	c0.3-8.5,2.4-8.2,6.2,0.8c0-9.5-0.6-8.8,5.7-1.4c4.1-1.3-0.6-4.2,1.4-6.4c1.6,0.9,13.3,2.6,14.1-2.5c8.5,8.3,16.2-4,27.9,5
	c-1-2.1-1.9-4.2-2.9-6.3c2-1.9,3.9-0.6,5.7,3.7c0.5-7.2,8-4.2,12.3,1.4c0.9-3.6,7.3-23.3,13.7-16.6c0.5-5.7,5.5-15,10.3-17.5
	c8.3-4.2,1.6-0.4,9.6,1.6c1.9-17.5,3.1-0.6,5.6-14c4.1,3.4,5.9,0.7,7.6-4.7c8.4,6.7,3.9-5.2,8.1-6c3.6,9.2,11.8-6.6,17.5-15.4
	c2.4,3.6,4.7,7.2,7.1,10.8c2.4-1.2-1.8-13.4-2.2-15.2c4.1-2.2,4.8,7.7,4.8-2.4c2.3,2.2,4.8,4.3,7.3,6.1c-4.8-29.4-0.4,1.6,7.4-2
	c-0.2-1.2-3.6-12.7-1.9-13.7c1,2.8,2.3,3.8,4.1,2.9c-0.3-2.6-0.6-5.3-0.9-7.9c3.6,4.9,11.9,9.2,2.7-3.9c1-0.9,17.2,17,11.1-5.5
	c2.6-1.2,9.6,8.4,11.1,11.4c-1.7,0.9,2.9-22.7,3.3-18c5.3,4.1,10.9,8.7,10.9-0.9c3.9,6.1,6.3,6.1,7.3,0.2c1.1,4,3.1,7.4,6,10
	c-3.4-13.9-5.8-15.5,4.1-8.4c-1.3-3.4-1.9-6.9-1.8-10.6c24.2,20.4-12.3-10.5,2.1-4.6c4.1,1.7,10.6,7.2,14.2,11.8
	c-1.7-5.3-3.4-10.7-4.8-16.1c5.1,3.4,9.1,7.9,11.9,13.6c1.5-4.9-5.1-10.2-1.8-14.7c1.5,6.4,3.7,8.7,6.8,6.9c-7.7-24.2,5.4-1,9.8,5
	c-1.5-5.8-3.3-11.5-5.5-17c5.9,3.2,8.9,9.9,12.7,15.2c4.4-2.9-7.3-9.9-3.1-13.5c3.9,3.8,7.8,7.7,11.7,11.5c-0.2-7.9-5-14-7.1-21.2
	c16.9,6.1-0.1,8.6,9.9,12.5c-0.9-2.6-1-10.9,0.1-14c4.9,8,5.9,10.8,11.3,20.5c2.7-1.3-2.5-22.5-2.7-23.5c3-1.7,5,0.5,6,6.7
	c3.5-1.7,3.3-5.5-0.6-11.4c5.3,1.3,9.9,4,13.9,7.9c3.1-2.7,2.1-6.3-3-10.9c1.2,0.6,14.3,16.5,16.5,19.7c2.3-3.9-2.3-15.9,0.1-16.9
	c3.1,6.2,2.6,13.6,6.5,19.3c1.7-1.1-1.9-7.8-1.1-10.3c0.6,6.4,2.3,8.7,5.2,7c-0.9-8.4-3.7-16.4-3.7-24.9
	c5.1,1.9,10.7,17.8,13.6,24.4c1.8-9.7-3.5-18.1-2.1-27.6c3.8,6.6,7.4,13.3,10.9,20.1c1-8.4-3.2-16.5-4.5-24.5
	c0.4,0.2,11.8,13.6,12.3,13.5c0-4.5,0-8.9,0-13.4c3.5-0.7,8.3,16.1,10.2,18.8c-0.6-6.9-2-13.6-4.2-20.1c7,2.9,9.6,10.9,13.8,16.7
	c5.3-3-2.9-20.4,6.3,1.2c1.7-0.8,2-2.6,0.9-5.3c-1.8,0.4,9.3,6.7,10,7.2c0-7.2,0.3-7.5,4.2-1.1c2.8-2.3-3.2-7.2,0.6-9
	c1.6,3.4,3.9,5.7,7.1,6.9c1.3-4.3-1.1-6.6-2.4-10.8c3.4-2.6,6.8-0.7,10.2,5.6c3.6-5-1.5-8.4-2.3-13.7c3.4-0.5,6.3,0.6,8.8,3.2
	c-0.2-3.9-1.1-7.6-2.6-11.1c1.5,0.5,3.1,0.7,4.7,0.8c-3.8-4.5-8-8.5-12.6-12.2c5.2-0.8,9.9,0.5,14.1,3.8c0.9-8-9.4-10.7-14.1-15.7
	c2-2.6,18.2,6.1,19.2,6.5c-3.8-6.3-9.8-12.8-14.5-18c5.2-3.7,22.6,9.3,26.2,11.6c1.6-2-15.9-23.2-17.8-26.2
	c6.5-2.7,22.9,16.8,26.4,13.1c-2.3-3.3-15.2-16.3-13-21.2c2.4-5.2,25.4,18.7,26,18c-5-7.9-14.7-16.7-17.5-25.6
	c10.4,0.1,20.6,10.9,27.4,18.4c5.5-3.5-9.5-25.8-6.4-33.3c6.7,7.6,9.9,17.7,16.7,25.2c0.5-10.3-5.8-17.6-6.2-27.3
	c5.1,4.8,10.5,10,13.4,16.8c2-0.6,1-14.8,1-16c9.5-1.8,5.1,32.9,11.5,2c1.4,3.6,3.1,7,5.1,10.3c7.9-14.7,1,18.1,11.6-4.7
	c3,0.9,0.1,8.8,3.8,9.2c2.5-1.8,3.7-4.2,3.8-7.3c1.2,1.8,2.4,3.6,3.6,5.4c1.1-0.4,2.3-0.8,3.4-1.2c0.6-0.4,1.2-0.8,1.8-0.8
	c3.1-0.4,5.1-1.9,6.2-5.4c-0.2-1.6-0.8-3-0.3-3.4c1-0.7,3.9,3.9,5.9,3.2c1.9-0.7,1.1-5.7,2.9-6.3c1.8-0.6,3.5,3.6,5.9,3.2
	c2.2-0.4,2.2-4.4,4.4-4.8c2.1-0.4,3.1,3.3,5.9,3.2c1.9-0.1,2.4-1.9,4.4-1.6c1.4,0.2,2.6,1.3,2.9,1.6c1,0.9,0.9,1.2,1.5,1.6
	c2,1.3,6.1-2.1,7.3-3.2c3.2-2.7,5.8-6.2,5.9-6.3c2.1,3.3,6.5,4.2,7.9,6.1c1-0.6,1.5-2.1,3.8-4.5c2.3-2.4,4.9-5.2,7.3-4.8
	c0.9,0.2,1.7,0.7,5.9,7.9c2.8,4.8,3.1,5.8,4.4,6.3c2.7,1.2,4.2-2.9,8.8-3.2c3.3-0.2,7.3,1.7,8.8,4.8c1.1,2.2,0.2,3.7,1.5,4.8
	c1.6,1.4,3.6-0.6,7.3,0c0.6,0.1,3.9,0.6,5.9,3.2c2.8,3.5,0.6,7.8,2.9,9.5c1.9,1.4,3.9-1.1,7.3,0c3.1,1,5.1,4.2,5.9,6.3
	c0.8,2.3,0.6,4.7,0,7c0,0,0.1,0,0.1,0c-0.6,3.1,0.3,5.7,3,7.5c1.2,0.9,2.2,2.2,3.1,3.4c0.7,1,1.6,2.3,1.5,3.4
	c-0.3,3.5,1.4,6,3.3,8.4c2.9,3.7,2.8,6.1-0.3,9.4c2.1,3.1,2.1,3.1,0.3,6.5c-0.4,0.8-0.8,1.6-1.4,2.3c-1.7,2.3-1.9,4.6-0.9,7.4
	c1.1,3.2,1.4,6.5-0.8,9.4c-2.8,3.7-5.4,7.4-6.1,12.4c-0.1,0.9-1,1.7-1.6,2.6c-1.4,2-2.7,4-4.2,6c-2.2,2.8-4,6.3-6.8,8.2
	c-4.8,3.2-9.9,6.4-15.8,6.9c-3.6,0.3-7.3,0.5-10.9,1.1c-3.6,0.6-7.1,1.4-10,4.2c-6.3,6-12.8,11.8-20.2,16.2
	c-4.1,2.4-8.1,4.7-12.1,7.3c-1,0.6-1.9,1.8-2.4,2.9c-4.3,10.3-8.5,20.7-12.6,31.1c-2.8,7.1-5.1,14.6-8.3,21.5
	c-5.7,12.3-11.8,24.2-17.8,36.3c-0.4,0.8-0.6,1.7-0.7,2.5c0.3,0.8,0.4,1.6,0.6,2.7c0,0,0,0,0,0.1c2,4.2,3.6,8.6,5.3,12.9
	c0.2,0.4,0,0.9-0.1,1.4c-0.1,0-0.1,0-0.2,0c0.4,0.7,0.8,1.5,1.3,2.2c0,0,0-0.1,0-0.1c0.5,0.8,0.9,1.5,1.4,2.2
	c2.1,3.1,4.4,5.8,6.8,8.9c7,9,11.1,16.2,19.3,30.4c7.7,13.4,11.5,20.1,14.6,30.5c1.1,3.8,2.2,10.6,4.3,23.4c0.9,1.9,1.4,4,1.7,6.3
	c0.6,4.3,1,8.6,1.4,12.9c0.9,9.8,1.7,19.7,2.7,29.5c0.2,2.3,0.5,4.8,1.5,6.8c1.4,2.9,2.4,5.7,1.8,9c-0.3,1.9,0.3,3.1,2,4.1
	c4.9,2.9,10,5.4,15.4,6.6c5.7,0.4,10.9,0,14-0.2c1.4-0.1,2.6-0.2,3.6-0.3c0-0.1,0-0.1,0-0.1c0.1-0.5,2.4-1,2.5-0.8
	c0.1,0.2,0.2,0.5,0.4,0.7c1.9-0.2,3.5-0.5,5.2-1c5.6-1.6,6.4-3.2,10.3-3.2c0.2,0,0.4,0,0.7,0c3.1-1.7,6.1-2.7,9.9-0.9
	c2.9,1.4,6.4,1.3,9.6,2.1c2.9,0.8,5.4,2.9,8.7,1.5c0.4-0.2,1.4,0.5,1.8,1c2.7,4.1,5.6,8,7.7,12.4c2.9,6.1,4.4,12.6,1.9,19.4
	c-0.5,1.4-1.8,3.4-2.9,3.5c-2.1,0.2-1.3-2.3-1.7-3.7c-0.3-0.9-0.6-1.8-0.9-2.6c-0.4-2.3-1-4.3-2.6-5.9c-0.2-0.2-0.3-0.3-0.5-0.5
	c-3.8-5.4-9.3-7.3-17.4-5.6c-0.1,0.4-0.2,0.8-0.2,1.1c0.2,0.8,0.5,1.5,0.7,2.2c0.4,1.6,0.8,3.1,1.2,4.7c-0.4,1.3,0.1,2.6,0.7,4.6
	c0.3,3.3,0,6.6-1.6,10c-0.5,1.1-1.6,1.8-2.4,2.6c-0.6-1-1.4-2-1.9-3.1c-0.2-0.5-0.4-1-0.6-1.5c0-0.6,0-1.2-0.1-1.9
	c-0.1-0.7-0.6-5.4-4-9c-1.1-2.4-2-3.1-4-3c-0.7-0.3-1.5-0.5-2.4-0.6c-2.4-0.2-4.2,0.7-5.9,1.6c-3.9,2.1-3.8,3.8-7.3,6.3
	c-3.9,2.8-5.1,1.5-10.3,4.8c-1.7,1.1-3.8,2.4-5.9,4.8c-2.9,3.2-4.1,6.6-4.9,8.3c-0.5,0.2-1,0.1-1.5-0.5c-0.2-1.2-0.4-3.2-0.9-6.2
	c-0.7-3.8-1-4.4-1.5-4.8c-1.8-1.4-4,1.1-7.3,0c-2.4-0.8-2.3-2.5-4.4-3.2c-2.6-0.8-4,1.3-8.8,3.2c-2.2,0.8-6.7,2.5-11.7,1.6
	c-4-0.8-5.9-2.8-7.3-1.6c-1.3,1.1-0.1,3.2-1.5,6.3c-0.3,0.6-0.6,1.1-0.9,1.6c-0.1,0.1-0.2,0.2-0.4,0.2c-3.1,1.9-3.4,1.6-4.3-2.1
	c0-0.2-0.1-0.3-0.1-0.5c0-0.7,0-1.5-0.1-2.3c-0.3-2.1-0.4-3.6-1.5-4.8c-1.7-1.9-4.1-0.9-7.3-1.6c-2.1-0.4-4.4-2.4-8.8-6.3
	c-4.7-4.2-7.6-6.7-10.3-11.1c-1.6-2.6-2.8-4.6-2.9-7c0.3-1,0.5-2.1,0.5-3.3c0.5-1.3,1.1-2.3,0.9-4c-0.3-2.9-2.5-4.4-4.4-6.3
	c-2.2-2.3-3.9-6.3-7.3-14.3c-3-7.1-4.6-12.8-5.9-17.4c-1.8-6.4-2.6-9.6-2.9-12.7c-0.1-1.6-0.4-5.7-1.5-11.1
	c-0.5-2.7-0.8-3.7-1.5-4.8c-0.7-1.1-1.5-1.7-2.5-2.3c-0.3-0.3-0.6-0.5-0.9-0.7c-5.3-3.8-10.4-7.9-14.4-13.3
	c-0.3-0.3-0.5-0.6-0.7-0.8c0,0-0.1-0.1-0.1-0.1c-1-0.8-2-0.4-3.3,0.9c-3.5,3.5-7.1,6.8-10.8,10c-5.1,4.5-10.1,9.2-15.5,13.3
	c-13.1,9.9-26.3,19.5-39.5,29.2c-7.1,5.2-14.2,10.3-21.4,15.2c-3.1,2.1-6.1,4-9.2,6c-6.2,1.8-9.3,4.4-15.1,9.2
	c-1.1,0.9-3.1,2.7-2.9,4.8c0.2,2,2.3,2.9,4.4,4.8c2.7,2.3,4.2,5.8,7.3,12.7c2.7,6,4,9,4.4,12.7c0.5,4.8-0.5,7.8,1.5,9.5
	c1.6,1.5,3.4-0.1,5.9,1.6c2.5,1.7,2.6,3.8,4.4,6.3c3.1,4.6,8.1,6,14.7,7.9c2.8,0.8,4.8,1.1,8.8,1.6c5.5,0.7,6.7,0.3,7.3,0
	c3.1-1.4,2.8-4.2,5.9-6.3c1.5-1.1,2.3-1,8.8-1.6c10.5-1,12.2-1.6,14.7,0c2.6,1.7,1.8,3,4.4,4.8c4.4,2.9,7.9-0.2,13.2,1.6
	c1.6,0.5,2.9,1.4,4.2,2.5c0.2,1.5,3.2,7,6,10c4.6,3.8,5.7,9.3,6.1,14.9c0,0.7,0.1,1.4,0.2,2.1c0,1.3-0.1,2.6-0.2,3.7
	c-0.3,1.2-0.8,2.4-1.8,3.6c-1-2.7-1.4-4.7-2.4-6.5c-0.8-1.6-1.1-4.3-4-3.8c2.1,3.6,3,7.8,2.8,11.2c-0.2,0.6-0.4,1.2-0.6,1.9
	c-0.8,1.9-2.1,3.7-3.3,4.5c-0.6-2.4-1-4.9-2.1-7.1c-1.2-2.5-3-4.9-4.8-6.9c-2.6-2.9-3.3-4.3-5.5-3.4c-1.8-0.4-3.5-0.2-6.4,0.3
	c-2.7,0.4-4.1,0.7-4.4,1.6c-0.4,1.2,1.6,2.1,2.9,4.8c0,0,0,0.1,0.1,0.1c-0.1,0-0.1,0-0.2,0c-0.1,6-0.2,9.6-0.4,11.9
	c-1,1.6-2.3,2.7-3.3,3.4c-0.6-1.6-1.1-3.1-1.6-4.6c-0.1-0.5-0.3-0.9-0.4-1.3c-0.1-0.3-0.3-0.7-0.5-1.2c-0.1-0.2-0.2-0.5-0.3-0.7
	c0,0,0,0-0.1,0c-0.7-1.4-1.8-3.2-3.6-4.4c-3-2.1-6.2-1.7-7.3-1.6c-3.5,0.4-3.5,2.1-7.3,3.2c-2.4,0.7-5,0.4-10.3,0
	c-5.3-0.4-6.3-1-7.3,0c-1.7,1.6-0.3,4.2-1.5,9.5c-0.8,3.5-2.6,7.1-3.9,7.8c-0.4-1.1-0.9-2.1-1.3-3.2c-0.5-1.5-0.8-3.2-1.4-4.6
	c-0.4-2-1-3.5-2.3-4.7c-0.2-0.2-0.4-0.3-0.7-0.5c-0.8-1.1-1.6-2-2.3-2.7c-8.1,2.9-8.5,3-8.8,3.2c-1.8,0.7-3.5,1.7-5.1,2.7
	c-2.3,0.5-4.5,0.5-6.6,0.4c-5.8-0.1-6.3-1.8-11.7-1.6c-2.6,0.1-2.7,0.5-8.8,1.6c-5.7,1-8.8,1.6-11.7,1.6c-6.1,0-10.7-2.5-14.7-4.8
	c-16.1-9-25.8-25.9-26.4-26.9c-5.6-9.9-13.6-23.9-14.7-33.3c-0.1-1-0.5-4.8-2.9-6.3c-1.9-1.2-4.1-0.5-5.9,0c-4.4,1.2-9,1.6-13.2,3.2
	c-6.2,2.4-11.2,1.8-22,1.6c-30.4-0.7-37.7,2.4-67.5,0c0,0-47.6-3.9-83.7-17.4c-14.1-5.3-21.1-7.9-25-11.1c-0.8-0.6-2.8-2.3-5.9-3.2
	c-5.2-1.4-9.7,0.8-11.7,1.6c-4.4,1.7-11.7,0.1-26.4-3.2c-13-2.9-22.2-6.3-30.8-9.5c-11.6-4.3-15.5-6.6-17.6-7.9
	c-6.3-4-9.5-6-13.2-9.5c-3.9-3.7-6.4-7.1-8.8-6.3c-1.8,0.6-2.4,3.1-2.9,4.8c-0.2,0.6-0.4,1.2-0.7,1.8c-0.9,0.5-2,2-3.7,4.5
	c-1.3,1.8-1.7,2.7-2.3,4c-0.4,0.7-0.8,1.3-1.2,1.9c-0.7,1.1-1.4,2.2-2.1,3.2c-1,1.1-2.1,2.3-3.2,3.5c-8.8,9.4-14.7,14.3-14.7,14.3
	c0,0,0,0-2.9,1.6c0.1,0.3,0.2,0.7,0.4,1.1c-0.9,1.7,0.7,4.7,1.6,4.8c0.7,0.5,1.5,1.2,2.4,2c1.2,1.1,2.7,3.4,5.9,7.9
	c1.1,1.6,2,2.9,2.8,4.1c0.1,0.2,0.1,0.4,0.2,0.7c0.5,2,1.7,7.1,1.5,14.3c-0.1,2.1-0.3,4.8-0.6,6.7c-0.3,0.4-0.6,0.8-1,1.2
	c-0.8-1.1-1.1-2.2-1.5-3.3c-1.5-6.6-2.3-9.9-2.9-10.9c-2.7-4.6-7.4-5.9-8.8-6.3c-1.5-0.4-3-0.8-4.4,0c-1.7,1-1.2,2.7-2.9,4.8
	c-2.6,3-6.9,3.2-7.3,3.2c-2.4,0.1-3.6-0.8-4.4,0c-0.8,0.8-0.3,2.3,0,4.8c0,0,0.6,4.8,0,9.5c-0.2,1.5-0.6,3.2-1,4.6
	c-0.6,0.7-1.3,1.3-2.5,1.7c-1.2-3.2-1-7-2.7-10c-0.3-0.9-0.7-1.7-1.1-2.6c-1.1-2.2-2.9-5.6-5.9-6.3c-0.1,0,0,0-4.4,0
	c-2.6,0-4.4,0-4.4,0c-2.9,0-2.8,0-2.9,0c-2.8,0.2-3.4,1.1-5.9,1.6c-2.2,0.4-2.1-0.2-5.9,0c-3.4,0.2-5.1,0.3-5.9,1.6
	c-0.7,1.1,0.1,1.9,0,4.8c-0.1,2-0.5,3.4-1.5,6.3c-0.3,0.9-0.6,1.9-0.9,2.7c-0.4,0.4-0.9,0.7-1.3,0.7c-0.6,0-1.3-1-1.6-1.8
	c-0.2-0.6-0.4-1.1-0.7-1.6c0,0,0,0,0-0.1c-0.6-4.6-0.4-5.9-1.5-7.9c-0.4-0.7-1.2-2.3-2.9-3.2c-0.5-0.2-1.6-0.7-5.9,0
	c-3.6,0.6-4.2,1.2-7.3,1.6c-1.6,0.2-2.8,0.3-4.4,0c-2-0.4-2.2-1-4.4-1.6c-1.8-0.5-3.9-1-5.9,0c-1.7,0.9-2.6,2.5-2.9,3.2
	c-0.8,1.6-0.7,2.4-1.5,6.3c-0.1,0.3-0.1,0.6-0.2,0.9c-0.4,0.3-0.8,0.4-1.4,0.5c-0.3-0.5-0.7-0.8-0.9-1.3c-0.6-1.6-1.2-3.2-1.7-4.8
	c-0.6-2-1-3.2-1.5-4c-0.2-1.7-0.5-2.9-1.6-4c-1.4-1.4-2.2-1-4.4-3.2c-1.4-1.4-1.6-2.1-2.7-3c0.1-1.3-0.7-2.2-2.4-2.5
	c-1.4-0.2-3,0.1-4.4-0.1c-2.8-0.4-4.6,0.8-6.1,3.2c-0.2,0.3-0.4,0.5-0.6,0.7c-2,2.5-2.5,5.2-2.9,7.9c-0.3,1.8-0.8,4.6,0,7.9
	c0.5,2.2,1,2.5,1.5,4.7c-0.1,0.1-0.3,0.1-0.4,0.2c-1.1-0.9-2.4-1.7-3.3-2.8c-4.5-5.3-5.4-11.9-4.6-18.5c0.8-6.3,2.7-12.4,4.1-18.8
	c1,0.8,1.9,1.9,2.2,1.7c2-1.1,4.1-2.1,5.7-3.8c1.8-1.9,2.9-4.5,4.1-6.4c1.9,0.5,3.2,1.3,4.3,1.1c2.4-0.5,4,0.5,5.7,1.9
	c0.8,0.6,2.1,1.4,2.8,1.1c9.5-3.9,18.6-8.6,25.2-17.4c0.6-0.8,1.1-1.8,1.8-2.5c7.4-8.3,14.9-16.6,22.4-24.8c2-3.4,5.7-8.7,12.4-17.1
	c4.3-5.4,8.7-10.5,17.6-20.6c0.1-0.2,2.1-2.4,5-5.4c-0.2-0.4-0.4-0.7-0.6-0.9c-7.3,0-5.1,0.8-7.8-0.2c-9.4-3.4-18.8-6.8-28-10.5
	c-14.8-6-29.6-12.3-44.3-18.7c-5.6-2.5-10.9-5.9-16.3-8.9c-0.6-0.4-1.4-1.1-1.9-0.9c-2.9,1.1-4.6-1.1-6.6-2.5
	c-3-1.9-5.9-4.1-9.1-5.6c-6.4-2.9-12-7.1-17.4-11.6c-6.2-5.2-11.8-10.8-17.2-17.1c-5.8-6.9-10.9-14.1-14.1-22.6
	c-5-13.2-7.3-27.1-6.9-41.3C63,493,63.4,487.5,65.6,482.3z"/>
</svg>
