<?xml version="1.0" encoding="utf-8"?>
<!-- Generator: Adobe Illustrator 22.0.1, SVG Export Plug-In . SVG Version: 6.00 Build 0)  -->
<svg version="1.1" id="Layer_4" xmlns="http://www.w3.org/2000/svg" xmlns:xlink="http://www.w3.org/1999/xlink" x="0px" y="0px"
	 viewBox="0 0 1080 1080" style="enable-background:new 0 0 1080 1080;" xml:space="preserve">
<style type="text/css">
	.st0{fill:#77395E;}
</style>
<g>
	<path class="st0" d="M554.4,1040.7c-5.5,1.4-23.9,3.3-28.3-0.7c-5.1-4.8-0.9-29.9-0.8-38.3c0.5-29.2,3.4-61.2-2.3-89.9
		c-2.6-0.3-3.6,1.5-2.9,5.5c-2.3-6.3-7.9-7.4-8.2-2.1c-5.6-8.4-6.9-18.4-10.5-27.7c-4,8.5-1.7,18.2-4.7,27
		c-4.5-11.3-5.5-20.7-7.7-32.8c-2.1,8.8-3.3,18.5-11.9,23.6c-5-9.8,2.4-7.8-10.8-15.4c-5.3,14.1-5.2,29.9-15.1,42.1
		c-0.6-10.7,4-32.5-5.5-39.8c4.5,17,4.1,34.8,2.9,52.2c-3.8-4.2-10.8-42-16.1-41.9c-1.5,14.8-2.6,29.5-3.3,44.4
		c-5.5-6.8-5.6-15.6-8.3-23.5c-1.1,2.7-2.2,5.4-3.3,8.1c-4.1-0.4-3.1-24.6-4.8-28.5c-9.7,3.9-12.7,5.7-18.8,14.1
		c-3.7-6.3,2-13.1-2.6-19.2c-0.4,0.6-6,11.8-7.9,12c0.2-2,2.5-19.5,1.3-19.9c-0.7,4.3-2.4,8.1-5,11.5c-2.4-4-5.9-6-10.6-6.2
		c-0.5,4.2-2.1,5.9-4.7,5.1c0.5-7,6.1-13.7-2.6-18.3c-3.2,5.7,0.1,12.5-2.3,18.4c-4.6,0-4.2-5.3-6.5-7.8c-0.6,1.7-2.3,11.3-5,10.9
		c-0.3-4.2,0.2-8.2-1.1-12.1c-3.1-9.6-6.2,6.2-6.2-7.6c-5.5,6.1-1.2-1.5-2.6-5.5c-1.8-5.3,1.5-8.2-3.7-13.2
		c-2.8,4.4-2.9,8.8-0.3,13.4c-15.1-3.5-7.5-16.2-6.2-24.4c1.2-7.3-0.4-8.8,2.7-16.6c2.1-5.3,4.1-11.8,5.8-17.1
		c3-9.5,7.6-14.8,11.9-23.6c6.3-12.8,1.3-17.7-3.9-30.3c-0.4,12.5,2.1,18.7-6.4,27.8c-2.7-5.2-0.6-12-6-15.9
		c-1.4,5.1-12.6,44.5-17.2,43.5c0.8-9.5,2.6-14.1-2.5-22.2c-4.2,3-7.7,6-11.5,9.5c-1.8-6,4.6-7,6.6-12.3c2.9-7.6-1.1-15-4.9-21.5
		c-0.5,5.8-0.9,11.5-1.4,17.3c-8.6-4.3-7.5-45.1-0.3-51.2c-10,1.9-9.1,11.4-20,4.8c6.1-6.5,21.9-19.4,24.2-27.6
		c3.2-11.5-7.4-23.7-9.6-33.5c-3.1,7.7-4.6,16.1-10.5,22.3c0-5.9,0-11.8,0-17.7c-7.7,6.2-3.2-8.1-9.2,4.5
		c-11.7-4.9,30.2-80.2,26.8-90.5c-3.1,0.7-6.3,1.5-9.4,2.2c-0.6-9.3,10-14.5,13-22.2c3.2-8.2-0.2-15,6.1-22.8
		c3.1-3.8,10-11,13.8-14.1c11.1-9.1-0.2-2.4,11,0.4c-0.2-3.5-5.2-8.1-4.3-11.5c2.2-7.8,6.9-1.7,9.1-5.9c4.3-8.1-2.4-13,2.4-20.8
		c4.3-6.9,15.1-11,20-15.8c7.3-7.1,6.4-10.3,3.2-22.1c-2.6-9.8-6.6-18.5-3.4-29.6c2.8-9.5,11.6-15.3,16-23.7
		c5.5-10.4,4.6-21.2,14.4-28.9c4.1-3.2,9.6-3.4,13.6-4.9c2.5,0.5,5,1,7.4,1.5c6.8-5.6,6.8-8.4-0.1-8.5c9.2-6.7,14.1-11.1,18.9-17.4
		c-1.7-1.5-1.9-3-0.7-4.4c1.7-0.1,3.4-0.3,5-0.8c2.7-6.2,7.9-11.8,5.8-19.1c-1.7,1.3-2.8,3-3.2,5.2c-2.6-2.6-3.7-5.7-3.1-9.4
		c-6.5,0.1-5.8,8.4-6.3,12.7c-2.6,0.7-4.6-3.5-9.7-1.7c-5,1.8-7.3,8.1-8.7,12.6c-5.1-5.5-4.6-13.2-7.5-19.7
		c-4.3,0.7-0.8,11.2-1.7,13.9c0.2-0.5-7.4,11.4-8,12c-3.9-7.9-5.9,0-11.5-7.8c-4-5.5-0.4-9.9-2-15.5c-1.7-6.1-6.4-5.6-6.2-14.2
		c0.1-7,1.4-7,3.1-12.6c3.5-11.7,9.7-25.7,14-37.5c2.9-7.9-3.5-3.8,3.8-8.8c7.6-5.2,6.2,0.4,10.7-0.6c-0.1-8.5-1.7-17.5,7-22.6
		c-11.2-5.7,4-13,6.8-19.1c3-6.6,3.6-17.5,5.3-24.7c2-2.8,3.8-5.6,5.7-8.4c-2.7-1.5-3.8-3.3-3.3-5.5c5.5-13.5,14.2-18.2,14.4-35.1
		c0.1-10-1-20.8,9.9-24.9c2.7,3.7-6.5,9.6-2.8,12c10-8.9,16.4-21.4,21.7-33.2c1.3-2.8,3.3-8.9,5.8-10.8c1.3-1,5.7-1.3,6.3-1.8
		c1-0.9,4.2-0.4,5.7-1.9c1.8-1.8,2.5-10.7,2.9-12.6c9.1,3.9,5.4,9.4,17.4,13.5c1.9-15.5-0.5-32.2,1.8-48.6c0.5,3.5,2.4,5.8,5.5,6.9
		c1.5-5-0.7-5.8-1.4-10.8c9.9,6.5,19.4,9.8,22.2,21.6c-5.8-1.7-5.1,9.3-4.9,12.5c0.6,11.2-0.9,9.7,10.7,12.7
		c0.6-7.3,2.1-15.3-1.5-22.2c0.7,0.1,8.5-0.8,10.6-1c3.9-0.5,6.7,3.4,10.4,3.4c-0.8-7.8-3.9-17.4-12.8-14.8
		c22.8-29.6,30,42.5,28.4,57.3c-2-9.3-4-18.7-6-28c-8.7,2.7-10.7,13-8.1,20.8c3.7,11.4,13,10.4,20.3,16.3c3.2,2.6,3.9,7.6,6.9,10.1
		c1.2,1,8.7,4.4,9.8,4.9c7.4,3.5,11.6,5.7,17.1,10.4c7.1,6,13.2,12.2,15.4,21.1c1.8,7.1-1.6,16.5,0.6,23.2
		c3.5,10.7,18.2,16.7,19.8,28.7c7.2-3.7,15.7,9.5,18.9,15.5c4.5,8.2,3.7,15.1,1.1,23.6c-2,6.2-19.3,52.4-25.9,48.2
		c1.3-3.1,8.2-13,2.4-14.9c-3.3,5.8-0.3,14.7-8.3,16.9c1.2-4.3,2.1-8.6,2.7-13c-8.4,8.5-6,27-14.5,36.4c0.2-4,3.9-26.4-2-25.9
		c-4.4,0.4-6.7,22.3-5.9,25.9c0.8,4.1,6,8.3,6.4,11.5c0.5,4-3.3,10.3-3.6,15.3c-0.5,8.8,4,10,5.2,17.3c0.8,5-5.1,6.3-1.5,14.5
		c2.3-2.3,4.4-2.7,6.2-1.3c-12.4,11.4,56.4,55.1,50.7,68.8c10.5-4.3,5.7,19.2,6.2,23.7c0.5,5,7.2,16.9,3.8,20.7
		c-1-5.7-3-7.7-5.9-6.1c2.1,6.8,2.7,17.8,4.9,21.5c2.2,3.7,9.8,5.3,11.3,7.4c-2,3.1-4.6,5.4-8,6.9c10,5.2,8.7,39.2,12.1,46.9
		c4.1,9.1,16.4,15.1,22.8,21.5c5.6,5.5,12.5,12.4,18.3,18.6c3,3.3,5.4,9.4,9.1,11.9c6,3.9,11.3,1.3,16.9,6.7
		c5.9,5.6,6.2,14.6,9.7,20.4c5.4,8.9,10,15.2,12.3,26c2.8,13,6,27.8,4.2,41.1c-9.2,1.3-3-36.3-12.3-35.3c0,13.9-1.6,25.7,4.7,38.3
		c3.6,7,15.1,23.8,5.4,31.2c-0.3-5.4-0.7-10.8-1-16.2c-9.1,0-2.5,43.7-17.3,42.9c1.3-3.6,8.1-27.9,1.6-29
		c-1.6,5.6-3.3,11.2-4.8,16.8c3,5.3,2.1,9-2.8,11.1c-1.7,1.7-2.7,3.6-3,5.9c-0.9,2.5-2.5,38.1-8.1,14.6c-5.1,5-1.4,13.2-1.4,19.7
		c-0.1,7.3-0.5,18.1-2.2,25.3c-11.1-8.5-5.3,16.3-13.3,15c-0.8-13.2-1.5-26.5-2.3-39.7c-4.3,7.8-5.5,43.9-12.3,45.9
		c-2.7-2.2-3.7-15.7-5.1-19.9c-0.9,3.7,1.4,20.3-2.9,20.6c-0.7-3.4-1.4-6.9-2.2-10.3c-0.8,3.5-4.7,27.5-7.9,27.2
		c0-5.5,1.7-14.8-6.9-15c2,4.8,6.8,12.6,2.3,17.5c-1.1-3.2-2.2-6.4-3.3-9.6c-0.8,3.4,1.3,25.3-1.8,25.9c-0.1-5.2-2.6-7.1-7.7-5.6
		c0.3,3.3,8.7,33.9-0.5,32c-1.7-5.8,1.2-12.1-4.6-16.5c-1.7,8.3-4.8,15.3-7.3,22.2c-1.6,4.3-0.6,10.2-4.5,14
		c-4.4-8.2-0.8-16.9-0.2-25.3c-5.6,4.3-10,18.3-14.2,24.3c3.9-13.4-4.1-46.3-20.2-26.9c4.8,2.2,23,31.2,10.5,34.8
		c-4.6,1.3-9.1-20.7-11.4-24c-2.3,13.6,1.8,27.2,1.2,40.9c-8.2-9.1-10.5-23.6-16.3-34.7c-5.2,8.4,3.8,30.7,5.7,38.9
		c-8.7-7.5-5.9-13.5-8.4-21.2c-2.4-7.5-13.1-19-7.6-27.1c-5.5-0.7-2.3,10.3-9.8,4.4c-3.6-2.9-0.4-13.8-3-17.5
		c-2.2-3.2-5.8-4.2-9.2-6.1c-1,4.1-2,8.3-3,12.4c-3.4-4-6.7-6.8-10.8-9.9c-2.5-1.9-4.6-4.2-6.4-6.9c-2.3,2.1-4.3,1.7-6.3-1.2
		c-3.1,8.6-6.3,17.1-9.4,25.7c-2.3-6.9-6.8-13-11.3-18.6c-10.5,12.7-2.8,47.5-2.1,63.1c0.3,7,5.1,42.2-0.4,47.7 M610.1,292.4
		c-2.2,3.6-4.5,7.3-6.7,10.9c6.8,1.2,8.1,9.4,14.5,11C624.9,306.7,614.4,298.3,610.1,292.4z M474.9,868c-12.7,1,0.4,21.4,2.2,23.9
		C476.8,884,477.1,875.7,474.9,868z"/>
</g>
</svg>
