<?xml version="1.0" encoding="utf-8"?>
<!-- Generator: Adobe Illustrator 22.0.1, SVG Export Plug-In . SVG Version: 6.00 Build 0)  -->
<svg version="1.1" id="Layer_3" xmlns="http://www.w3.org/2000/svg" xmlns:xlink="http://www.w3.org/1999/xlink" x="0px" y="0px"
	 viewBox="0 0 1080 1080" style="enable-background:new 0 0 1080 1080;" xml:space="preserve">
<style type="text/css">
	.st0{fill:#E08A1B;}
</style>
<path class="st0" d="M345,451c-4.5-0.3-8.8-1.6-13.2-2.5c-7.8-1.6-15.9-2.2-23.7-4c-7.8-1.8-15.3-4.9-22.9-7.3
	c-9.9-3.1-20.1-5.4-30.2-7.5c-15.1-3.1-30.3-5-45.5-7.2c-13.3-2-26.4-5.1-39.6-6.9c-8.1-1.1-16.3-1.8-24.5-2
	c-6.5-0.2-12.4,2-18.9,2.3c-5.3,0.2-10.8-0.6-16,0.2c-8.1,1.2-15.3,7.2-21,12.8c-4.1,3.9-7.4,8.1-12.3,11.1
	c-5.6,3.4-12.1,6.5-16.7,11.4c-9.5,10-3.7,24.7,6.8,31.2c14,8.7,32.3,10.3,48.2,12.6c11,1.6,22,2.9,32.8,5.2
	c12,2.6,24.1,4.9,35.8,8.8c4.6,1.6,8.2,2,12.9,0.5c2.6-0.8,4.2-1.6,6.8-0.4c4.8,2.2,7.4,8.8,12.6,10.4c2.7,0.8,5.7-1.3,8,0.6
	c1.8,1.5,1.5,5.1,1.5,7.1c0,4.2-0.5,8.4-1.1,12.5c-1.1,8-1.8,16.3-3.6,24.2c-1.2,5.1-4.4,7.6-8.3,10.6c-6.2,4.8-11.7,10.4-16.5,16.5
	c-4.1,5.1-7.9,7.5-14.6,8.3c-3.6,0.4-6.7,0-10.1-1.2c-2.3-0.9-5.9-4.1-8.1-1.7c-5.1,5.5,12.9,6.1,11.3,11
	c-1.2,3.4-18.8,3.1-22.4,3.7c-4.3,0.8-13.6-0.1-15.7,4.2c-3.3,6.8,13.2,3.8,16.3,3.2c2.2-0.4,9.2-2.9,10.9-1.4
	c3.6,3.1-3.2,4.2-5,4.7c-6.4,2-12.6,5.1-18.6,8c-3.5,1.6-17.6,6.1-7.9,10.1c5.3,2.2,13.1-1.3,18-3.1c2.1-0.8,18.7-7,17.8-8
	c0.8,0.9-19.1,18-21,20.1c-2.5,2.8-7.8,5.2-7.8,9.2c0,4.7,3.3,4.5,6.2,2.9c5.1-2.6,40.8-33.7,42.3-32c3,3.2-14.8,24.2-1.9,23.8
	c6.2-0.2,11-13.4,13.1-17.7c4.5-9.2,10.9-13.5,19-19.4c9.8-7.2,20.1-15.1,28.3-24.2c8.5-9.4,5.9-20.3,5.7-32.6
	c-0.1-6.1-2-13.4,4-17.5c4.8-3.3,10.7-1,15.7,0.3c4.7,1.2,9.5,0.9,14.3,1.9c10.6,2,20.9,6.5,31.4,9.1c14,3.5,28.1,6.3,42.3,8.9
	c22.6,4.1,44.5,5.5,67.5,4.1c13.3-0.8,27.4-0.8,40.4-3.9c5.4-1.3,11.8-3.8,15,2.2c1.5,2.8,5,11.5,2.7,13.9
	c-7.1,7.6-19.4-10.3-24.9-2.8c-4.7,6.4,15.4,6.2,12.7,12.6c-3,7.1-20.9-0.9-25.1-2.3c-1-0.3-2-0.6-2.9-1c-2.9-1.2-4.8-3.3-7.6-0.3
	c-1.6,1.8-1.9,3.8-0.3,5.5c3.1,3.2,10.9,3,15,4.1c4.9,1.3,10,2.9,14.8,4.3c9.3,2.7-8,18.3-11.8,22.1c-5.6,5.7-10.4,11.9-15.3,18.2
	c-1.9,2.4-6.7,9.6-2.5,12.4c3.5,2.4,8.6-5.4,10.5-7.6c8.2-9.8,16.1-19.6,24.5-29.2c1.7-1.9,1.9-4.2,4-2.3c1.2,1.1,1.7,6,2,7.6
	c1,5.3,0.6,10.6,0.6,16c-0.1,11.8,4.7,20.3,8.2,31.3c1.5,4.7,3,10,6.4,13.8c4.2,4.8,5,0.1,5.1-4.2c0.2-9.2-5.3-17.5-7.7-26.2
	c-3.2-11.6-2.3-26.7,3.1-37.5c4.9-9.7,13.4-9.4,22.9-9.3c7.1,0.1,13.7,1.9,20.9,1.9c4.7-0.1,9.4-0.1,14.1,0.2c0.8,0.1,4.5,1,5.2,0.1
	c1.5-1.9-1.8-5-3.2-5.9c-6.6-4.3-17.6-1.2-25.2-2.1c-0.7-0.1-4.7-0.2-5-1.3c-0.3-1.2,2.9-2.7,3.4-4c0.9-2.1-0.5-4.4,0.3-6.6
	c0.8-2.5,3.3-4.6,5.1-6.3c5.7-5.7,9.1-9.5,10.6-17.8c0.8-4.5-1-9.5,1.9-13.7c2.7-3.8,9.1-4.6,13-6.7c8.3-4.4,12.6-12.4,20.1-17.7
	c7.1-4.9,17.5-3.8,25.8-3.4c5,0.3,9.7,1.9,14.6,2.6c5.9,0.8,11.9,0.2,17.8-0.3c11.5-1,22.8-2.2,34.1-4.8c17.6-4,33.7-11.5,51.7-14.1
	c20.7-2.9,40.8-8.5,61.9-7.9c25.5,0.7,50.9,5.3,75.2,13.1c20.3,6.6,38,18.8,53.1,33.7c18.2,18,31.9,39.1,45.8,60.4
	c11.3,17.4,20.8,34.9,29.1,53.8c4.4,10,9.8,19.5,13.7,29.7c3.6,9.4,5.2,19.4,8.1,29.1c1.8,6,2.8,12.1,4.5,18c1,3.5,4.2,9.9,7.2,4.7
	c4.9-8.6,1.5-20.5-0.3-29.5c-1.1-5.6-1.3-11.4-2.5-17c-2.5-11.5-6.9-22.9-11.2-33.8c-8.3-21.3-16.5-42.8-25.7-63.7
	c-7.5-17.1-16.5-32.7-26.8-48.2C942,527,929.5,508.7,913.6,493c-16.4-16.2-35.8-30.2-57.7-37.9c-22.9-8.1-47.5-14-71.5-17.5
	c-23.8-3.5-47.7-4.9-71.7-2.2c-23.5,2.6-46.9,6.8-70.5,9.2c-12.1,1.2-24.8,1.8-36.9,0c-6.2-0.9-12-3-18.4-2.6
	c-5.1,0.3-9.3,0.6-13.1-3.3c-2.2-2.2-7-12.6-2.4-13.6c3.5-0.8,7.5,5.7,11.4,5.8c6.5,0.2,15.6-4.8,21.5-7.1
	c6.4-2.5,16.7-4.5,22.4,0.9c2,1.9,1.1,3.9,4,4.6c1.3,0.3,4.7-1,5.6-1.9c5.8-5.4-6-7.7-5.5-9.7c0.6-0.1,1.2-0.1,1.8,0
	c-0.1,1.4-6.6-1.3-7.1-1.9c-1.2-1.2-0.7-3.2-2.3-4.1c-3.9-2.2-15.7,4.6-17.3-1.5c-0.9-3.3,6.7-9.2,8.9-11.1c4.7-4.1,9.5-6,15.5-7
	c9.3-1.6,16.4-3.2,25.1-6.9c4.9-2,9.8-4.6,14.9-6.1c5.4-1.6,12.2-3.7,17.8-4.1c2.6-0.2,4.2,1.2,3.6-2.5c-0.5-3-3.7-4.6-6.3-5.2
	c-7.4-1.6-14.1,3.3-20.5,5.8c-9.1,3.5-19.5,4.5-29,7.2c-6.4,1.8-12.9,3.1-19.5,3.6c-1.7,0.1-7.7,1.7-9.4,0.9
	c-3.6-1.9,0.5-9.6,1.8-12.4c1.7-3.7,4.2-6.8,6.1-10.4c1.7-3.2,2.4-5.8,4.8-8.6c2.3-2.7,4.8-5.8,5.4-9.5c0.9-5.6-5.3-4.5-7.8-0.5
	c-2.4,3.9-5,8.2-7,12.4c-2.5,5.3-14.5,35.9-22.3,26.6c-3.6-4.3-1.6-11.8-5.4-16.7c-1.1-1.4-2.5-2.2-3.6-3.7
	c-0.6-0.8-0.6-3.3-1.8-3.7c-3.5-1.3-3.9,3.6-3.6,5.6c1.2,6.6,6.7,11.7,7.5,18.7c1,8.2-4.6,10.1-11.6,8.2
	c-10.6-2.9-21.3-6.9-32.2-8.2c-9-1.1-19.3,5.3-20.9,14.6c-1,6.1,2.8,12.7,5,18.2c0.9,2.3,7.1,14.8,5.8,17c-0.6,1-9.4-0.1-11-0.1
	c-7.8,0-15.6-0.1-23.3,1.2c-15.4,2.6-29.9,9-45.2,11.8c-11.3,2-22.5,2.2-33.9,2.1c-11.4-0.1-22.9-0.7-34.3,0.2
	C368.4,448.6,356.3,451.8,345,451z"/>
</svg>
