<?xml version="1.0" encoding="utf-8"?>
<!-- Generator: Adobe Illustrator 22.0.1, SVG Export Plug-In . SVG Version: 6.00 Build 0)  -->
<svg version="1.1" id="Animal" xmlns="http://www.w3.org/2000/svg" xmlns:xlink="http://www.w3.org/1999/xlink" x="0px" y="0px"
	 viewBox="0 0 1080 1080" style="enable-background:new 0 0 1080 1080;" xml:space="preserve">
<style type="text/css">
	.st0{fill:#B77408;}
</style>
<g>
	<path class="st0" d="M236.1,390.1c5.2-8.4,1.3-17.3,2.2-26.3c-19.2-1.3-39.6,0.4-57.1,9.8c-12.6,6.8-24,17.9-34.1,27.8
		c-14.2,13.9-27.3,29-44.5,39.4c-6.8,4.1-14.6,7.6-22.2,10.4c-7,2.6-20.7,9-27.9,8c-5.9-0.8-13.7-7.8-14.8-13.6
		c-1.5-7.8,6.8-15,11.2-20.6c12.1-15.7,28.5-28,41.9-42.6c14.2-15.4,20.6-35.6,26.5-55c2.7-9,7.9-14.3,10.1-23.2
		c2.6-10.2,5.9-19.9,9.3-29.9c6.2-18.3,13.2-33,30-43.9c15.4-10,32.7-16.3,51.3-17.3c41.8-2.3,75.6,29.6,100.5,58.7
		c20.6,24.1,31.6,55.1,35.6,85.5c1,7.4,3.3,15.8,7.2,22.2c5.5,9.1,9.4,10,20,8.4c19.4-2.8,37.9-11.9,57.6-14.8
		c44-6.5,94.8-5.5,137.2,10.1c16.1,6,33.1,11.5,48.8,19c17.8,8.5,37.9,16.3,54.3,27.9c-2.9-1.6-4.4-1.5-4.8,0.5
		c9.7,5.8,20.6,7.9,30,13.7c9.6,5.9,15.8,12.9,26.9,17.2c13.7,5.3,25.8,12.7,38.9,19.3c14.8,7.5,30.6,10.2,46.9,12.4
		c32,4.4,64.1,8.9,96.1,13.4c13.5,1.9,26.8,2.6,40.4,3c11.5,0.3,23.6,3.8,33.6-2c-0.3,2.3-4.9,4-6.3,4.8
		c17.2,3.6,44.4,6.3,57.6,23.3c-5.4,3.5-17-1.8-16.7,5c-5.9-3.8-9.5-4.8-17.7-5.2c-6.6-0.4-14.1-0.1-21-0.1
		c-7.9,0.1-15.8,0.1-23.7,0c-4.1-0.1-8.1,0-12.1,0.3c-3.2,0.3-3.7,3.8-4.2,3.9c-2.7-8-43.5,3.7-52,5.5
		c17.1,15.3,38.8,24.3,59.1,34.6c6.8,3.4,56.5,29.9,52.4,36.9c-17.6-4-35.7-13.8-50.8-23.3c-15.3-9.7-31.6-21.6-50.5-19
		c5.6,2.4,13.4,4.3,16.1,10c-6.3,3.9-39.8,1.5-26.7,14.7c3.8,3.9,9.2,8,13.6,11.2c5,3.7,3.3,3.1,9.3,4.8c3.8,1.1,8.8,0.3,12.7,0.7
		c15.2,1.8,32.8-0.6,46.6,7.3c17.5,10,10.7,30.4,4.1,44.8c11.7,3.6,22.9,7.7,33.3,14.1c4.2,2.6,8,6.1,13.7,8.1
		c5.3,1.8,12.6,2.3,19.2,3.7c-1.5,1.2-8.8,1.4-9.8,1.5c2.3,4.3,3.8,0.3,4.6,6.3c-36.9,0-73.1,12.8-108.7,21.5
		c-19.2,4.7-39,6.8-58.1,12c-17.6,4.7-36.5,9.1-54.5,10.7c-39.1,3.4-78.9,1.5-117.5,9.5c-39.8,8.3-75.4,14.6-116.4,9.9
		c0.9,3.7-2.9,10.8-3.5,15.5c-0.9,6.9-1.9,13.8-0.9,20.6c1.5,10,12,27.3,0.9,34.6c-1.2-1.4-1.5-3-0.9-4.8c-2.9,0.5-5.6-0.2-8-1.9
		c-4-3.7-0.7-7.3-3.2-11.2c-3.3,4.5-3.1,5.6-7.5,8.9c-1.3,1-7.1,3.1-9.2,4.4c-8.9,5.3-16.6,8.4-26.9,8.1c-9.2-0.2-14.8,0-23.7,1.8
		c-9.5,1.9-18.4,0.4-27.6,3.9c-2.8-8.2,5.7-2.6-1.9-9.5c-1.6-1.5-4.2-2.5-6.3-2.9c-3.2-0.7-16-1.5-17.4,2c6.7,0.5,9.3,8.6,5.8,13
		c-3.7,4.7-11.2,3.9-15.8,7.5c-6.2,4.8-4.5,8.8-14.4,9.5c-4.3,0.3-22.9-3.5-19.6,1c-6.3,0.7-3.4-4.1-8.9,1.5
		c0.3-2.1,7.8-10.3,0.1-4.6c1.7-6.7-23.6-4.4-28.9-7c-0.7,1.7,2.5,2.8,1.3,4.1c-1.7-1.3-11.4-7.3-8.4-1.1c-3.6-4-19.7-1.3-25-1.1
		c-9.4,0.3-19.2,1.8-28.5,1.9c-15.7,0.1-33.6-4.1-46-12.7c-4.7-3.3-1.6-2.8,3.9-4c6.9-1.5,14.6-3.5,21.9-4.4
		c4.4-0.6,16.7,3.7,18.8-0.4c1.7-3.4-2.3-3.6-2.3-5.6c0.2-5.4,9.8,1,0.8-6.5c5.8-2.7,14.1,0.8,20.7,0.3c3.2-0.2,11.9-5,9.1,0.3
		c5.5,0,11.1-1.4,15.2-4.4c-1.5,4.8,7.4,1,10.8,0.4c-2-4-5.7-3.4-9.1-2.1c4.9-5.7,6.6,0.8,10.8,1.5c3.7,0.6,9.7-1,13.5-1.7
		c5.3-0.9,11-2,16.2-3.5c5.8-1.8,6.3-4.2,11-6.8c2.2-1.3,5.1,0.7,6.8-0.3c2.2-1.3,4.5-5.4,6.1-7.5c3.3-4.3,6.9-8.7,9.8-13.2
		c5.7-8.7,16.1-22.5,15.8-33.2c-0.2-6.8-2.8-6.3-9.2-8.4c-6-1.9-12.2-3.6-18.2-5.7c-9.4-3.4-17.7-6.9-27.2-10.3
		c-21.4-7.6-41.6-18.4-63.6-24c-45.3-11.7-88.6-33.1-121.1-66.6c-28-28.9-48.2-74.1-46.1-114.5c1.4-26.7,10.4-47.2,23-70.3
		c6.9-12.6,15.6-24.5,24.5-35.9c8.5-10.8,20-18,29.9-27.2 M453.2,800.1c21,1,42.3,2.3,63.4,2.7c10.4,0.2,15.6,1.6,19.9-8.5
		c4.3-10,7-20.4,12-30.1c-19-2.3-38.5-1.4-57-4.3c-4.3-0.7-11.3-2.9-14.7-0.9c-3.4,1.9-7.8,12.8-9.8,16.4
		C462.8,782.4,454,791.8,453.2,800.1z M954.8,630.2c-2.1,2.1-1.9,9.8-3,12.9c-1.6,4.7-8.9,14.9,1.4,14.2
		C966.7,656.4,964.3,634.6,954.8,630.2z M934,630.9c-3.8-3.7-8.8-4.6-13.9-4.9c2.5,5.3,7.4,8.9,10.1,14
		C933.4,636.9,934.5,635.3,934,630.9z"/>
</g>
</svg>
