<?xml version="1.0" encoding="utf-8"?>
<!-- Generator: Adobe Illustrator 22.0.1, SVG Export Plug-In . SVG Version: 6.00 Build 0)  -->
<svg version="1.1" id="Layer_4" xmlns="http://www.w3.org/2000/svg" xmlns:xlink="http://www.w3.org/1999/xlink" x="0px" y="0px"
	 viewBox="0 0 1080 1080" style="enable-background:new 0 0 1080 1080;" xml:space="preserve">
<style type="text/css">
	.st0{fill:#E08B1B;}
</style>
<path class="st0" d="M109.3,290.2c8.2-4.1,17.1-8,26.2-9.5c7.5-1.3,14.8-1.3,22.3-3.3c13.4-3.7,26.7-1,40.4-0.3
	c12.5,0.7,25.2,0.4,37.6,1.6c7.2,0.7,13.7,4.7,19.9,8.1c14.7,8.1,32.9,15.8,43.4,29.6c9,11.8,15.7,24.9,26.1,35.6
	c10.4,10.7,15.3,25,26.5,35.2c11.8,10.7,28.2,16.8,42.3,23.7c24.5,12.1,50.6,20.2,74.9,32.8c24.9,12.9,46.4,30.3,70.2,45.1
	c15,9.4,29.7,19.3,43.7,30.1c12.8,9.9,26.2,19.6,36,32.6c13.1,17.3,21.7,38.5,32.7,57.2c5.4,9,11.9,17.6,16.4,27.1
	c7.9,16.5,12.6,31.8,26.6,44.7c12.3,11.3,26.5,15.8,41.3,22.3c4.7,2.1,9.4,6,14.6,6.3c2.8,0.2,18.6-7.5,18.6-7.5
	c2.3,2.7-7.2,7,1.6,6.7c8.5-0.4,16.6-3.6,25.4-3.6c13,0.1,26.5,6.1,39.3,3.7c2.4-0.5,12.6-5.2,14.4-3.1c0.9,1.1-1.9,4.1-0.8,5.9
	c0.8,1.2,2.7,1.4,3.9,1.8c6.9,2.2,14.9,2.3,22,3.8c3.6,0.8,7.3,1.8,11,1.4c1.5-0.2,9.2-3.8,9.8-3c1.4,1.9-6.3,4.4-1.8,7.8
	c2.9,2.2,10.4,1.2,13.8,1.3c2.9,0,11.2-1.2,13.6,0.8c3.7,3.1-3,2.3-1.2,6.5c1.8,4.1,11.7,5.7,15.3,6.1c3.6,0.3,16.2-4.2,17.7-1.9
	c2,3.1-1.3,5.3,2.3,8.5c2.2,2,5.8,2.6,8.6,3.3c2.7,0.6,19.5,1.2,20,3.6c0.4,2.3-3.3,1-1.4,3.7c1.1,1.6,5.9,1.6,7.5,2.4
	c7.2,3.4-1.8,5.7,5.2,9.2c3.3,1.7,9.1,1,11.8,3.2c2.7,2.2,0.7,1.4,0.2,4.2c-1.1,7.4,10.3,8,10.3,15.8c0,6.2-11.1,12.6-16.1,14.3
	c-7.7,2.5-14.6-3.2-21.7-5.3c-13.2-4-26.4-2.6-39.9-1.3c-27.2,2.6-53.5,0.7-79.8-6.1c-16.1-4.1-32-9.5-48.3-13
	c-14.4-3.1-29.2-3.3-43.5-6.8c-34.3-8.4-68.1-17.1-102.9-23.1c-12.3-2.1-23.9-3.7-36.3-2.9c-14.2,0.8-28.5,1.6-42.6,0.5
	c-8.2-0.6-16.3-1.8-24.2-4.1c-8.4-2.4-15.8-6.9-24-9.7c-8.3-2.8-16.5-4.1-25.2-2.6c-2.8,0.5-5.4,1.5-8.2,1.2
	c-3.9-0.4-6.6-3.2-10.3-4.4c-4.8-1.5-10.1-0.8-15-1.9c-1.8-0.4-3.5-0.5-4.9-1.9c-3.7-3.6-2-5.4-8.1-7.3c-8.6-2.7-17.3-5-25.6-8.5
	c-18.4-7.7-35.6-18.2-53.3-27.4c-7.1-3.7-14.4-6.9-21.5-10.5c-5.7-2.8-11.4-5.6-17-8.4c-4.4-2.2-6.4-6.4-10.2-8.7
	c-4.8-2.9-4.5,1.7-8.4,1.2c-3.3-0.5-2.2-4.9-4.6-7.1c-5.3-4.7-5.4,0.3-8.8,2.3c-3,1.8-6-1.4-8,0.3c-2.6,2.2,1.8,5.8-3.5,3.3
	c-3.7-1.8-3.1-6.4-8.2-4.8c-7.7,2.5-1.2,20-4.2,20.8c-0.5,0.1-3.5-7-4.1-7.5c-3.2-2.3-4.6-0.1-7.1,2.5c-6.6,6.9-10.9,12.5-19.8,16.8
	c-9.8,4.6-15.9,6-26.4,3.9c-9.3-1.9-19.1,0.6-28.4-1.3c-3.4-0.7-6.5-1.9-9.7-3.1c-3.9-1.5-6.3-1-10.4-1.3
	c-9.4-0.8-18.7-3.7-27.8-5.2c-7-1.1-14.2-1.9-21-1.3c-3.4,0.3-6.1-1-9.4-1.7c-1.4-0.3-9.9-0.4-10-0.6c-1.9-4.2,19.3-8.3,21.7-9.8
	c2.7-1.6,4.1-4.6,7.1-5.5c2.5-0.8,6.9,0.4,9.7,0.4c6.4,0,13,2.9,19,2.3c4-0.4,7.5-3.1,11.3-4.2c2.5-0.7,6.1-0.3,8.2-1.8
	c5.1-3.7,5.2-18.9,5-24.8c-0.3-8.3-3.5-18-5.3-26.2c-0.3-1.2-0.3-3.6-1.4-4.3c-1.1-0.8-3.1,0.9-3.3,0.7c-2.3-2.3-1.4-8.2-1.7-11.4
	c-0.3-3-4.8-27.1-7-27.1c-1.8,0-0.7,4-3,3.4c-1.2-0.3-2.9-8.8-3.2-9.6c-2.1-6.3-4.7-12.4-7-18.6c-1.6-4.2-4.2-9-4.2-13.7
	c0-2,3.3-13.1,1.2-13.7c-1-0.3-1.2,2.7-2.9,2.1c-1.5-0.5-2-4.5-2.5-5.8c-1.5-3.4-3.7-6.3-4.5-9.9c-0.6-2.4-0.6-5,0-7.5
	c0.1-0.4,2.7-5,2.5-5.4c-1.6-2.8-6.1,2.4-7.5,0.4c-0.7-1,4-8,2.5-11.2c-1-2-4.5-2.8-5-5c-0.5-2.4,2.6-3.8,2.5-6.2
	c-0.2-3.9-5.7-4.5-4.3-8.3c0.5-1.5,4.5-2.7,4.2-4.8c-0.4-2.6-4-0.8-4.9-3c-0.5-1.3,1.9-3,2.2-4.1c0.7-2.9-0.8-4.5-2.2-7
	c-2.3-4.4-2.6-10-6.1-13.7c-6.2-6.7-17.6-9.1-25.5-13.3c-8.1-4.2-19.1-8.3-24.7-15.8c-2.5-3.4-5.2-7.7-5.6-11.7
	c-0.3-2.9,2.1-2.5-0.3-4.7c-0.8-0.8-6.4-1.8-7.4-2.3C61,359.7,65.5,339.2,62.8,325c-2.3-12.1,6.4-17,15.6-22.8
	c3.6-2.3,7-4.3,11.2-5.2C97,295.5,102.5,293.6,109.3,290.2z"/>
</svg>
