<?xml version="1.0" encoding="utf-8"?>
<!-- Generator: Adobe Illustrator 22.0.1, SVG Export Plug-In . SVG Version: 6.00 Build 0)  -->
<svg version="1.1" id="Layer_4" xmlns="http://www.w3.org/2000/svg" xmlns:xlink="http://www.w3.org/1999/xlink" x="0px" y="0px"
	 viewBox="0 0 1080 1080" style="enable-background:new 0 0 1080 1080;" xml:space="preserve">
<style type="text/css">
	.st0{fill:#E08B1B;}
</style>
<g>
	<path class="st0" d="M684.3,311.2c8.9,7.6,17.9,15.3,26.8,22.9c1-7.1,2-14.3,2.9-21.4c9.3,9.6,18.7,19.1,28,28.7
		c1-6.5,0.6-15.5,3.2-21.5c2.4-5.7,5.2,0.1,7.7,3.3c3,3.8,6,7.6,9,11.5c2.8,3.6,6.9,12.2,11.7,13.6c5.7,1.7,9.7-8.6,12.3-12.5
		c6.5,11.1,12.9,22.1,19.4,33.2c4.4-6.5,8.8-12.9,13.2-19.4c2.7,9.9,5.5,19.8,8.2,29.7c4.9-2.8,9.7-5.6,14.6-8.5
		c-1.6,6.3-3.2,12.6-4.8,18.9c-0.7,2.6-1.3,5.1-2,7.7c-1,4.1,0.7,4.9,4.4,6.9c11.1,6.3,23.1,10.7,34,17.5c11,6.8,21.5,14.3,31.8,22
		c10.1,7.5,21.3,14.5,30.5,23.1c9,8.4,16.9,18,26.2,26.2c9.3,8.4,19.9,14.8,29,23.4c10.2,9.7,20.2,19.5,30.5,29.2
		c4.1,3.8,5.6,6.1,7.4,11.3c1.9,5.3,6,8.7,9.7,12.7c3.1,3.3,6.1,7,5.6,11.8c-0.3,3.7-1.9,4.5-4.9,6.1c-1,0.5-2.9,1.2-3.9,2
		c-1.9,1.5-1.6,1.6-2.7,3.8c-5.4,10.2-20.4,10.8-30.5,13.5c-27.9,7.3-55,17.6-82,27.6c-53.5,19.8-106.7,36.6-162.8,47
		c-6.2,1.1-11.5,2.7-15.8,7.5c-4.5,5-8.3,10.7-12.8,15.8c-8.9,10.1-18.6,19.4-29.2,27.7c-10.3,8.1-21.3,15.2-33,21.2
		c-6.5,3.4-13.1,6.4-19.8,9.5c-8.1,3.7-14.1,5-22.9,5.7c2.8-15.1,5.8-29.6,10.2-44.3c2.2-7.5,4.5-14.9,7-22.4
		c2.5-7.6,6.5-14.1,10.3-21.1c-11.8-2.1-24-2.3-35.9-3.8c-13.4-1.7-26.6-4-39.8-6.9c-13.2-2.9-26.2-6.3-39.1-10.2
		c-12.7-3.9-24.4-9.2-37.9-6.3c-13.1,2.8-25.9,6.8-39.1,9.5c-2.2,0.4-4.9,1.4-7.2,1c-2.8-0.6-4.8-3-7.8-3.5c-5.9-1-11,2.3-16.1,4.6
		c-12.1,5.6-21.1,1-30.6-7c-9.8-8.2-20.4-15.6-29.9-24.2c-10.1-9.2-19.8-18.5-30.8-26.6c-11.1-8.1-23.5-14.2-34.4-22.4
		c4.6-1.6,9.3-3.2,13.9-4.8c-19.5-7.9-42.2-9.2-63.1-9.5c-10-0.1-20.8-0.7-30.7,1.5c-10.4,2.2-16.8,9.2-24.2,16.3
		c-31.9,30.6-62.9,63.1-98.1,89.9c-16.4,12.5-33.8,24.7-53.5,31.4c-4.3,1.5-9.1,3.9-8.1-2.2c0.7-4.4,4.2-9.2,6.5-12.9
		c5.5-9,10.7-18.1,15.5-27.4c20.6-39.6,30.1-82.9,41.2-125.9c2.5-9.8,3.9-19.9,1.8-29.9c-2.3-11-6.7-21.7-9.6-32.6
		c-5.8-21.2-11.5-42.2-20-62.4c-8.8-20.9-18.8-41.5-28.6-62c-1.1-2.3-7.7-12.3-7-14.4c1.2-3.3,9.1-0.3,10.9,0.3
		c9.6,2.8,18.9,6.6,27.8,11.2c18.3,9.5,33.5,22.6,48.5,36.5c16.7,15.6,33.2,31.4,49.8,47.2c16,15.2,31.9,30.6,50,43.4
		c15.8,11.1,38.3,12.6,56.9,10c1.8-0.3,4.2-0.2,5.9-0.9c2.4-1,2.9-2.3,4.4-4.7c2.4-4.1,4.8-8.3,7.5-12.2
		c5.3-7.7,11.7-14.6,18.8-20.8c15.2-13.3,33.1-23.7,50.7-33.6c19.1-10.8,38.7-20.7,58.7-29.6c9.2-4.1,18.9-9.4,29.1-10.5
		c5-0.5,9.3,0.6,14.1,1.4c4.8,0.8,9.5-0.3,14-2c3.3-1.2,8-2.4,10-5.1c1.5-2,0.6-3.3,3-3.8c1.9-0.4,5.9,1.2,7.8,1.5
		c0.2-2.6,0.4-5.2,0.6-7.8c5.1,1.2,10.2,2.3,15.2,3.5c0.2-3.2,0.4-6.4,0.6-9.6c3,0.4,6,0.8,9,1.3c4.4,0.6,4.5,0.8,6.6-3.1
		c2.1-3.8,2.2-3.4,6.4-2.3c2.9,0.7,5.7,1.4,8.6,2.2c0.4-3.6,0.9-7.2,1.3-10.8c3.6,0.8,7.9,2.5,11.6,2.6c2.9,0.1,1.7,0.8,3-1.8
		c0.9-1.9,1.3-5,1.8-7c5.8,2.7,11.7,5.4,17.5,8.1c0-4.5,0-9.1,0-13.6c6.4,2.4,12.8,4.8,19.2,7.2c0-3.9,0-7.8,0-11.7
		c7.2,3.4,14.4,6.7,21.6,10.1c0-5.8,0-11.6,0-17.3c8.4,4.7,16.9,9.3,25.3,14c0.4-5.9,0.7-11.7,1.1-17.6c8.1,6.1,16.1,12.1,24.2,18.2
		c3.6-7.1,1.9-14.1,0.6-21.5C681.7,311.2,683,311.2,684.3,311.2z"/>
</g>
</svg>
