<?xml version="1.0" encoding="utf-8"?>
<!-- Generator: Adobe Illustrator 22.0.1, SVG Export Plug-In . SVG Version: 6.00 Build 0)  -->
<svg version="1.1" id="Layer_4" xmlns="http://www.w3.org/2000/svg" xmlns:xlink="http://www.w3.org/1999/xlink" x="0px" y="0px"
	 viewBox="0 0 1080 1080" style="enable-background:new 0 0 1080 1080;" xml:space="preserve">
<style type="text/css">
	.st0{fill:#E08B1B;}
</style>
<path class="st0" d="M1012.5,288.3c-10.8-7-23.3-10.5-35.2-15.3c-8-3.3-15.5-7.8-22.9-12.4c-9.8-6.1-19.7-11.6-30.5-15.6
	c-12.8-4.7-26.3-6-39.1-10.3c-9.8-3.3-20-4.4-27.9-11c-4.4-3.7-8.8-6-14.1-2.8c-5.7,3.4-9.8,6.3-16.4,8.1
	c-9.6,2.5-19.6,2.9-29.2,5.4c-8.6,2.2-17.1,4.8-25.4,7.8c-19.9,7.2-36.7,18.6-51.9,33.1c-17.5,16.7-32.3,38.9-57.6,43.7
	c-14.6,2.8-31.3,4.8-46.3,3.4c-16.5-1.5-32.2-6.7-47.9-11.7c-24.6-7.8-49.3-15.2-74.4-21.5c-23.6-5.9-47.3-12.4-71.6-14.7
	c-49.9-4.8-102.1,1.6-149.7,16.7c-18.7,5.9-38.5,10.9-56.5,18.9c-9,4-14.8,6-24.5,2.7c-10.2-3.5-22.4-2-32.4,1.6
	c-18.8,6.7-32,20-40.8,37.3c-5.4,10.7-11.6,21.9-15,33.5c-2.4,8.3-0.3,16.8-0.9,25.3c-0.8,11-4.1,20.6-7.7,30.8
	c-3.6,10.2,0.8,20-1.9,30.2c-2.6,9.9-7.8,18.9-10.2,29c-2.9,11.9-4.6,24-5.9,36.1c-2.9,26.3-10.5,51.7-12.4,78.2
	c-1.5,21.5-0.8,42.9,2.7,64.1c3.9,23.4,9.7,47.2,18.4,69.3c8.9,22.9,20.4,46.9,38.6,63.9c37,34.5,93.9,48.3,143.3,48.6
	c44.1,0.2,88-11.5,127.9-29.9c50.6-23.3,99.9-49.4,149.8-74.1c7.6-3.7,58.9-22.1,50.1-35.4c-5.3-7.9-22.8,1-28.1,3.8
	c-12,6.4-25.4,8.3-38.4,12c-49.8,14.3-99.3,33.3-150.5,42c-44.7,7.6-92.7,6.6-131.4-19.4c-27.3-18.4-48.3-50.3-49.2-83.7
	c-0.2-7.1-4.9-27.6,3.5-30.8c4.7-1.8,11.7,1.5,16.2,2.7c5.4,1.5,10.8,1.4,16.2,2.4c12.4,2.2,23.1,9.2,36,10.6
	c11.3,1.3,22.4,0.4,32.9-3.8c11.2-4.4,22.1-3.8,33.7-1.8c13.9,2.5,27.2,3.6,41.1-0.1c6.6-1.8,11.7-4.5,17.3-8.3
	c5.2-3.6,11.2-5,16.4-8.5c10.1-6.7,5.3-16.7-4.9-18.3c-5.8-0.9-11.2-2.6-15.8-6.5c-1.7-1.5-2.6-3.3-4.7-4.3c-2.3-1.1-5-0.4-7.3-1.7
	c-4.6-2.6-5.1-5.1-11.1-5.2c-6.4-0.1-12.1-0.3-18-3c9,3.4,11.3-8,17.6-11.6c5.8-3.2,11.9-4.6,17.3-8.8c3.9-3,6.7-12,11.3-12.8
	c2.8-0.5,6.9,1.7,9.8,2.2c4.3,0.7,8.9,0.8,13.2,1c11.4,0.5,22.5-0.3,33.8,0.7c16.5,1.5,32.9,3,49.5,4.1c13.6,0.9,29.4,4.2,40,13.2
	c3.4,2.9,5.9,6.4,7.1,10.7c0.7,2.3,0.4,4.7,1.9,6.8c3.3,4.7,9.8,4.5,14.9,4.9c15.6,1.2,30.5,5.5,43,15.1c11.9,9,22.6,19.6,34.2,28.9
	c6.9,5.6,14,10.8,21.6,15.4c5,3,10.5,5.2,15.1,8.8c3.4,2.6,10.3,13.3,14.7,10.7c7.3-4.4-4.9-17.3,7.1-10.9c4.5,2.4,15,7.5,20,6.6
	c6.1-1,1.4-6.5,0.4-11.8c-0.4-1.9-2-7.1,0.8-7.6c1.3-0.2,4.8,4.3,6.3,4.7c8.2,2.3,8.6-4.5,6.7-9.7c-1.9-5.2-5-9.5,1.7-9.5
	c2.3,0,4.4,2,4.8-0.6c0.3-2-6.5-6.5-7.8-7.4c-5.1-3.7-10.6-4.5-13-10.6c-2.5-6.1-1.2-8.4-7.3-11.7c-5.6-3-11.8-5.6-18-6.8
	c-6.8-1.3-15.2,1.6-21.4-2.2c-11.9-7.3,1-31.7,6.5-40.1c5-7.7,10.9-14.6,15.6-22.6c3.3-5.6,7.5-16.2,15.3-12.4
	c11.2,5.4,21,14.4,31.8,20.5c12.6,7.1,32,6.7,40.7,19.7c4.3,6.4,5.7,15.6,14.3,18.3c8.1,2.5,5.2-7.4,8.7-7.4c2,0,1.3,6.3,5,6.4
	c1,0,3.4-2.5,4.2-2.9c2.9-1.3,4.6-0.8,7.4-0.8c2.1,0,11.4-0.5,10.1-5.2c-0.8-2.9-11.2-3.7-10.2-7.7c0.2-0.9,14.2,2.9,16.2,1.9
	c5.1-2.7-4.8-11.7-6.9-15.3c1.1,0.1,8.3,2.4,9.1,0.8c1.2-2.4-4.3-6.7-5.8-8c-1.3-1.1-3-2.1-4.1-3.4c-2.8-3.1-1-1.1-1.9-4.7
	c-1.1-4.2-1.1-6.7-4.7-9.7c-4.7-3.9-9.1-4-14.9-4.3c-6.2-0.4-10.5-2.4-16.3-4.5c-6.6-2.4-15.5-4.2-19.7-10.5c-4.7-7.1,0-14-0.5-21.3
	c-0.2-3.4-3.6-5.7-3.9-8.7c-0.4-4.6,3.4-5.6,6.7-7.6c4.8-2.9,8.3-6.4,12-10.6c22.6-25.8,39.8-55.8,69.5-74.5
	c14.4-9.1,29.8-14.4,45.9-19.6c2.3-0.7,19.7-9.9,21.3-8.2c2.6,2.9-9.2,8.9,0.4,7.6c2.8-0.4,5.8-2.2,8.3-3.4c2.6-1.3,7.8-6,10.9-6.1
	c3.5-0.2,3.2-0.1,1.8,4.3c-1.7,5.2-4.5,10.1-6.2,15.4c-1.1,3.5-15.8,50.9-14.9,51.2c-0.3-0.1,35.9-85.7,40.9-83
	c1.8,1-11.9,27.5-12.7,29.1c-1.9,3.8-15.3,32.1-11.6,33.5c0.6,0.2,16.5-34.3,18.9-39.1c2.4-4.9,5-9.8,7.9-14.4
	c1.8-2.8,6.7-12.3,10.7-13.3c4.1-1.1,1.7,2,1.9,5.4c0,0.9,2.5,11.9,5.4,10.3c-0.4,0.2-1.7-8.4-1.6-9c0.7-3.4,3.8-6.5,5.9-9.1
	c5.4-6.6,12.8-11.7,17.6-18.7c5.3-7.6,2.9-15,5.6-23.1C1017.5,297.9,1022.1,294.6,1012.5,288.3z"/>
</svg>
