<?xml version="1.0" encoding="utf-8"?>
<!-- Generator: Adobe Illustrator 22.0.1, SVG Export Plug-In . SVG Version: 6.00 Build 0)  -->
<svg version="1.1" id="Layer_4" xmlns="http://www.w3.org/2000/svg" xmlns:xlink="http://www.w3.org/1999/xlink" x="0px" y="0px"
	 viewBox="0 0 1080 1080" style="enable-background:new 0 0 1080 1080;" xml:space="preserve">
<style type="text/css">
	.st0{fill:#77395E;}
</style>
<path class="st0" d="M499.4,464.7c14.8-4.2,30.4-7.1,44.8-12.7c16-6.2,32.3-14.7,46.9-23.7c9.4-5.9,18.1-13,25.3-21.5
	c7.5-8.8,14.8-16.6,24.6-22.9c17.3-11.1,36.6-19.6,57.1-22.7c8.2-1.2,16.3-0.9,24.5-1.6c10.7-0.9,21.7-2.3,32.2-4.3
	c4.7-0.9,5.9-3,6.7-7.6c1.2-6.5,4-8.5,8.4-12.9c5.9-5.8,4.7-14.6,10.5-20.7c7.1-7.4,15.8-13.4,23.3-20.5c6.7-6.3,13.1-12.6,20-18.6
	c6.7-5.9,12.9-11.9,22.1-12.8c11.1-1.1,23.5,2.4,34.1,5.2c20.9,5.6,34.7,19.8,48.4,35.4c8.9,10.1,15.4,24.1,29,28.1
	c11.5,3.4,23.6,4.1,35.5,4.9c3.8,0.2,20.5,0.6,20.8,5c0.2,3.5-9.5,6.6-11.9,7.5c-5.7,2-11.7,2.7-17.6,3.6c-4,0.6-8,1.4-12,1.6
	c-5.8,0.3-11.3-0.7-16.6,2.4c-9.1,5.3-7.4,16.3-12.9,24.2c-6.4,9.2-16.6,14.7-23.1,23.6c-6.8,9.4-3.2,17.7,3.7,25.9
	c7.4,8.8,15,16.2,15.4,28.3c0.3,8.8-1.6,17.9-2.3,26.7c-0.6,8.5-4.8,16.2-8.7,23.6c-4.7,8.9-9.4,18.7-15.7,26.6
	c-4.1,5.2-11.1,5.8-10.2,14.1c0.3,3.2,1.3,5.7,0.7,8.9c-0.7,3.4-2.7,6.7-4,10c-2.4,5.9-4.3,11.9-6,18.1c-2.5,9.3-5.4,18.5-8.6,27.6
	c-0.9,2.6-4.3,16.5-8.2,17.2c-4.2,0.9-2-12.4-6-6.6c-2.7,3.9-2.2,8.7-6,12.5c-1.9,1.8-4.2,2.9-6.2,4.4c-2.7,2-2.7,2.5-4.1,5.9
	c-1.4,3.4-3.3,7.7-6.4,9.9c-3.9,2.7-6.2-0.3-10.3-0.2c-5.3,0-6.1,6.9-8.6,10.4c-2.8,4.1-7.1,7.4-11.6,9.3c-1.8,0.7-5.9,2.5-7.6,0.8
	c-1.6-1.5,2-8.4,1.4-8.7c-0.9-0.4-6.6,10.7-8,11.6c-5.7,4.2-1.1-6.3-3.2-8.1c-1.3-1.1-1.5,1.5-2.1,2.8c-1.4,3-2.8,6.4-5.7,8.3
	c-4.6,3.2-11.9,4-17.2,5.3c-14.8,3.6-29.7,1-44.7,2.7c-9.2,1-18.4,2.4-27.6,3.8c-6.3,0.9-9.2-0.4-15.2-2.5c-7.1-2.5-12.8,1.4-19,4.6
	c-2.5,1.3-5.9,3.1-7.1,5.9c-1.4,3.4,0.8,5.3,2.6,7.8c3.5,5,5.7,11.1,8.5,16.5c7.7,14.6,16.1,28.8,24.3,43.1
	c5.5,9.6,11.8,18.6,16.9,28.4c3.7,7.1,6.6,14.6,13.9,18.8c5.2,3,12.9,6.7,18.9,7.1c2.8,0.2,5.5-0.9,8.3-1.4c4-0.7,8.3-0.7,12.2-2
	c2.4-0.8,4.7-3.1,7.2-2c2.8,1.2,2.9,5,6.3,5.7c5.7,1.2,12.7-4.2,18.1-5.8c1.9-0.6,18.7,0.2,16.8,4.2c-0.4,0.7-5.1,0.5-5.8,0.5
	c-4.7,0.3-10,0.6-14.5,2.3c-5.6,2.1-3.3,9.1-8.8,9.6c-3.6,0.4-7.5-1.1-11.2-1.1c-2.5,0-4.9,0.5-7.3,0.8c-7.9,1.1-15.9,0-23.8,1
	c-8.3,1-16.3,1.8-24.8,1.2c-5.9-0.4-11.6-1.6-17.5-1.8c-8.8-0.2-17.7,0.4-26.5,0.8c-4.7,0.2-9.5,0.1-14.1,0.9
	c-8.9,1.5-10.3-0.3-16.4-6.4c-5.2-5.2-12.1-5.6-18.1-1.4c-3.2,2.2-13.5,13.4-9.8,2.7c2.8-8.3,11.1-11.9,19.3-12.2
	c3.7-0.1,6.6,0.1,10.2-1.1c4.1-1.4,8.5-3.8,13-3.8c6,0,9.1,6.6,14.9,7.8c2.8,0.5,5.9,0,8.8,0.2c3.5,0.2,5.2,0.4,5.1-3.8
	c-0.2-8.2-5.9-18.2-9.1-25.6c-2.4-5.5-4.9-10.9-7.8-16.1c-5-9-11.1-17.3-16.2-26.2c-4.9-8.5-9.7-17.1-15.6-25
	c-5.2-7-9-13.3-9.4-22.1c-0.4-8.9-2.4-17.5-11.2-21c-8.5-3.4-10.5-8.5-15.8-15.2c-10.2-12.7-28.2-17.1-43.2-20
	c-10.3-2-16.5-16.6-21.8-24.3c-2.7-3.8-4.8-5.8-9.8-6.5c-3.7-0.5-7.3-0.1-10.9-1.1c-4.5-1.3-7.4-4.1-11.4-6.1
	c-5.3-2.7-11.9-2.8-17.7-4c-8-1.7-11.4-0.6-18.3,3.7c-3.7,2.3-7.7,2.7-11.8,3.6c-8.9,1.8-17.7,4.2-26.4,6.8
	c-5.4,1.6-10.8,3.7-16.3,5c-8,2-5.3-4.2-1.5-8.4c5.6-6.1,14.6-8.4,21.6-12.4c4.9-2.8,9-6.4,14-9c2.8-1.5,8.7-3.2,8-7.3
	c-0.5-2.9-5.1-6.1-6.4-9c-2.5-5.9-1-13.4-3.7-18.8c-3.1-6.4-16-6-21.8-8.3c-8.5-3.3-15.5-9.7-23.3-14.4c-14.5-8.9-30-16.1-45.7-22.6
	c-29.1-12-61.1-16.4-92.2-19.9c-37.7-4.2-75.8-5.7-113.7-6.5c-29.4-0.7-58.7-1.6-88,0.8c-1.5,0.1-14.9,2.2-15.4,0.1
	c-0.8-3.4,20.1-7.5,22.2-7.8c14.7-2.2,30.4-1,45.3-1.7c3.3-0.2,45.1-1.1,45.1-3.5c0-2.6-54.1-4.4-60.5-4.5
	c-6.8-0.1-48.9,3.7-49.2,1.6c-0.7-4.4,45.6-8.7,49.7-8.8c16.7-0.6,33.5,0.7,50.3,1.1c25.5,0.6,50.9,1,76.4,2.5
	c40.4,2.4,80.1,7.8,120.3,12.5c22.9,2.7,46.4,1.8,69.4,1.5C444.3,481.8,471.4,472.7,499.4,464.7z"/>
</svg>
