<?xml version="1.0" encoding="utf-8"?>
<!-- Generator: Adobe Illustrator 22.0.1, SVG Export Plug-In . SVG Version: 6.00 Build 0)  -->
<svg version="1.1" id="Animal" xmlns="http://www.w3.org/2000/svg" xmlns:xlink="http://www.w3.org/1999/xlink" x="0px" y="0px"
	 viewBox="0 0 1080 1080" style="enable-background:new 0 0 1080 1080;" xml:space="preserve">
<style type="text/css">
	.st0{fill:#77395E;}
</style>
<g>
	<path class="st0" d="M803.4,1102.9c-7.7-6.7-279.1-204.8-286-210.7c-26.2,11-31.1,10.7-52.3-2.7c3.9-2.4,7.1-4.4,11.6-7.2
		c-2.9-8.4-5.9-17.1-8.7-25.3c-8.4,1.2-14.3,2.2-20.2,2.8c-1,0.1-2.1-1.1-4.1-2.2c0.5-3.6,1.1-7.7,1.8-12.9
		c-38.3-27.5-77.2-55.3-116.9-83.8c-9.7,3.6-20.2,10.5-34.7,3.1c-1.7-7.9-3.9-17.5-5.9-26.7c-7.2-0.4-12.7-0.8-19.7-1.2
		c2-8.2,3.5-14,5.1-20.7c-6.8-5.8-405.8-269.9-413.3-276.3c2.7-8.7,5.2-16.7,8-25.5c13.8,0.9,414.7,268.1,423.2,274.3
		c19.6,7.1,31.7-11.1,52.7-9.6c-14.9-9.3-25.4-17.2-35.6-15.5c-12.1-9.8-21.5-17.4-29.8-24.2c-7.7-7.9-14.6-15.1-21.6-22.3
		c-0.5,0.5-1.1,1-1.6,1.5c-13.2-18.1-26.4-36.3-43.1-59.1c-1.9-7.9-5.3-21.6-8.8-36c-3-1.2-6.3-2.5-10.3-4.1
		c-1.9-9.3-0.8-22.1-6.7-27.6c-6.9-6.6-8.6-13.7-11.7-21.5c-2.6-0.6-5.3-1.3-8.5-2.1c-0.8-15.5-1.7-31-2.5-46.5l-5.4,0.6
		c-0.5-1.1-1.4-2.2-1.3-3.1c2.7-18.3,8.1-35.6,17.1-52.1c5.9-10.7,11.1-22.2,13.7-34c4.1-19-4.4-28.8-23.8-31.4
		c-10.4-1.4-20.7-3.5-30.9-5.5c-2.2-0.4-4.2-2.1-7.4-3.8c7.8-8.8,17.3-9.9,27.1-10.3c12.6-0.5,24.6-2.5,34.8-13.3
		c5.7-27.5,22.7-49.4,45.8-65.7c22.9-16.2,48.7-27.7,77.8-17.9c19.7,6.7,38.6,15.7,54.8,29.5c9.9,8.3,19.9,16.9,31,23.2
		c18.1,10.2,30,25,37.7,43.8c7.6,3.4,15.3,6.1,22.1,10.1c7,4.1,13.1,9.8,19.6,14.8c3.2,2.4,6.3,4.8,9.3,7.4
		c11.1,9.3,22.2,18.6,32.3,29.1c29.3,19.3,55.4,42,80.5,74.4c21,13.1,49.1,26.2,75.6,49.8c-7.1-0.6-10.1-0.8-15.7-1.3
		c21.7,16.6,41.8,32,61.5,47c5.2,17.2,10,33.1,14.7,48.7c22.3,24.5,48.1,43.8,78.1,58.1c15.8,7.5,29.1,20.3,43.7,30.5
		c7.6,5.3,15.2,10.6,23.1,15.3c36.2,21.1,73.4,40.6,108.5,63.3c16.6,10.7,34.5,21.9,45.8,43.4c-5.1,0.3-9.2,1.8-12.1,0.5
		c-33.6-14-66.1-29.8-96.6-50c-28.5-18.9-61.1-25.5-94.8-27.6c-6.8-0.4-13.6-1.3-20.3-1c-17.6,0.9-34.1-1.6-49.7-10.7
		c-10.8-6.3-23-7.9-35.7-7.6c-22.2,0.5-44.4-0.2-66.7-0.1c-9.7,0-18.9,0.2-28.6,4.2c-7.8,3.2-18,0.7-30.4,0.7
		c-38,48.3-62.6,106.3-87.4,165.9c8.3,6.9,15,13.2,22.5,18.3c16.8,11.5,34.2,22,51,33.6c5.4,3.7,273.1,200.8,277.7,205.6H803.4z
		 M455.9,717.2c-15.9-2.4-31.2-4.8-45.3-6.9c-6.9-6-12.9-11.2-19.1-16.6c-11.6,1-22.7,1.7-33.7,3c-15,1.8-17.1,4.8-16.5,25.1
		c10.5,7.3,22.6,15.6,34.5,24c4,2.8,7.9,5.8,11.6,8.9c8.4,7.1,16.4,14.8,25.2,21.5c17.7,13.4,35.8,26.1,53.6,39.3
		c13.4,10,24.1,9.9,36-2c4.3-4.3,8.2-9.4,11-14.8c17.6-33.9,34.9-67.9,52.1-101.9c1.4-2.7,0.9-6.4,1.3-9.7c-1.1-1.4-2.2-2.9-3.3-4.3
		c-11.7,17-37.8,1-46.7,26.2c-7.6-1.4-15.3-2.8-23.4-4.3c-4.8,3.6-9.7,7.1-14.7,10.8c-6.1-1.5-12-3-18.8-4.7
		C458.4,713,457.3,714.8,455.9,717.2z"/>
</g>
</svg>
