<?xml version="1.0" encoding="utf-8"?>
<!-- Generator: Adobe Illustrator 22.0.1, SVG Export Plug-In . SVG Version: 6.00 Build 0)  -->
<svg version="1.1" id="Layer_4" xmlns="http://www.w3.org/2000/svg" xmlns:xlink="http://www.w3.org/1999/xlink" x="0px" y="0px"
	 viewBox="0 0 1080 1080" style="enable-background:new 0 0 1080 1080;" xml:space="preserve">
<style type="text/css">
	.st0{fill:#77395E;}
</style>
<path class="st0" d="M948.7,130.7c-31.9,18.8-63.6,37.8-95,57.4c-29.5,18.6-58.7,37.7-87.5,57.3c-42.3,28.9-84.4,58.1-126.1,87.9
	c-29.2,20.9-60.9,18.9-91.8,8.5c-25.4-8.5-48.5-23.4-73.5-33.4c-27.7-11.2-50.6-28.5-71.3-49.3c-38.4-38.6-84.9-56.4-139.1-52.6
	c-26,1.8-50.1,9.4-68.3,30.2c-9.4,10.7-20.2,20.1-30,30.5c-7.2,7.6-15.1,11.6-26,12.5c-12.6,1-25.1,4.7-37.3,8.3
	c-4.4,1.3-7.9,5.9-14.4,11.2c26.4,15.4,53.1,11.4,77.2,17c7.7,20.5,15.7,39.4,21.9,58.8c6.4,20.1,10.7,40.8,16.5,61.1
	c3.9,13.4,8.5,26.7,13.4,39.8c12,32.7,34.9,58.4,56,85.1c8.6,10.9,19.3,18.4,33.7,20.7c7.6,1.2,15,3.9,23,6.4
	c-0.1,3.1,0.2,6.7,0.8,10.8c-2.4,4.5-4.4,8.5-6.5,12.4c0.8,4.3,2.3,8.5,2.3,12.6c0,16,5.7,26.7,19.9,31.7c1.8,5.7,3.6,11.8,5.6,18.3
	c12,39.6,17.5,61.7,21,76.7c-0.7,2.9-1.8,6-1.1,8.6c3.8,14.1,0,25.8-7.1,38.5c-10.3,18.2,3.3,49.9,23.7,53.9
	c15.2,3,23.4,11.2,31.5,22.6c4.6,6.4,10.1,12.1,16.6,16.3c3.6,6.7,7.5,14.2,11.9,22.6c21.7,41.7,32,64.3,38.9,62.5
	s7.8-27.9,3.6-49.9c-6.7-35.1-24-47.9-45.3-79.4c1.5,0.8,3.1,1.5,5,2c-6.4-12-11.1-20.6-15.7-29.2c0.9-9.3,0.3-18.3-1.5-27
	c-1.9-8.9-4.9-17.6-7.2-25.7c2.3-4.5,3.7-7.8,5.5-10.8c20.7-34.1,41.9-67.9,62.1-102.2c12-20.4,22.3-41.6,12.9-66.7
	c20.9-22,41.3-43.6,64.3-67.8c7.8,0.7,19.1,1.3,30.2,2.7c26.7,3.3,53.3,7,80,10.3c2.3,0.3,4.9-1.7,8.9-3.2
	c-5.6-16.7-16.8-28.1-30.4-35.3c-25.4-13.6-41.4-32.7-47.2-61.5c-3.2-15.6-3.2-23.4,10.8-33c14.6-10,30.1-18.9,45.6-27.5
	c42.8-23.9,85.8-47.6,128.9-71.2c34.9-19.1,69.9-37.9,104.1-56.4c7-18.1,7.1-17.9,26.7-29.7c10.3-6.2,22.4-11.3,29.7-20.2
	c12.8-15.6,22.5-33.7,34.6-52.3C980.3,123,967.8,119.5,948.7,130.7z M481.6,633.7c-4.6,8.8-10.7,16.7-16.2,25
	c-17.6,26.5-35.1,53-53.3,80.4c-3.1-5.3-10.9-4.9-12-0.3c-0.2-1-0.5-2.2-0.8-3.1c-15.6-64.3-17.3-97.6-17.3-97.6
	c-0.1-1.8-0.2-3.4-0.2-5.1c1.5,2.7,3.1,5.5,4.6,8.2c17.7-1.8,20.6-10.6,11.9-40.4c23.2,0,45.8-1.4,68.1,0.5
	C482.4,602.8,489.3,619.3,481.6,633.7z"/>
</svg>
