<?xml version="1.0" encoding="utf-8"?>
<!-- Generator: Adobe Illustrator 22.0.1, SVG Export Plug-In . SVG Version: 6.00 Build 0)  -->
<svg version="1.1" id="Layer_4" xmlns="http://www.w3.org/2000/svg" xmlns:xlink="http://www.w3.org/1999/xlink" x="0px" y="0px"
	 viewBox="0 0 1080 1080" style="enable-background:new 0 0 1080 1080;" xml:space="preserve">
<style type="text/css">
	.st0{fill:#A14A7B;}
</style>
<g>
	<path class="st0" d="M393.3,367c-2.3,3.7,1,11.1,1.6,15.9c0.8,6.5,2.7,12.3,4.4,18.7c1.3,4.7,2.4,9.5,4.7,13.5
		c0.2,0.1,0.4,0.2,0.7,0.2c1.1,0.2,1.5,1,1.1,2.4c0.7,1.2,0.9,2.5,1.7,3.7c1.6,2.5,3.9,4.4,5.5,7c2.4,3.9,5.7,8.9,9.5,11.7
		c0.8,0.6,2.1,1,2.9,1.6c0.6,0.1,1.2,0.2,1.7,0.4c0,1,0.3,1.8,0.9,2.5c0.7,0.8,1.3,2,2.1,2.7c1.2,1,3.7,0.6,4.8,1.5
		c1.7,1.6,1.7,4.5,4.1,6.3c2.1,1.5,4.1,2.3,6.1,4.1c4.7,4.2,10.6,8.2,16.6,10.7c11.5,4.7,24,7.5,36.3,7.3c12.3-0.2,27-0.3,38-6.3
		c10.1-5.5,24.5-9.3,30.8-19.3c2.9-4.7,6.8-9.2,11-12.9c2.3-2,3.4-3.3,4.9-5.9c1.1-2,0.5-1.4,1.7-2.9c0.8-1.1,2.4-2.2,3.3-3.3
		c6.7-8,11.1-18.3,14.6-28.5c1.1-3.1,0.2-5.8,0.8-9c0.5-2.9,2-5.6,2.7-8.5c1.2-5.2,0.3-10.3,0.3-15.2c0-4.6,0.1-9.4-0.7-14.2
		c-0.5-2.5,0.1-5-0.6-7.6c-0.8-3-2.5-5.7-3.6-8.6c-2-5.6-3.9-11.7-6.1-17c-2.6-6.2-8.8-11.2-11.8-17.6c-1-2.2-1.6-4.5-3.5-6.1
		c-2.7-2.3-4.1-2.3-6.3-5.6c-2.9-4.4-7.7-8.8-11.6-12c-3.8-3.1-8.1-5.5-12.1-8.5c-2.4-1.8-5-3.7-7.8-4.9c-3.2-1.4-5.5-0.5-8.7-1.4
		c-10.3-3-21.3-8.5-31.6-6.8c-9.5,1.5-18.4,1.8-27.7,5c-2.2,0.8-4.3,0.7-6.4,1.3c-2.9,0.8-5,2.5-7.7,3.8c-6.5,3.1-12.9,5.5-18.7,10
		c-2.8,2.1-4.8,5-7,7.2c-2.4,2.4-6,4.2-8.4,6.4c-1.1,1-3.6,2.1-4.6,3.1c-0.6,0.7-0.6,2.3-1.3,3.2c-0.9,1.2-2.5,1.2-3.6,2.1
		c-3.1,2.5-1.5,4.5-2.8,7.6c-1,2.4-4,3.6-5.4,5.9c-3,4.9-5.5,11.3-7.5,16.6c-2.2,5.5-3.4,10.5-4.6,16.6c-0.8,3.9-1.8,7.8-2.4,11.7
		C393.1,359,393.5,362.7,393.3,367z"/>
	<path class="st0" d="M719.2,576.3c-1.3,2.1,0.6,6.3,0.9,9c0.5,3.7,1.5,7,2.5,10.6c0.7,2.7,1.4,5.4,2.6,7.7c0.1,0,0.3,0.1,0.4,0.1
		c0.6,0.1,0.8,0.6,0.6,1.4c0.4,0.7,0.5,1.4,0.9,2.1c0.9,1.4,2.2,2.5,3.1,3.9c1.4,2.2,3.2,5.1,5.4,6.6c0.5,0.3,1.2,0.6,1.6,0.9
		c0.3,0.1,0.7,0.1,1,0.2c0,0.5,0.2,1,0.5,1.4c0.4,0.5,0.7,1.2,1.2,1.5c0.7,0.5,2.1,0.3,2.7,0.9c1,0.9,1,2.5,2.3,3.6
		c1.2,0.9,2.3,1.3,3.4,2.3c2.6,2.4,6,4.7,9.4,6c6.5,2.7,13.6,4.3,20.6,4.1c7-0.1,15.3-0.2,21.5-3.6c5.7-3.1,13.9-5.3,17.4-10.9
		c1.6-2.6,3.8-5.2,6.3-7.3c1.3-1.1,1.9-1.9,2.8-3.3c0.6-1.1,0.3-0.8,1-1.7c0.5-0.6,1.4-1.2,1.9-1.9c3.8-4.5,6.3-10.4,8.3-16.1
		c0.6-1.8,0.1-3.3,0.4-5.1c0.3-1.6,1.2-3.2,1.6-4.8c0.7-2.9,0.2-5.8,0.2-8.6c0-2.6,0.1-5.3-0.4-8c-0.3-1.4,0-2.8-0.4-4.3
		c-0.5-1.7-1.4-3.2-2-4.9c-1.1-3.2-2.2-6.6-3.5-9.6c-1.5-3.5-5-6.3-6.7-9.9c-0.6-1.2-0.9-2.6-2-3.5c-1.5-1.3-2.3-1.3-3.6-3.2
		c-1.7-2.5-4.4-5-6.5-6.8c-2.1-1.7-4.6-3.1-6.8-4.8c-1.4-1-2.8-2.1-4.4-2.8c-1.8-0.8-3.1-0.3-4.9-0.8c-5.8-1.7-12.1-4.8-17.9-3.9
		c-5.4,0.9-10.4,1-15.7,2.8c-1.2,0.4-2.4,0.4-3.6,0.7c-1.7,0.4-2.9,1.4-4.4,2.1c-3.7,1.8-7.3,3.1-10.6,5.6c-1.6,1.2-2.7,2.9-4,4
		c-1.4,1.4-3.4,2.4-4.8,3.6c-0.6,0.6-2.1,1.2-2.6,1.8c-0.4,0.4-0.3,1.3-0.7,1.8c-0.5,0.7-1.4,0.7-2,1.2c-1.8,1.4-0.8,2.5-1.6,4.3
		c-0.6,1.4-2.3,2-3.1,3.3c-1.7,2.8-3.1,6.4-4.3,9.4c-1.2,3.1-1.9,5.9-2.6,9.4c-0.4,2.2-1,4.4-1.3,6.6
		C719,571.8,719.3,573.8,719.2,576.3z"/>
	<path class="st0" d="M186.2,764.2c-0.3,2.7,0.2,4.7,0.5,7.3c0.3,2.7-0.4,5.2-0.4,7.8c0,2,0.8,4.5,1.3,6.5c0.2,0.9,1,0.6,1.2,1.9
		c0.4,1.9-0.3,2.7,0.5,4.5c3.8,9.5,8.3,19.1,12.2,28.8c1.9,4.7,6.2,9.3,9.4,13.3c3.7,4.7,8.7,7.9,13.2,11.9c4.5,4,7.8,6.7,13.1,9.4
		c4.5,2.3,8.8,5.5,13.2,8c5.1,2.8,11.1,4.1,16.7,5.5c5.5,1.3,11.4,3.5,17.1,3.6c5.4,0.1,11.3,0.9,16.7,0.2c3.1-0.4,5.9-1.1,9-1.3
		c2.4-0.2,4.5-0.1,7-0.6c11.8-2.2,23.3-6.6,33.7-12.5c4.8-2.7,9.3-4.4,13.4-8.2c5.1-4.7,10-9.7,14.7-14.8
		c7.6-8.2,14.3-18.7,18.8-28.9c2-4.6,4.7-10.1,5.5-15.1c0.4-2.5,0.1-4.7,0.8-7.1c1-3.3,2.9-6,3.4-9.5c0.4-2.8-0.8-5.7-0.3-8.4
		c0.3-1.7,1.7-2.9,2-4.8c0.2-1.3-0.2-3.8-0.2-5.3c0-2.5,0.1-5.3-0.1-7.7c-0.3-2.7-1.6-5.6-1.9-8.3c-0.3-2.2-0.5-4.5-0.8-6.8
		c-0.5-2.9-0.6-5.4-1.9-8.1c-1.4-2.9-3.5-5.1-4.5-8.1c-0.8-2.4-1.2-4-2.3-6.3c-0.3-0.6-1.7-1.2-1.8-1.8c-0.2-0.9,1-2.7,0.7-3.6
		c-0.4-1.1-3.3-2-4.1-3.1c-1.9-2.6-1.4-6.4-3.1-9.1c-2.7-4.3-6.9-9.2-10.5-12.9c-1.5-1.6-3.3-4.1-5-5.3c-0.6-0.4-1.6-0.6-2.1-1
		c-1.2,0.3-1.7,0-1.5-0.7c0.1-0.2,0.1-0.5,0-0.7c-3.5-2.6-6.3-6.1-10.3-8.2c-4.7-2.6-9.1-5-13.9-7.3c-12.2-5.6-23.2-9.7-36.9-10.1
		c-30.4-0.9-60.7,7.5-83.6,28.5c-9.7,8.9-17.8,18.8-24.2,30.4c-3.4,6.2-6.9,12.1-8.9,18.9c-1.1,3.7-4.9,14.4-3.1,17.3
		c-2.9,0.4-4.6,8.1-4.5,10.5C184.4,756.8,186.7,760.2,186.2,764.2z M392.1,714.2c0,0.8-1.7,1.1-1.6-0.3
		C391,714,391.6,714.1,392.1,714.2z M360.6,845.6c0.4,0.6-1,1.1-1.5,1.6C358.7,846.5,360.1,846,360.6,845.6z M371.1,684.7
		c0.4,0.6-1.4,1.8-1.8,1.2C369.9,685.5,370.5,685.2,371.1,684.7z M355.6,666.7c0.3,0.1,0.7,0.1,1,0.2
		C356.4,667.4,355.5,667.2,355.6,666.7z M353.8,667c0.6,0,0.6,0.3,0.1,1C353.4,668.1,353.3,667.7,353.8,667z M331.9,653.7
		c0.6,0,0.6,0.3,0.1,1C331.5,654.7,331.5,654.4,331.9,653.7z M330.8,659.6c0.5,0.1,0.4,1.1-0.2,1
		C330.7,660.2,330.7,659.9,330.8,659.6z M245.2,670.6c0.5,0.1,0.4,1.1-0.2,1C245.1,671.3,245.1,671,245.2,670.6z M211.8,699.4
		c-1.9,0.3-1.4,0.3-2.3-1.2C210.3,698.7,211.1,699,211.8,699.4z"/>
</g>
</svg>
