<?xml version="1.0" encoding="utf-8"?>
<!-- Generator: Adobe Illustrator 22.0.1, SVG Export Plug-In . SVG Version: 6.00 Build 0)  -->
<svg version="1.1" id="Layer_1" xmlns="http://www.w3.org/2000/svg" xmlns:xlink="http://www.w3.org/1999/xlink" x="0px" y="0px"
	 viewBox="0 0 1080 1080" style="enable-background:new 0 0 1080 1080;" xml:space="preserve">
<style type="text/css">
	.st0{fill:#A14A7B;}
</style>
<g id="Animal">
</g>
<g id="Layer_4">
	<g>
		<path class="st0" d="M154.2,318.5c0.6,0.8,1.2,1.6,1.6,2.5c-2.6-1-4.9-2.2-4.2,1.4c0.4,2.1,0.7,2.8,3.3,2.2
			c-1.4,2.2-2.8,4.6-4.1,6.8c2.1,0.2,4.1,0.4,6.1,0.5c-0.6,2.6-2.8,7-2,9.5c0.8,2.6,4.2,4.5,5.3,7.2c1.5,3.6-0.3,4.8-0.5,8.1
			c-0.3,3,0.5,7.4,1.1,10.3c0.6,3.3,1.5,6.7,2.9,9.7c1.3,2.8,1.6,6.3,3.1,8.8c1.3,2.2,5.3,3,5.9,5.6s-2.6,4.8-4.1,6.5
			c2.2-0.8,4.4-1.6,6.7-2.4c1.4,4.5,2.6,9.1,4,13.6c1.4-0.7,2.8-1.4,4.1-2.1c1.1,3.7,5,5.4,0.6,8.8c6.7-3.6,6.5,4,11.5,4.7
			c1.4,0.2,8.4-5.1,8.5-2.1c0,1-3.2,2.2-3.4,3.7c-0.3,1.9,1.3,5,1.7,6.9c4.8-4.7,11.8-4,13.9,2.4c-3.2,0.3-5-0.4-7.9-1.4
			c0.9,1.9,2.2,4.6,4.4,5.1c2.5,0.6,4-1.7,6.2-2c2.9-0.4,6.1,2.9,8.6,4.5c3.3,2.3,6.7,4.6,10.3,6.6c0-3.3-0.7-3.5-1.9-6.1
			c-0.6-1.4-1.8-2.4-1.7-4.1c0.4-6.8,5.7,4.5,6.8,6.7c0.9,1.8,0.8,3.5,1.4,5.1c0.4,1-0.9,1.9,0.4,2.9c2.5,1.9,4-4.3,3.6-5.8
			c3.5,0.8,6.3,1.1,9.4,3.1c3.2,2.1,6.2,4.6,9.3,7c2.9,2.2,3.9,2.4,7.5,2.2c2.7-0.1,5.9-2.7,7.8-1.1c2.1,1.6,2.2,6.6,2.5,8.9
			c0.6,4,1.3,8,2,12c1.4,8.4,2.7,16.7,4.1,25.1c0.6,4,1.3,7.9,2,11.9c0.5,3.1,0.5,8.4,2.2,11.2c1.7,3,3.7,4.1,5.8,0.8
			c1.8-2.8,1.2-5.6,1.2-8.9c-0.2-8.2-0.3-16.4-0.5-24.6c-0.3-7.6-2.7-13.9-3.6-21.2c1.4,1.2,2.8,2.4,4.1,3.6
			c-0.4-4.9-2.9-14.3-0.5-18.8c2.4-4.4,8-1.6,11.7-3.8c0.7-0.4,0.9-2,1.4-2.2c1-0.5,3.3,0,4.4,0c3.5,0,5.2,0.5,7.6-1.7
			c3.8-3.7,6.1-6.2,11.8-3.3c-0.9-4.9-0.5-9.1,5.8-7.7c-0.2-1,0-4-0.7-5c-0.8-1.1-3.7-1.1-4.8-2.2c-1.9-1.8-1.5-3.2-0.9-5.9
			c1.4,3.7,7.6,2.5,5.8,8c3.3-0.1,6.5,0,9.6-1.4c2.1-0.9,6.6-2.9,7.7-4.6c1.1-1.6-0.4-2.2,1.9-4c1.5-1.2,3.2-1.4,4.7-2.9
			c1.2-1.3,1.8-3.1,3-4.3c1.9-2,3.3-1,5.1-2.1c1.8-1,2.5-5.2,3.3-7.6c1.3-3.9,0.8-6.1,4.9-6.8c-1.5-1.4,5.5-10.4,6.8-12.2
			c-6.7-3.2,2.2-3.4,5.4-4c-1.9-3.1-4.7-7.9-4-11.9c0.5-3.2,3.9-2.5,6.8-2.7c-4-4.2-1.4-7.5,2.3-10.4c-0.9-0.7-4-2.4-4.1-3.9
			c-0.1-1.5,1.1-1.5,1.6-2.6c0.6-0.5,1.4-1,2.1-1.5c-0.5-1.2-1-2.2-1.4-3.4c-0.8-2-1.7-4-2-6.1c-0.3-2.5,1-4.3,1.1-6.6
			c0-1.7-1.5-3.3-1.1-5.1c0.3-1.3,1.6-1.6,2.2-2.9c0.7-1.6,0.4-3.1,0.2-4.9c-0.2-1.3-0.7-2.5-0.7-3.8c0-2.1,1.4-2.8,1.8-4.4
			c0.2-0.6-0.9-1.6-0.6-2.6c0.4-1.9,2-3.4,2.2-5.3c0.4-3.4-1.3-2.9-3.2-5.4c-1.6-2.2-1-1.4-0.6-4c0.2-1.4,0.4-2.9-0.5-4.2
			c-1.9-3-5.9-1.8-8.1-4c-2.9-3.1,0.9-5-0.2-8c-0.6-1.7-3.6-2.2-5-3.3c-1.3-1.1-2.4-2.5-3.3-4c-0.7-1.4-0.9-6.2-1.6-6.9
			c-0.4-0.4-4-0.6-4.6-0.9c-4-1.6-3.8-3.8-5.3-7c0.5-1.5,0-2.3-1.7-2.3c-1.1-0.4-2.2-0.8-3.3-1.3c-1.5-0.9-2.2-1.7-3.2-3
			c-2.2-2.9-3.6-6.2-6.9-8c-4.2-2.3-4.7-3.2-5.1-8.5c-4.9,1.3-6.8,1.3-8.5-3.8c-1-3-0.2-2.4-3-3.4c-1.7-0.6-4.1-0.2-5.8-0.6
			c-2.5-0.7-6.1-1.9-8.1-3.6c-3-2.6-1.9-4-6-4.9c-3.2-0.8-6.4-0.6-9.6-1.4c-3.8-0.9-6.5-1.1-10.3-1.2c-4.1-0.2-7.3-2.1-10.8-4
			c1.7-1.6,3.8-2.8,3.5-4.9c-0.2-1.4-3-4.1-3.8-5c-2.2,4-4,7.6-7,11.1c-6-7.1-5.5-18.7-7.6-27.7c-1-4.4-3.1-25.5-9.2-25.3
			c-6.7,0.3-2,21.6-2,26c0,4.9-1.4,9.4-1.4,14.2c0,5.3,0.3,10.8,0.3,16.1c-2.2-0.7-7.1-3.4-9.5-2.9c-1.8,0.4-1.3,1.2-2.5,2.1
			c-0.2,0.4-0.4,1-0.7,1.4c-0.4,1.3-1.1,1.3-2.4,0.3c-1.8,0.3-3.5-0.2-5.3,0.3c-4,1.1-8.8,4.2-11.6,6.8c-1,0.9-0.7,1.9-2.4,2.7
			c-1.4,0.7-3.2,0.1-4.7,0.7c-2.9,1.2-2.6,3.7-5.3,5.7c-2.5,1.9-5.4,3.6-7.9,5.4c-1.9,1.3-4.3,1.9-6.1,3.2c-2.4,1.9-1.8,1.8-1.4,4.9
			c-3-2.2-6.6-5.1-7.5-0.2c-0.4,2.3,0.4,3.7-1.1,5.8c-1.1,1.5-3,2.3-4.5,3.3c-6.9,4.8-7.4,16.8-17.5,16.8c1.9,5.7-1.6,5.7-3.5,9.9
			c-0.8,1.8,0.2,3.4-1.3,5.1c-1.2,1.4-3.3,2.1-4.9,2.9c2.9,3.7,3.2,7,0.8,11c-2,3.2-2.4,2.6-1.4,6.1c0.3,0.9,1.1,2.1,0.5,3.1
			c-1.4,2.6-6.8,0.4-8.6,2.5C145.9,313.5,152,316.4,154.2,318.5z M294.5,461.9c-2.3-0.3-2.9-2.1-3-4.1c-0.1-3,1.6-3.9,3.6-5.8
			c1.4,2.3,2.4,3.1,1.9,5.7C297,458.2,295.5,462,294.5,461.9z M261.3,195.5c0.3,3.9,0.6,7.8,0.9,11.7c-3,0.2-1.9-3.3-2.1-5.8
			C260,199,258.4,195.8,261.3,195.5z"/>
	</g>
	<g>
		<path class="st0" d="M416.9,589.9c-2.1,3.3,0.9,10,1.4,14.3c0.7,5.8,2.4,11.1,4,16.8c1.2,4.2,2.2,8.6,4.2,12.2
			c0.2,0.1,0.4,0.2,0.6,0.2c1,0.2,1.4,0.9,1,2.2c0.6,1.1,0.8,2.2,1.5,3.3c1.4,2.2,3.5,4,5,6.3c2.2,3.5,5.1,8,8.5,10.5
			c0.7,0.5,1.9,0.9,2.6,1.4c0.5,0.1,1.1,0.2,1.5,0.4c0,0.9,0.3,1.6,0.8,2.2c0.6,0.7,1.2,1.8,1.9,2.4c1.1,0.9,3.3,0.5,4.3,1.4
			c1.5,1.4,1.5,4,3.7,5.7c1.9,1.3,3.7,2.1,5.5,3.7c4.2,3.8,9.5,7.4,14.9,9.6c10.3,4.2,21.6,6.8,32.7,6.6c11.1-0.2,24.3-0.3,34.2-5.7
			c9.1-5,22-8.4,27.7-17.4c2.6-4.2,6.1-8.3,9.9-11.6c2.1-1.8,3.1-3,4.4-5.3c1-1.8,0.5-1.3,1.5-2.6c0.7-1,2.2-2,3-3
			c6-7.2,10-16.5,13.1-25.6c1-2.8,0.2-5.2,0.7-8.1c0.4-2.6,1.8-5,2.4-7.6c1.1-4.7,0.3-9.3,0.3-13.7c0-4.1,0.1-8.5-0.6-12.8
			c-0.4-2.2,0.1-4.5-0.5-6.8c-0.7-2.7-2.2-5.1-3.2-7.7c-1.8-5-3.5-10.5-5.5-15.3c-2.3-5.6-7.9-10.1-10.6-15.8c-0.9-2-1.4-4-3.2-5.5
			c-2.4-2.1-3.7-2.1-5.7-5c-2.6-4-6.9-7.9-10.4-10.8c-3.4-2.8-7.3-5-10.9-7.6c-2.2-1.6-4.5-3.3-7-4.4c-2.9-1.3-5-0.4-7.8-1.3
			c-9.3-2.7-19.2-7.7-28.4-6.1c-8.5,1.4-16.6,1.6-24.9,4.5c-2,0.7-3.9,0.6-5.8,1.2c-2.6,0.7-4.5,2.2-6.9,3.4c-5.9,2.8-11.6,5-16.8,9
			c-2.5,1.9-4.3,4.5-6.3,6.5c-2.2,2.2-5.4,3.8-7.6,5.8c-1,0.9-3.2,1.9-4.1,2.8c-0.5,0.6-0.5,2.1-1.2,2.9c-0.8,1.1-2.2,1.1-3.2,1.9
			c-2.8,2.2-1.4,4.1-2.5,6.8c-0.9,2.2-3.6,3.2-4.9,5.3c-2.7,4.4-5,10.2-6.8,14.9c-2,4.9-3.1,9.4-4.1,14.9c-0.7,3.5-1.6,7-2.2,10.5
			C416.7,582.7,417.1,586,416.9,589.9z"/>
		<path class="st0" d="M211.2,786.2c-0.3,2.7,0.2,4.7,0.5,7.3c0.3,2.7-0.4,5.2-0.4,7.8c0,2,0.8,4.5,1.3,6.5c0.2,0.9,1,0.6,1.2,1.9
			c0.4,1.9-0.3,2.7,0.5,4.5c3.8,9.5,8.3,19.1,12.2,28.8c1.9,4.7,6.2,9.3,9.4,13.3c3.7,4.7,8.7,7.9,13.2,11.9s7.8,6.7,13.1,9.4
			c4.5,2.3,8.8,5.5,13.2,8c5.1,2.8,11.1,4.1,16.7,5.5c5.5,1.3,11.4,3.5,17.1,3.6c5.4,0.1,11.3,0.9,16.7,0.2c3.1-0.4,5.9-1.1,9-1.3
			c2.4-0.2,4.5-0.1,7-0.6c11.8-2.2,23.3-6.6,33.7-12.5c4.8-2.7,9.3-4.4,13.4-8.2c5.1-4.7,10-9.7,14.7-14.8
			c7.6-8.2,14.3-18.7,18.8-28.9c2-4.6,4.7-10.1,5.5-15.1c0.4-2.5,0.1-4.7,0.8-7.1c1-3.3,2.9-6,3.4-9.5c0.4-2.8-0.8-5.7-0.3-8.4
			c0.3-1.7,1.7-2.9,2-4.8c0.2-1.3-0.2-3.8-0.2-5.3c0-2.5,0.1-5.3-0.1-7.7c-0.3-2.7-1.6-5.6-1.9-8.3c-0.3-2.2-0.5-4.5-0.8-6.8
			c-0.5-2.9-0.6-5.4-1.9-8.1c-1.4-2.9-3.5-5.1-4.5-8.1c-0.8-2.4-1.2-4-2.3-6.3c-0.3-0.6-1.7-1.2-1.8-1.8c-0.2-0.9,1-2.7,0.7-3.6
			c-0.4-1.1-3.3-2-4.1-3.1c-1.9-2.6-1.4-6.4-3.1-9.1c-2.7-4.3-6.9-9.2-10.5-12.9c-1.5-1.6-3.3-4.1-5-5.3c-0.6-0.4-1.6-0.6-2.1-1
			c-1.2,0.3-1.7,0-1.5-0.7c0.1-0.2,0.1-0.5,0-0.7c-3.5-2.6-6.3-6.1-10.3-8.2c-4.7-2.6-9.1-5-13.9-7.3c-12.2-5.6-23.2-9.7-36.9-10.1
			c-30.4-0.9-60.7,7.5-83.6,28.5c-9.7,8.9-17.8,18.8-24.2,30.4c-3.4,6.2-6.9,12.1-8.9,18.9c-1.1,3.7-4.9,14.4-3.1,17.3
			c-2.9,0.4-4.6,8.1-4.5,10.5C209.4,778.8,211.7,782.2,211.2,786.2z M417.1,736.2c0,0.8-1.7,1.1-1.6-0.3
			C416,736,416.6,736.1,417.1,736.2z M385.6,867.6c0.4,0.6-1,1.1-1.5,1.6C383.7,868.5,385.1,868,385.6,867.6z M396.1,706.7
			c0.4,0.6-1.4,1.8-1.8,1.2C394.9,707.5,395.5,707.2,396.1,706.7z M380.6,688.7c0.3,0.1,0.7,0.1,1,0.2
			C381.4,689.4,380.5,689.2,380.6,688.7z M378.8,689c0.6,0,0.6,0.3,0.1,1C378.4,690.1,378.3,689.7,378.8,689z M356.9,675.7
			c0.6,0,0.6,0.3,0.1,1C356.5,676.7,356.5,676.4,356.9,675.7z M355.8,681.6c0.5,0.1,0.4,1.1-0.2,1
			C355.7,682.2,355.7,681.9,355.8,681.6z M270.2,692.6c0.5,0.1,0.4,1.1-0.2,1C270.1,693.3,270.1,693,270.2,692.6z M236.8,721.4
			c-1.9,0.3-1.4,0.3-2.3-1.2C235.3,720.7,236.1,721,236.8,721.4z"/>
	</g>
	<g>
		<path class="st0" d="M793.3,294.7c-3.7-2.6-4.9-9.3-7.4-13c-1.3-2-2.9-3.9-4.8-5.4c-1.9-1.5-4.8-2.2-6.5-3.8
			c-1.5-1.4-1.9-2.8-1.9-4.8c-0.1-3.2,0.3-3.5-2.5-6c-4.9-4.3-10.3-8-15.1-12.6c-9.6-9.3-19.1-18.6-28.6-28.1
			c-4.8-4.7-9.5-9.6-14.5-14.1c-1.3-1.1-5.9-5.7-4.6-2.2c0.9,2.4,4.5,5.4,6.2,7.4c-10.6-8.6-20.8-22-33.8-27.1
			c-13-5.1-27.1-9.5-41.2-9.6c-6.2-0.1-12.4,1.3-18.6,0.4c-2.1-0.3-4-1-6.1-0.1c-3.2,1.4-2.7,3.2-6.6,3.4
			c-5.2,0.3-10.3,1.8-15.5,3.2c-5.4,1.4-9.5,5.2-14.9,6.1c-5.6,1-10.6,4-16,4.9c-6.8,1.1-14.8,0.2-21.6-0.4
			c-6.1-0.5-12.3-1.6-18.5-0.4c-6.7,1.4-10.4,6.8-16.5,9c-5.6,2-11.7,0.1-17.3-1c-3.7-0.7-7.5-1.5-11.2-2.2
			c-3.3-0.6-7.8-2.4-11.2-2.2c-3,0.2-3.8,1.5-1.7,3.8c1.6,1.8,5.7,2.8,7.9,3.6c3.4,1.2,6.8,2.2,10.3,3.2c4,1.2,9.6,1.9,13.1,3.9
			c4.5,2.5,2.2,7.9,1.4,12.5c-0.4,2.2-2.8,5.6-2.6,7.4c0.3,2.1,4.4,6.7,5.7,8.3c3.8,5.1,8.4,9.7,13.6,13.3c4.5,3.1,12,4.6,15.7,8.7
			c2.4,2.8,0.5,4.2,1.3,7.2c0.4,1.6,2.2,5.6,3.3,6.8c1.5,1.4,3.5,1.7,5.2,3.1c2,1.8,3.1,4.9,4.5,7.2c7.6,13.2,14.8,26.7,23,39.6
			c6.6,10.4,14.4,19.4,25.1,25.6c11.3,6.6,24.5,9.2,37.3,11.6c29.3,5.5,59.2,5.5,88.4,12.3c8.4,2,16.7,4.2,24.9,6.8
			c3.2,1,15.9,7.6,18.9,4.3c3.2-3.5-3.1-4.4-2.9-7.3c0.2-2.8,6-1.7,8.2-1.4c7,1.1,12.8,1.8,19.6-0.9c7.7-3,13.2-6.8,15.5-14.9
			c2.2-8.2,2.4-15.9,2.1-24.4c-0.4-8.5-1-16.9-1.8-25.4C800,304.9,798.9,298.6,793.3,294.7z"/>
	</g>
	<g>
		<path class="st0" d="M904.7,638c-4.1-5.1-14.8-11.2-14-18.6c0.3-2.5,3.4-8.5,5.7-9.7c2.1-1.2,1.6,0.2,3.5,1.1
			c2.6,1.3,2.1,1.8,4.9,0.5c-1.6-1.7-4.8-2.5-5.5-4.8c-0.9-2.8,2.5-8.3,3.5-11c1.2-3.5,1.9-8.7,4.1-11.7c3.4-4.5,0.4,5,4,3.7
			c1.4-0.5,0.6-11.1,1.4-12.8c1.1-2.3,4.2-4,6.9-2.9c2.6,1,3,4,3.7,6.4c1.3,4.6,1.5,6.8,5.4,9.4c0.5-4-1.2-7.5-0.9-11.3
			c0.2-3.1-0.3-2.8,2.3-0.6c1.6,1.3,3.2,3.9,4.5,5.5c0.4,0.4,2.9,4.5,3.7,3.2c0.3-0.4-2.6-4.3-2.8-4.7c-2-3.1-4-6.2-4.7-9.9
			c-2.4-13.6,10.3,2.4,11.9,0.9c1.3-1.3-4.4-7.3-5.6-8.8c-4.6-5.9,3.1-2,6.2-0.9c-1.5-1.8-7.7-5.4-6.8-8c0.9-2.7,8.5-3.5,10.8-4.1
			c-3.2-3.1-8.4-2.4-9.2-7.8c2.2,0.7,5.7,2.5,8,2.5c3.3,0,2.5-0.2,0.5-1.7c-3.1-2.5-9-1.8-9.4-6.9c-0.4-4.2,2.2-4.4-0.8-8
			c-0.9-1.1-2.3-1.9-2.3-3.6c0-2.3,2.3-2.4,4.9-3.4c-3-1.7-5-1.7-7.6-4.3c0.8-0.6,6.8-3.9,6.8-3.8c0-0.8-6.2-0.8-7.5-1.4
			c-1.5-0.7-4.5-4.4-2.9-6.4c1.9-2.2,6.8,1.9,1.7-3.5c-1.8-1.9-3.5-3.5-3.3-6.4c0.1-2.1,1.6-5.1,4-4.6c3.8,0.9,7.7,13.4,9.9,16.6
			c1.5-6.1-7.3-13-7.9-19c-1.1-9.7,8.9-1.9,11.8,0.3c0.1-4.3-5.4-6.3-4.5-10.9c2.7,1.3,5.3,2.5,8,3.7c2,0.9,5.4,3,3,0
			c-3.1-3.8-7.4-6.2-7.1-11.9c0.1-2.2,1.6-4,1.3-6.3c-0.5-2.2-2.3-3.2-1.9-5.6c0.4-2.2,3.7-3.8,2.2-5.6c-1-1.4-4.2-1.5-5.7-3
			c-2.7-2.7-3.2-6.1-1.4-9.3c1.2-2.1,2.5-2.4,1.8-5.1c-0.5-2.1-3.1-4.4-4.4-6c-3.8-4.9-4.2-3.3-9.3-1.1c-6.6,2.9-5.7-3.8-6.2-8.5
			c-4.8,2.2-4,1.3-7.5-2.7c-2.1,3.5-2.3,9.5-7.7,9.1c-2.7-0.2-4-1.9-5.2-4c-0.7-1.2-3.1-7.1-4.8-7.3c-2.6-0.2,0.7,6.8,1,8.2
			c0.4,1.6,0.7,3.4-0.5,4.9c-2.7,3.3-9.2-0.3-9.9,5.4c-3.9-2.4-7.7-4.9-11.5-7.3c0.1,2.6,2.5,4.1,4.1,5.8c2.2,2.2,3.2,3.5,4.1,6.6
			c-3.2,0.1-5-0.4-7.9-1.7c1.7,3.9,6.6,4.1,3.9,9.3c-1.5,2.9-5,4.4-8.1,4.7c-2.8,0.4-6.7-0.7-9.2-1.3c-3.9-0.9-2.9-2.8-5.3-5.3
			c-0.5,1.7-1.1,3.4-1.5,5.1c-0.7-0.5-3.6-2.5-4.3-2.5c-1.1,0-2.8,1.9-3.9,2.2c-3.8,1.1-6.2-1.4-9.4-3.1c-0.3,1.5-0.6,3-1,4.5
			c-3.8-1.8-4.4-3.5-6.4-7.3c-0.8,3.5-0.8,7.6-4.6,8.1c-2.1,0.3-3.4-0.3-5.5,0.4c-3,0.8-4.6,1.6-7.4-0.7c0.1,1.2,0.1,2.2,0.2,3.4
			c-1.5,0-5.1-0.8-6.3,0.3c-2,1.7,0,3.2,0,5.3c-0.1,3-1.2,2.6-3.7,3.6c-3.9,1.4-6.6,3.6-10,6.1c0.5,0,5.3-0.3,5.7,0.1
			c0.5,0.5,0.2,4.1,0.2,4.9c-4.5-0.8-9-1.6-13.4-2.4c2,1.6,4,3.2,5.9,4.8c-1.8,1.2-3.5,2.2-5.3,3.4c3.6,4.4-1.1,6.6-4.2,9.3
			c-4.7,4-5.7,3.3-11.3,2.7c1,6.4-1.1,6.5-6.7,8.7c-3.1,1.4-4.7,3.9-7.6,5.4c-3.6,1.9-5.3-0.6-5,4.5c-2.2-0.4-4.4-0.6-6.7-1
			c0.5,1.5,0.9,3,1.2,4.4c-0.4-1.2-2.9,0.8-5,0.6c-2.2-0.2-4-1.9-6.3-1.3c1,1.1,5.7,5,4.6,6.3c-1.5,1.7-5.1-2-5.9,1.7
			c-0.7,3.1,2.8,2.6-0.6,4.7c-2.9,1.7-7.7-0.6-10.8-0.2c-3.1,0.4-2.3,2.1-4.1,3c-1.6,0.8-5-0.6-6.1,1.3c-0.9,1.6,0.7,3.9-0.2,5.9
			c-0.9,2-3,2.2-2.7,4.3c0.3,2,3.8,3.7,4,6.3c0.4,3.2-1.5,3.5-4.3,5.3c-1.1,0.7-7.6,4.2-6.4,5.3c1.4,1.3,7.7-2.1,9.1-2.5
			c2.8-1,4.6-2.1,6.1,0.5c1.3,2.3-0.7,5.7-2.3,7.2c-1.8,1.6-4.4,2-6.2,3.5c-2,1.7-2.4,4.5-4.3,6.3c2.2,0.3,3.3-2.2,5.3-2.2
			c2.6,0.2,5.1,4.6,6.7,6.3c0.1-2.6-2.2-3.9-2.6-6.3c-0.5-3.1,1.9-4.4,4.4-5.9c2.3-1.4,4.1-3.2,4-0.3c-0.2,3.2-3.3,4.2-2.2,8.3
			c1-1.2,4.7-6.6,6.6-6.5c3.1,0.2,2.5,5.3,1.3,6.9c-1.8,2.6-6.1,4.2-8.3,6.7c-2.2,2.5-4.4,5.3-6.6,7.9c6.8,2.5,6.9-3.3,11.2-6.4
			c3.9-2.7,8.2-1.1,11.2,2.2c2.3,2.5,5.8,9.1,1.2,11.5c-4.1,2.1-10.7-9.8-12.9-7.7c5.1,5,11.1,9.5,12.1,17
			c4.7-5.2,18.2-15.4,24.7-8.8c2.4,2.5,3.2,6.4,3.3,9.8c0.3,4.8-1.9,5.4-4.8,8.6c2.6,1.4,5.2,1.4,6.7,4.2c1.7,3.4-0.1,4.9-2.3,7.4
			c-1.1,1.3-7.6,7.5-2.8,5.9c3.1-1,5-4.4,8-5.7c3.3-1.3,5.6-0.5,8.4,1.5c4.1,2.9,5.7,4.3,2.2,8.5c-0.9,1-6.8,6.1-5.8,7.7
			c1.1,2.1,6.9-4.3,8.5-4.9c4.3-1.3,11,5.7,12.2,9.6c0.7,2.2-0.6,7.6,1.7,8.5c1.3,0.5,6.1-7.6,7.1-8.9c2-2.6,5-8.2,8.1-9.3
			c2-0.7,6.6,1.2,8.3,2.2c7.8,4.5,0.3,10.7,0.9,16.9c2.8-1.1,5.5-6.2,5.2-2.1c-0.1,2.2-1.6,6.2-3.6,7.3c-6.5,3.8-14.8-2.4-19.9-5.5
			c-5.8-3.4-1.1,1,0.7,2.9c0.9,1,4.5,7.4,5.3,7.1c1.4-0.4,0-2.3,0.8-3c0.9-0.7,4.8,0.5,5.8,0.7c3.6,1.2,6.8,3.6,9.9,5.7
			c-1.8,2.8-5.2,6.3-6.2,9.5c-0.4,1.5-2.2,3.2,0.5,2.3c0.9-0.3,2.2-2.7,2.9-3.1c1.6-1.3,3.5-1.4,5-2.8c1.6-1.4,1.8-3.8,4.2-4.4
			c0.6,2.2,1.3,4.6,2,6.8c2.2-4.1,0-9.6,3.2-13.4c2.3,2.5,4,4.3,3.4,7.7c-0.7,3.9-2.8,4,1.7,6c3.5,1.5,6.4,3.1,8.2-0.5
			c0.5-0.9,0.7-4.8,1.3-5c1.5-0.5,4,4.9,4.7,6c1.5-1.9-0.3-5.6,2.2-6.8c3.9-1.9,8.7,4.2,11,6.2c3.2-6.7-1.1-18.9,10.3-19.2
			c4.2-0.1,5.9,1.9,5.3-3.5c-0.6-5.4-2.6-10.5-1.2-15.8c2.2,1,3.8,2.8,5.8,3.8c2.4,1.2,2,1.2,1-1.1c-0.7-1.8-2.6-3-3.4-4.7
			c-1.4-2.7-0.6-5-0.5-7.9c4.8,1,6.8,2.7,10.5,5.8c0.6,0.5,5,4.6,5.7,4.6c1.4-0.1-2.6-5-3-5.6C898.2,632.7,903.6,637.2,904.7,638z"
			/>
	</g>
	<g>
		<path class="st0" d="M886,766.4c-5.2,1.5-10.4,3.1-15.6,4.7s-10.9,4-16.3,3.9c-2.6-0.1-3.2-0.1-5.5,0.8c-2.1,0.8-3.9,1.8-6,2.3
			c-5.7,1.4-10.2,3.5-15.4,6.2c-10,5.3-20.3,8.2-31,11.2c-10.7,3.2-14.8-4.3-21.2-11.5c-2.8-3.2-5.8-6.1-9.4-8.2
			c-3.5-2-7.5-2.8-9.3-6.8c-1.6-3.7-0.1-7-4.5-8.7c-1.5-0.5-3.2-0.1-4.7-0.9c-1.9-1-2.2-2.7-3.4-4.2c-4-5-5.5-0.4-10.1,0.4
			c-4.1,0.8-6.5-3.5-10.4-3.5c-2,0-3.6,1.2-5.8,0.7s-3.9-1.8-5.8-2.6c-2.3-1-3.8-1.4-6.3-1.2c-2.2,0.2-1.5,0.8-3.2,0.7
			c-1.3-0.1-2.7-0.9-4.1-1.1c-4.9-0.6-10.3,1.5-15.1,2.3c-3.9,0.6-8.5-1.9-11.4,0.8c-2.9,2.6-3.9,6.1-7.7,7.8c-4.1,1.8-8,0.1-11.7,3
			c-1.4,1.2-3.2,2.6-3.9,4.4c-0.6,1.6-0.1,3.2-1,4.8c-2.3,4-9,4.3-12.4,7c-3.7,2.9-0.8,6-1.9,9.8c-1.3,4.6-6.3,5.6-9.9,7.6
			c-4.1,2.3-4.4,5.6-5.9,9.8c-0.7,2.2-2.5,4.5-2.9,6.7c-0.4,2.2,0.9,4,0.9,6.1c0,3.2-2.2,5.3-3.7,8c-0.7,1.3-1.2,2.8-2.2,3.9
			c-1.3,1.4-3.7,1.6-4.6,2.9c-1.2,1.5-1.1,6.4-0.3,8c0.8,1.7,2,1.7,3.3,2.6c3,2,3.1,3.6,4,7.2c1.2,4.7,2.1,9.5,4.1,14
			c2.1,4.5,4.6,8.8,4,14c-0.9,8.5-11.2,17.8-19.3,19.9c-2.1,0.5-4.2,0.5-6.1,1.6c-2.2,1.3-3.6,3.2-5.9,4.3c-2.2,1-4.6,0.8-6.7,1.7
			c-2.1,0.9-4,2.7-5.8,4c-8.6,6.3-19.8,9.8-29.5,14.1c-2.6,1.2-3.1,0.7-6.1,1.1c-2.2,0.4-4.3,1.9-6.3,2.9c-5.6,2.9-11.7,4.9-13.8,11
			c4.1,0.3,7.1-1.2,10.8,1.2c5.1,3.1,6.2,1.6,12.2,0.9c9.1-1.2,18.5-4.2,27.2-7.5c3.1-1.2,5.9-3.5,9.4-3.4c2.2,0,2.7,0.4,4.5-0.1
			c2.6-0.6,5.5-2.8,7.9-4c2.4-1.2,4.9-2.6,7.5-3.5c2.5-0.9,2.8-0.4,5.2-0.4c4.1,0,7.6-3.6,11.5-4.9c8.9-2.9,19,1,26,6.7
			c2.9,2.3,5.9,4.8,8.5,7.5c1.3,1.4,2.4,2.9,3.1,4.7c1.2,3.5,0.6,3.3,4.7,4.6c4.2,1.3,8.5,3,12.9,3.2c5.3,0.4,10.5-0.6,15.8,0
			c4,0.4,8.3,1,12.2,1.8c2.2,0.5,4.3,1,6.3,2c2.2,1.1,4,3.4,6.3,4.1c4.3,1.4,6.8-1.6,9.5-4.5c3.2-3.5,6.8-5.4,11.7-5.4
			c3.2,0,10.1,0.7,12.7,2.8c1.1,0.9,0.9,2.8,2.2,3.5c1.6,1,3.7,0,5.1-1c3.7-2.5,1.9-4.7,1.3-8.4c-0.7-4.1,0.4-8.1,3.3-11
			c2.9-2.8,6.7-2.9,10-4.6c3.8-2,6-5.3,8.5-8.6c2.6-3.4,5.3-6.8,8.7-9.4c4.2-3.2,6.6-3.2,7.1-8.6c0.5-4.2,0.9-7.7,3.2-11.5
			c2.7-4.3,4-7,4-12.2c0-5,0-10.2-0.3-15c-0.4-4.8-3.1-8.8-3.5-13.6c-0.4-3.9,0.2-7.4-0.7-11.1c-0.9-3.5-1.3-6.8,0.5-10.1
			c2.2-3.8,7.9-7.5,11.7-9.5c3.7-2,7.7-1.8,11.5-3.8c8.6-4.5,17.5-8.8,25.8-14c9-5.6,20.6-8.5,28.8-15.3c4-3.2,7.3-3,11.8-5
			c4.7-2.1,7.8-5.8,10.9-9.8C892,765.6,890.2,765.2,886,766.4z"/>
	</g>
</g>
</svg>
