<?xml version="1.0" encoding="utf-8"?>
<!-- Generator: Adobe Illustrator 22.0.1, SVG Export Plug-In . SVG Version: 6.00 Build 0)  -->
<svg version="1.1" xmlns="http://www.w3.org/2000/svg" xmlns:xlink="http://www.w3.org/1999/xlink" x="0px" y="0px"
	 viewBox="0 0 1080 1080" style="enable-background:new 0 0 1080 1080;" xml:space="preserve">
<style type="text/css">
	.st0{fill:#A14A7B;}
</style>
<g id="Animal">
	
		<image style="display:none;overflow:visible;" width="1884" height="1418" xlink:href="../../../../Desktop/Screen Shot 2018-02-16 at 16.09.50.png"  transform="matrix(0.5331 0 0 0.5331 40.1149 78.6875)">
	</image>
	<path class="st0" d="M479.5,664c-2.5-5.3-4.9-10.6-7.3-15.9c-1.8-3.9-4.9-16.3-10.4-16.7c-4.6-0.4-7.9,9.6-10.2,12.6
		c-7.9,10.2-17.1,16.4-23.3,28.2c-6.7,12.7-9.3,26.9-15.7,39.7c-12.4,24.8-37.3,38.3-62.7,44.9c-3.6,0.9-10.2,3-13.1,5.3
		c-4.7,3.6-5.5,9.3-10.2,13.1c-10.5,8.7-26.5,3.2-38.9,3.3c-13.3,0.1-27.4,0.8-40.2,0.2c-0.8,0-1.8,1.8-3.4,1.7
		c-1.1,0-1.1-2.7-1.8-2.7c-4.7-0.3-10.9-1.5-15.7-1c-6.6,0.6-12.6,2.2-18.9-2c-7.1-4.8-12-12.7-9-22c2.9-8.8,17.1-15.7,24.6-19.1
		c12.6-5.6,26.6-6,38.9-11.5c13.4-6,25.1-14.6,30.4-28.6c7.3-19,14-38.5,20.1-57.9c6.4-20.3,13.4-40.7,16.9-61.8
		c2.2-13.2,2.8-26.7,5.3-39.8c0.6-3,3.7-10.4,3.2-12.8c-1.4-6.1-8.2-4.4-13.6-4.6c-7.9-0.3-8.8,1.4-15.6,1
		c-12.1-0.7-23.6,0.8-35.8-1.3c-22.6-4-46.6-11.3-64-26.7c-4.6-4.1-10.2-8.4-13.3-13.8c-4-7-1.8-7.3-9.9-9.2
		c-12-2.8-24.7-1.7-36.5-5.4c-10.9-3.4-18.6-12.2-29.5-15.6c-10.4-3.3-23.7-2.9-34.7-4.6c-9.8-1.6-12.8-5-19.1-12.5
		c-6.6-8.1-14.8-11.9-20.4-20.5c-7.7-11.6-13.9-25.4-0.2-36c11.6-9,29.4-13.7,43-19.4c14.7-6.1,21.4-20,35.6-25.9
		c12.9-5.3,26.8-7.1,39.9-11.7c11.5-4.1,22.5-12.6,35.2-12.6c7.4,0,14.5,4.7,21.9,4.2c5.2-0.3,10.5-3,15.5-4.4
		c13.8-3.9,25.7-7.7,40.2-8.8c13.9-1.1,27.6,2,41.4,2.8c29,1.6,57.6-3.6,85.4-11.4c17.5-4.9,37.4-9.5,55.6-6.4
		c14.4,2.5,27.4,6.2,42.2,7.5c14.5,1.3,28.1,3.8,42.7,2.4c16.2-1.5,32.4-4.2,48.6-6c21.2-2.4,42.2-5.8,63.3-9.3
		c33.5-5.5,66.1-11.2,100-6.1c35.3,5.2,69.7,16.8,101.1,33.8c57.5,31.1,105.4,82.4,124.4,146.1c7.2,24.2,8.8,49.1,5.5,74
		c-3,21.9-2.9,43.5-0.4,65.7c1.3,11.1,5.1,19.7,7.9,30.3c2.3,8.8,3.3,19.3,7.3,27.4c9.1,18.9,37.8,14.7,41,38.6
		c2,14.6-4.6,29.2-6.7,43.5c-1.5,10.3-5.1,18.1-9.5,27.7c-4.9,10.6-6,18.9-8.6,30c-1.2,5-3.5,6.7-7.2,10.8c-4.9,5.4-6,4.3-12.8,6.4
		c-5.9,1.7-10.4,5.6-17.1,5.9c-4.8,0.3-8.3-1.6-13-2.2c-2-0.3-6.4,1-7.8,0.5c-0.9-0.3-2.4-2.7-3.2-2.9c-0.9-0.3-3.8-0.4-4.6-0.7
		c-3.3-1.5-9.1-2.4-11.6-3.6c-6.2-3-14.6-7.9-19.5-14.2c-10.6-13.4,1.2-25.3,9.5-35.6c7.3-9.2,9.4-16.6-0.3-25
		c-13.9-12-28-23.7-41.6-36c-4.7-4.2-12.2-14.2-17.4-16.4c-5.6-2.3-6.6-0.3-9.7,5c-4.6,7.7-10.8,19.4-10.7,28.6
		c0.2,11.3,6.4,25.5,8.6,36.8c3.1,16-6.5,21.9-21.1,26.6c-12.3,3.9-24.8,5.6-36.8,10.4c-13.2,5.2-26.6,11.1-40.8,11.9
		c-2.5,0.1-32.5,4.5-32.1,1.1c0-0.3,4.1,0.3,4.2,0c0.1-0.5-14.5-2.7-14.6-4.2c-0.2-3.6-8.2-9.5-10.4-14.6
		c-4.5-10.6,0.7-22.7,9.5-29.5c8.2-6.4,18-9.4,27-14.4c6-3.3,19.5-7.8,23-13.6c4.1-6.7-2.3-16.8-4.3-23.6c-2.7-8.9-4.7-18-7.7-26.8
		c-3.7-10.9-8.4-21.4-11.4-32.6c-0.7-2.6-1.2-13.6-2.8-15.8c-0.5-0.6-3.8-2.3-4.1-0.5c-1.2,6.7-3-0.2-5.2,2.1
		c-0.8,0.8,3.7,4.1,3.1,5.2c-1.1,2.1-8.7-3.1-9.4-2.1c0.4,0.7,0.7,1.4,1,2.1c-1.2,1.9-9.8-4.9-10.4-4.2c0.4,0.7,0.8,1.4,1,2.1
		c-0.9,1.4-10.8-4.1-11.5-3.1c0.4,0.7,0.8,1.4,1,2.1c-1.6,3.2-12.6-4.6-13.6-3.1c0.4,0.7,0.8,1.4,1,2.1c-1.7,3.7-13.3-5.6-14.6-4.2
		c-2.4,2.4-0.3,1.4-5.2,2.1c1.5-0.2-8.5-1-7.3,0c-2-1.7-13.5-2.3-17.8-2.7c-7.6-0.6-14.6-0.2-22.3-1.3c-3.2-0.5-15.4-3.8-17.5-1.6
		c-3.6,3.7,2.2,22.5,3.1,27.3c4,21.4,7.9,42.9,2.9,64.3c-2,8.6-2.3,15.4-6.3,23.4c-3.7,7.4-5.4,15.7-8.9,23.2
		c-3.3,7.1-1.5,15.8-6.5,22.1c-4.4,5.5-11.9,8.2-17.1,12.9c-6.8,6.1-8.1,10.5-10.8,18.3c-3,8.9-12,11.8-21,12.5
		c-24.8,2-51.4,0.9-76.3-0.8c-9.2-0.6-21.2,0-28-7.5c-7.2-7.9-3.4-19.9,2.9-27.1c12-13.6,34.8-10.2,48.5-22.5
		c7.9-7.1,11.9-12.2,13-23.1c0.2-2,0-15.7-3.3-17.2"/>
</g>
<g id="Layer_2">
</g>
</svg>
