<?xml version="1.0" encoding="utf-8"?>
<!-- Generator: Adobe Illustrator 22.0.1, SVG Export Plug-In . SVG Version: 6.00 Build 0)  -->
<svg version="1.1" id="Layer_4" xmlns="http://www.w3.org/2000/svg" xmlns:xlink="http://www.w3.org/1999/xlink" x="0px" y="0px"
	 viewBox="0 0 1080 1080" style="enable-background:new 0 0 1080 1080;" xml:space="preserve">
<style type="text/css">
	.st0{fill:#77395E;}
</style>
<path class="st0" d="M997.5,303.9c-10.2-12.9-25.4-20.2-41.1-23.5c-13.8-2.9-27.9-3.7-40.6-10.6c-4.9-2.7-6.6-6.4-10.4-10.4
	c-4.7-5-11.3-7.5-16.4-12.1c-11.2-10.1-20.9-19.1-35.5-24.3c-14.8-5.3-31.4-7.1-47.1-7c-14.3,0-27.1,6.2-39.7,12.6
	c-26.6,13.5-46.3,36-54.6,64.9c-3.7,12.9-5.2,26.3-5.3,39.6c-0.1,11.9,5.7,32.7-7.9,37.6c-31.3,11.3-67,11.9-99.8,16
	c-29.9,3.7-59.4,9.9-88.9,16c-26.7,5.5-53.3,12-78.5,22.6c-31.2,13.1-65.1,12.4-98.4,15.3c-23,2-49.3,4.7-71.7-1.7
	c-25.9-7.4-51.6-10.3-78.7-10.9c-13.8-0.3-27.4-1.5-41.2-1.9c-4.8-0.1-14.5-0.7-18.1,3.3c-4.6,5.1,0.8,9,5.1,11.2
	c9.7,4.9,76.2,29.4,74.5,35.2c-1.3,4.4-66.2,1.2-71.3,1.3c-24.8,0.3-49.6,1.3-74.2,4.2c-1.8,0.2-3.7,0.4-5.7,0.6
	c-5.5,0.5-11.2,2.9-2.7,6.4c4.1,1.6,9.7,0.1,14.1,0c29.4-0.8,59.1,0.8,88.5,3.2c12.7,1,24.7,3.4,37.1,6c7.1,1.5,14.3,3,21.6,2.4
	c2.4-0.2,19.8-1,16.3,4.7c-2,3.2-14.2,1.7-17.3,1.5c-5.6-0.4-9-0.1-14.4,1.7c-16,5.4-31.2,5.7-47.8,5.8c-2.8,0-16.3,1.2-13.6,7
	c1.2,2.7,10.4,0.4,10.8,2.7c0.7,4.5-12.2,2.2-12.7,3.2c-2.6,4.9,18.3,10.7,20.6,11.1c3.2,0.5,23.4,0.7,23.8,3.2
	c0.2,1.5-3.5,1.8-3.2,3.2c0.1,0.3,15,2.9,15.9,3.2c6.3,1.7,12.7,2,19.1,3.2c13.4,2.5,26.7,8.4,39,14.1
	c22.3,10.2,47.1,14.3,70.5,21.3c19.9,5.9,34.6,15.6,53.1,24.5c3.5,1.7,7.2,2.1,10.6,3.6c3.9,1.8,4.1,4.1,6.9,6.8
	c1.4,1.3,5,2.7,5.7,4.4c0.9,2.2-2.4,4.1-1.6,6.4c0.5,1.5,3.8,2.4,4.8,3.2c1.3,1.1,11,9.7,11.1,9.5c-0.4,1-4.3-1.1-4.8,0
	c-2.6,5.7,28,7.1,28.6,9.5c0.4,1.6-4,1.5-2.8,3.6c0.9,1.7,4.6,1.8,6.2,1.8c3.9,0,5.7-2.6,8.8-3.2c4.6-0.8,5.7,0.7,10.1,2.5
	c8.1,3.4,17.5,5.6,26,7.7c5.1,1.3,9.8,0.9,13.5,5.1c3.8,4.3,5.2,8.5,10.1,12.2c10.4,7.9,21.5,12.4,33.1,17.9c6,2.8,12.4,6.6,19,7.7
	c5.9,1,10.6-0.6,11.2,6.9c0.3,3.5-1.4,7.1-0.9,10.8c0.4,2.9,2.2,4.6,3,7.2c1.1,3.5,0.4,6.7,1.2,10.2c0.6,2.8,2.4,4.9,3.3,7.5
	c5.4,15.7,6.9,34,8.6,50.5c1.3,12.4,6.4,32.2,0.4,43.3c-2.7,4.9-9.8,10-6.9,17.2c3.1,7.6,7.2-5.1,10.1-4c0.7,0.3-0.3,9.5,0.9,11.7
	c2.5,4.6,7.2,4.6,11.6,5.7c6,1.5,5.2,4.9,9.8,7.6c3.1,1.8,10.7,0.6,14.3,0.5c11.9-0.4,23.8-0.3,35.7,0.1c14.2,0.5,25.6-1.3,39.3-4.4
	c6.4-1.4,13.4,1.6,19.3,0.2c4.7-1.1,6.6-5.5,11.9-6c7.6-0.8,15.9-1.3,23.6-1.2c7,0.1,14.1,0.4,21.1,0.1c2.5-0.1,5-0.2,7.5-0.6
	c1.8-0.2,6.8-0.3,8.4-1.5c1.8-1.3,1.8-7.6,1.5-7.5c0.7-0.3,7.9,6.7,9.5,4.8c2.5-3-8.9-7.7-10.3-8c-4.2-0.7-8.9,0.3-13.2,0
	c-9.7-0.6-18-3.4-27.8-3.2c-13.4,0.3-33.5,1.2-45.6-5.4c-12.5-6.8-12.7-29.2-15.4-41.7c-2.8-13.1-3.5-26.7-5.1-40
	c-1.4-12.2-4.8-23.3-1.8-35.3c1-4,4.3-11.9,3.2-15.9c-1-3.8-4.9-5.7-6-9.9c-0.7-2.6-1.1-7.8-0.5-10.4c1.4-6.4,5.4-3.3,11.8-3.3
	c8.3-0.1,15.5-1.9,23.3-4.5c7.8-2.6,16.3-3.2,23.4-7.4c7.2-4.1,13-8.7,21-11c15.4-4.4,28.4-11.2,41.6-20.4
	c25.9-18,46.2-39.5,62.6-66.2c34.7-56.5,69-129.8,44.4-196.5c-3.6-9.7-8.5-17.7-14.7-25.9c-3-3.9-12.2-14.3-10.1-19.4
	c0.8-2,5.2-3.9,6.8-5.9c2.4-3,4.1-6.4,6.7-9.3c4.2-4.6,9-10.3,14.1-13.8c15.8-10.8,36.6-1,53.4,0.4c7.4,0.6,14.7-2.7,22.2-3.2
	c3.2-0.2,10-0.5,12.8-1.4C1001.8,309,1001.3,308.6,997.5,303.9z M670.3,867.7c-3.8,3-21.8-4-26.6-5.1c-7.5-1.7-15.8-2.5-22.9-5.6
	c-12-5.1-12.9-18.7-14.7-30c-3.1-19.1-7.4-38-9.9-57.2c-1-7.5-1.1-14.4,0.3-21.8c1.2-6.8,4.5-15.7,2.1-22.4
	c-2.1-5.7-9.1-10.6-8-17.6c1.2-7.6,11.2-6.2,17.1-7.5c6.6-1.5,12.3-4.1,19.2-4.3c4-0.2,7.4,0.5,11.2,1c3.5,0.4,9-1,11.9-0.1
	c7.9,2.6,3.9,11.4,3.2,18.1c-0.7,6.8,2.5,15.4,4,22.1c1,4.3,2.7,8.5,4.1,12.8c3.1,9.7,3.6,19.4,4.7,29.5c1.7,15.5,3.3,30,2.7,45.7
	c-0.3,9.5-2.6,11.4-9.5,17.1c-2.1,1.8-3.9,3.2-5.1,5.7c-0.3,0.7-3.4,9.6-2.9,10.2c3.2,3.9,13-9.1,16.9-6.8
	C670.5,852.7,672.7,865.9,670.3,867.7z"/>
</svg>
