<?xml version="1.0" encoding="utf-8"?>
<!-- Generator: Adobe Illustrator 22.0.1, SVG Export Plug-In . SVG Version: 6.00 Build 0)  -->
<svg version="1.1" id="Layer_4" xmlns="http://www.w3.org/2000/svg" xmlns:xlink="http://www.w3.org/1999/xlink" x="0px" y="0px"
	 viewBox="0 0 1080 1080" style="enable-background:new 0 0 1080 1080;" xml:space="preserve">
<style type="text/css">
	.st0{fill:#77395E;}
</style>
<g>
	<path class="st0" d="M652.4,981.1c-3.8,7.5-8.6,11.4-12.9,1.3c-2.8-6.6-3.5-15.2-5.3-22.2c-6.4,5.9-6.9,16.5-8.5,24.6
		c-1,5.1-2.2,10.1-3.3,15.2c-1.2,5.2-0.8,10.8-6.5,12.2c-15.3,3.7-25.1-25.8-21.3-36.5c1.3-3.8,4.2-7.3,6.5-10.6
		c0.5-0.7,3.9-4.6,3.7-5.2c-1.1-2.8-2.1,0-3.4,0.3c-2.8,0.7-5.9,3.4-7.8-0.1c-2.1-3.9,4.1-9.3,6-11.6c12.4-15,17.2-34.7,20.6-53.6
		c1.6-9,3.3-17.2,0.5-26.1c-3.2-10-7.8-19.5-11.1-29.5c-3.1-9.5-6.8-19-9.5-28.6c-1.1-4-1.6-8.3-3.2-12.1c-1.9-4.3-5.2-8.1-7.9-12
		C577.5,769.2,566.4,751,553,735c-6.7-8-17.3-6.9-27.1-7.7c-10.4-0.9-20.8-1.5-31.2-2.3c-12.2-0.9-22.6,1.3-34.6,2.3
		c-10.8,0.9-21.7,0.9-32.5,2.4c-11.6,1.6-22.4,2.8-34.1,2.4c-10.6-0.3-20.5-3.6-31.1-4.4c0.4,1.4,0.8,2.8,1.1,4.2
		c-1-0.4-2-0.8-3-1.3c0.5,1.2,1,2.3,1.5,3.5c-6.3,1.6-12,3.4-18.5,1.6c-6.1-1.8-14-4.5-19.6-7.5c-4.8-2.6-8.1-7.8-12-11.5
		c-1.7-1.6-4.3-5.3-6.7-5.8c-3.8-0.8-6.6,3.3-9.1,5.7c-10.3,10-19.9,19.7-31.3,28.3c-11.1,8.4-21,18.1-31.1,27.5
		c-19.7,18.5-47.4,33.7-56.6,60.6c-4.5,13.1-4.1,27.5-3.8,41.2c0.4,16.3,2,32.6,4.2,48.8c2.1,15.4,1.3,35.8,10.8,48.9
		c4,5.5,6.8,11.8,11.3,16.9c5.4,6,10.2,10.4,14,17.5c-11.4,3.5-23.2,2-34.9,2c5.7,10.7-0.3,10.8-10.3,11c-7.4,0.2-21.3,1.4-26.5-5.2
		c-4.9-6.2-2-16.1-6-22.7c-0.5-0.8-1.9-2.8-2.9-3.3c-3.8-1.9-1.3-0.4-4.5,1.1c-2.7,1.2-6.8,5.3-9.7,1.7c-2.2-2.7,0.3-7.4,0.9-10.2
		c0.9-4.4,1.5-9,2-13.4c1.2-10.2,1.1-20.6,1.5-30.8c0.7-20,3.3-41.7-0.3-61.5c-1-5.4-1.7-7.4-0.4-12.6c1.1-4.6,1.5-9,1.5-13.7
		c-0.1-10.2-1.1-20.5-2.1-30.7c-0.9-8.4-3.2-17.2-0.4-25.4c3.2-9.1,10.4-13.1,17.6-18.6c7.1-5.4,12.8-12,19.4-18
		c7.2-6.5,13.4-12.8,18.8-20.9c5.2-7.8,5.5-16.7,6.4-26c1-10.6,0.1-20.5-3.2-30.7c-3.1-9.6-8.3-18.5-10.6-28.4
		c-1.2-5.3-2.3-10.5-3.6-15.7c-1.3-5-3.9-7.3-5.8-11.6c-1.7-3.7-1.8-10.4-1.8-14.2c0-2,0.3-3.7,0.6-5.7c0.4-2.3,0-4.7,0.3-6.7
		c0.4-2.2,2.2-3,2.2-5.8c0-2.1-0.8-4.3-0.8-6.4c-0.1-5.4,2.1-10.6,3.7-15.7c-12.5,4.2-9.6,26.6-9.6,36.9c0,1.9,0.9,10.6-0.6,11.6
		c-2.3,1.5-5.7-0.5-7-1.9c-1.9-2.1-2.7-7.1-3.7-9.8c-1.4-3.6-3.1-7.1-4.4-10.7c-2.7-7.6-1.4-14-0.2-21.9c1.1-7.5,0.9-14.9,6.1-20.8
		c10-11.5,22.2-22.5,35.2-30.5c11.9-7.3,26.3-11.6,40-14.6c15.7-3.4,29.1-14,44.8-17.2c16.3-3.3,34-1.5,50.5-1.7
		c17.6-0.2,35-1.8,52.6-2c35.2-0.3,70.6,2.7,105.7-2.2c7.4-1,14.2-3.3,21.4-5.3c7.9-2.2,17.3-3.4,24.6-6.8c5.5-2.5,9.3-4.5,15.4-5.7
		c3.1-0.6,5.8-2.2,8.7-2.9c3.4-0.8,7,0,10.4-0.1c15.9-0.5,30.1-2.6,45.8,0.5c8.1,1.6,14.3-1.2,22.1-2c3.4-0.3,6.7,0.5,10.1,0
		c4.2-0.6,8.2-2,12.4-2.4c2.2-0.2,5.1,0.3,7.2-0.9c2.1-1.3,2-3.3,3.5-4.8c1.9-2,4.9-2.5,7.3-3.9c3.1-1.8,5.7-4.1,8.2-6.6
		c11.4-11.2,23.3-22,34.7-33.2c5.9-5.8,12-10.9,14.6-18.9c1-3.2,2.8-8.3,1.1-10.8c-1.8-2.8-6.9-5.2-9.5-7.6
		c-6.6-6.5-11-14.3-16.5-21.6c-5.1-6.7-10.7-13.1-15.9-19.7c-2.5-3.2-5.4-6.4-7.4-9.9c-1.2-2.2-4.5-10,0.2-5.8
		c2.4,2.2,3.4,5.3,6.1,7.4c2.6,2,5.6,3.2,8.7,4.3c18.7,6.9,36.8,14.4,56.5,17.5c-3.1-10.6-15.8-17-24.9-21.7
		c-11.4-5.9-23.5-10.3-35.2-15.4c-24.7-10.7-42-26-60.3-45.3c-18.3-19.3-38.1-37.1-54.6-58c-16-20.3-28.5-42.6-43.6-63.5
		c-8.3-11.4-17.8-21-19.4-35.6c-0.8-7.1-1.2-31.5,8.3-32.8c1.5,9.2,1.1,18.6,2.6,27.7c1.1,7,5.5,11.9,10.5,16.7
		c0.6-4.4,0.4-10.6,2.1-14.7c1.6-3.8,5.8-6.8,8.4-9.9c2.4,7.2,4.8,14.4,7.2,21.5c3.5-1.6,11.6-3.8,12.9-7.1c1.4-3.5-1.6-9.3-1.7-13
		c-0.1-3,1.4-10.4,4.7-7.9c2.4,1.8,1.4,7.9,4.3,10.3c6.8,5.5,14.3-7.4,18-11.5c6.2-6.9,9.8-14.2,14.5-21.9c2.5,4.9-0.4,9.3,0.4,14.3
		c2.9-1.9,22.3-11,22.9-6.4c0.5,3.8-18.4,12.8-20.5,15.7c-2.6,3.7-6,7.4-7.9,11.5c-2.2,4.7-2.7,10.2-4.4,15.1
		c-7.1,20.7-2.6,40.5,9.7,58.4c2.6-13.6,5.8-27.2,8.2-40.9c1.2-7,1.9-14.1,1.6-21.3c-0.3-6.7-2.8-13,0.3-19.3
		c7.5,5.4,9.7,19.3,11,28c1.9,12.1-0.4,23.2-2.4,35.1c-1.9,11.4-4.3,22.8-1.9,34.3c2.2,10.5,6.7,20.7,11.8,30.1
		c9.7,17.8,23.2,36.3,39.1,49c8.2,6.6,17.4,11.5,26.9,16c5.6,2.6,11.4,5.1,17.1,7.6c2.2,1,6.1,3.7,8.4,3.7c1.8,0,7.3,0.6,7.9,2.2
		c3.1-3.1,1.7-5.3,0-9c-2.5-5.5-0.4-2.8,2.1-6.9c1.9-3,1.9-10,2.5-13.5c3.2-17.3,5-34.1,6.7-51.5c0.3-3.2,1.7-20,6.1-16.7
		c2.2,1.6,1.9,8.4,2.1,10.7c0.6,5.3,1.2,10.5,1.5,15.8c1.1,18.2-2.7,36.6-3.6,54.8c-0.2,4-0.5,8-0.6,12c-0.1,4.5-0.6,4.2,2.7,6.5
		c7.4,5.1,14.3,3.8,21.3-0.8c6.8-4.6,13.1-10,19.4-15.3c6.5-5.5,14.2-10.5,19.3-17.3c4.4-5.9,7.5-12.7,11-19.2
		c3.2-5.9,11.7-16.4,11.6-23.2c-0.1-7-10.1-6.8-15.1-7.7c-9.6-1.8-19.1-4.3-28.6-6.5c-4.6-1-17.8-0.4-17.7-7.2
		c0.1-5.2,4.6-3.1,7.2-5c1.5-1.1,1.7,0.8,2.3-1c0.4-1.2-5-3.6-5.3-3.7c-13.5-7.6-29.1-20.8-34.8-35.7c5.2-2.3,11.3,5.5,14.7,8.5
		c5.2,4.6,10.4,9.1,16.1,13.1c0-2,13.5,1.8,11-4.8c-1.5-4-6.5-8.1-9.2-11.3c-3.1-3.7-6.5-7.3-9-11.4c-5-8.4,1.8-3.8,5.6-0.7
		c8.1,6.4,37.8,26.5,45.1,10.4c3.8-8.4-0.8-18.6-3.5-26.6c-1.5-4.5-4.2-10.4-4.2-15.2c0-9.2,4.7,0.6,6.6,3.9
		c5,9.1,9.8,18.3,14.8,27.4c5.1,9.5,10.2,23,19.2,29.7c6.9,5.1,15-6.2,17.4-12.5c4.2-11-3.8-23.5-2.1-34.6
		c1.7-11.3,9.4,9.6,10.3,12.8c1.4,4.3,1.9,9.6,4,13.7c1.7,3.4,6.9,5.4,7.1,8.9c0.3,3.8-5,8.4-7,11c-3.3,4.1-6.8,8.3-9.6,12.8
		c-6.3,10.1-5.1,19.6-3.9,30.9c1.1,10.3,1.8,20.7,4.8,30.6c1,3.2,1.7,9,5.4,10.3c3.5,1.3,9.9-1.7,13.2-2.5c4.5-1,10.3-1.1,14.6-2.9
		c4-1.6,7.5-5.3,10.5-8.3c7.1-7.1,12.7-16.2,14.3-26.3c1.7-11.4-3.9-21.4-7-32c-3.5-12.1,1.8-17.2,3.5-29.5c7.2,3,3.7,11.8,6.6,18.5
		c4.8,11,10.2,22.5,15.8,33c1.1,2.1,2.2,4.3,4.4,5.5c2.4,1.3,14.3-4,15.7-2.6c3.1,3-8.1,8.4-9.6,9.3c-3.9,2.5-6.3,5.2-8.5,9.3
		c-2.1,3.9-6.2,9.5-7.1,13.7c-0.2,0.4-0.4,0.8-0.7,1.2c-1.1,1.2-0.8,2,1.1,2.4c0.2,2.1,0.9,2.4,0.5,4.8
		c-1.7,9.7-10.3,13.5-18.4,16.1c-8.6,2.8-16.7,8.5-24.6,12.9c-9.8,5.4-19.9,10.9-28.1,18.7c-7.7,7.3-15,15.3-21.3,23.8
		c-2.6,3.5-4.7,6.9-8.1,9.7c-4.1,3.4-7.1,4.6-7.5,10.2c-0.3,3.5-0.3,10.5,1,13.9c1.5,3.8,4.2,3.8,7.5,4.9c8,2.6,11.6,8.3,12.7,16.4
		c0.5,4-0.4,8,0.9,11.9c1.5,4.3,5,7.5,8.2,10.5c7,6.6,13.1,13.7,19.7,20.6c6.6,6.9,15.9,9.2,21.3,17.7c3.4,5.2,2.6,24.3-4.5,26.6
		c-0.9,0.3-3.6-0.3-4.4,0.1c-1.5,0.9-2.6,5.1-3.8,6.6c-2.8,3.4-5.9,4.4-10.1,4.5c-5.1,0.1-10.7-0.2-15.7-0.9
		c-5.3-0.8-10.2-3.1-15.6-2.2c-20.5,3.4-26.5,31.6-29.5,48.2c-1.9,10.4-2.2,21-4.3,31.4c-2.1,10.2-8.6,19-15.9,26.2
		c-7.3,7.2-16.1,11.8-23,19.6c-6.9,7.7-14.3,15-22.3,21.5c-7.8,6.2-16.6,11-23.6,18c-8.8,8.8-17.4,18.2-25.3,27.8
		c-6.5,7.8-14.7,15.7-20,24.2c-2.2,3.6-3.5,7.6-6.3,11c-3.6,4.4-8.6,7.2-13.3,10.2c-9.4,5.9-14.8,9.5-16.1,20.9
		c-1.4,12.2-2.9,24.5-3.1,36.8c-0.2,9.9,1.1,18.6,5.9,27.3c5.4,9.7,9.3,19.2,9.5,30.4c0.2,13-6,23.5-9.2,35.7
		c-3.1,11.6,7.9,17.2,7.3,27.8c-0.4,5.6-3.7,9.2-3.1,15.1c0.6,6.3,2.2,12.6,3.7,18.8c2.6,10.8,5.6,23,11.4,32.6
		c2.2,3.7,7.2,10.7,11,12.7c3.4,1.8,5,0.6,7.7,4.3c2.7,3.8,4.6,7.1,8.1,10.4c1.7,1.7,9.8,7.6,9.1,10.7c-1.4,6.1-31.5,4.1-36.3,2.6
		c-4.2-1.2-7.1-4.1-9.5-7.6C657.6,990.8,654.2,980.8,652.4,981.1z M793.6,335.5c3.8-2.1,7.9-4.1,10.1-7.9c3-5.2,3.1-12,5.4-17.5
		c3.3-7.7,11.7-3,18-7.7c19.5-14.8,13.1-41.6,6.9-61.5c-4.1,10.1-7.3,21.5-13.1,30.7c-5.7,9-14.7,14.2-22.5,21
		c-7.8,6.9-15.8,15.1-20.3,24.6C772.2,329.4,784.6,332.1,793.6,335.5z M172.6,1002.1c-0.6-2.6-5.1-24.7-9.9-18.5
		C158.8,988.7,168.9,999.9,172.6,1002.1z"/>
</g>
</svg>
