<?xml version="1.0" encoding="utf-8"?>
<!-- Generator: Adobe Illustrator 22.0.1, SVG Export Plug-In . SVG Version: 6.00 Build 0)  -->
<svg version="1.1" id="Layer_4" xmlns="http://www.w3.org/2000/svg" xmlns:xlink="http://www.w3.org/1999/xlink" x="0px" y="0px"
	 viewBox="0 0 1080 1080" style="enable-background:new 0 0 1080 1080;" xml:space="preserve">
<style type="text/css">
	.st0{fill:#77395E;}
</style>
<g>
	<path class="st0" d="M732,640.4c0.3-1.7,0.5-3.4,0.8-5.1c-2.2-0.2,3.9,40.1,4.5,43.9c1.9,14.4-3,30.8-7,44.6
		c-4.3,14.6-9.6,28.5-13.1,43.4c-3.8,16.5-7.3,33-11.3,49.5c-6.5,26.8-20.2,66.1,4.5,87.4c5.3,4.6,11.1,7.9,16.3,12.7
		c4.9,4.6,9.3,8,15.4,10.9c12.1,5.8,23.4,11.5,33.5,20.6c-9.3,2.2-15.7,3.4-25,0.4c-9.5-3.1-18.9-6.8-27.6-11.6
		c-8.6-4.6-15.9-10-22.9-16.7c-6.5-6.2-11.2-12.1-20.5-8.9c-8.9,3.1-16.6,11.2-23.9,16.9c-8.1,6.4-16.2,12.6-25.4,17.4
		c-8.8,4.7-18.1,8.7-27.6,11.7c-10.1,3.2-17.6-2.6-26.1,4.6c-8.5-9.1,33.4-27.6,38.6-31.1c8.7-5.8,17.2-12.1,25.8-18.2
		c3.6-2.5,19.4-11.7,11.2-16.1c-1.9-1-5.1,0.7-6.9,1.2c-5.3,1.4-9.1,2.9-14.8,2.7c-10.1-0.3-20.4-2.3-30.5-3.5
		c-9.8-1.1-19.8-1.2-29.5-3c-4.5-0.8-20.1-2.4-22.1-7.2c12.1-7.5,26.2-8.3,40-6.2c17.3,2.6,35.4,3.9,52.9,3.1
		c6.5-0.3,15.4-1.4,21.3-4.4c6.2-3.1,9.6-9.9,12.6-15.9c6.5-12.7,10.1-28.4,13-42.3c3.1-15,6.1-29.9,8.9-45
		c3-16.2,8.7-34.8,7.2-51.4c-0.6-6.8-3.8-13-4.2-19.9c-0.5-8,1.4-16.3,4.7-23.6c2.9-6.4,8.2-11.8,10-18.7
		c2.4-9.3-3.5-12.1-10.4-16.8c-5.2-3.5-10.3-7.2-15.9-10.1c-6-3.1-7.5-3.1-13.7-2.5c-5.9,0.6-11.3-0.5-17.4,0.9
		c-9,2-14.8,2.7-23.8,0.1c-5.3-1.6-10.7-4.2-16.1-5.2c-7.4-1.3-14.9,0.3-22.2,1.3c-8.4,1.1-16.7,2.2-25.1,3.3
		c-5.8,0.7-19-0.3-22.1,5.9c-2.1,4.2,1.8,13.5,2.6,17.5c2,9.2,0.5,14.4-2.1,23.4c-4.8,16.6-11.1,32.6-15.3,49.4
		c-7.8,31-15.7,62.7-19.2,94.5c-0.5,4.6-3.4,13.8,0.1,17.9c4.8,5.6,16.2,0.7,22.2,4.5c8.4,5.3-1.6,10.1-7.6,11.7
		c-6.2,1.6-12.5,1.1-12.4,9.2c0.2,13.4,17.6,27,26.2,35.4c3.3,3.2,30.5,32.7,21.8,36.6c-2-2.6-3.5-5.8-6.4-7.4
		c-3.8-2-8.8-1.1-12.8-3.3c-7.7-4.1-15.4-11.9-22-17.6c-6.8-6-11.4-16.2-18.5-21.3c-7.1-5-12.7-0.5-18.6,4.4
		c-6.7,5.6-12.8,11.9-20.1,16.8c-8.5,5.7-18.1,10-27.1,15c-4.2,2.4-8.6,3.9-12.8,5.9c-3.8,1.8-6,6-9.5,7.6c-4.4,2-8.7-1.1-13.2-0.9
		c-3.7,0.1-6.5,1.9-10.1,1.9c7.5-17,24-25.6,39.1-34.6c7.8-4.7,15.4-9.3,22.4-15c3.9-3.2,16.6-10.6,9.4-14.6
		c-2.3-1.3-7.2,0.2-9.8,0.3c-5.5,0.1-11.2-0.4-16.7-0.7c-9.7-0.5-19.3-1.4-28.9-2.3c-9.6-0.9-19.3-1.8-28.9-3
		c-10.7-1.3-16.2-4.5-24.7-10.7c12.3-9,33.6-3.6,47.6-2.5c19.4,1.4,38.3,1.4,57.7,1.1c19.7-0.3,21.9-9.2,27.8-26.5
		c6-17.5,11.3-34.7,15.4-52.8c4.2-18.8,9.3-37.4,12.8-56.4c1.6-8.6,3.1-17.1,2.1-25.8c-1-8.9-2.4-16.2-0.2-25.2
		c2.9-11.6,8-38.2-9.7-37.5c-8.7,0.3-17.4,1.8-26.1,2.7c-10.2,1-17.4-2-27-5c-16.4-5.1-32.3-11.5-48.3-17.9
		c-15.1-6-28.6-16.8-42.2-25.6c-13.7-8.8-25.7-20-37.4-31.2c-10.5-10-26-20.9-32.1-34.4c-3.2-7.1-4.2-15.5-6.9-22.9
		c-3-8.2-6.4-16.5-8.1-25.1c-3.2-16.2-1.2-34.7-1.1-51.2c0-15.9,4.5-30.3,10.8-44.7c7.4-17,21.4-32.7,26.9-50.4
		c8.9-28.6-84.3-1.9-95.5,1.1c-21.1,5.8-42.8,11.1-62.9,19.7c-9.7,4.2-19.2,8.8-29.3,12.1c-7.7,2.5-20.1,8.6-27.8,3.7
		c7.2-13.6,28.4-19.7,41.5-26.3c16-8,32.1-15.5,48.9-21.9c16.3-6.3,32.7-13.5,49.5-18.2c13.7-3.8,28.5-5.9,40.3-14.4
		c-1.9-7.3-62.5,10.5-70.1,12.5c-23.6,6.2-47.4,12.2-71,18.7c-13.4,3.7-26.8,7.7-40.1,11.7c-14.7,4.4-11.7-5.6-1.8-12.5
		c10-7,23.4-8.9,34.9-12.5c11.1-3.5,21.1-9.2,32-13c23.3-8.1,46.3-16.9,69.3-25.7c11.6-4.5,23-9.7,34.1-15.4
		c10.4-5.3,22.6-10.3,31.1-18.5c10-9.5,7.4-19.9,9.7-32.2c2.3-12.5,10.4-20.3,19.3-28.7c18.4-17.5,40.6-28.7,66.1-30.6
		c29.3-2.2,58.5,0.6,84.9,14.2c10.7,5.5,21.8,12,30.3,20.7c2.7,2.8,22.3,28.7,20.7,30c-1.3-1.4-2.6-2.8-3.9-4.2
		c-1.2,4.8,6.1,10.8,8.8,14.1c5.1,6.5,10.4,8,18.6,9.1c16.5,2.2,33.7,1.4,50.3,2c33.8,1.2,67.9,5,101.3,10.1
		c16.3,2.5,32.5,3.6,47.7,10c14.9,6.3,30.3,11.1,46.2,13.5c16.7,2.5,32-2.7,48.4-6.6c16.3-3.9,32.1-9.3,48.3-13.3
		c15.5-3.8,32.7-7.5,48.4-9.2c8.9-0.9,17.4-3.5,26.4-4.2c4.8-0.4,18.6-4,21.5,1.4c-9.8,5.7-21.7,8.3-32.6,11.5
		c-11.3,3.3-21.9,7.9-33,11.6c-11.6,3.8-23.1,7.6-34.7,11.5c-5.4,1.8-26.5,7.3-14.7,15.2c6.8,4.6,24.7,5.6,32.6,4.6
		c4.9-0.6,8.5-4.5,13.2-5c5.6-0.5,11.3,4.4,17.5,4.4c8.4,0,16.9-2.9,23.2,4.9c6.8,8.5-1.4,18.8-7.7,24.9
		c-16.9,16.4-38.8,29.9-53,48.8c-6.7,8.9-5.6,18.3-8.5,28.5c-3,10.6-9.7,20-13.5,30.4c-4.1,11.1-7.9,22.4-13.2,32.9
		c-5.4,10.7-13.5,19.7-19.1,30.3c-2.9,5.4-3.2,8.6-4.1,14.2c-0.9,5.8-0.8,3.8-5.5,7.3c-3.4,2.5-4.3,5.6-7.1,8.5
		c-1.1,1.1-3.5,1.1-4.6,2.2c-2.3,2.5-1.9,4.4-3.4,7.4c-4.8,9.6-19.4,12.4-27.1,20.3c-9.4,9.6-18.2,20.2-26.7,30.5
		c-7.6,9.2-16.6,16-24.6,24.6c-9.5,10.3-7.7,21.1-12,33.3 M725.5,630.5"/>
</g>
</svg>
