<?xml version="1.0" encoding="utf-8"?>
<!-- Generator: Adobe Illustrator 22.0.1, SVG Export Plug-In . SVG Version: 6.00 Build 0)  -->
<svg version="1.1" id="Layer_4" xmlns="http://www.w3.org/2000/svg" xmlns:xlink="http://www.w3.org/1999/xlink" x="0px" y="0px"
	 viewBox="0 0 1080 1080" style="enable-background:new 0 0 1080 1080;" xml:space="preserve">
<style type="text/css">
	.st0{fill:#77395E;}
</style>
<g>
	<path class="st0" d="M882.1,119.2c1.4-5-1.3-12.4-2.8-17.1c-4.3-13.2-15-27.4-13.1-41.2c13.8,12,18.7,26.4,26,42.4
		c6.3,13.9,6-0.4,7.1-8.7c1.2-8.9,2.4-17.7,3.6-26.6c7.3,19.6,11.4,38.7,2.2,58.8c-8.4,18.4-24,24.3-40.9,32.8
		c-17.6,8.9-28.4,22.8-34.3,41.4c-8.7,27.5-17.4,54.9-26.9,82.1c5.8-0.9,14.3-5.4,12.8,3.3c-0.9,5.3-9.4,13.1-12.3,17.8
		c-6.9,11.2-15.3,25.1-15.5,38.6c34.3-5.7,56.2-37.6,82.3-57.1c14.2-10.6,18-15.1,13.6-32.9c-0.9-3.7-5.9-16.6,0.6-17.5
		c1.9-0.3,14.9,22.3,16.7,25.1c6.7-10.2,8.9-19.2,0.9-29.2c-8.1-10.2-19-16.1-14.6-31.2c6.9,8.7,13.8,17.3,20.6,26
		c5.1-12.6-3.5-28.4,8.5-38.4c5.2,25,14.6,52.8-1.8,75.3c-6.9,9.5-13.9,21.9-22.6,29.8c-10.5,9.6-23.5,16.7-34.2,26.4
		c-11.6,10.5-20.3,21.7-34.7,28.5c-13.6,6.5-30.4,10.2-43.1,18.2c-7.3,4.6-20.3,18.7-5.5,23c9.4,2.7,20.4-10.9,27.9-15.3
		c2.2,1.6-0.6,14.7-1,16.7c7.5-5.7,14-12.7,23.8-14.3c-0.1,15.6-14.2,20.2-23.2,30c11.3,3.7,24.1,2,32.4,12.1
		c-22.2,8.9-57.9,2.9-79.8-5.7c-12.8-5-24.6-13.7-38.2-16.1c-4-0.7-13.9-2.4-17.6-0.3c-4.7,2.7-4.3,2-1.6,7
		c5.7,10.3,18.7,9.2,28.4,10.9c10.1,1.8,16.5,7.2,25.2,11.8c16.6,8.6,45.3,11.3,53,29.9c7.8,18.8-2.5,42.1-23.4,43.7
		c-14.7,1.1-19.7,2-32.2,10.6c-3.8,2.6-13.3,6.8-15.5,10.8c-2.8,4.9,1,6.6,4,12c2.8,5.1,2.1,8.5,3.1,13.6c1,4.9,3.6,9.4,5.8,14.4
		c5.1,11.5,5.2,23.5,5.5,35.9c0.6,23.8,1.9,52.6-4.4,75.6c-2.8,10.2-8.1,22-14.8,30.2c-7.2,8.9-13.2,13.1-16.8,24.3
		c-6.4,20.3-32.1,11.1-49.6,11.1c-1.6,5.7,19.6,22.2,24,26.6c8.4,8.3,16.8,16.7,25.5,24.6c16,14.4,32.4,25.8,20.6,48.8
		c-5,9.8-14,17.7-20.2,26.8c-6,8.9-10.6,18.5-15,28.2c-9.8,21.3-18.7,37.9-36,54.1c-12.8,12-30.1,38.3-36.7,7.2
		c-3.1-14.3-0.4-37.9,12.2-47.2c8.1-5.9,19.2-2.6,27.2-8.8c6.7-5.2,11.2-17,15.1-24.4c8.3-16.2,12.6-32.2,11.5-50.4
		c-0.9-14.7-31.3-22-43.2-27.6c-7.9-3.8-16.9-6.2-24.4-10.6c-4-2.4-13.9-12-19.9-8c-5.2,3.5-4.6,26.7-5.5,33.2
		c-1.6,12.1-3.8,24.3-4.8,36.5c-1.7,18.6-6.4,36.7-7.6,55.4c-1.2,19.1-0.6,40.7,6.4,58.8c6.8,17.5,21.5,27.9,35.4,39.4
		c8.9,7.3,16.1,8.3,9.8,17.9c-5.3,8.2-9.8,8.4-18.8,8c-9.9-0.4-22.2-0.2-31.7-3.6c-2.2-0.8-4.3-1.2-6.2-2.6
		c-1.9-1.4-5.1-8.5-6.1-8.9c-6.7-3.2-9.8,3-13.1-8.5c-2.4-8.3-1.6-19-1.5-27.6c0.2-21.6,2.6-42.5,0.2-64.1
		c-4.5-42.2-16.2-81.8-24.7-123.1c-21.5,7.5-42.9,5-65.6,5c-22.3,0-43.1,4.2-65.2-1.1c-9.3-2.2-18.2-4.6-27.6-6.1
		c-5.7-0.9-21-6.2-26.1-5.1c-9.5,2.2-21.2,27.4-26,36.2c-10.4,18.9-17.3,40.3-22.5,61.2c-5.7,22.9,1,40.3,9.5,61.6
		c7.9,19.8,16.4,36.7,29.8,53.3c12.6,15.6,33.8,26.2,51.1,36.4c-2.5,1.5-5.1,3-7.6,4.6c-3.1,0.6-4,2.2-2.4,4.9
		c-2.4,2.8,3.2,1.2-1.8,4.4c-5.2,3.4-25.5-0.9-31.1-1.7c-14.8-2.1-36.1-12.4-44.4-25.6c-9-14.1-8-34.6-15.3-50.1
		c-9.2-19.3-17.5-38.9-26-58.5c-4.3-9.9-11.7-22-13.7-32.7c-1.9-10.1,1.2-6.5,4.8-13.5c2.1-4,2.1-10.5,3.8-15.1
		c2.5-6.9,8-15.7,8.5-22.8c0.7-9.6-10.1,11.6-12.3,15.4c-4.4,7.8-9,15.8-12.3,24.1c-6.1,15.4-12.7,32.7-14.4,49.2
		c-2,19.5,1,39.8,7.8,58.2c6.5,17.3,12.6,26.3,27.4,36.6c3.7,2.6,19.6,12,17.8,17.9c-1.9,6.2-18.7,8.5-23.6,8.9
		c-14.8,1.1-33.9,1.1-43.1-11.7c-10.4-14.4-10-34.5-10.7-51.5c-0.7-18.8-1-37.4-3-56.1c-1.2-10.8-2.6-21.5-4.1-32.2
		c-1.1-7.8-5.3-20.4-3.8-28.2c3-15.2,23.1-20.7,27.5-36.7c4.4-16.1-1.7-36.3-3.4-52.5c-2.2-20.2-9.8-37.4-13.6-57
		c-3.6-18.7-1.5-36.4,1.7-54.9c2.7-15.8,2-24,18.5-27.5c-8.2-6.6-7.3-2.5-15.4,2.9c-7.4,4.9-11.5,6.2-20.5,3.9
		c-10.4-2.7-17.3-8-23.5-16.2c0.1-2.7-0.9-4.8-2.9-6.4c-1.9-1.2-3.8-2.4-5.7-3.7c-3.8-1-4.2-3.2-1.2-6.4c1.3-3.4,2.6-6.9,3.9-10.3
		c7.6-4.1,27.7,7.3,35.6,8.3c28.3,3.5,57-15.6,82.8-24.8c27.9-9.8,55.2-10,84.4-9.2c28.7,0.7,56.7,1.1,85.4-1.1
		c15.3-1.2,31.1-1.7,46-6c12.6-3.6,23.4-11.1,36.5-12.9c14-1.9,28.5-1.2,42.6-2.9c15.7-1.9,22.3-7.3,30.3-21
		c12.3-21.2,23.7-42,34.4-64.1c-10.7-4.9-21.5-8.3-28.8-18.1c-4.2-5.7-13.6-19.6-11.2-27.3c2.7-8.7,20.8-9.5,28-7.8
		c10.2,2.5,15.9,11.9,25,16.3c7.3-24.5-46.5-24.3-60.3-26.8c-13.8-2.5-24.4-2.9-37.9-0.5c-10,1.8-21,1.1-27.6-7.5
		c9.7-2,19.4-3.9,29.1-5.9c-21.9-23.3-38.4-54.7-50.3-84.2c-5.8-14.4-9.3-30.8-19.6-42.9c-9.3-10.8-23.2-17.9-20.9-34.1
		c5.6,2.7,15.9,15.1,21.9,14.3c7.8-1,5.5-13.2,5.8-18.8c1.2-20.3-16.1-31-28.2-46.1c-12.8-15.9-18.3-31.3-18.4-51.8
		c0-5.4-0.9-20.6,3.1-24.8c7.6-7.9,8.1,5.4,8.6,10.9c1.7,19.5,1.3,37.4,13.5,53.7c4.9,6.6,11.7,15.2,19.6,18.3
		c6.5,2.6,4.3,3.5,9.2-2.7c2.3-3,3.6-7.3,4.9-10.9c7.8-20.5-0.1-33.3-3.3-53.7c-2.4-15-0.2-43.9,15.2-50.9
		c3.1,10.6-3.8,20.8-4.8,31.8c-1.1,11.7,0.8,26,8.6,35.5c17.7,21.4,16.9-31.2,19.2-38.6c0.8-2.5,11.6-31.3,18.1-26.2
		c4.5,3.6-7,27.8-7.1,33.6c-0.2,6.3,3,28.3,13.1,16.9c7.5-8.5,2.2-22.5,12.5-30c3.4,8.9-2.5,25.8,9.2,28.3
		c8.5,1.8,25.3-5.5,32.7-9.6c5.5-3,16.7-23,20.5-12.1c3.7,10.5-16.2,23.7-22.9,28.7c7.3,0,14.7,0,22,0
		c-11.8,20.5-38.2,11.2-57.1,12.3c-20.6,1.2-39.1,12.9-51,29.5c-7.1,9.8-23.6,55.6,1.5,36.3c4.5-3.5,18.7-21.3,23.9-19
		c9.2,4-8.1,20.8-12.2,24.6c-15.2,14.1-27.2,24.6-28.9,46.8c-1.7,21.9,7.7,46.6,16.1,66.5c8.3,19.8,20.2,39.7,36.3,54.1
		c17.4,15.5,42,15.9,63.9,18.8c-5.7-19.9-13.4-40.3-16.1-60.8c-1.2-9.1-1-18.2,1.6-27.1c2.5-8.6,8.9-15.8,8.1-24.9
		c-0.6-7.6-6.4-14.2-9.3-21.1c-3.4-8.3-5.4-17.1-5.8-26.1c-0.2-6.2-1.2-19.6,3.4-24.4c6.7-7,5.4,8.2,5.8,12.6
		c1,11.2,5.7,42.3,18.2,47.2c5.5,2.1,16.6-5.1,20.8-8c5.7-3.8,9.1-8.1,11.4-14.6c1.5-4.5,7.8-49.9,14.7-47.4
		c5.3,1.9-0.4,46.1-0.7,53.2c19.9-9.6,32.6-27.7,46.8-43.9c6.1,12.2-8.3,29.9-16.5,37.7c-11.9,11.4-26.5,19.1-41.3,26
		c-27.7,13-44.3,34.6-41.8,66.6c1.7,21.7,13.1,58.3,41.3,56.4c11.4-0.8,24.9-7.3,36.3-9.8c11-2.4,20-8.7,27.2-17.5
		c20-24.6,13-49.6,9.9-78.1c-0.4-3.4-0.7-32.8,9.6-21.8c2,2.1,0.5,9,1,11.8c0.9,5.5,3.1,11.1,6.7,15.5c4.8,5.8,11.9,8.8,12.8,0
		c0.6-5.7-3.6-12.5-2.9-18.9c3.3-30.4,9.3,10.9,13.1,11.6c9.6,1.6,26.1-69,24.3-78.1c-2.8-14-19.2-21.5-30.5-27.6
		c-12.9-6.9-25.7-10.9-40.3-7.7c-22.6,4.9-60.9,18.1-78.6-4.6c26.9,0,55.6,5.7,81.7-5.8c23.9-10.5-12.1-37.1-15.5-49.3
		c30.9,3.5,28.5,42.6,53.6,54.7c6.3,3,13.1,4.6,19.4,7.7c3.9,1.9,15.1,10.1,18.9,9.3c3-0.7,15.4-17,16.9-19.5
		c3.8-6.3,2.6-10.3-0.5-16.7c-7.2-14.7-17.6-28.7-26.4-42.4c-8.5-13.2-16.5-23.2-30.8-30.3c-3-1.5-11.9-3.5-13-7.3
		c-2-7.4,9.4-2.9,13-1.7c5.6,1.8,14,7.5,13.1,0c-0.7-6-9.3-14.7-12.6-19.9c14.5-7.9,36,48.3,42.9,58.4c7.6,11.2,15.9,21.9,24.1,32.6
		c8.4,10.9,13.5,13.5,23.7,3.2C873.2,126.7,880.1,126.6,882.1,119.2z"/>
</g>
</svg>
