<?xml version="1.0" encoding="utf-8"?>
<!-- Generator: Adobe Illustrator 22.0.1, SVG Export Plug-In . SVG Version: 6.00 Build 0)  -->
<svg version="1.1" id="Layer_1" xmlns="http://www.w3.org/2000/svg" xmlns:xlink="http://www.w3.org/1999/xlink" x="0px" y="0px"
	 viewBox="0 0 1080 1080" style="enable-background:new 0 0 1080 1080;" xml:space="preserve">
<style type="text/css">
	.st0{fill:#A14A7B;}
</style>
<g id="Layer_4">
	<path class="st0" d="M402,375.5c4.9-3.2,10-6.5,14.9-9.7c0.8-0.5,2.3-2,3.2-2.1l-0.2,0.1c30.2-21.1,59.8-44.4,93.6-59.6
		c47-20.9,101.5-30.8,152.7-24.9c46.9,5.4,90.9,27.9,129.5,54c19.7,13.3,39,27.1,59.8,38.6c1.8,1,4.9,3.6,6.7,4.2
		c4.8,1.6,6.2-2.4,7.9-6.2c4.6-9.8,9.4-19.6,15.6-28.5c3.9-5.8,8.6-9.8,14.7-12.9c2.9-1.4,6.2-2.8,9.4-3.4c1.7-0.3,9.9,1,10.7,0.3
		c3.1-2.7-5-10.6-2.4-14.8c3-5,5.5,4.9,9.8,1.8c3.1-2.3-2.8-12.6,6.3-11.6c3.9,0.5,7.7,6.3,9.4,9.2c1.5,2.6,4.8,15.3,8,15.1
		c2-0.1,9.2-8.6,11.3-10.3c1.9,13.7,5.2,29,0.8,42.6c-5.7,17.7-20.2,26.1-36.7,15.7c-3.2-2-2.7-3.3-5.6-1.2
		c-1.9,1.3-3.7,8.8-4.8,11.3c-4.2,9-4.8,17.1,4.2,22.9c6.8,4.4,14.5,7.6,21.5,12.1c9.2,6,17.9,12.6,26.3,19.7
		c61.4,51.1,80.2,138.5,44.5,210.5c-31.4,63.3-84.1,118.3-141.8,158c-32.4,22.2-65.3,44.2-102.7,57.2
		c-35.3,12.3-74.1,20.1-111.7,18.5c-38-1.5-75.6-11.9-108-32c-28.3-17.7-52.6-41.1-76.1-64.4c-14.4-14.3-29.9-27.3-47.5-37.8
		c-4.2-2.5-36.6-20-28.5-27.8c5.4-5.3,30.1,10.8,38,13.2c16.9,5.2,33.9,12.4,48.7,22.3c27.4,18.6,54.8,37,83.5,53.7
		c29.9,17.6,72.3,18.8,106.2,15.3c34.4-3.6,68.1-15.4,98.3-32.2c34-19.1,63.4-46.6,90.7-74.3c16-16.3,30-33.5,43.5-51.9
		c9.9-13.4,21.1-27.2,25.9-43.3c8.9-30.5,26.3-76.6-13.3-92.3c-6.7-2.7-14.1-3.7-20.5-7.1c-8.1-4.2-15.6-9.7-23.5-14.1
		c-12-6.7-22.6-9.7-35.8-4c-13.8,6-24.9,17.5-39,22.7c-7.4,2.8-14.6,6.5-19.7,12.9s-4.3,15.5-4.8,23.1c-0.7,9.2-4.8,10.6-11.6,15.5
		c-8.4,6-15.7,7.1-26,8.1c-2.1,0.2-4.5,0-6.7,0.7c-3.3,1-5.3,4.3-8.9,4.3c-3.2,0-6.9-2.4-10.3-2.9c-2.6-0.4-4.9-0.6-7.6,0.2
		c-1.5,0.5-4.7,3.2-6.5,2.6c-2.7-1-1.5-6.5-0.7-8.4c1-2,2.5-3.6,4.5-4.5c1-0.5,5.9-0.1,6.5-1.2c3.4-6.8-14.8-11.4-18.1-12.8
		c-6.4-2.9-14.1-10.4-12.8-18.1c1.5-10.1,11.7-4.3,17-0.8c4,2.8,12.9,11.8,19,9.6c6.2-2.2-2.5-12.1-4.7-16.3
		c-3.1-6-9.5-14.5-5.9-21.7c2.3-4.5,7.1-6.2,11.8-4.4c5.4,1.9,5.5,5.9,7.8,10.2c2.3,4.2,10.2,12.7,13.6,8.2
		c2.8-3.5,2.7-10.5,5.3-14.6c2.1-3.4,4.7-6.7,7.6-9.5c6.5-6.4,14.3-11.2,21.5-16.7c2-1.5,13.4-7.6,13.8-9.8c0.5-3-1.8-3.4-4.6-4.9
		c-4.2-2.3-8.6-4.7-13-6.6c-4.2-1.7-8.8-1.8-12.8-3.8c-3.6-1.8-6.2-4.8-10.2-6.2c-4.2-1.2-8.7-0.3-13-1.6c-3.2-0.9-5.2-2.8-8-4.6
		c-9.1-5.8-18.5-3.7-28.1-6.7c-4.8-1.4-7.4-4.7-12.7-4.8c-4.4,0-6.6,0.5-10.6-1c-8.4-2.9-15.8-1.3-24.2-3.2
		c-8.1-1.8-14.3,0.1-22.2-0.4c-3.8-0.3-7.5-1.4-11.4-1.2c-4.4,0.2-8.5,2.1-12.8,2.6c-7.8,0.8-12.7-1.2-19.8,2.9
		c-7.7,4.6-16.1,6.4-24,10.2c-6.9,3.2-13.9,5.2-21,7.9c-8.6,3.2-15.6,8.6-24.4,11c-8.5,2.3-14.3,6.7-21.9,10.8
		c-6.8,3.8-14.3,4.7-21.8,6.6c-16,3.8-31.7,8.9-47.4,13.4c-6.7,1.9-13.2,3.7-20,5.5c-4.9,1.2-11.3,1.5-15.7,4.1
		c-8,4.7,1,14.5,5,19.8c3,3.8,5.1,7.4,7.5,11.7c4.3,7.9,11.7,14.7,15.1,23c2.3,5.6,1.2,12.3,1.2,18.2c0,17-3.4,32.8-10.3,48.5
		c-4.2,9.6-9.1,17.2-15.9,25.1c-3,3.5-9.9,21-15.4,21.2c-5.5,0.3,0.9-12.9-4.1-14.2c-2-0.5-7.9,3.4-9.9,4.1
		c-4.7,1.6-9.5,2.7-14.3,3.9c-4.7,1.2-16.9,6-12.4-4.8c3.3-8.1,15.3-9.2,20.9-14.2c7.4-6.5-4.7-11-10.2-11c-8,0-15.3-3.8-7.1-11.6
		c7.1-6.8,13.5-3.4,22-5.2c7.1-1.4,11.3-7.8,15-13.5c4.4-7,3.9-14.7,5.6-22.5c1.3-6.4,6.1-13.3,2.3-19.5c-1.8-2.9-5.4-5.3-7.8-7.7
		c-3.8-3.9-7.2-8.3-10.3-12.7c-4.3-6.4-7.3-13.5-12.4-19.2c-3.9-4.3-8-10.4-14-10.9c-4.1-0.4-8.1,0.7-12.3-0.4
		c-5.1-1.3-9.8-4.1-13.9-7.2c-2.3-1.7-4.1-3.9-6.5-5.7c-3.8-2.9-8.2-3.2-12.6-4.6c-4.1-1.2-6.6-3.4-9.8-5.9c-4.2-3.1-8.6-4.5-13.5-6
		c-10.8-3-22.5-6.7-32.6-11.8c-6.7-3.3-12.3-12.2-19.7-12.5c-8.3-0.4-16.2-0.1-24.4-2c-16.9-3.8-33.2-11.2-49.8-16.2
		c-13.4-3.9-26-8.5-35.9-18.7c-1.2-1.3-2.4-3.2-4.1-4.1c-3.1-1.6-6.8-0.5-10-2.3c-4-2.3-5.6-6.5-7.1-10.5c-1.9-4.8-4.7-8.6-7.4-12.9
		c-4.1-6.7-7.2-15.4-4.5-23.1c3.1-9,13.9-15.4,22.1-19.2c4.4-2,9.1-3.8,13.9-4.8c3-0.7,6.4-0.5,8.6-3.2c2.7-3.4,0.3-7.4,1.6-10.9
		c1.6-4.6,7.3-7.4,11.2-9.5c7.6-4.2,16.2-6.9,24.6-3.8c10.5,3.7,11.2,17.4,22.9,17.4c12.6,0.1,26.7,3.8,39.3,6.9
		c8.9,2.2,18.1,4.1,26.8,7.1c8.8,3,17.3,4.6,26.2,6.8c9.4,2.3,16.8,8.9,25,13.5c3.9,2.1,8.8,6.2,13,7.3c5,1.4,8-2.2,11.7-4.8
		c6.7-4.6,18.2-5.5,23.2,2.6c4.1,6.8,0.2,10.6,9.9,9.5c7.9-0.9,16.1-0.9,23.8-1.9C384.1,387,393.5,381,402,375.5z"/>
</g>
</svg>
