<?xml version="1.0" encoding="utf-8"?>
<!-- Generator: Adobe Illustrator 22.0.1, SVG Export Plug-In . SVG Version: 6.00 Build 0)  -->
<svg version="1.1" id="Layer_4" xmlns="http://www.w3.org/2000/svg" xmlns:xlink="http://www.w3.org/1999/xlink" x="0px" y="0px"
	 viewBox="0 0 1080 1080" style="enable-background:new 0 0 1080 1080;" xml:space="preserve">
<style type="text/css">
	.st0{fill:#77395E;}
</style>
<path class="st0" d="M393.5,337.5c4.9-3.2,9.9-6.4,14.8-9.6c0.7-0.5,2.3-2,3.2-2.1c0,0-0.2,0.1-0.2,0.1c30-20.9,59.2-44,92.8-59
	c46.5-20.7,100.5-30.5,151.2-24.7c46.4,5.3,90,27.6,128.3,53.4c19.5,13.2,38.6,26.8,59.2,38.2c1.8,1,4.9,3.6,6.6,4.2
	c4.8,1.6,6.1-2.4,7.8-6.1c4.5-9.7,9.3-19.4,15.4-28.2c3.9-5.7,8.5-9.7,14.7-12.8c2.9-1.4,6-2.8,9.3-3.4c1.7-0.3,9.8,1.1,10.7,0.3
	c3.1-2.6-5-10.4-2.4-14.7c3.1-5,5.4,4.9,9.7,1.8c3.1-2.3-2.7-12.5,6.1-11.5c3.9,0.5,7.6,6.2,9.3,9.2c1.5,2.5,4.7,15.1,7.8,15
	c2-0.1,9.1-8.5,11.2-10.1c1.9,13.6,5.1,28.7,0.8,42.2c-5.6,17.5-20,25.8-36.3,15.4c-3.2-2-2.7-3.3-5.5-1.3
	c-1.9,1.4-3.7,8.8-4.9,11.2c-4.2,8.9-4.8,16.9,4.2,22.7c6.7,4.4,14.4,7.5,21.2,12c9.1,5.9,17.7,12.6,26,19.5
	c60.8,50.7,79.4,137,44.1,208.4c-31,62.7-83.4,117.2-140.4,156.4c-32.1,22-64.7,43.8-101.8,56.6c-35,12.2-73.5,19.9-110.6,18.4
	c-37.6-1.5-74.9-11.8-106.9-31.8c-28-17.5-52-40.7-75.4-63.8c-14.3-14.2-29.7-27-47-37.4c-4.2-2.5-36.2-19.7-28.2-27.6
	c5.3-5.2,29.9,10.7,37.6,13.1c16.7,5.2,33.6,12.2,48.1,22.1c27.1,18.4,54.3,36.6,82.6,53.2c29.7,17.4,71.6,18.6,105,15.1
	c34.1-3.6,67.4-15.2,97.3-31.9c33.7-18.9,62.8-46.1,89.8-73.6c15.8-16.1,29.8-33.3,43.1-51.4c9.8-13.3,20.9-26.9,25.6-43
	c8.8-30.2,26-75.8-13.2-91.4c-6.7-2.6-13.9-3.7-20.3-7c-8-4.2-15.4-9.6-23.2-14c-11.9-6.6-22.5-9.6-35.4-4
	c-13.7,5.9-24.7,17.3-38.6,22.5c-7.3,2.8-14.5,6.4-19.5,12.8c-5,6.5-4.3,15.3-4.8,22.9c-0.6,9.1-4.9,10.6-11.5,15.3
	c-8.2,5.9-15.5,7-25.7,7.9c-2.1,0.2-4.5,0-6.5,0.7c-3.3,1-5.2,4.3-8.8,4.3c-3.3,0-6.9-2.4-10.2-2.9c-2.6-0.4-5-0.5-7.5,0.2
	c-1.6,0.5-4.7,3.2-6.4,2.6c-2.6-1.1-1.5-6.4-0.6-8.3c0.9-2,2.4-3.6,4.5-4.5c1-0.5,5.8-0.1,6.4-1.3c3.4-6.7-14.7-11.3-17.9-12.8
	c-6.2-2.9-13.9-10.3-12.8-17.9c1.5-10,11.6-4.2,16.8-0.7c4,2.8,12.8,11.6,18.8,9.5c6-2.2-2.5-12-4.7-16.1
	c-3.2-5.9-9.4-14.5-5.8-21.5c2.3-4.5,7-6,11.7-4.3c5.3,1.9,5.4,5.8,7.7,10.1c2.2,4.2,10,12.6,13.5,8c2.7-3.5,2.6-10.4,5.2-14.5
	c2.1-3.4,4.7-6.6,7.5-9.4c6.3-6.3,14.2-11.1,21.3-16.5c2-1.5,13.3-7.5,13.6-9.7c0.4-3.1-1.8-3.4-4.6-4.9c-4.1-2.3-8.5-4.7-12.9-6.4
	c-4.2-1.7-8.7-1.8-12.8-3.8c-3.6-1.8-6.1-4.9-10.1-6.1c-4.2-1.3-8.6-0.3-12.9-1.6c-3.2-1-5.1-2.8-7.9-4.6
	c-9.1-5.7-18.3-3.7-27.8-6.6c-4.8-1.5-7.3-4.7-12.6-4.7c-4.4,0-6.4,0.5-10.5-0.9c-8.3-2.9-15.6-1.4-24-3.3c-7.9-1.8-14.1,0.1-22-0.4
	c-3.8-0.2-7.4-1.5-11.3-1.2c-4.4,0.2-8.4,2.1-12.8,2.6c-7.7,0.7-12.6-1.3-19.5,2.9c-7.6,4.6-15.9,6.3-23.8,10
	c-6.8,3.2-13.8,5.1-20.8,7.8c-8.5,3.2-15.4,8.5-24.3,10.9c-8.4,2.3-14.2,6.6-21.6,10.7c-6.7,3.8-14.2,4.6-21.6,6.4
	c-15.8,3.8-31.3,8.9-46.9,13.3c-6.6,1.9-13.1,3.7-19.7,5.4c-4.9,1.3-11.2,1.6-15.5,4.1c-7.9,4.6,0.9,14.5,5.1,19.6
	c3.1,3.8,5.1,7.3,7.4,11.6c4.3,7.8,11.6,14.6,15,22.8c2.3,5.5,1.2,12.2,1.2,17.9c0,16.8-3.4,32.5-10.2,48c-4.2,9.5-9,17-15.7,24.9
	c-3,3.5-9.8,20.8-15.2,21c-5.4,0.2,1-12.8-4.1-14c-2-0.5-7.8,3.4-9.8,4.1c-4.6,1.6-9.4,2.6-14.1,3.9c-4.6,1.2-16.7,5.9-12.4-4.7
	c3.3-8,15.1-9.1,20.7-14c7.3-6.3-4.7-10.9-10.1-10.9c-7.9,0-15.1-3.8-7-11.5c7-6.7,13.4-3.4,21.7-5.1c7.1-1.5,11.3-7.7,14.9-13.4
	c4.4-6.9,3.9-14.6,5.5-22.3c1.3-6.2,6-13.2,2.3-19.3c-1.8-2.9-5.4-5.2-7.7-7.6c-3.8-3.9-7.1-8.2-10.1-12.7
	c-4.3-6.3-7.3-13.4-12.4-19c-3.9-4.3-7.9-10.3-13.9-10.9c-4.1-0.4-8,0.7-12.2-0.4c-5-1.3-9.7-4.1-13.8-7.1c-2.3-1.7-4.1-3.9-6.3-5.6
	c-3.8-3-8-3.2-12.5-4.6c-4.1-1.2-6.4-3.4-9.6-5.8c-4.2-3.1-8.4-4.5-13.4-5.9c-10.8-3.1-22.4-6.6-32.3-11.6
	c-6.5-3.3-12.2-12.1-19.5-12.4c-8.2-0.4-15.9-0.1-24.2-2c-16.8-3.8-32.8-11.1-49.3-15.9c-13.3-3.9-25.8-8.4-35.5-18.6
	c-1.2-1.3-2.4-3.2-4.1-4.1c-3.2-1.6-6.7-0.4-9.9-2.3c-3.9-2.3-5.5-6.4-7.1-10.4c-1.9-4.8-4.6-8.4-7.3-12.8c-4-6.6-7.2-15.2-4.4-22.9
	c3.2-8.9,13.8-15.2,21.9-19c4.4-2,9-3.8,13.8-4.9c3.1-0.7,6.2-0.5,8.4-3.2c2.7-3.4,0.3-7.3,1.6-10.9c1.6-4.5,7.2-7.3,11.1-9.4
	c7.5-4.2,15.9-6.8,24.4-3.8c10.4,3.7,11.1,17.2,22.7,17.2c12.5,0.1,26.4,3.8,38.9,6.8c8.8,2.1,17.9,4.1,26.5,7
	c8.7,3,17.1,4.5,25.9,6.7c9.3,2.3,16.6,8.8,24.8,13.4c3.9,2.1,8.8,6.1,13,7.3c5.1,1.4,7.9-2.2,11.6-4.7c6.6-4.5,18.1-5.4,23,2.6
	c4.1,6.6,0.2,10.4,9.8,9.4c7.8-0.9,15.8-0.9,23.6-1.9C375.7,348.9,385.1,343,393.5,337.5z"/>
</svg>
