<?xml version="1.0" encoding="utf-8"?>
<!-- Generator: Adobe Illustrator 22.0.1, SVG Export Plug-In . SVG Version: 6.00 Build 0)  -->
<svg version="1.1" id="Layer_1" xmlns="http://www.w3.org/2000/svg" xmlns:xlink="http://www.w3.org/1999/xlink" x="0px" y="0px"
	 viewBox="0 0 1080 1080" style="enable-background:new 0 0 1080 1080;" xml:space="preserve">
<style type="text/css">
	.st0{fill:#A14A7B;}
</style>
<g id="Layer_4">
	<path class="st0" d="M393.5,337.5c4.9-3.2,9.9-6.4,14.8-9.6c0.8-0.5,2.3-2,3.2-2.1l-0.2,0.1c29.9-20.9,59.2-44,92.7-59
		c46.5-20.7,100.5-30.5,151.2-24.7c46.4,5.3,90,27.6,128.2,53.5c19.5,13.2,38.6,26.8,59.2,38.2c1.8,1,4.9,3.6,6.6,4.2
		c4.8,1.6,6.1-2.4,7.8-6.1c4.6-9.7,9.3-19.4,15.4-28.2c3.9-5.7,8.5-9.7,14.6-12.8c2.9-1.4,6.1-2.8,9.3-3.4c1.7-0.3,9.8,1,10.6,0.3
		c3.1-2.7-5-10.5-2.4-14.7c3-5,5.4,4.9,9.7,1.8c3.1-2.3-2.8-12.5,6.2-11.5c3.9,0.5,7.6,6.2,9.3,9.1c1.5,2.6,4.8,15.1,7.9,15
		c2-0.1,9.1-8.5,11.2-10.2c1.9,13.6,5.1,28.7,0.8,42.2c-5.6,17.5-20,25.8-36.3,15.5c-3.2-2-2.7-3.3-5.5-1.2
		c-1.9,1.3-3.7,8.7-4.8,11.2c-4.2,8.9-4.8,16.9,4.2,22.7c6.7,4.4,14.4,7.5,21.3,12c9.1,5.9,17.7,12.5,26,19.5
		c60.8,50.6,79.4,137.1,44.1,208.4c-31.1,62.7-83.3,117.1-140.4,156.4c-32.1,22-64.7,43.8-101.7,56.6c-35,12.2-73.4,19.9-110.6,18.3
		c-37.6-1.5-74.9-11.8-106.9-31.7c-28-17.5-52.1-40.7-75.3-63.8c-14.3-14.2-29.6-27-47-37.4c-4.2-2.5-36.2-19.8-28.2-27.5
		c5.3-5.2,29.8,10.7,37.6,13.1c16.7,5.1,33.6,12.3,48.2,22.1c27.1,18.4,54.3,36.6,82.7,53.2c29.6,17.4,71.6,18.6,105.1,15.1
		c34.1-3.6,67.4-15.2,97.3-31.9c33.7-18.9,62.8-46.1,89.8-73.6c15.8-16.1,29.7-33.2,43.1-51.4c9.8-13.3,20.9-26.9,25.6-42.9
		c8.8-30.2,26-75.8-13.2-91.4c-6.6-2.7-14-3.7-20.3-7c-8-4.2-15.4-9.6-23.3-14c-11.9-6.6-22.4-9.6-35.4-4
		c-13.7,5.9-24.7,17.3-38.6,22.5c-7.3,2.8-14.5,6.4-19.5,12.8s-4.3,15.3-4.8,22.9c-0.7,9.1-4.8,10.5-11.5,15.3
		c-8.3,5.9-15.5,7-25.7,8c-2.1,0.2-4.5,0-6.6,0.7c-3.3,1-5.2,4.3-8.8,4.3c-3.2,0-6.8-2.4-10.2-2.9c-2.6-0.4-4.9-0.6-7.5,0.2
		c-1.5,0.5-4.7,3.2-6.4,2.6c-2.7-1-1.5-6.4-0.7-8.3c1-2,2.5-3.6,4.5-4.5c1-0.5,5.8-0.1,6.4-1.2c3.4-6.7-14.7-11.3-17.9-12.7
		c-6.3-2.9-14-10.3-12.7-17.9c1.5-10,11.6-4.3,16.8-0.8c4,2.8,12.8,11.7,18.8,9.5c6.1-2.2-2.5-12-4.7-16.1
		c-3.1-5.9-9.4-14.4-5.8-21.5c2.3-4.5,7-6.1,11.7-4.4c5.3,1.9,5.4,5.8,7.7,10.1c2.3,4.2,10.1,12.6,13.5,8.1
		c2.8-3.5,2.7-10.4,5.2-14.5c2.1-3.4,4.7-6.6,7.5-9.4c6.4-6.3,14.2-11.1,21.3-16.5c2-1.5,13.3-7.5,13.7-9.7c0.5-3-1.8-3.4-4.6-4.9
		c-4.2-2.3-8.5-4.7-12.9-6.5c-4.2-1.7-8.7-1.8-12.7-3.8c-3.6-1.8-6.1-4.8-10.1-6.1c-4.2-1.2-8.6-0.3-12.9-1.6
		c-3.2-0.9-5.1-2.8-7.9-4.6c-9-5.7-18.3-3.7-27.8-6.6c-4.8-1.4-7.3-4.7-12.6-4.8c-4.4,0-6.5,0.5-10.5-1c-8.3-2.9-15.6-1.3-24-3.2
		c-8-1.8-14.2,0.1-22-0.4c-3.8-0.3-7.4-1.4-11.3-1.2c-4.4,0.2-8.4,2.1-12.7,2.6c-7.7,0.8-12.6-1.2-19.6,2.9
		c-7.6,4.6-15.9,6.3-23.8,10.1c-6.8,3.2-13.8,5.1-20.8,7.8c-8.5,3.2-15.4,8.5-24.2,10.9c-8.4,2.3-14.2,6.6-21.7,10.7
		c-6.7,3.8-14.2,4.7-21.6,6.5c-15.8,3.8-31.4,8.8-46.9,13.3c-6.6,1.9-13.1,3.7-19.8,5.4c-4.9,1.2-11.2,1.5-15.5,4.1
		c-7.9,4.7,1,14.4,5,19.6c3,3.8,5,7.3,7.4,11.6c4.3,7.8,11.6,14.6,15,22.8c2.3,5.5,1.2,12.2,1.2,18c0,16.8-3.4,32.5-10.2,48
		c-4.2,9.5-9,17-15.7,24.9c-3,3.5-9.8,20.8-15.2,21c-5.4,0.3,0.9-12.8-4.1-14.1c-2-0.5-7.8,3.4-9.8,4.1c-4.7,1.6-9.4,2.7-14.2,3.9
		c-4.7,1.2-16.7,5.9-12.3-4.8c3.3-8,15.1-9.1,20.7-14.1c7.3-6.4-4.7-10.9-10.1-10.9c-7.9,0-15.1-3.8-7-11.5c7-6.7,13.4-3.4,21.8-5.1
		c7-1.4,11.2-7.7,14.9-13.4c4.4-6.9,3.9-14.6,5.5-22.3c1.3-6.3,6-13.2,2.3-19.3c-1.8-2.9-5.3-5.2-7.7-7.6
		c-3.8-3.9-7.1-8.2-10.2-12.6c-4.3-6.3-7.2-13.4-12.3-19c-3.9-4.3-7.9-10.3-13.9-10.8c-4.1-0.4-8,0.7-12.2-0.4
		c-5-1.3-9.7-4.1-13.8-7.1c-2.3-1.7-4.1-3.9-6.4-5.6c-3.8-2.9-8.1-3.2-12.5-4.6c-4.1-1.2-6.5-3.4-9.7-5.8c-4.2-3.1-8.5-4.5-13.4-5.9
		c-10.7-3-22.3-6.6-32.3-11.7c-6.6-3.3-12.2-12.1-19.5-12.4c-8.2-0.4-16-0.1-24.2-2c-16.7-3.8-32.9-11.1-49.3-16
		c-13.3-3.9-25.7-8.4-35.5-18.5c-1.2-1.3-2.4-3.2-4.1-4.1c-3.1-1.6-6.7-0.5-9.9-2.3c-4-2.3-5.5-6.4-7-10.4
		c-1.9-4.8-4.7-8.5-7.3-12.8c-4.1-6.6-7.1-15.2-4.5-22.9c3.1-8.9,13.8-15.2,21.9-19c4.4-2,9-3.8,13.8-4.8c3-0.7,6.3-0.5,8.5-3.2
		c2.7-3.4,0.3-7.3,1.6-10.8c1.6-4.6,7.2-7.3,11.1-9.4c7.5-4.2,16-6.8,24.4-3.8c10.4,3.7,11.1,17.2,22.7,17.2
		c12.5,0.1,26.4,3.8,38.9,6.8c8.8,2.2,17.9,4.1,26.5,7c8.7,3,17.1,4.6,25.9,6.7c9.3,2.3,16.6,8.8,24.8,13.4
		c3.9,2.1,8.7,6.1,12.9,7.2c5,1.4,7.9-2.2,11.6-4.8c6.6-4.6,18-5.4,23,2.6c4.1,6.7,0.2,10.5,9.8,9.4c7.8-0.9,15.9-0.9,23.6-1.9
		C375.7,348.9,385.1,343,393.5,337.5z"/>
</g>
</svg>
