<?xml version="1.0" encoding="utf-8"?>
<!-- Generator: Adobe Illustrator 22.0.1, SVG Export Plug-In . SVG Version: 6.00 Build 0)  -->
<svg version="1.1" id="Layer_4" xmlns="http://www.w3.org/2000/svg" xmlns:xlink="http://www.w3.org/1999/xlink" x="0px" y="0px"
	 viewBox="0 0 1080 1080" style="enable-background:new 0 0 1080 1080;" xml:space="preserve">
<style type="text/css">
	.st0{fill:#A14A7B;}
</style>
<g>
	<path class="st0" d="M736.1,950.3c-32.1-4.1-64.1-8.2-96.2-12.4c-8.1-1-16.2-1.9-24.2-3c-4.9-0.7-10.6-2.8-15.4-1
		c-4.3,1.6-7.8,6.1-11.3,8.8c-5.6,4.5-11.8,8.2-18.4,11.2c-22.1,10-49.8,11.8-73.2,5.7c-12.6-3.3-21.5-11.1-32.3-17.7
		c-4.8-2.9-10.5-6.9-16-8.3c-7.6-2-16.9,0.3-24.6,1c-31.9,2.8-63.9,6.5-96,7.4c-15.9,0.5-31.7,0.2-47.6,0
		c-10.2-0.2-18.5,0.6-20.5-10.9c-2.1-11.7,2.6-23.5-3.9-34.4c-3.2-5.5-7.7-9.5-10.1-15.6c-2.7-6.8-3.4-14.1-3.9-21.3
		c-1.9-29.9-2.6-58.6,3.6-87.9c1.8-8.7,5.2-19.4-4.3-24.2c-13-6.6-30.6-8.4-44.7-12.5c-13.6-3.9-24.9-7.1-36.3-15.7
		c-11.5-8.6-24.5-13.7-37.2-20.1c-24.1-12.1-45.4-34.1-53.8-59.9c-9.5-29.3-9.4-62.4-5.2-92.6c1.8-13.4,5.1-27.9,2.7-41.4
		c-2.3-12.8-4.5-23.2,3.6-34.7c6.3-8.9,15.9-14.8,20.6-25c5.8-12.3-1.7-24.2,2.8-36.3c4.1-11,13.5-15.8,20.7-24.2
		c7.5-8.6,11-19.4,11.7-30.7c0.7-12.1,0.8-21.4,9.4-31.1c8.1-9.1,19.4-11.6,28.5-19c9.5-7.8,8.7-17.8,12.5-28.5
		c3.9-10.8,10.8-21.1,21.2-26.5c9.5-5,20.7-4.5,30.3-9.5c10.5-5.3,17.1-13.8,22.7-23.8c5.3-9.5,11.9-17,22.1-21.2
		c10.9-4.6,22.6-2.7,33.5-6.4c10.5-3.6,16.8-13,24.3-20.5c8.9-8.9,19.1-16.5,31.8-18.8c13.7-2.5,25.9,3,39.2,2.1
		c12.7-0.9,22.4-12.1,32.8-18.3c12.4-7.4,25.6-11.7,40.2-9.9c13.5,1.7,26.7,12.9,40.3,8.4c13.4-4.5,25.3-13,39.6-14.8
		c16.3-2,27.5,5.5,41.6,11.6c26.3,11.4,49.5-10,76.1-3.2c12,3,23.4,10.1,30.8,20.1c5.8,7.9,8.9,15.4,19.7,15.9
		c12.2,0.6,23.5-3.1,35.9-0.9c10.7,2,20.6,6.8,27.8,15c7.7,8.7,10.2,20,21.8,24.8c12.2,5,26.4,1.4,38.9,6.7
		c9.7,4.2,15.4,12.8,19.9,21.9c4.2,8.8,5.1,20.1,11.5,27.6c6.4,7.4,15.7,8.4,24.4,11.2c9.3,3,17.7,8.4,23.3,16.5
		c5.6,8.2,8,18.2,8.5,28c0.6,11,1.1,22,11.2,28.9c8.5,5.7,19.2,7.3,27.7,13.4c11.2,8,13.1,18.5,16.2,31.2
		c3.6,14.6,4.5,25.9,2.8,40.7c-2,16.4,11.3,23.1,18.3,35.8c13.3,24.5-8,46.4-0.1,70.6c1.9,5.9,4.8,11.4,4.6,17.8
		c-0.1,2.1-1.6,5.6-1.4,7.6c0.3,3.5,3,7.6,3.6,11.3c1,6.1,0.5,12.2-1.3,18.1c-2,6.6-7.1,12.4-7.9,19.3c-1.4,11.7,2.5,22.7-0.9,34.6
		c-3.5,12.5-10.7,23.5-18.2,34c-3,4.2-6.1,10.1-10.2,13.4c-4.1,3.3-9.9,4.9-14.5,7.5c-11.1,6.4-21.2,14.5-32.2,21.1
		c-10.2,6.1-22.6,12-34.4,13.5c-14.3,1.8-25.6,6.1-38.5,12.5c-12.6,6.2-25.1,11.7-38.8,14.8c-12.4,2.8-23.3,5.1-31.8,15.4
		c-8.2,9.8-7.4,19-8.7,30.7c-0.7,6.8-3.8,12.7-4.1,19.7c-0.4,8.1,1.3,16.2,3.1,24.1c3.2,13.3,2.5,24.3,0.9,37.8
		c-1.6,13.5-9,23.8-12.3,36.8c-1.8,7.3-3.2,18.3-9.7,23.2C755.1,948.9,736.1,949.9,736.1,950.3z"/>
</g>
</svg>
