<?xml version="1.0" encoding="utf-8"?>
<!-- Generator: Adobe Illustrator 22.0.1, SVG Export Plug-In . SVG Version: 6.00 Build 0)  -->
<svg version="1.1" id="Animal" xmlns="http://www.w3.org/2000/svg" xmlns:xlink="http://www.w3.org/1999/xlink" x="0px" y="0px"
	 viewBox="0 0 1080 1080" style="enable-background:new 0 0 1080 1080;" xml:space="preserve">
<style type="text/css">
	.st0{fill:#77395E;}
</style>
<path class="st0" d="M607.9,646.8c-7.8,14.5-9.9,26.9-22.2,39.2c-11.9,11.8-26.7,21.1-41.3,29.2c-25.4,14.2-51.8,26.7-78.2,39
	c-77.2,35.8-155.5,64.2-241.9,59.6c-62.1-3.3-114.9-47.4-146.7-98.7c-9.2-14.9-18.3-30.8-12.5-48.2c4.8-14.5,11.4-31.7,11.5-47.2
	c0.1-7.5-3-6.6-10-7.9c-8.4-1.5-17.2-4.3-22.8-11.2c-5-6.2-7-14.8-4.6-22.4c2.9-9.5,10.7-11.6,17.1-17.7c11.6-11,15.4-30.2,25-43.2
	c10.1-13.6,20.6-28.6,35.2-37.8c12.8-8.1,31.1-6.3,40.8-17.6c4.7-5.5,7.9-12.8,13.6-17.5c5.6-4.6,13-3.9,16.9-10.4
	c2.6-4.3,2.5-9.9,5.2-14.3c2.9-4.8,7.5-9,10.9-13.5c10.7-13.9,19.9-24.9,33.8-35.6c29-22.3,52.3-49.6,86.4-64.8
	c36.6-16.3,77.3-26.7,116.7-33.1c39.4-6.4,79.3-10.4,118.7-1.1c17,4,31.6,11.2,47.6,17.7c8.7,3.6,13.8,3.2,22.4,0
	c10-3.7,19.6-4,30.2-3.4c39.7,2.2,80.3,12.6,117.1,27.7c10.2,4.2,19.5,11.6,30.4,14c7.6,1.7,15.2-0.6,22.8-0.3
	c10.3,0.5,21,3.4,30.9,5.9c8.8,2.3,16.3,6.1,24,10.6c6.4,3.8,8.4,3.5,16,3.1c9.9-0.5,20.6,1,30.1,3.9c6.5,2,12.1,7,18.5,8.5
	c6.9,1.7,13.8-0.9,20.9,1.5c5.5,1.8,12.1,4.9,17.2,7.7c2.1,1.2,3.7,2.7,5.5,3.8c3.4,2.2,3.1,2.1,6.9,3.1c6.1,1.6,10.8,4,17.1,5.1
	c9.1,1.7,27,8.4,19.5,20c-2.1,3.2-7.5,5.8-10.1,8.6c-0.9,1-2.1,2.1-2.9,3c-0.8,0.9-0.7,2.6-1.5,3.6c-2.4,2.9-6.1,5.2-9.4,6.8
	c-2.2,1.1-6.4,1.7-8.4,3.1c-2.8,2-4.2,6.3-7.6,8.3c-1.5,0.9-16.4,5.9-15.5,7.2c0,0,2.7-2.3,3-2c4.7,4.9-34.3,27.2-37.9,28.9
	c-7.3,3.3-8.6,6.3-13.1,12.2c-4.5,5.8-11.4,9.8-17.6,13.4c-12.2,7.1-25.7,15-38.8,20.4c-4.6,1.9-10.6,2.2-14.9,4.4
	c-4.2,2.2-7.6,6.8-11.3,9.9c-15.4,13.2-31.2,23.3-50.1,30.9c-8.3,3.3-16.7,5.9-25.4,8.1c-8.7,2.2-16.7,1.9-25.2,3.3
	c-5.7,1-5.9,3.6-9.8,8.7c-6.5,8.6-14.4,15.1-23.4,20.8c-10.6,6.7-21.9,12.5-33.2,17.9c-14.3,6.8-28.9,13.7-44.2,18.1
	C631.6,638.4,611.9,639.2,607.9,646.8z"/>
</svg>
