<?xml version="1.0" encoding="utf-8"?>
<!-- Generator: Adobe Illustrator 22.0.1, SVG Export Plug-In . SVG Version: 6.00 Build 0)  -->
<svg version="1.1" xmlns="http://www.w3.org/2000/svg" xmlns:xlink="http://www.w3.org/1999/xlink" x="0px" y="0px"
	 viewBox="0 0 1080 1080" style="enable-background:new 0 0 1080 1080;" xml:space="preserve">
<style type="text/css">
	.st0{fill:#77395E;}
</style>
<g id="Animal">
</g>
<g id="Layer_4">
	<g>
		<path class="st0" d="M224.6,742.1c0.2,3.1,0.9,6.3,0.1,9.4c-0.8,2.9-2.8,4.1-4,6.6c-1.5,3.3,0.5,6-4.8,5.9c-2.7,0-6.5-2.1-9-3.2
			c-5.6-2.5-10.6-6.9-15.4-10.8c-5.5-4.4-6.2-10.8-10.7-15.6c-4.1-4.4-10.1-6-13.1-11.7c-3-5.6-2.8-12.8-6.5-18
			c-1.5-2.1-2.6-2-4.4-3.2c-2.1-1.5-3.7-3.8-5.1-5.9c-3.8-5.5-6-11.5-8.2-17.7c-2.1-5.9-6.8-9.5-9.6-14.9
			c-2.5-4.8-0.6-16.5-5.6-18.3c-4.8-1.8-10.9,0.7-15.9-0.3c-5.4-1.1-9.5-5.1-12.4-9.6c-3.3-5.2-4.8-10.9-8.5-15.7
			c-1.7-2.3-2.9-4.6-4.4-7.1c-1.8-3-4.1-5-6.2-7.8c-3.8-5.3-6.6-11.3-10.5-16.6c-4.2-5.7-9.7-10.7-13-17c-3.3-6.3-4.6-13.8-9.3-19.3
			c-3.2-3.8-9.7-6.4-9.5-12.1c0.1-3.1,2.1-5.3,2.1-8.5c-0.1-4-1.3-8.3,0.8-12.3c3.1-5.9,10.7-3.9,16.1-3.5c-2.5-4.8-6-9.7-4.8-15.4
			c1.2-5.6,5.7-10.4,8.9-14.9c6.2-8.9,17.6-15.5,28.1-18c4.8-1.1,11-0.7,11.6-6.5c0.5-5.1,1.2-9.4,2.7-14.5c1.3-4.5,3.6-7.7,5-12.2
			c2-6.1,5.1-11.9,7.7-17.9c2.5-5.8,3.2-11.1,4.8-16.9c0.7-2.4,2.1-4.2,3.4-6.2c1.8-2.8,2.3-5.7,3.7-8.6c1.3-2.6,3.7-4.7,5.1-7.3
			c1.2-2.4,1.9-5,3.3-7.4c2.6-4.5,7-7.4,10.5-11.1c8.2-8.8,19.1-14.9,26.5-24.4c3.6-4.6,6.7-9,11.2-12.7c5.1-4.2,9.2-9.3,14.2-13.5
			c19.2-16.1,42.8-27.5,64.4-40c22.9-13.3,46.9-24.5,70.4-36.8c22.4-11.7,44.6-23.4,67.1-35.2c6.1-3.2,12.3-6.4,18.6-9
			c2.4-1,4.7-0.9,7.1-1.6c3.5-1,7-3.1,10.3-4.6c5.9-2.8,11.6-5.9,18-7.5c6.3-1.5,12.5-2.4,18.8-4.1c6.8-1.8,13.1-1.6,20-1.7
			c7.3-0.1,14.5-1.7,21.7-1.3c6.5,0.4,13-0.7,19.5,0c6.9,0.7,13.1,0.8,20,0.7c5.9-0.1,11.7,2.4,17.5,1.8c3.1-0.3,6.8-2,9.8-1.2
			c2.8,0.7,4.2,2.6,7.2,2.9c6.1,0.7,11.4-1,17.5,0.7c5.8,1.7,12.1,1.5,18.2,2.4c3,0.5,3.3,1.6,5.6,2.8c1.9,1,4.2,1.2,6,2.2
			c1,0.6,1.9,2.6,2.8,3c0.9,0.4,3.1,0,4.1,0c2.3,0.1,5,0,7,1.2c3.8,2.4,2.6,6.5,4.4,9.9c1.2,2.2,2.6,2.3,4.5,3.5
			c3.3,2,4.9,4.1,7.4,6.9c3.8,4.2,8,2.9,12.3,5.7c5.3,3.3,9.8,6.1,16,7.8c5.8,1.6,8.7,3.8,13.4,7.3c3.9,2.9,8,3.6,10.6,8.2
			c1.6,3,2.1,4,5.1,5.9c0.4,0.2,3,1.5,3.4,2.1c0.6,0.9-0.1,3.8,0.6,4.8c1.2,1.4,3.6,1.8,5,3.7c2.1,3,1.5,3.3,4.8,4.9
			c5.3,2.6,3.8,6.3,6.9,10.6c3.1,4.2,6,6.5,9.9,10.1c3.8,3.6,5.8,7,8.3,11.3c0.1,0.3,0.1,0.6,0.2,1c-0.1,1.2,0.4,1.5,1.7,1
			c0.8,0.6,1.4,0.2,2.7,1.3c2,1.6,2.3,4.2,3.4,6.3c1.5,2.8,2.5,2.2,5,4.3c1.7,1.4,2.4,2.8,3,4.9c0.7,2.6,0.6,4.2,2.2,6.6
			c1.9,2.8,3.3,4.5,4.2,7.9c0.6,2.3,0.6,4.5,2.1,6.4c1.4,1.8,3.3,1.8,4.3,4.2c0.9,2.3-0.3,4.4,0.8,6.2c1.5,2.3,4.4,2.8,5.7,5.5
			c1.9,3.8,4.4,9.8,4.8,14c0.2,2.7-0.4,4.2,0.8,6.2c1,1.7,3.2,2,4.1,4.2c0.9,2.2,0.3,4.3,2,6.3c1.5,1.8,3.8,2.3,4.4,4.9
			c0.6,2.5-1,4.8-0.4,7.4c0.3,1.3,1.7,2.5,1.9,3.9c0.3,1.9-0.9,3.3-0.9,5c-0.1,4.8,4.1,3.6,5.3,7.7c0.7,2.3-1.5,4.8-1,7
			c0.4,1.7,3.1,2.7,4.4,4.9c3.1,5,0.4,9.4-1.8,14.2c-0.6,1.3-1.3,2.4-1.5,3.8c-0.3,2.9-0.3,0.6,0.8,3.7c0.9,2.5,2,4.1,1.9,6.9
			c-0.1,2.6-1.1,4.9-1.6,7.5c-0.6,3.4,0.5,4.6,1.4,7.7c0.7,2.4,0.4,4.1,1.9,6c1.8,2.1,5,2.8,7,4.6c2.6,2.1,2.2,3.6,6,3.4
			c3.2-0.2,5.6-1.4,8.4-2.8c5.7-2.8,11.9-3.5,16.5-8.1c9.5-9.5,18.2-20,27.6-29.7c9.5-9.7,20.4-18.1,30.6-27
			c9.7-8.5,21.5-14.6,32-22.2c8.4-6.1,17-18.2,28.7-15.7c3.7,0.8,10.2,2.2,13.1,4.8c1.6,1.4,1.7,3,2.6,4.8c0.5,1,1.6,1.5,2,2.6
			c0.4,1-0.3,3.3,0,4c0.8,1.7,3.8,2.1,5.7,3.9c2.6,2.6,1.8,3.5,1.7,6.6c-0.1,1.9-1,2.1,0.1,3.5c0.7,0.8,2.6,1.2,3.6,1.6
			c1.8,0.8,4.1,1.2,5.4,2.9c1.2,1.5,0.8,3.2,1.3,4.9c0.8,2.9,2.4,4.7,3.9,7.3c1.4,2.4,2.2,5.1,3.1,7.7c0.4,1.2,1.3,2.8,1.4,4
			c0.2,1.3-0.6,3.2-0.3,4.2c0.6,2.5,3,5.1,3.8,7.8c0.8,2.8,0.8,5.6,0.9,8.5c0.2,7.3,3.4,11.8,6.3,18.3c2.5,5.5,2.5,11.4,4.8,16.9
			c2.7,6.3,3.1,11.3,3,18.2c-0.1,7-2.4,12.9-4.3,19.5c-2,6.9,2.1,12.5,0.9,19.2c-1,5.5-3.7,10.6-4.6,16.3c-1,6.5-1.7,12.5-4.2,18.6
			c-2.4,5.9-2.4,11-3.3,17.3c-0.9,6.5-5,11.7-6.7,17.9c-1.6,5.8-3.6,11.2-6.4,16.6c-1.4,2.7-3,5.1-3.4,8.2c-0.5,3.1-0.5,4.3-2.5,7.1
			c-3.2,4.6-6.6,10.1-10.5,14.1c-4.3,4.5-7.4,1.9-12.8,1.5c-5.7-0.4-9.3-0.9-14.7-3.6c-5.7-2.8-11.1-6.4-17-8.7
			c-25.4-10-47.4-26.1-68.6-43.2c-9.6-7.7-18.3-16.9-31.5-16.3c-1.8,0.1-6,1.4-7.7,0.8c-1-0.4-1.7-2.4-2.5-2.9
			c-0.7-0.4-4.1-0.3-4.6-0.3c-5.8,0.2-10.4,4.2-13.3,9c-3.5,5.7-1.3,8.7,1.2,14.3c3.2,7.3,0.1,11.6-0.4,19c-0.2,3.1,0.9,5.5,1.2,8.5
			c0.3,3.2-0.7,3.8-2.1,6.5c-2.9,5.3-3.6,11.6-5.8,17.2c-2,5.1-4,9.7-6.9,14.4c-3.1,5-2.5,11.1-6.7,14.9c-2.4,2.2-2.1,2.2-3.4,5.1
			c-1.3,2.7-4,2.7-5.5,5c-1.3,1.9-0.8,4.7-2.6,6.9c-2.4,3-6,5.2-7.7,8.7c-1.8,3.5-0.6,8.2-2.8,11.5c-1.4,2.1-3.5,1.6-4.6,3
			c-1.1,1.3-0.2,4.1-1.1,5.6c-1.3,2.3-2.9,1-4.3,2.4c-1.5,1.5-0.7,5.3-2.2,7.3c-1.4,1.9-3.7,2.2-4.6,4.4c-0.8,1.9-0.1,4.5-0.9,6.5
			c-1.8,4.3-6.2,3.4-7.6,7.4c-0.7,2.1-0.3,7.5-1.8,9c-0.9,0.9-3.2,0.2-4.1,1.1c-0.7,0.6-1.8,5.1-2.3,6.1c-1.2,2.3-2.9,4.1-4.5,6.1
			c-2.4,3.2-2.2,3.7-3.1,7.5c-1.3,5.8-6,6.2-9.3,10.5c-1.5,1.9-1.9,4.3-3.3,6.2c-1.6,2.1-3.8,2.5-5.8,4c-4.2,3.2-3.1,8.5-8.1,10.8
			c-5.4,2.5-2.6,2.4-4.7,7.7c-0.9,2.4-2.7,2.7-4.6,4c-2.9,2.1-4,4.8-4.8,8.3c-0.5,2.2-0.3,4.5-2,6.3c-1.6,1.8-3.9,1.3-5.6,2.7
			c-3.8,2.9-2,8.5-4.3,12.2c-1.2,2-3.6,1.7-4.7,3.1c-1.2,1.4-1,4.7-1.6,6.4c-0.7,2-1.9,4.8-4.1,5.8c-0.9,0.4-2.7,0-3.5,0.3
			c-2.7,0.8-1.8,0-2.9,2.9c-1.8,4.8-1.2,5.8-6.4,6.9c-2.5,0.5-4.1,0.7-5.9,2.7c-1.9,2-1.8,4.8-4.4,6.3c-1.7,0.9-3.8,0.4-5.4,1.3
			c-2.4,1.3-2.6,3.5-4.6,5.2c-4.2,3.6-10,0.1-14.5,3.6c-4.8,3.8-6.9,4.3-13.1,3.9c-6.2-0.4-11.7,3.2-17.9,3.5
			c-3.6,0.2-4.5,0.3-7.7,1.6c-2.5,1-4.1,1.6-7,1.4c-7.3-0.5-14.6,0.1-21.8-0.8c-3.1-0.4-6.2-1.3-9.3-1.4c-2.6-0.1-5,0.8-7.6,0.5
			c-7.5-0.7-14.5-2.4-22.1-2.4c-6.2,0-10.8-2-16.8-2.9c-6.8-1.1-12.6-1.7-19.2-3.8c-4.8-1.5-10.2-3.4-15.2-3.8
			c-6.7-0.4-12.8-1.4-19.6-2.3c-6-0.8-11.8-2.4-17.9-2.6c-3.2-0.1-6.6,0.6-9.8,0.1c-3.3-0.5-5.6-2.4-8.6-3.8
			c-5.4-2.5-9.6-0.4-14.9-1.2c-6.5-0.9-11.7-5-18.4-5.3c-5.8-0.3-9.3-2.9-14.3-5.7c-5.4-3-11.1-2.4-16.2-6.3
			c-4.8-3.7-7.7-4.6-13.5-5.7c-6.8-1.3-10-7.2-15.4-11c-4.3-3-9-3-13-6.8c-2.1-2-3.9-4.4-6.5-5.8c-2.6-1.5-5.1-1.2-7.9-1.9
			c-4.7-1.3-7.5-5-10.1-8.9c-1.3-1.9-2.4-4.5-4.5-5.7c-2.5-1.6-4.7-1.3-6.9-3.7c-3.7-4.1-4.4-10.5-8-14.9c-3.4-4.2-8.4-3.9-11-8.1
			c-6.5-10.3-3.2-23.4-10.8-33.2C246.7,763.8,226.7,740.9,224.6,742.1z"/>
	</g>
</g>
</svg>
