<?xml version="1.0" encoding="utf-8"?>
<!-- Generator: Adobe Illustrator 22.0.1, SVG Export Plug-In . SVG Version: 6.00 Build 0)  -->
<svg version="1.1" id="Shark" xmlns="http://www.w3.org/2000/svg" xmlns:xlink="http://www.w3.org/1999/xlink" x="0px" y="0px"
	 viewBox="0 0 1080 1080" style="enable-background:new 0 0 1080 1080;" xml:space="preserve">
<style type="text/css">
	.st0{fill:#C7432B;}
</style>
<path class="st0" d="M265.5,451c27.5-2.3,56.1-0.4,83.2-5.1c17.1-2.9,29.2-17.3,40.2-29.8c15.9-18.1,31-36.9,49.3-52.7
	c7.1-6.1,19.9-19.3,30.5-12.8c12.1,7.4,4.6,29,2.8,39.5c-2.9,16.8-6.7,34.4,11.7,43.3c22.8,11,50.7,16.2,75.5,19.8
	c34.6,5,68.9,11.9,103.5,16.8c9.4,1.3,18.6,2.8,27.9,4.5c8.9,1.6,16.6-0.4,24.7-4.3c5.5-2.6,9.6-8.3,15.4-5.5
	c3.3,1.6,7.2,6.5,10.5,8.7c5.9,4,12.4,8.2,19.2,10.5c10.1,3.4,23,8.5,33.7,6.6c11.1-2,18-10.9,26.6-17.3
	c13.8-10.2,28.9-17.3,45.6-21.2c41-9.7,80.3-25.7,120.7-37.5c11-3.2,21.9-5.8,33.1-8c4.5-0.9,16.3-5.3,19-4.4c5.9,2-1.2,4.9-4,7
	c-5.3,4.1-11,7.5-16.4,11.4c-5.6,4-5.4,5.5-8.3,11.3c-0.7,1.4-2.7,5.4-4,5.9c-3.8,1.5-3.1-2.5-6.5-2.7
	c-11.5-0.7-27.7,14.2-37.8,19.7c-6.8,3.8-13.9,7.2-20.5,11.5c-20.8,13.5-36.2,33.5-55.9,48.3c-8,6-23.6,11.5-27.2,21.3
	c-3.8,10.3,4.3,28.4,7.3,38.1c2.9,9.3,6.6,16.7,11.6,25.1c9.9,16.6-0.6,22.5-16.7,13.2c-25.2-14.5-40-42.7-57.5-64.6
	c-4.5-5.6-9.9-16.5-15.6-20.3c-4.4-2.9-9.7-2-15-1.8c-4.1,0.1-31.1,2.1-29.7,6.9c0.6,3.5,6-0.2,3.8,4.9c-1.2,3-9.3,0.9-10.8,3.7
	c-5.5,9.7,13.5,5,8.7,13.9c-3.7,6.8-22.3,0-26.8-2c-7.5-3.2-13.1-9.8-21.1-11.6c-17.6-4-39.8,4.1-57.1,8.3c-3.2,0.8-47.2,7.7-47.1,7
	c-1,2,15.6,6.6,16.8,8c6.4,7.9-11.5,5.7-16.9,9.3c-6.6,4.4-7.8,14.2-17.6,11.7c-6.8-1.8-14.3-9.9-19.8-14.3
	c-9.3-7.5-17.1-4.3-28.8-1.7c-10.2,2.3-19.9,6.1-30.2,8c-19,3.6-38.4,5.2-57.7,6.4c-22.4,1.4-44.2,1.1-66.5-0.4
	c-13-0.9-17.6-3.1-22.2,10.4c-3,9-5.5,17.7-5.8,27.3c-0.7,20.6,5.8,40.1,7.3,60.5c0.8,10.4,9.4,39.6-0.1,46
	c-12.9,8.6-52.2-68.8-57.5-82.8c-6.5-17.2-11.4-34.8-16.9-52.3c-1.3-4.2-2.3-10.1-4.2-13.7c-1.7-3.2,1.6-1.8-1.1-3.7
	c-1.9-1.2-10.7,0-12.9-0.1c-21.8-1.2-42.3-7.7-63.3-13c-18.8-4.8-37.7-8.9-56.4-14c-6-1.6-16.1-2.7-20.7-7.6
	c-10.9-11.7,10.9-4.8,9.4-12.2c-0.6-2.9-16.8-4.2-19.9-5.2c-14.2-4.7-27.6-13.2-40.8-20c-5.7-2.9-30.9-11.7-28.4-20
	c2.1-7,17.4-7.4,22.8-8.2c18.4-2.6,36.5-5.6,54.9-8.6C165.4,458.4,215.4,455.1,265.5,451z"/>
</svg>
