<?xml version="1.0" encoding="utf-8"?>
<!-- Generator: Adobe Illustrator 22.0.1, SVG Export Plug-In . SVG Version: 6.00 Build 0)  -->
<svg version="1.1" id="Shark" xmlns="http://www.w3.org/2000/svg" xmlns:xlink="http://www.w3.org/1999/xlink" x="0px" y="0px"
	 viewBox="0 0 1080 1080" style="enable-background:new 0 0 1080 1080;" xml:space="preserve">
<style type="text/css">
	.st0{fill:#C7432B;}
</style>
<path class="st0" d="M265.5,451c14.6-1.2,19.7-1.5,24.5-1.7c15.7-0.8,23.3-0.7,40.2-1.7c20-1.3,23.5-2.4,26.2-3.5
	c8-3.2,13-8,22.7-17.5c7.7-7.5,9.1-9.9,28-31.5c8.1-9.2,12.9-14.6,19.2-21c9.3-9.4,6.4-5.4,17.5-15.7c0.8-0.7,3.2-3,7-5.2
	c4.4-2.6,7.7-3.3,8.7-3.5c2.2-0.4,4.4-0.8,7,0c0.8,0.3,3.4,1.1,5.2,3.5c0.7,0.9,1,1.8,1.7,3.5c0.7,1.7,1.4,3.3,1.7,5.2
	c0.4,2.3,0.2,4.2,0,5.2c-3.7,25.3-5.2,31.5-5.2,31.5c-1,4.1-2,7.5-1.7,12.2c0.2,4.1,1.3,7.3,1.7,8.7c0.3,0.7,1.5,4.2,3.5,7
	c1.8,2.5,4.5,5,14,8.7c7.8,3.1,10.2,3,22.7,7c6.4,2,6,2.1,10.5,3.5c10.1,3.1,18.2,4.5,22.7,5.2c20.6,3.4,41,5.6,61.2,8.7
	c25.6,4,36.6,7.5,57.7,10.5c16.1,2.3,16.8,1.3,24.5,3.5c3.2,0.9,7,2.2,12.2,1.7c4.3-0.4,7.8-1.7,12.2-3.5c5.7-2.3,8.5-3.4,10.5-5.2
	c1.8-1.6,3.1-3.6,5.2-3.5c1.2,0.1,2.2,0.8,3.5,1.7c1.9,1.4,2.9,2.8,3.5,3.5c1.3,1.6,3.2,2.9,7,5.2c8.8,5.6,13.3,8.4,19.2,10.5
	c5.9,2,5.4,0.8,14,3.5c6.3,2,8.1,3.1,12.2,3.5c5.7,0.5,10.1-1,12.2-1.7c7.9-2.7,10.5-7,19.2-14c0,0,4.6-3.7,15.7-10.5
	c15.1-9.3,29.8-12.1,38.5-14c7.7-1.7,29.1-8.7,71.7-22.7c5.5-1.8,48.6-16,64.7-19.2c17.4-3.5,17.5-3.5,17.5-3.5
	c1.2-0.1,4.5-0.5,8.7-1.7c3.1-0.9,3.8-2.2,5.2-1.7c0.8,0.3,1.7,0.9,1.7,1.7c0.2,1.5-2.5,2.9-3.5,3.5c-4.4,2.4-8,6.1-12.2,8.7
	c-8.8,5.6-13.2,8.4-14,10.5c-1,2.6-0.9,5.3-3.5,8.7c-2,2.7-2.7,3.4-3.5,3.5c-2,0.1-2.6-2.6-5.2-3.5c-2.7-0.9-5.6,0.9-7,1.7
	c-47.7,29.6-44.8,21.7-73.5,47.2c-20.8,18.4-31.3,30.6-40.2,35c-3.5,1.8-8.2,5.3-17.5,12.2c-0.3,0.2-1,0.8-1.7,1.7
	c-1.5,2.1-1.7,4.3-1.7,5.2c-0.6,9.5,3.5,22.7,3.5,22.7c6.2,20,6.5,21.7,8.7,26.2c3.2,6.5,4.8,9.7,7,12.2c0.5,0.6,2.1,2.5,3.5,5.2
	c1.2,2.5,2.2,4.5,1.7,7c-0.1,0.3-0.7,3.5-3.5,5.2c-1.9,1.1-4.2,1.3-8.7,0c-8-2.3-13.5-6.6-14-7c-13-10.4-19.2-17.5-19.2-17.5
	c-16.4-18.8-26.1-34.8-35-45.5c-2.1-2.5-4.1-4.7-7-8.7c-1.7-2.4-3.6-4.6-5.2-7c-1.8-2.7-3-4.6-5.2-5.2c-1.2-0.3-1.9-0.2-3.5,0
	c-3.1,0.3-3.5,0-8.7,0c0,0-18.3,0-28,5.2c-0.3,0.1-1.9,1-1.7,1.7c0.1,0.6,1.6,0.5,3.5,1.7c1,0.6,1.8,1.1,1.7,1.7c0,1.6-5,3-7,3.5
	c-3.5,1-4.5,0.7-5.2,1.7c-1.2,1.8-0.4,5.4,1.7,7c2.5,1.9,5.4-0.1,7,1.7c1.1,1.3,1,3.7,0,5.2c-2.3,3.5-9.4,2.4-14,1.7
	c-10.1-1.5-17.6-6-19.2-7c-5.7-3.5-5.9-5.1-10.5-7c-5.8-2.3-11-2-14-1.7c-17.7,1.4-33.2,5.2-33.2,5.2c-29.5,7.3-41.8,10.4-59.5,10.5
	c-0.2,0-1.6-0.4-1.7,0c-0.2,0.4,1.4,1.5,1.7,1.7c1.8,1.2,3.5,1.7,3.5,1.7c9.3,2.8,11.1,4,12.2,5.2c0.6,0.7,2.2,2.3,1.7,3.5
	c-0.5,1.4-3.5,0.9-8.7,1.7c-3.7,0.6-7.1,1.2-10.5,3.5c-2.9,2-4.9,4.8-5.2,5.2c-2,2.7-1.8,3.9-3.5,5.2c-2.7,2.2-6.3,1.8-7,1.7
	c-2.8-0.3-3.8-1.7-8.7-5.2c-6.7-4.8-7.1-3.8-10.5-7c-4.2-3.9-4-5.6-7-7c-3.8-1.8-7.7-0.7-10.5,0c-7.5,2-15.5,2.4-22.7,5.2
	c-22,8.5-70.1,11.5-82.2,12.2c-18.7,1.2-45.8,1.7-56,0c-6.4-1.1-13-0.2-19.2-1.7c-0.6-0.1-2-0.5-3.5,0c-3.2,1-4.6,5-5.2,7
	c-4.3,12.7-6.4,19-7,26.2c-0.2,2.8-0.7,9.5,0,19.2c0.9,12.3,2.6,14.4,5.2,31.5c3.3,20.9,0.8,17.6,3.5,29.7c0.9,4,1.2,10.2,1.7,22.7
	c0,1.1,0.2,4.2-1.7,7c-0.3,0.5-2.4,3.5-5.2,3.5c-2.1,0-3.6-1.6-5.2-3.5c-7.7-8.7-8.7-10.5-8.7-10.5c-3.9-6.5-8.6-12.6-12.2-19.2
	c-12.7-23.4-14.9-22.1-22.7-38.5c-4.7-9.9-9-22.9-17.5-49c-5.9-18-3.7-14-5.2-17.5c0,0-4.6-10.5-3.5-14c0.1-0.2,0.5-1.3,0-1.7
	c-0.4-0.4-1.4-0.1-1.7,0c0,0-2.3,0-7,0c-12.8,0-31.5-3.5-31.5-3.5c-39-10.4-59.1-15.2-70-17.5c-11.2-2.3-22.1-6-33.2-8.7
	c-1-0.2-2.9-0.7-5.2-1.7c-1.4-0.7-1.5-0.8-3.5-1.7c-2.3-1.1-1.8-1-2.5-1.7c-0.9-0.9-2.5-2.5-2.7-3.5c-0.3-1.4-0.7-2.8,0-3.5
	c0.8-0.9,2.2-0.8,5.2-1c1.2-0.1,3.5-0.2,5.2-1.7c0.2-0.1,2.3-1,1.7-2.5c-0.4-1-1.8-1.4-3.5-1.7c-5.3-1.1-7.9-1.7-8.7-1.7
	c-7.4-0.2-22.8-8.6-40.2-17.5c-7-3.6-13.8-7.5-21-10.5c-5.1-2.1-9.2-6.1-14-8.7c-0.3-0.2-1.2-0.7-1.7-1.7c-0.7-1.5-0.1-3.2,0-3.5
	c0.6-1.6,1.9-2.5,3.5-3.5c0.5-0.3,1.9-1.2,3.5-1.7c8-2.7,35-5.2,35-5.2c6.5-0.6,7.8-1.3,19.2-3.5c31.5-6,74.3-10.8,87.5-12.2
	C208.4,455.6,227.4,454.1,265.5,451z"/>
</svg>
