<?xml version="1.0" encoding="utf-8"?>
<!-- Generator: Adobe Illustrator 22.0.1, SVG Export Plug-In . SVG Version: 6.00 Build 0)  -->
<svg version="1.1" id="Layer_4" xmlns="http://www.w3.org/2000/svg" xmlns:xlink="http://www.w3.org/1999/xlink" x="0px" y="0px"
	 viewBox="0 0 1080 1080" style="enable-background:new 0 0 1080 1080;" xml:space="preserve">
<style type="text/css">
	.st0{fill:#A14A7B;}
</style>
<g>
	<path class="st0" d="M780.8,1004.9c-11.4,3.4-22.3,1.9-33.1-2.9c-7.1-3.1-12.3-7.3-14.5-15.2c-2.5-9.1-7.3-17.1-12.8-24.7
		c-2.3-3.1-3.8-7.4-4.1-11.2c-1.1-14.5-1.5-29.1-2.2-43.6c-0.1-2.9-0.2-5.8-0.5-8.7c-0.9-10.1-2.2-20.3-2.6-30.4
		c-0.5-11.4,0-22.7-3.3-33.8c-0.7-2.2-0.5-4.6-0.5-7c0.5-16.9,1-33.8,1.6-50.7c0-1.5,0-2.9-0.1-4.4c-1.1-15.1-2.3-30.2-3.2-45.3
		c-0.4-6.1-1.1-12-3.2-17.1c-19.4,1.7-38.2,3.2-58,4.9c-7,4.5-5.5,12.3-5,19.9c0.3,4,0.8,8,1.3,12.2c0.8,6.4,1.2,12.7,2.6,18.9
		c2.6,11,6.5,21.7,8.7,32.7c1.7,8.2,3.4,17.1,2.1,25.1c-3.9,23.8-3.1,47.7-2.7,71.6c0.2,12.4,1.3,25.1,3.6,37.2
		c2.4,12.5,5.5,25,13.6,35.6c2.5,3.3,3.9,7.7,5.1,11.9c1.5,5,2.4,10.2,3.4,15c-3.1,11-3.8,11.7-13.4,14.3c-14-0.6-26.9-3-39.3-8.2
		c-2.1-2.6-4.1-5.4-6.6-8.5c0.5-5.3,1-10.7,1.5-16c-0.8-1.3-1.4-2.4-2.1-3.2c-0.7-1-1.3-2.1-2.2-2.7c-11.6-8.2-10.7-20.4-9.9-32.3
		c1.1-16.6,3.5-33.1,3.4-49.6c-0.1-19.8-2.2-39.5-3.4-59.3c0-0.3,0-0.6-0.1-0.9c-3.8-19.1-6.8-38.3-13.6-56.8
		c-7.3-19.7-17.5-37.3-30.2-53.9c-6.5-8.5-9.1-8.9-19.5-5.9c-8.9,2.5-17.6,6.2-27.2,5.6c-1.1-0.1-2.4,0.3-3.4,0.6
		c-7.3,2.2-14.6,3.9-21.6,6.7c-5.1,2-10.2,4.6-14.3,8.1c-15.2,12.7-24.7,28.7-28.5,48.6c-3.5,18.7-1.1,37.1-0.2,55.7
		c0,0.6,0.4,1.1,0.5,1.7c2.1,10.6,3.7,21.2,6.2,31.7c2.5,10.8,5.3,21.5,8.7,31.9c3.1,9.5,8.7,17.6,16.1,24.7
		c4.3,4.2,8.5,8.9,11.3,14.2c3.5,7,5.6,14.6,8,22.1c0.9,2.6,0.9,5.5,1.3,8.4c-3.3,1.1-5.7,2.4-8.2,2.7c-9,1.5-17.9,0.7-26.9-0.8
		c-9.4-1.6-16.9-6.1-21.6-14.7c-2.3-4.1-4.8-8-7.8-11.6c-2.7-3.2-5.9-6.6-9.5-8.7c-4.6-2.7-7.7-6.3-8.7-11.4
		c-0.8-4.3-1.7-8.6-1.5-12.9c0.9-19.7-4.2-38.7-6.9-57.9c-1.5-10.4-3.7-20.6-5.5-30.9c-2.3-13.2-4.3-26.5-6.5-39.6
		c-2.5-14.9-4.9-29.9-7.8-44.7c-0.8-4.1-2.6-8.9-5.7-11.5c-8.7-7.5-15.3-16.6-22-25.8c-5.4-7.4-11-14.8-16.9-22.5
		c-12.2,3.1-16.5,12.3-19.8,22.4c-2.5,1.5-5,2.9-7.4,4.3c-2.2,4.5-4.1,8.7-6.1,12.9c-3,2.3-5.5,4.9-7.6,7.8
		c-1.6,2.1-2.3,4.9-4.1,6.7c-10.2,9.5-17.2,21.3-23.6,33.4c-7.1,13.3-15.1,26.4-16.6,42c-0.2,1.7-1.3,3.2-1.9,4.9
		c-3.3,9.5-7.6,18.7-8.5,29c-0.3,3.7-1.7,7.3-2.7,11c-2.8,9.5-6.4,18.8-8.6,28.4c-4.9,20.7-8.6,41.7-7.8,63.1
		c0.2,6-1.1,12.1-1.7,17.7c-9.5,10.6-21.3,13.6-32.4,14.9c-8.8-4.2-14.7-9.2-14.7-17.7c0-6,1.2-12.2,2.9-17.9
		c2.5-8.3,4.8-16.7,9.8-24.2c2.4-3.6,2.4-8.9,3.6-13.3c4.3-15.7,8.8-31.4,13-47c4.2-16,7.6-32.2,12.4-48.1c8-26.9,11.4-54,7.3-81.9
		c-0.4-2.5-0.1-5.3,0-7.8c0.4-7,1.4-13.9,1.3-20.9c-0.1-7.8-1.6-15.7-1.5-23.5c0.3-18.3,1.1-36.7,1.8-55.1c0.1-1.5,0.1-2.9,0.6-4.3
		c4.9-13.3,9.5-26.7,14.9-39.8c3.8-9.5,6.4-19.2,7.3-29.4c1.6-18.1,3.1-36.3,4.9-54.3c1.4-13.5,3.9-27.1,4.9-40.6
		c1.6-20.2,9.4-37.6,17.9-55.2c0.8-1.6,1.9-2.9,3-4.2c9.6-10.2,19.2-20.3,28.7-30.6c7.7-8.4,17.6-14.5,25.5-22.5
		c11.5-11.8,26.7-17.4,39.3-27c2.6-2.1,6.4-3.2,9.7-3.6c11.2-1.5,21.2-5.8,29.1-9.6c10.3-2.3,18.5-3.8,26.7-5.8
		c3.8-1,7.5-2.6,11.4-3.9c2.4-0.8,5.1-2.1,7.5-1.9c8.3,0.7,14.1-4.1,21.1-8.2c-1-2.7-1.9-5.1-2.6-7.5c-2.2-6.4-5.9-12.6-6-19
		c-0.2-10.5-4.9-20.5-2.3-31.1c-2.9-13.9-1.2-27.9-1.5-41.8c-0.1-4.3,0.8-8.6,1.6-12.9c1.4-8.3,2.9-16.6,4.1-23.5
		c2.5-6.6,4.6-12,6.8-17.3c1.1-2.6,1.9-5.7,3.6-7.8c4.7-5.9,9.7-11.6,15-17.1c9.1-9.3,21.1-14.7,32.4-20.1
		c21.9-10.2,45.1-14.7,69.6-11.3c11.2,1.6,22.4,2.2,32.7,7.7c7.3,3.9,15.4,6.8,23,10c13.8,5.9,25.2,15.1,36,25.5
		c2.8,1,6.1,1.6,8.8,3.1c5.9,3.1,11.9,3.7,18.5,3.2c8.2-0.7,16.8-2.8,23.9,1.2c7.3-1.1,11.3-5,14.1-10.5c1.3-2.5,3.2-4.9,5.3-6.9
		c5.1-4.8,10-10,15.8-13.7c14.2-9,29.4-14.4,46.4-7.7c8.1,3.2,16.3,6.3,24.2,9.9c15.8,7.2,24.8,20,29.2,36.2
		c1.5,5.5,2.5,11.7,1.8,17.2c-1.4,12.3-4,24.6-6,36.9c-0.5,3.3-0.1,6.8-0.1,10.4c5,2.2,9.9,3.5,14,6.2c4.3,2.6,9.2,5.7,8.1,12.1
		c-6.7,8.5-15.8,15.3-27.5,20.5c-1.1,2-2.9,4-3.5,6.5c-3.8,17.8-9.6,35-8,54c1.5,17.7,4.3,35.1,7.1,52.5c1,6.6,1.7,13.2-0.3,20.5
		c-2.2-0.3-4.6,0.1-5.8-1c-7.1-6.1-14-12.3-17.8-21.2c-2.9-6.8-6-13.4-9-20.1c-1.1,2.9-1.2,5.6-0.6,8.1c2.5,11.2,1,22.5-3.1,32.5
		c-3.7,8.9-5.9,18.4-11.1,27c-4.4,7.3-6,16.2-9,24.8c4.5,7,9.1,13.9,13.7,21c-1.4,2.2-2.4,3.8-2.5,3.9c1.6,7.4,2.7,13.3,3.9,19.2
		c0.1,0.5-0.9,1.3-1.5,1.9c-2.1-1.4-4-2.6-6.7-4.4c2.5,7.3,4.6,13.2,6.6,19c-2.2,1.8-3.6,2.9-5.5,4.4c1.4,3.2,2.6,6.1,3.9,8.9
		c-0.3,2.5-0.7,5-1.1,7.9c2.3,0.6,4.1,1.1,5.6,1.5c0,4.9,0,9.7,0,15c-2.4-1.4-4.5-2.4-7.2-3.9c-1.8,7.4,2.9,11.1,6.9,14.5
		c-0.9,2.8-2.4,5.4-2.1,7.6c0.2,2.7,2,5.3,3.1,8.3c-0.9,1.6-1.8,3.3-2.7,5.1c0.3,2.3,0.5,4.5,0.8,6.5c-1.7,1.9-2.9,3.3-3.3,3.7
		c2.8,6.2,5.4,11.6,7.5,16.5c-2.3,7.2-5.4,11.9-12.2,12.8c-1.9,5.6,6.5,11,0.3,16.8c-1.7-0.9-2.9-1.7-5.9-3.2
		c2.7,5,4.7,8.5,6.4,11.6c-1.1,3.5-2.6,6.5-2.8,9.5c-0.3,4-1.7,7.3-3.9,10.4c-2.5,3.5-5.2,7.1-6.9,11.1c-4.2,10.3-5.9,22-15.1,29.7
		c-0.4,0.3-0.4,1.1-0.7,1.6c-3.8,6.6-7.5,13.1-11.6,19.6c-8.3,13.6-17.4,26.8-20.6,42.9c-1.9,9.4-5.1,18.5-4.6,28.3
		c0.1,2.5-0.7,5.2-0.9,7.7c-0.2,2.3-0.7,4.7-0.2,6.9c1.9,7.8,1.7,15.6-0.3,23.3c-0.9,3.6-1.8,7.4-1.8,11.2c-0.6,31.8-1,63.5,5,95
		c3.6,19.2,9.6,37,21.9,52.5c0.4,0.5,0.6,1,1,1.5c6.6,10.3,8.8,22.1,12.1,33.5c0.4,1.3-0.1,2.8-0.3,5.3
		C786.1,1002.7,783.5,1004.1,780.8,1004.9z M525.1,279.8c6.1-0.6,12-1.2,17.4-1.8c12.6-4.2,24.9-8.4,37.8-12.7
		c9.3,0.6,9.3,0.5,12.2-8.6c3-2,6.2-3.9,9.1-5.9c0.4-4.6,0.7-8.6,1.1-13.1c3.6-0.5,7-1,11.7-1.6c-2.5-2.1-4.2-3.5-6-4.8
		c-5.5-3.8-11.2-7.4-16.6-11.3c-5.6-4.1-8.5-9.5-6.8-17.1c4.6-7.1,11.9-10.7,19.7-13c8.3-2.4,17-4,25.4-6.1c0.8-0.2,1.5-0.8,2.7-1.5
		c-0.4-3-1.9-5.1-4.5-6.9c-4.5-3.1-8.8-6.7-13.2-10c-9.9-7.3-21.6-9.8-33.2-12.6c-7.2-1.8-14-2.1-21.5-0.8
		c-17.5,3.1-26.6,14.7-31.9,30c-4.7,13.4-8.7,27.1-9,41.6c-0.1,7.8-1.4,15.7-1.5,23.5c0,8.4,0.9,16.8,1.3,24.3
		C521.8,275,523.4,277.5,525.1,279.8z M816.2,172.4c4.3,10.1,15.3,16.2,26.9,14.5c2.5-8.3-2.4-16.4-0.7-24.8
		C830.4,157.7,823.8,160.5,816.2,172.4z M820.6,260.7c1.9,3.9,4,8.6-0.3,15c-0.6-4.7-1-7.8-1.4-11.6c-3.5,5.4-2.3,10.5,3.3,16.4
		c2.4,12.7,3.4,25.8,10.5,37.3c-0.9-8-2.2-16-2.5-24c-0.4-8.1-0.2-16.3,0.4-24.4c0.6-8.2,1.9-16.4,2.8-24.6
		c-0.8-0.2-1.7-0.4-2.4-0.6C827.7,249.5,824.3,254.8,820.6,260.7z"/>
</g>
</svg>
