<?xml version="1.0" encoding="utf-8"?>
<!-- Generator: Adobe Illustrator 22.0.1, SVG Export Plug-In . SVG Version: 6.00 Build 0)  -->
<svg version="1.1" xmlns="http://www.w3.org/2000/svg" xmlns:xlink="http://www.w3.org/1999/xlink" x="0px" y="0px"
	 viewBox="0 0 1080 1080" style="enable-background:new 0 0 1080 1080;" xml:space="preserve">
<style type="text/css">
	.st0{fill:#E08B1B;}
</style>
<g id="Animal">
</g>
<g id="Layer_4">
	<g>
		<path class="st0" d="M500.3,682.2c-12.4-4.9-28.6-6.7-41.7-4.7c-14.9,2.3-29.7-0.9-44.5,1.5c-7,1.1-10.8,4.7-17.2,6.9
			c-7.7,2.6-18.3,2.5-26.5,3.5c-6.9,0.9-15.5,2-22.9,1.8c-7.9-0.2-14.5-2.7-22.3-0.8c-7.5,1.8-13.5-0.2-21.4-0.8
			c-7.7-0.6-10.2,1-16.2,5.3c-4.9,3.5-9.7,5.7-15.1,8.1c-2.5,1.1-5.3,1.7-7.3,3.3c-2.1,1.7-0.9,3.3-3.7,4.8
			c-5.4,2.8-18.3,1-24.5,0.9c-7.7-0.1-14.4-1.9-21.6-2c-7.9-0.1-15.8,0.5-20.1-6.9c-1.6-2.8-6.3-10-5.7-11.4c-2.8-1.6-4.2,3.6-7.9,1
			c1.9-5.3,9.7-4.8,13.9-4.5c5.6,0.4,11.6,0.7,17.4,0c2.1-0.3,4.6-1.6,7.2-1.8c2.3-0.2,4.9-0.1,7.2-0.1c2.8,0,7.3,1.5,9.9,0
			c3.7-2.1,1.8-5.6-3.5-4.1c-6.3-8.2,27-18.5,29.5-22.5c-1.8-0.4-3.5-0.8-5.3-1.3c2.5-5.3-11.5-13.5-16-16.8
			c-9.9-7.3-19.3-15.4-26.9-25.1c-7.3-9.2-11.6-19.2-17.7-28.9c-5.8-9.2-13.6-17-20.1-25.9c-2.3-3.2-5.5-6.2-8.1-9
			c-1.7-1.8-4.3-3.9-5.7-5.9c-1-1.5-1.5-4.2-2.4-5.3c-0.3-1.5-1.4-1.6-3.3-0.3c-0.1-0.6-0.3-1.3-0.4-1.9c-1.9-1.4-3.1-2.3-4.9-4.3
			c-3.2-3.8-4.6-6.1-8.7-9.6c-7.1-6.2-15.3-13.9-20.5-22c-1.7-2.7-13-27.5-12.1-28.1c-5-1.1-8.4-13.4-10.3-18c-1.6-4-7-9.4-6-14.1
			c-6.9-1.9-15.5,12.1-23.2,12.8c3.7-5.4,10.5-8.9,15.3-13.3c8.1-7.4-0.7-7-0.7-13.9c-4.7,0.5-5.9,5.9-10.4,3.8
			c4.5-3.8,13.2-7.9,5.1-11.6c-5.3-2.4-12.9,1.8-18.1-0.6c4.6-3.7,15.1,1.2,17.7-5.4c3.2-8.1-10.6-3.5-13.3-7
			c2.7-3.9,9.1,0.5,11.5-3.1c3.6-5.3-6.3-9.3-8.5-12.4c0.7-0.8,2.5,0,2.4,0.1c2.6-4.2,2.6,0.7,2.3-4.6c-0.3-5.5-4.8-10.5-5-16.2
			c-0.4-11.2,5.6-19.8,17.1-15.4c3.7,1.4,8.8,3.7,11.2,5.1c2.4,1.3,5.4,4.5,8.4,6.5c2.1,1.5,11.9,8.4,12.7,8c3-1.3,1-9.9,3.6-9.8
			c0.3,4.9,1.5,9.4,2.5,14.2c0.3,0,2.1-9.1,3.2-10.1c0.4,3.8,1.2,7.3,1.4,11.1c2.5-0.5,3.8-3,5.9-4.3c0.2,4.1-1.5,8.9,4.6,7.5
			c3.9-0.9,5-8.2,8.8-8.7c-1.1,4.6-6.6,12.7,2.3,14.1c5.5,0.8,8.4-9.5,12.1-12.7c2.3,2-5,10.2-5,12.8c2.7,2.1,11.9-0.1,15.5,0.1
			c6.7,0.4,13,1.5,19.7,2.5c5.6,0.8,11.4-0.6,17-0.7c6.1-0.1,12.2,0.8,18.2,1c10.2,0.3,20.6,5.3,30.4,7.7c5,1.3,10.5,4.5,15.1,6.9
			c5.3,2.7,9.6,6.7,14.3,9.3c9.1,5,19,7,29,7.4c14.4,0.7,25.9,5.1,38.2-4.8c21.7-17.3,48.1-28,75-34.1c9.2-2.1,20.9-5.4,30.5-5.2
			c14.5,0.3,29.1,2.7,43.7,3.9c11.4,0.9,21.3,1.9,32.5,4.4c14.4,3.3,28.3,8.1,42.8,10.3c5.4,0.8,7.4,2.4,11.7,5.1
			c5.2,3.2,11.5,4,17.2,7c5.4,2.9,6.1,7.2,9.9,10.8c4.1,3.9,11,5.7,15.3,10c6.3,6.4,11.1,15,17.2,21.8c3.4,3.7,8.2,6.8,10.8,11.4
			c1.2,2.1,2,5.5,2.6,7.9c1.4,5.9,2.2,8.1,5.6,13.2c6.4,9.6,7.5,21.2,9.7,32.3c1.5,7.6,3.5,15.2,4.1,22.9c0.7,7.8-0.6,15.3,0.5,23.1
			c1.7,12.8,1.7,26.1-1.8,38.5c-0.8,3-6.8,14.2-4.3,16.7c3.4,3.3,17.7-0.8,22.1-1.4c58-8,116-10,174.4-4.8c25,2.2,49,6.3,73.4,10.8
			c12.4,2.3,24.8,4.8,36.9,8.1c5.9,1.6,38.8,13.9,31.4,21c1.8-1.8-11.3,1.2-5.6,0.5c-4,0.5-7.4,1.4-11.5,1.3
			c-4.1-0.1-8.3-0.6-12.1-0.9c-14.9-1.5-29.1-6-43.8-8.3c-27.9-4.5-56.1-6.6-84.2-9.1c-32.7-3-65.5-0.5-97.9,3.9
			c-15.5,2.1-31.3,3.9-46.8,5c-8.9,0.6-17.6,1.6-26.4,2.6c-8.1,0.9-16.5-0.8-24.5,0.3c-7,0.9-10.9,4.3-15.9,8.3
			c-2.5,2-5.7,3.1-8.1,5c-4.4,3.5-4.1,1.2-1.6,7.6c0.9,2.2,3.4,6.4,2.9,8.9c-0.7,3.3-9.5,9.5-11.9,12c-5.8,6-11.1,10.3-17.9,15.1
			c-12.9,9-24,16.9-40.3,17.9c-16.2,1-34.6,2.9-50.3-2c0.2-2.2,3.6,0.2,3.7-1.8c-5-0.6-10.1-0.2-14.9-1.9c-0.1-3.6,5.5,1.3,2.3-5.1
			c0.4,0.9-4.7-1.9-5.6-2.3c-3-1.5-6.9-2.2-6.6-6.5c0.9-9.5,27.3-5.1,33.7-5c13.8,0.2,26.7-2.3,40.1-4.9c9.7-1.9,23.3-3.7,28.7-13.4
			c2-3.6,3.1-10.8-0.4-14.3c-2.4-2.4-8.5-1-11.6-0.3c-4.6,1-8.8,3.9-13.3,4.4c-4.6,0.4-8.6-0.4-13.4,0.6
			C543.1,675.6,522.1,679.8,500.3,682.2z"/>
	</g>
</g>
</svg>
