<?xml version="1.0" encoding="utf-8"?>
<!-- Generator: Adobe Illustrator 22.0.1, SVG Export Plug-In . SVG Version: 6.00 Build 0)  -->
<svg version="1.1" id="Layer_4" xmlns="http://www.w3.org/2000/svg" xmlns:xlink="http://www.w3.org/1999/xlink" x="0px" y="0px"
	 viewBox="0 0 1080 1080" style="enable-background:new 0 0 1080 1080;" xml:space="preserve">
<style type="text/css">
	.st0{fill:#A14A7B;}
</style>
<g>
	<path class="st0" d="M327.3,992.1c5.6-17.6,23.2-31.8,35.4-45.3c6-6.6,9.9-10.2,13.3-18.7c2-5,5.3-18.3,11.1-19.8
		c-3.7-4,8.3-21.3,10.9-26.6c1-2.1,6.9-12.8,4.4-13.5c1-1,1.6-2,2-3.3c-0.3-0.6-0.6-1.2-0.9-1.9c0.7-0.5,1.4-1.1,2-1.6
		c1.4-3.1,3.4-6,4.5-9.2c1.6-4.5,3.7-10.8,5.3-16.4c2-6.6,4.1-14,5.2-20.7c0.2-0.9-1.1-2.2-0.9-3.3c0.3-2.1,2.4-5.2,3.3-7.3
		c0.7-1.6,4.9-8.3,3.5-9.3c-0.9,1.2-6.3,9.8-7.3,9.2c5.6-10.1,12.4-19.6,18.1-29.7c2.7-4.8,5-9.7,7.1-14.8c1.2-3,8-15.7,6.3-18.7
		c-0.8,1.2-7.2,11.4-8.1,10.9c6.1-10.9,11.4-21.6,16.7-32.8c1.4-3,10.2-25.9,9.9-26.2c-0.6,0.5-3.1,3.3-4,2.7
		c4.6-6.6,9.3-13.3,13.8-19.9c4.1-6.1,6.4-13.3,11.1-18.8c9-10.5,22.3-17.4,31-28c2.6-3.2,5.4-6.3,8-9.9c3.1-4.3,4-10,6-15.4
		c2-5.5,2.1-11.1,3.7-16.5c0.8-2.8,6.3-8.7,2.5-10.8c-7.2,15.9-20.3,31.7-31,45.6c-11.1,14.4-27.2,27.9-43.5,36
		c-17.2,8.5-34.9,16.2-54.5,15.3c-7.7-0.3-15-2.8-22.6-3.5c-3.5-0.3-6.8-1.5-10.2-1c-5.2,0.7-8.4,5.3-13.9,2.8
		c-5.2-2.4-1.8-3.2-3.3-6.7c-1.6-3.7-4.5-4.6-3-9.4c1.1-3.5,4.3-6,5.4-9.8c1.3-4.5,0.7-9.2,0.8-13.8c0.7-20.5,6.6-36,18.7-52.4
		c22.7-30.5,56-46.2,89.6-61.9c4.9-2.3,6.1-3.2,0.5-5.2c-5.2-1.9-12.1-2.3-17.5-3.1c-10.3-1.5-17.9,1-26.8,5.9
		c-5.4,3-10.8,6.2-16.4,8.6c-1.5,0.6-3.7,1.8-5.3,1.9c-2.5,0.2-2.9-1.5-5.4-1.4c-11.1,0.2-21.9,9.2-32.9,10.6c1-0.8,3-1.7,2.5-3
		c-9.9,3-19.5,3.5-29.7,5.4c-5.2,1-10.2,1.9-15.3,3.5c-4.4,1.4-10.9,5.4-15.6,4.5c1.4-0.6,12.7-4.7,12.4-5.9
		c-11.7,1.8-24.2,4-35.5,7.7c-5.3,1.8-10.6,3.9-15.9,5.6c-4.7,1.5-12.7,5.9-17.6,4.6c3.2,0.1,4.4-0.7,3.6-2.3c-8,3-16.6,1.1-25.4,2
		c-8.1,0.8-18.9-0.6-23.9,6.8c-4.2-4.6-9.3-0.1-14.8,0.4c-3.2,0.3-5.6,0.7-8.7,1.5c-3.9,1.1-7,4.5-11.2,6.2
		c-5.2,2.1-13.2,2.9-18.6,3.5c-15.5,1.8-30.2,5.3-45.7,8.1c-8,1.5-18.2,5-26.4,4.5c-4-0.2-7.3-1.4-11.6-1.8c2.6-2.8,3.7-2.3-0.7-4.3
		c3.8-1.3,6.5-4.1,10.4-5.4c5-1.7,10.8-2,16.1-3c10.4-2,20.8-4.8,31.3-6.2c3.7-0.5,8.1,0,11.6-1c3.8-1,7-4.1,10.5-5.7
		c3.9-1.8,8.6-3.4,12.8-4.3c2.7-0.5,7,0.2,8.4-2c3.7,3.5-0.5-0.5,2.4-0.8c1.7-0.2,3.1,0.7,4.9,1.2c0.8-1.3,0-1.9-2.4-1.9
		c3.5-1.5,4.5-0.5,6.9-0.5c2.6,0,6.3,0.8,5.4-2.2c6.3,1.4-1.5-1,5.3-1.4c3.2-0.2,7.4,2.7,4.7-1.8c1.3,0.6,2.7,1.3,4,1.9
		c1.7-6,23.8-2.4,23.2-8.3c4.7,1.8,7.5,0,11.6-2c1.4-0.7,3.2-0.5,4.6-1.3c4-2.3,0.1-1.8,0.4-3.7c4.4-0.2,7.4,1.5,6-3.5
		c7.1,1.7,14.1,0,21.1-1.1c7.6-1.2,15.2-1.3,22.7-2.6c2.9-0.5,7.7-0.7,10.4-1.8c-0.6-2.9,0.7-3.8,3.9-2.9c1.2-0.1,2.4-0.2,3.6-0.3
		c8.5-0.7,17.1-1.5,25.1-4.8c-0.5-0.2-7.2-2.8-6.8-3.8c6,2,10.6,3.7,17,2.3c6.2-1.4,12.8-3.1,18.9-4.9c12.6-3.6,25.4-3.9,36.2-11.7
		c-1-0.4-4.3-1.2-4-2.6c10.6,0.5,19.7-8.3,29.8-11.3c6.5-1.9,13.1-3.5,19.9-4.1c1.9-0.2,6.2,0.5,7.6-0.4c1.6-1.1,1.8-4.8,1.7-4.7
		c1.9,4.6,0.8,3.8,5.4,4.9c2.6,0.6,7.3,1,10,1.1c2.8,0.2,8.7,1.6,8.3-0.8c3.4,1.7,8.2,5.5,12,6c3.2,0.5,5.7-0.8,9-0.9
		c2.2-0.1,9.6-0.5,11.1,0.3c4,2.1-0.5,2.3,1.4,6.2c0.5-1.4,5.3-11.8,4.3-12.5c-1,1.6-2,3.2-3.1,4.8c1.4-5.5-4.5-8.7-8.2-11.5
		c6.1-6.6-2.3-9.2-7.2-10.5c-3.4-0.9-2.2-2.1-6.5-1.5c0.4-1.1,0.2-1.7-0.6-1.9c0.1,2.3-0.6,3.3-1.9,3.1c0.5-5.5-1.9-5.2-6.9-6.7
		c-4.7-1.4-10.2-2.1-14.6-4.2c-3.9-1.8-5.6-4.6-8.9-7.3c-4-3.2-8.9-5.6-13-8.6c-15.3-11-27.8-25.8-42.9-37.5
		c1.1,0.1,2.2,0.2,3.2,0.3c-8.5-9.3-22.3-15.6-29.1-26.4c-3.6-5.8-5.3-11.2-10-16.6c-4.2-4.9-9.1-9.2-13.4-14.1
		c-3.9-4.3-5.2-9.7-8.7-14.1c-3.3-4.1-8.7-6.2-12.7-10.6c-3.4-3.8-5.8-7.5-9.8-10.9c-6.8-5.7-11.9-9.5-15.1-18
		c4.4,1,3.2,0.6,2.3-2.7c11.4,1.2,20.1,14.1,28.8,20.3c4.5,3.2,7.7,7.5,11.5,11.3c4,4.1,5.6,2.8,10.1,5.2
		c6.4,3.4,30.5,42.4,36.2,36.1c1.4,6.4,7.7,10.5,11.6,13.8c5.5,4.6,11.2,12.4,16.2,18.7c3.1-3.1,11.1,10.4,14.5,12.9
		c3.9,2.7,6.9,3.7,11,6.9c5.6,4.5,11.2,9.1,16.9,13.4c1.5,1.2,3.3,3.4,5.4,3.3c5.8-0.1-0.1-1.9,3-4.4c1,1.1,2.1,2.2,3.1,3.2
		c0.7-4.4,1.9-2.3,5.8-1.1c2.6,0.8,5.3,0.7,8.1,1.7c6.3,2.3,12.7,9,19.3,8.5c0.7,3.2,6.6,8.8,10.6,7.5c-0.5,3,5,5.2,7.3,6.6
		c1.3,0.8,2,2.4,3.2,3.3c6.2,4.3-2.6-9.9,3.9,1.3c7.7-7.1,0.7-13.8,3.5-22.5c2-6.2,7.8-3.6,5-13.4c-2.2-7.6-6.5-12.5-5.7-20.6
		c0.6-6.3,2.6-12.8,4.8-18.8c2.5-6.9,8-11.4,10.5-18.1c2.3-6.2,4.6-11.4,6.8-17.6c1.5-4.2,3.2-8.2,5.3-12.2c0.3-1.2,0.6-2.4,0.9-3.5
		c1.1-1,2.4-1.7,3.8-2.3c3.9-5.6,6.7-13.2,10.1-19.5c7.6-14.1,14.8-28.2,22.1-42.4c1.6-3.2,2.8-6.9,4.7-9.9c2.3-3.7,4.2-4.5,6.8-7.9
		c3.3-4.3,5.9-10.1,8.2-15.2c3.2-7,6.5-13.9,9.9-20.8c1.5-3.2,2.8-6.5,4-9.8c0.7-2.2,1.5-4.5,2.2-6.7c0.6-1.2,1.7-1.3,3.2-0.2
		c2.4-3.5,1.8-7.6,3.5-11.1c1.2-2.6,2.2-3.9,3.3-7c1.1-3.3,1.7-7.3,2.8-10.7c1.3-3.9,3.5-6.5,5.1-10.2c0.3,1.1,0.6,2.2,0.9,3.3
		c5.4-5,3.2,7.2,2.7,10c-0.8,4.3-1.9,10.8-5.4,13.7c4.8,3-1.6,8.8-2.2,13.5c-0.1,1,2,2.5,1.7,4.3c-0.4,2.8-2.1,5.8-3.2,8.4
		c-4.1,10-8.6,19.8-13.5,29.4c-2.5,4.9-5.1,9.2-8.4,13.5c-3.8,5.2-2.1,5.7-2.9,11.3c-1.2,8.3-8.4,18-12.5,25
		c-11,19.2-19.2,39.7-28.4,59.9c-3.4,7.4-13.4,20.2-12.8,28.4c0.2,2.1,2.2,1.6,2.3,4.3c0.1,2.3-2.1,6.2-2.9,8.3
		c-1.5,3.8-4,6.7-0.1,9.6c-4.3,1.1-1.6,10.7-1.4,13.8c0.3,4.4-1.9,12.4-0.2,15.7c2.9-3,2.6-9,5.7-11.7c2.3-2,4.8-1.5,6.4-4.2
		c2.1-3.4,0.8-9.5,2.4-13.2c1-2.5,3.3-4.8,4.7-7.9c9.5-20.8,29.7-29.3,47.1-41.9c3.7-2.7,6.9-7,10.7-9.3c2.6-1.6,5.7-2.3,8.6-4.7
		c7.6-6.3,14.9-14.8,21.4-22.2c2.3-2.6,4.4-5.6,7.4-7.5c2.8-1.8,5.9-2.7,8.8-5.2c7.4-6.5,13.9-14.3,21.2-21
		c14.2-13.1,27.1-27.7,42-40.2c5.4-4.6,10.5-7.5,16-12.8c6-5.7,11.3-12.1,17.2-17.9c13.4-13.3,27.7-25.9,39.3-40.4
		c6.9-8.6,14.5-16.7,22.6-24.2c2-1.8,5.6-7,8.7-6.7c6.8,0.6,1.8,8.3,0.1,11.4c-6,10.5-14.7,20.3-22.9,29.1
		c-3.1,3.3-8.1,6.8-10.4,10.7c-0.4,0.6,0.1,3.5-0.6,4.7c-1.4,2.6-3.9,4.7-5.8,6.9c-8.3,9.1-16.2,18.5-24.5,27.5
		c-3.4,3.6-6.9,7.9-10.8,10.9c-1.8,1.4-4,2.1-5.6,3.7c-1.7,1.7,0,2-0.6,4c-6.2-6.6-5.1,5.2-6.7,8.4c-3.6,7-12.1,12.3-17.6,17.8
		c-10.7,10.7-22.4,21.1-32.7,32.2c-5.3,5.7-11.9,10.5-17.2,16.2c-5.4,5.9-11,11.6-17.1,16.8c-5.8,5-15.1,10-18.1,17.5
		c-1,2.5-0.3,5-1.8,7.2c-2.1,3-7.4,5.6-10.4,7.7c0.9,1.5,7.2-1,8.9-1.4c0.8,2.7-12.1,3.3-14.1,6c-3.7,5,4.7,8.1,8.6,11.7
		c-11-6.4-13.6-8.5-24.5-1c4.5,0.8,7.9,0.7,10.7,4.2c2.6,3.2,3.5,7.8,0.5,10.4c2.2,0.2,4.3,0.3,6.5,0.5c0,1.7-6.1,0.5-7.4,2.5
		c-2.1,3.2,0.6,3.4,2.3,6.3c-3.9-1.7-2.5-1.7-5.7,0.3c-3.1,1.8-4.3,3.6-1.2,5.9c-8.1,0.8-11.1,7.3-18.8,8.1c7,2.6,15.7-2.6,22.1,0.6
		c1.8,0.9,3.6,3.3,5.1,4.7c3.2,2.9,2.3,3.8,3.6,6.9c-0.1,1.1-0.1,2.2-0.2,3.3c0.7,0.5,1.4,1,2.2,1.5c1.4,3.7,2.1,0.8,1.8,5.5
		c1.3-0.8,2.7-1.6,4-2.4c-0.9,4.8,1.8,2.1,4.7,4.6c1.6,1.4,2.6,4.9,3.1,6.8c1.7,5.8,0.6,11.2-2.2,16.5c-2.3-1.7-4.7,4.4-6.2,6.4
		c-2.4,3.1-5.1,5.8-7.8,8.6c8.9,6.4,16.2-10.8,17.5-17.1c3.8,4.9,13.4-3.5,14.5-8.3c0.3,4.5,4.3,5.9,7.2,1.1c0.1,8.5,7-0.3,8.1-1
		c-1.5,4.6-2.3,10.7,4.3,6.8c-0.7,4.8,0.8,4.9,5.7,4.6c1.1-0.1,3.6-1,4.8-1.1c1.6-0.2,3,0.6,4.7,0.3c8.9-1.6,19-9.2,27.2-13.1
		c7.5-3.5,15.2-4.5,22.9-7.4c7.9-3,15.6-6.3,23.5-9.3c15.7-5.9,31.3-15.3,47.7-18.8c7-1.5,12.1-3.1,18.8-6.7
		c7.2-3.8,15.4-6.4,23.4-9.7c6.6-2.8,13.3-2.9,19.5-5.9c8.9-4.3,17.8-8.8,27.1-12.4c5.1-2,22.2-4.8,12,4.8
		c-7.2,6.8-19.3,11-27.9,15.8c-13.8,7.7-26.8,14.3-41.7,21c-13.4,6-25.8,14.7-39.8,20.6c-18.4,7.8-38,14.8-56.9,22.5
		c-4.6,1.9-8.1,4.7-12.5,6.9c-5,2.4-10.8,3.4-16,5.4c-4.9,1.9-25.1,7.1-21.2,12.7c-2.5,2.3-7.2,2.3-10.2,5.2
		c-3.7,3.5-5.9,8.3-9.7,11.8c-6.4,5.8-15.1,10.7-23.7,11.9c-3.3,0.5-7.4,0.7-10.7,0.3c-2.9-0.3-6.5-2.7-9.2-2.4
		c-3.1,0.3-4.9,3-8.1,4c-3.3,1-7.2,0.6-10.6,1.2c1.8,1.8,3.6,0.8,5.5,1.5c1.3,0.4,1.1,1.3,2.4,1.8c2.5,0.8,5.1,1.6,7.7,2.4
		c5.9,1.8,25.7,7.5,30.2,1.6c-0.5,1.1-0.9,2.1-1.4,3.2c8.2,0.2,16.4,0.8,24.6,0.2c3.3-0.2,7-0.2,10-1.9c3.4-1.8,4.4-6.9,7.6-7.9
		c-1.4,2.5-2.6,5-3.9,7.6c6.2-0.2,12.4-0.1,18.6-0.7c0.6,7.5,26.8,2.4,31.8,2c14.8-1.2,27.8,2.3,42.5,3.7c11.7,1.1,23,3,34.7,4
		c6.6,0.6,13.8,1.7,20.1,4.2c4,1.6,6.4,5.4,10.8,3.7c0.2,1.5,34,6.1,38,7c7.2,1.5,15.4,2.3,22.4,4.7c2.4,0.8,3.7,2.9,5.7,3.8
		c2.9,1.4,6.3,0.3,9.9,0.4c11.8,0.3,26.9,1.3,38.3,5c4.8,1.5,13,5.7,6.8,9.3c-4.3,2.6-12.5,0.8-17.2,0.4c-7.7-0.6-15.4-1.2-23.1-2
		c-5.9-0.6-12.2-3.5-17.7-2.7c-0.1,2.2-1,2.9-2.6,2c-1.5-0.4-2.9-0.7-4.4-1c-3.3-0.7-6.7-1.1-10-1.6c-6.9-1.1-13.8-2.6-20.7-3.9
		c-5.5-1.1-12.1-1.5-17.1-2.7c-2.6-0.6-4.8-2.2-7.3-3.2c-1.3,1.2-2.4,1.2-3.2,0c-0.5-0.4-1-0.9-1.5-1.3c-3.3-0.3-29.7,3.6-29.5-1.3
		c-0.5,2.8-7.3-1-10.3-1.6c-6.2-1.1-12.4-1.8-18.6-2.4c-7-0.6-14-1.1-21-1.9c-5.6-0.6-9.2,0.7-14.7,0.9c-7.1,0.2-14.8,0.8-21.5,0.4
		c-4.9-0.3-8.8-1.3-13.9-0.8c-2.7,0.3-5.5,1-7.9,1.6c-0.7,0.6-1.3,1.2-1.7,2.1c-1.3-0.6-2.6-0.9-4-0.9c-18,1-35.2,4.4-54.7,3.5
		c-11.2-0.5-22.4-3.3-33.1-6.5c-2.2-0.7-20.1-13.3-16.8-1.8c-8.6-3.3-15.8-7.3-25.1-5.9c1.8,2.3,9.2,9.6,6.3,10.8
		c0.4,1.2,5.5,5.9,6.7,7.3c3.3,3.9,6.8,7.7,10,11.6c3.5,4.2,11.3,19,18.3,18.8c-5.2,3,0.9,10.9,2.9,15.7c-0.5,0.1-1,0.3-1.5,0.4
		c1.9,1.7,3.8,3.4,5.8,5c-9.5,1.6,13.1,21.8,16.5,25c3.9,3.8,5.3,7,8.7,10.8c3.5,3.9,9.4,4,13.3,7.2c-1.4-0.1-2.9-0.3-4.3-0.4
		c2.7,5.6,13.1,10.1,18,13.4c-1.3,0-2.5,0.1-3.8,0.1c4.2,2.3,7.9,4.7,12.5,5.7c3.4,0.8,11-1,13.5,1.8c-4.6,0-9.2,0.1-13.8,0.1
		c1.9,1.5,2.8,1.3-0.3,2.2c3.5,2.4,5.9,4.9,8.6,7.6c1.1,1.2,2.3,2.2,3.7,3c2,0.9,2.7,2.5,2.4,4.8c2.5,3.8,1.5,2.8,5.8,5.4
		c3.3,2,6.3,5.3,9.4,7.5c1.3,1.1,2.6,2.1,4.1,2.8c1.8,0.3,2.2,1.1,1.3,2.5c2.6,2.2,6.5,3.2,8.8,5.8c0.8,1.1,1.3,2.3,1.4,3.7
		c0.6,1.1,1.5,1.4,2.5,0.8c1.4-1.4,2.2-1,2.6,1.3c0.2,1.5,0.9,2.2,2.2,2.2c1,0.2,2.1,0.4,3.1,0.6c-0.5,1.9,0.4,3.3,2.7,3.9
		c3,3.4,7.4,5.6,10.7,8.6c5.2,4.8,6.4,11,12,15.7c5.6,4.6,9.9,9.9,14,15.6c-0.7,2.7,0.4,4.2,3.3,4.4c1.9,1,3.6,2.2,5.2,3.6
		c3.3,3.2,5,7.3,5.5,11.8c-8.6-2.8-12.6-7.6-19.7-13.1c-3.1-2.4-6.9-3.9-9.9-6.3c-4-3.2-5.1-8.7-9-11.9c-2.6-2.2-6.2-2.3-9-3.9
		c-4.4-2.6-7.5-7.1-11.3-10.5c-6-5.3-10.6-8.6-15.6-13.9c-4.9-5.1-10.6-9.2-16-13.6c-3.2-2.6-6.2-5.7-9.6-8.2
		c-2.7-1.9-3.3-1.6-5.9-2.7c-7.9-3.3-14.2-9.5-20.2-15.4c-4.7-4.7-10.5-13.1-16.5-15.9c0.3,0.5,4.7,6.8,3.8,7.6
		c-5.4-6.2-10.2-12.3-16.2-18c-2.9-2.8-5.8-5.3-8.8-7.9c-2.7-2.4-6.1-9-8-4.6c-4.9-6.9-9.6-15.5-16.1-21.1c-2.8-2.4-4.7-3.2-7.1-6.3
		c-3.1-4.2-5.3-12-10.6-10.2c-0.5-1.3,2-2.1,1.6-3.1c-0.5-1.1-1.2-2.7-1.9-4.3c-1.8-3.8-3.4-10.1-8-9.1c1.4-4.5-4.1-10.8-7.7-8.4
		c3-6.8-4.3-8.8-7.6-12.9c-3.1-3.9-5.3-19-12.6-9.4c-2.1-3.6-6.5-16-12.6-13.6c-2.8,1.1-2.9,7.6-3,10.6c0,2.2,1,5.5,0.2,7.6
		c-0.7,2.1-2.8,2.2-3.5,4.1c-1.9,5.1,0,14.2,0.2,19.4c-3.9-3-2.8-1.6-3.3,1.9c-4.7-3.4-1.2,14.3-6.4,12.9c0.7-2.1,1.3-4.2,2-6.4
		c-1.4-0.6-5,7.7-5.8,9.2c6-0.2-3.4,11.7-5.3,14.3c-2.1,2.8-4,5.6-6.1,8.4c-1.6,2.2-3.9,8.4-6.1,5.1c0.1,6.5-10,13.3-14.7,16.3
		c-6.3,4.1-8.5,8.4-13.5,13.6c0-1.2,0-2.5,0-3.7c-3.9,3.7-9.2,6.7-12,11.2c-4.1,6.4-7.1,14.8-10.1,21.8
		c-5.4,12.4-10.8,23.4-14.5,36.6c-0.5-0.9-1.1-1.8-1.6-2.7c-6.8,16.1-12,32.1-16.8,48.8c-2.8-3.6-5.8,9.2-6.6,12.3
		c-1.6,5.9-2.6,11.9-3.3,18c-0.9,0.2-1.4-0.3-1.5-1.4c0,2-0.7,2.8-1.9,2.3c0.2-1.6,0.5-3.2,0.7-4.8c-3.9,4.4-7.4,7.9-8.8,13.3
		c-1.2,4.8-3.6,7.3-5.8,12.1c-2,4.5-2.4,9-3.7,13.2c-1.8,5.6-4.8,12-6.7,18.6c-0.3-1-0.7-2.1-1-3.1c-0.5,3.1-1.3,3.6-2.2,6
		c-0.8,2.1-0.6,4.1-1.8,6.1c1,3,0,4.2-3.1,3.6c-0.1,0.2-0.2,0.3-0.3,0.5c-1.4,3.6-1.3,7.9-2.9,11.6c-2.2,5.2-5.2,10-7.3,15.3
		c-2.3,5.7-3.8,12.5-7.6,17.5c-3.7,4.9-8.8,7.7-12.4,12.7c-3.9,5.4-7.8,10.4-12.4,15.2c-6.1,6.3-12.4,12.6-18.1,19.3
		c-5.8,6.8-11.6,11.5-18.3,17.1C329.7,994.2,330.6,990.6,327.3,992.1z"/>
</g>
</svg>
