<?xml version="1.0" encoding="utf-8"?>
<!-- Generator: Adobe Illustrator 22.0.1, SVG Export Plug-In . SVG Version: 6.00 Build 0)  -->
<svg version="1.1" id="Layer_4" xmlns="http://www.w3.org/2000/svg" xmlns:xlink="http://www.w3.org/1999/xlink" x="0px" y="0px"
	 viewBox="0 0 1080 1080" style="enable-background:new 0 0 1080 1080;" xml:space="preserve">
<style type="text/css">
	.st0{fill:#A14A7B;}
</style>
<path class="st0" d="M308.9,368.6c7.8-13,25-19.4,36.9-27.5c9.9-6.6,17.8-15.9,27.7-22.3c26.7-17.3,57.1-6.2,84.3-17.1
	c24.8-9.9,41.3-14,69.1-14c27,0,54.1,0.1,81.1,0.2c48.9,0.1,105.7,5.6,151.9,21.6c23.4,8.1,47.4,15.8,70,26
	c22.3,10,38.9,23.8,62.7,30.6c61.9,17.7,88.7,72.7,93,132.6c1.2,17.1,10.4,24.7,22.3,35.9c14.3,13.5,48.1,43.2,32,63.9
	c-12.7,16.3-35.8,4.5-45,22.5c-5,9.8-3.5,20.2-10.5,30.1c-7.8,11-9.1,4.9-1.5,16.1c4.5,6.6,12.5,8.4,17.2,14.1
	c6.4,7.8,2.3,8,4.2,15.6c0.8,3.2,6.9,3.8,5.8,8.2c-1.3,5.2-9.1,2.2-9.5,4.2c-1.6,7.6,8.4,15.4,3.7,22.3c-1.5,2.2-6.8-4.2-8-3.5
	c-6.2,4.2-5.8,3.2-8.4,11.3c-1.4,4.5,1.5,9.8-1,14.4c-3.3,6.1-12.5,5.7-15.1,9.1c-3.2,4.2,0.5,24.2-4,27.6
	c-9.9,7.5-11.5-15.7-18.2-19.8c-6.9-4.2-17,3.3-23.4,2.9c-3.8-0.2-10-4.9-13.3-3.9c-1.8,0.6-4.1,6.3-4.1,6.3
	c-6.3,0.3,2.1,6.6-6.5,4.5c-2.6-0.6-9.6-12.5-12.6-14.7c-4.6-3.4-9.6-6.8-15.6-7.2c-2.6-0.2-11.8,5.2-13.6,3.7
	c-3.7-3.1-3.5-29.5-2.8-34.8c1.1-9.3,4.3-22.8-5.6-30.1c-10.4-7.6-25.7,0.8-37.4,5.4c-19.6,7.8-39.2,12.4-59.9,16.5
	c-45.1,8.8-89.8,16.8-135.9,14.5c-21.7-1.1-43.6-3.2-64.8-8.1c-21.1-4.9-40-16.7-61.2-20.6c-17.5-3.1-34.7,4.4-51.1,1.8
	c-13.6-2.1-27.6-11.8-41.8-14.8c-10.4-2.2-80.1-24.9-86-15.4c-3.9,6.2,11.3,16.8,13.7,22c7,14.9,0.1,17-7.7,27.1
	c-2.6,3.3-3.1,9.3-6.5,11.8c-4.7,3.4-13.4-0.3-16.6,3.6c-8.6,10.6,7.6,22.3-16.4,18.6c-6-0.9-12.7-6-17.6-3.9c-0.1,0,0.3,7.5-2.2,9
	c-2.5,1.5-22.9-3.2-26.2-4.3c-13.9-4.6-12.4-10.8-18.7-20.9c-3.9-6.3-8.6-8.6-11.9-16.1c-6.2-14.1-1.4-11.3-12.6-18.3
	c-7.1-4.4-9.5,0.1-12.1-12c-0.8-3.5-5.7-27.9-9.2-31c-4.9-4.4-6.2-13.2-5.3-19.3c3-19.7,22.6-19.5,34.3-30c4.2-3.7,12.5-3,5.9-10.5
	c-3.9-4.5-19.4-0.5-24.5-1.2c-15-1.9-22.7-10.4-35-17.4c-12-6.8-26.6-9.8-38.4-16.1c-7.3-3.9-12-11.5-18.9-15.2
	c-6.5-3.5-13.1-2.7-20-5.5c-3.9-1.9-7.7-3.9-11.4-6.2c-3.4-2.3-5-5.7-4.7-10.1c-0.2-0.2-10.5-6.8-10.2-6.4
	c-10.1-11.8-1.9-20.8-0.6-34.9c1.5-15.4-2.4-24.9,7.8-39.8c9.5-13.9,23.6-18.5,37-27c14-8.9,21.4-13.8,39.2-12.4
	c12.8,1,21.1,7.5,32.8,10.4c14.5,3.6,33.4,2.4,48.2,0.8c15.3-1.7,34.5-0.3,48.6-2.7c6.8-1.2,7.1-4.8,12.8-7.7
	c6.1-3.2,16.6-3.7,21.1-6.3C302.2,397.5,301.2,381.6,308.9,368.6z"/>
</svg>
