<?xml version="1.0" encoding="utf-8"?>
<!-- Generator: Adobe Illustrator 22.0.1, SVG Export Plug-In . SVG Version: 6.00 Build 0)  -->
<svg version="1.1" id="Layer_4" xmlns="http://www.w3.org/2000/svg" xmlns:xlink="http://www.w3.org/1999/xlink" x="0px" y="0px"
	 viewBox="0 0 1080 1080" style="enable-background:new 0 0 1080 1080;" xml:space="preserve">
<style type="text/css">
	.st0{fill:#A14A7B;}
</style>
<g>
	<path class="st0" d="M567.2,576.1c0-6.9,0-13.9,0-20.8c3.5,5.2,4.9,9,6,15.3c1.1,5.9,1.8,11.8,1.9,17.7c0.1,12.8,0.9,24.6,4.2,37.1
		c3.3,12.6,8.5,24.2,12.8,36.4c4,11.4,7.4,23.1,11,34.6c1.8-4.5,1.6-9.4,1.6-14.1c0-2.7-1.1-8.7,1.7-10.5c2.3-1.5,3.1,0.6,5.1-2
		c1.7-2.3,2.8-6.4,4-9.1c4.3-9.2,7.9-17.1,6.1-27.4c-1.5-8.9-5.2-17.3-7.6-25.9c-5.5-19.3-3.8-39.7-5.9-59.5
		c-2.1-20.6-3.5-40.8-4.2-61.5c6.1,1.4,5.5,7.3,6.5,12.6c1.1,5.8,2.1,11.6,2.9,17.5c1.6,12.3,2.4,24.6,3.9,36.9
		c1.5,12.1,1.2,24.3,2.2,36.4c0.5,5.9,1.3,11.8,3,17.4c0.4,1.5,2.1,9.3,5.2,6.5c0.7-0.7,0-6.8,0-8.1c0.4-12.6,4.1-24.7,4.6-37.3
		c0.4-12.4-3-23.9-5-36c-1-6.2-2.3-12.4-3.5-18.6c-0.6-3.1-3.2-9.9-1.6-13.1c2.9-5.7,6.7,0,7.3,3.6c0.9,5.3-0.5,10.3,3.5,14.8
		c0-19.4,3.8-38.3,4.4-57.6c0.6-20,0.5-40.1,0.5-60.1c0-10,0-19.9,0-29.9c-0.1-9.4,1.6-20.3-2.7-29c-4.2-8.4-9.3-16.4-13.6-24.8
		c-3.5-7-10.3-15.4-1.4-21.1c3.2,6.8,6.4,13.5,9.9,20.2c1.6,3,3.1,6,5.6,8.4c3.8,3.8,4.3,1.7,7-2c5.8,6.8,4.6,21.4,5,30.2
		c0.5,11,0.1,22,0,33c-0.2,22.1-0.6,44.3-1,66.4c-0.4,21.6,0.7,43.8-2.6,65.2c-3.4,21.8,0.2,40.4,7.9,60.8c4.2-3.7,2.5-13.7,3.4-19
		c1.1-7.2,2.9-14.2,5-21.1c4.1-13.4,10.8-25.9,14.3-39.4c3.4-13.1,3.8-27.2,4.6-40.6c0.9-14.3,1.9-28.6,2.9-42.9
		c2-26.6-2.1-52.2-3-78.8c-1-27.8,0.6-55.6,3.5-83.2c1.5-13.9,1-27.7,1.5-41.6c0.2-6.8,0.4-13.6,0.6-20.5c0.1-6.3-0.5-8.3-3.1-13.7
		c-6.7,13.4-14,25.4-23.4,37.1c-4.4,5.4-8.7,11.2-10.9,17.9c-2.1,6.5-1.4,12.9-3.6,19.4c-3.4-3.5-3.6-7.6-6.7-11.3
		c-3.1-3.7-7.6-4.9-10.5-8.9c-4-5.5-7.5-11.5-11.2-17.3c-2.9-4.6-6-8.2-5.2-13.9c0.7-5.3,3.1-6.8,6.7-10.1c3.2-2.9,2.9-4.2,0.4-7.7
		c-2.7-3.9-7.8-6.9-10-11c-1.5-2.8-0.1-4.6,1.1-7.9c1.1-3,2.1-5.9,3.2-8.9c3.4,3.4,6.8,6.9,10.2,10.3c1.2-13.5-5.3-25.8-9.1-38.4
		c1.5-0.2,7.2-0.1,8.2-1.1c0.9-0.9,0.4-6.4,0.4-7.5c0.2-3.5-0.7-9.4,1.5-12.3c0.8-1,2.2-2.2,3.6-2.3c3.4-0.1,3,3.1,4,6.1
		c1.8,5.5,3.5,11.1,5.3,16.6c2.6-3.2,3.2-7.6,5.9-10.8c2.9-3.6,7.7-5.3,11.5-7.8c4,10-1.2,21.2,3.9,30.9c4.3-4.1,14.4-7.4,15.4-13.8
		c0.6-4-2.3-7.3-3.7-10.8c-1.4-3.6-1.3-6.8-3.6-10c-2.1-2.8-5.2-5-6.1-8.7c-0.2-1-0.6-4.7,0.5-5.5c0.6-0.4,4,0.8,4.9,0.7
		c2.4-0.2,2.9-0.4,4.2-2.4c1.9-2.9,2.6-6,4.8-8.9c2.1,3.6,4.3,7.1,6.4,10.7c1.6-10.3-4-20.8,1.1-30.6c6.2,3.2,1.9,11.8,7.8,15.9
		c-1.6-10.1-2.4-20.2-2.9-30.4c-0.1-3-0.8-7.5,3.3-8.4c4-0.9,6.7,8.3,8.4,11.7c1.5-1.6,3-3.2,4.5-4.9c6.5,6.7,0.8,15.3,4.9,22.1
		c1.3,2.2,3.2,2.4,5.6,3c3.4,0.7,2.6-0.3,3.3,2.8c0.5,2.5-0.7,6.6-1,9.2c3.4-0.6,6.8-1.2,10.2-1.8c-1.6,6.6-2,9.4-0.3,16
		c0.8,3.1,0.9,5.3,0.1,8.5c-0.4,1.5-3.4,6.1-1.4,6.6c2,0.6,6.6-6.9,8.6-8.6c4-3.6,8.9-5.6,14.2-6.4c-5.1,9.5-14.5,17-16.4,28
		c4.1-1,5.4-2.2,8.2,1.3c1.5,2,3.1,4,4.1,6.3c1.9,4.4,1.3,8.6-0.4,13c-2.2,5.8-5.6,11.2-8.4,16.8c-2.6,5.1-4.4,10.6-9.1,14.2
		c-4.4,3.3-10.2,4-12.7,9.4c-2.3,4.8-0.8,10.8-0.3,15.9c0.7,7.2-2,13.2-2.5,20.4c-0.5,6.7,0.2,13.3,0.1,20c7.1-0.7,8.3-9.4,16.5-8.1
		c-4,5.3-7.8,10.7-12,15.8c-3.4,4.1-7.1,8.3-8.7,13.6c-1.1,3.4-0.7,4.8-3.6,7.1c-2.1,1.7-4.6,2.6-6.4,4.6c-3.5,4-3,8.7-0.2,12.9
		c4-3-0.3-9.1,4.9-11.9c0,7.6,1.5,15-0.4,22.4c-1.6,6.5-3.5,12.8-4.3,19.5c-1.9,14.5-1.1,29.7-1.1,44.4c0,14.7,0.6,29.4,2.9,43.9
		c2.3,14.5,2.3,26.5-0.8,40.8c-5.5,25.3-8.4,51.1-11.4,76.9c-3.1,26.9-5.8,54-10,80.7c-0.6,4-2.9,10.2,0.3,13.6
		c2.7,2.9,4.2,0.1,3.6,4.7c-0.4,2.8-1.8,5.9-2.6,8.7c-3.5,12.2-3.1,25.4-3.4,38c-0.4,13,0.4,26.5-2.4,39.3c-0.7,3.3-1.7,6.5-1.9,9.9
		c-0.2,3.3,1,6.3,0.8,9.5c-0.2,5.2-3.4,11.1-5,16c-8.8,25.3-16.6,51-24.2,76.7c-3.7,12.5-7.1,25.1-9.9,37.8
		c-2.6,11.8-4.5,23.7-9.4,34.9c-4.8,10.9-12,19.6-19.3,28.9c-7.4,9.3-9,17-3.2,27.8c5.4,10,16.8,15.3,24,24.1
		c3.6,4.3,6.5,9.2,10.3,13.2c3.1,3.3,8.2,5.1,9.1,9.5c-3.9-1-7.9-1.9-11.8-2.9c1.2,4,7.2,17.4-1.7,16c-5.8-0.9-10.7-12.7-13.8-17.1
		c-0.5,7.4-3,17.4-1.2,24.6c0.8,3.3,3.8,6,5.2,9.2c1.7,3.9,2.3,8.3,2.5,12.6c-6.5-2.8-10.5-7.9-12.8-14.5
		c-2.8-8.3,3.1-14.9,1.7-23.3c-1.1-6.9-3.7-15.2-6.7-21.5c-1.6-3.3-4.4-5.2-6.2-8.1c-1.1-1.7-1.1-4.1-2.5-5.8c-2.4-3-8.9-3.7-12-1
		c-2.2,2-0.6,21.3,1,24.9c1.3,3,4.2,5.3,5.7,8.4c1.5,3.2,2.5,6.7,4.4,9.8c2.1,3.3,4.8,5.6,5.9,9.5c1.1,3.8,0.8,8,0.1,11.8
		c-6.3-5.6-7.8-12.2-12.7-18.7c-4.7-6.2-11-11-15.7-17.2c-1.6,2.1-3.2,4.2-4.7,6.3c-4.2-4.7,3.7-11.3-4-14.5
		c-4.8,11.7,2.1,25.2,4.2,36.9c0.6,3.3,0.3,4.1-0.5,6.7c-0.6,2.1-1.4,3.5,0.1,5.7c2.5,3.5,10.9,1.1,11.8,5.2c0.5,2.1-2.2,4.4-4,5
		c-2.9,0.9-4.2-0.7-6.9-2.4c-2.6-1.6-5.1-3.2-7.7-4.9c-3.4-2.1-3.2-3.7-3.8-7.6c-1.8-13.3-3.7-26.8-9.6-39.1
		c-2.6,2.5-4.6,4.2-4.9,7.7c-0.5,4.7,1.4,10.4,1.8,15.2c0.2,2.5,0.2,16.7-2.7,9.2c-0.8-2,0.3-7.6-1.2-9c-1-1-4-0.1-5.2-0.8
		c-3-1.8-6.5-9.9-9-12.9c-3.4-3.9-5.2-7-3.9-12.3c1.3-5.4,3.7-10,4.7-15.7c0.2-1,2.4-7.3-1.3-5.7c-1.1,0.5-2.9,6.3-3.5,7.4
		c-3.2-6.3-1.2-8.1,2.3-13c4.1-5.7-4.2-7.1-8.3-9c3-3,13.2-10.6,13.3-14.4c0.2-3.3-6.5-10.3-8.2-13.3c-5.7-9.7-10.4-20-14.4-30.5
		c-7.5-19.8-12.9-40.3-19.8-60.3c-7.2-21.1-14.3-42.3-22.5-63c-4-10-8.7-19.6-13.5-29.2c-2.5-5-5-9.7-8.1-14.3
		c-2.1-3.2-7.6-9.2-7.9-13c-0.3-5,4.7-4.9,7.4-2c2.7,2.8,4.5,8,6.5,11.3c4.9,8.1,9.2,15.8,16.1,22.3c0.8-6.2,0.9-7.1-2.1-12.8
		c-2.2-4.1-4.4-8.3-6.6-12.4c-2.4-4.4-5-8.6-7.4-13c-2.3-4-1.6-7.3-3-11.3c-1.4-3.9-5.1-7-8.2-9.5c-0.8-0.7-4.9-3.3-5.3-4.2
		c-0.1-0.4,1.7-4.8,1.6-5.8c-0.7-7.8-10.4-9.8-7.1-18.7c14.6,18.4,30.5,35.9,50.9,48c1.4-8-1.5-16.3-3.3-24.1
		c-2.1-9.1-2.9-18.2-4.4-27.4c-1.5-8.7-4.8-17-5.3-25.9c-0.6-8.9-1.9-17.5-3.6-26.3c-1.8-9.5-3.5-19-3.9-28.6
		c-0.4-9,1.7-18.1,0-27.1c-1.4-7.4-7.4-16.3-6.7-23.8c0.2-2.5,1.7-5.9,4.7-5.3c2,0.4,2.6,3.4,4.7,4c1.3-4.2,2.3-6.5-0.5-10.1
		c-2.2-2.9-2.8-3.1-3.3-6.8c-0.5-3.5-0.3-7.3-0.4-10.8c-0.2-6.8-0.3-13.5-0.1-20.3c0.2-6.8-1.2-13.4-1.5-20.2
		c-1.4-28.6,0.6-57.2,0.7-85.8c0.1-13.6-4.1-24.2-9.9-36.3c-5.7-11.9-10.4-25.1-17.1-36.5c-5.8-9.9-17.4-12.9-26.2-19.2
		c-7.5-5.4-20.7-12.4-23.5-21.9c14.7,7,25.3,20.6,41.7,24.1c-0.2-3.6,0.4-4.4-2-7.1c-2-2.3-4.7-4-7.3-5.6c-5.5-3.3-11.4-6-17-8.9
		c-11.7-6.2-19.4-13.8-28.6-23c1.9-1.6,4.2-4.5,6.4-5.5c2.3-1,4.2-0.1,6.9,0.5c-3.3-5.5-8.9-8.8-12.5-14c-2.8-4.1,0.6-8-2.5-11.8
		c-3.4-4.2-10.6-6.3-15.1-9.2c-4.3-2.7-8-6.2-11.9-9.4c5.6,0,8.1-1.5,9.1-6.7c0.6-3.1-0.4-3.6,3-4.1c3.4-0.5,7.7,0.4,11.2,0.5
		c-0.6-3-1.1-6-1.7-9c11.4,3.7,14.3,17.5,25.6,21.1c-3.3-5.6-7.4-11.2-9.9-17.2c-2.2-5.1,1.6-8.4-0.1-13.5
		c-2.3-6.7-5.4-8.1-1.6-15.2c1-2,1.9-3.6,2.7-5.7c0.5-1.5,1.1-3.1,1.7-4.6c0.7-0.2,1.4-0.4,2.1-0.7c1.8-1.4,2.2-1.2,3.2-3.4
		c0.7-1.5-0.7-2.8,1.3-4c4.5-2.9,8,6.1,9.6,8.7c1.1,1.8,7.2,14.6,9,14.9c3.1,0.5,3.5-14.6,3.9-17.7c4.5,1.6,4.9,4.6,7.2,8.2
		c2.7,4.3,8,4.6,10.9,8.1c2.1,2.5-2.5,9.9-2.1,14c0.2,1.5,1.1,5.6,2.6,6.1c1.3,0.4,7-3.2,8.3-3.9c0.2,4.3-0.1,7.1,1.2,11.2
		c1.3,4.1,1.6,7.2,0.5,11.5c-2,8-5.9,15.4-7.9,23.3c-1.8,7.5-2.8,15.1-6.3,22c-1.7,3.4-4.8,6.6-4.5,10.7c0.2,3.5,2.2,7.4,3,10.9
		c1.7,7.6,4.1,15.4,6.9,22.7c2.9,7.5,7.4,14.2,10.9,21.5c6.2,13,9.1,28.4,21,37.9c-1.2-41.4-2.3-82.8-3.1-124.3
		c-0.1-3.6-1.1-8.8,1.3-11.9c2.1-2.7,5.9-3,8.4-5.4c2.7-2.7,3-6.1,3.9-9.6c1.1-4.1,2.8-7.9,5.1-11.5c4.6-7,11-12.6,16-19.3
		c5.3-7.1,8.8-15.2,13.4-22.8c4.2,8.4-3.8,15-4,23.2c2.8-2.8,10.1-12.6,13.7-10.8c-2,3.7-3.9,7.4-5.9,11c3.9,1.1,7.5,1.4,9.5-2.5
		c1.3-2.6,0.8-6,3.3-8c2.3,4.2,4.7,8.4,7,12.7c3.7-3.1,0.8-10.8,5.1-12.9c2.5-1.2,2.7,0.7,3.8,2.9c1.1,2.2,1.9,4.6,3.1,6.7
		c1.1,2,2.3,3.8,4,5.2c1.5,1.3,6.4,2,7.2,3.1c1.6,2.2-1.9,8.6-2.5,10.7c-0.8,2.8-0.9,5.8-0.4,8.6c1.4,7.2,6.4,12,3.8,19.8
		c-1.8,5.3-5.9,8.4-2.6,14.1c2.6,4.4,4.5,7.9,3,13.4c-0.3,1-1.5,2.5-1.6,3.6c-0.5,3.2-0.6,0.9,0.9,3.5c1.1,1.8,3.1,2.8,3.8,4.9
		c1.6,4.8-2.9,11.7-4.7,16c-2.5,6.2-5.1,12.4-7.7,18.6c-5.6,13.6-9.3,26.3-10.5,41c-2.4,28.5-8.5,56.5-14.4,84.4
		c-1.6,7.5-3.2,15-4.8,22.4c-1.3,5.9-4.1,13.1-2.4,19c1.8,6,4.6,12.3,7.4,17.9c1.2,2.4,2.7,6.1,4.8,7.9c2.5,2.2,3.1,0.9,5.9-0.8
		c-3.6,16.1,5.4,31.3,12.3,45.2c1.8,3.5,6.8,14.1,12.2,8.2c3.7-4,0.2-10,4.9-14.1c1.8,14.9,2.6,29.7,5.2,44.5
		C552.5,557.3,559.7,567.1,567.2,576.1z M504.3,302.2c10.6-11.7,24.6-23,22.5-40.4c-1-7.8-4.7-14.8-7.2-22.2
		c-2.9-8.6-5-17.5-6.5-26.5c-1.4-8-3-16.1-4.2-24.2c-0.8-5.1,0.8-6.8,2.5-11.3c1.7-4.4-0.8-8.2-2.9-12.1c-6.7,5.1-13,10.8-19.8,15.8
		c-6.8,5-13.9,8.3-21.4,12.1c-13.6,7-11.5,24.6-10,37.4c2.2,18.3,3.9,36.7,5,55.1c1,17.3,0.5,35,3.9,52
		C479.7,326.5,492.4,315.4,504.3,302.2z M461.7,397.4c-0.2,6.9-0.4,13.8-0.6,20.6c-0.4,14.7-0.7,29.3-0.5,44
		c0.5,25.4,3.1,50.8,5.2,76.2c0.4,5.3,2,8.9,4.9,13.4c0.9,1.4,2.5,5.1,4.2,4.9c2.1-0.2,2.6-5.2,3-7.3c2.2-11.9,1.3-24.6,2.5-36.6
		c1.2-12.4,3.4-24.7,5.6-37c1.1-6.2,2.2-12.3,3.2-18.5c0.9-5.4,3-11.1,3.2-16.5c0.4-11.6-7.7-23.2-12.6-33.3
		c-4.7-9.5-8.6-21.8-16-29.3C461.3,384.1,461.9,390.7,461.7,397.4z M495.7,325c-9.6,6.8-18.4,14.9-24.6,25.1
		c-7.1,11.5,5,26.1,10.2,36.3c5.5,10.9,9.5,23.2,17.7,32.2c9.1-39.4,22.1-78.4,20.9-119.3C512.5,308.2,505.3,318.3,495.7,325z
		 M539.2,563.8c3.9-3.3,4.9-3.5,3.7-8.7c-1.7-7.2-3.6-14.3-5.9-21.4c-5.1-15.7-11.7-30.9-19.8-45.3c-3.9,6.8-8.1,14.3-7.4,22.4
		c0.7,7.8,3.3,16.5,5.3,24.1c2.3,8.8,5.4,17.6,7,26.7c1.5,8.6,2.4,17.3,4.8,25.7c6-6.8,1-16.7,4.8-24.3
		C535.3,565.5,535.8,566.7,539.2,563.8z M632.7,656.5c-1,10.2-1,20.6-1.7,30.9c-0.5,7.8-1.5,15.4,8.2,16.2c7.7,0.6,9.8-2.5,8.3-9.4
		c-1.9-8.3-0.6-17.2-4-25.2c-1.4-3.3-2.9-7-1.1-10.7c1.3-2.7,4.1-3.7,6.3-1c2.4,2.9,1.4,9,1.4,12.6c0.1,4.5,0,9,0,13.5
		c5.4-6.9,4.8-21.6,4.9-29.8c0.1-7-0.5-13.9-0.8-20.9c-0.2-4.5-0.3-9-0.4-13.4c-0.1-3.6,1.3-10.4-2.5-11.2
		C641.8,622.5,634.3,638.8,632.7,656.5z M528.2,626.7c1.1,13.7,1.6,27.5,1.9,41.3c0.1,6.9,0.1,13.8,0.1,20.7c0,3.3,0.6,7,0.3,10.3
		c-0.3,2.9-1.5,5.5-1.5,8.4c0.2,9.6,9.2,15.9,15.3,22.1c3.6-5.6,2.7-9.4,2.2-16c-0.5-6.4-1.1-12.9-1.7-19.3
		c-0.6-6.4-1.1-12.9-1.9-19.3c-0.6-5.2-2.9-9.6-4.5-14.5c-3.8-11.3-4.7-24-6.3-35.8c-1.4-10.3-0.2-19.7-0.2-30
		C522.9,602.8,527.3,616,528.2,626.7z M506.1,492.3c4.3-4.9,9.2-11.1,7.7-18.1c-1.4-6.8-7.9-14.5-12.3-19.8
		c-12.7,50.1-13.9,102-11.8,153.4c3.5-12.1,3-24.8,3-37.3c0-11-1.2-23.4,1.3-34.2c1.3-5.6,2.9-10.4,3.6-16.2
		c0.6-5.2,1.2-10.4,1.8-15.6c0.6-5.5,1.2-11.1,1.9-16.6c0.4-3.3,0.5-5.2,4.7-5.8C506.1,485.5,506.1,488.9,506.1,492.3z M559.3,655.1
		c0.1,7.2-1.6,12.6-3.1,19.4c-1.3,5.6,0.4,12.9,0.6,18.7c0.2,6.5-0.6,14.2,3.4,19.8c5.1-13.5,13.3-25.1,9.1-40
		c-2.2-7.9-3.6-15.8-4.7-23.9c-0.5-3.8-1-7.7-1.6-11.5c-0.5-3.6,0.2-5.9-3.7-6.1C559.3,639.4,559.2,647.3,559.3,655.1z M467.6,581.4
		c0.6,10.4,1.6,20.8,2.8,31.2c1.2,10.8,2.7,21.6,4.6,32.3c1.1,6.4,2,13.6,4.7,19.5c3.6-18.4-1.9-36.4-2.7-54.9
		c-0.4-9.3-0.3-18.6-0.4-28c0-4.6-0.2-8.6-1.8-13c-1.6-4.2-3.1-4.2-6.8-6.2C466.2,568.2,467.3,575.5,467.6,581.4z M692,260.2
		c6.3-2.9,7.2-7.9,8.4-14.2c1.3-7,2.7-14,3.4-21.1c0.6-6.6,1.2-13.5-1.2-19.8c-1.5-4-5.9-13.3-10.6-12.1
		C692,215.4,692,237.8,692,260.2z M501,842.3c3.9-20.9-18.8-92.4-32.5-104.2C479.5,773.4,490.3,807.9,501,842.3z M589.6,707.7
		c0.1-7.4,3.5-14.1,1.5-21.6c-1.8-6.6-6-14.1-10.3-19.4c-1.4,14.5,3.2,28.9,2.4,43.6c-0.8,13.9-4.6,29,4.1,41
		C589,736.7,589.5,722.4,589.6,707.7z M640.7,708.8c-6,23.1-15.5,45.9-6.5,70.1C642.5,755.9,642.5,732.4,640.7,708.8z M511.7,547.4
		c-2-8.8-2.9-23.1-9.3-29.6c-1.3,10.2-2.2,20.6-2.8,30.9c-0.3,4.9,0.1,7.2,2.7,11.3c2.5,3.9,2.3,6.3,3.2,11
		C515.5,564.8,514.1,557.5,511.7,547.4z M564,727.5c-1,6.5-0.6,13.5-0.7,20.1c-0.1,13.7-2.1,29.5,0.9,42.8
		c5.2-3.1,3.2-12.7,3.2-17.7c0-7.8-0.3-15.6-0.2-23.5c0-3.6,0.5-6.8,1.9-10.1c1.7-4.1,2-6.4,2.2-11c0.1-6.5,1.1-12.1-2-17.9
		C567.6,716,564.9,721.5,564,727.5z M577.3,790.3c-1,9.1-0.6,18.2-0.6,27.4c5.7-7.4,17.8-59.6,3.2-58
		C580,770.1,578.5,780,577.3,790.3z M536.4,760.3c5.2-14.6,4.7-29.3-8.9-37.1C524.8,737.3,526.1,749.6,536.4,760.3z M656,175.6
		c-2.2,4.7-5.6,9.1-6.3,14.3c-0.5,4.6,0.9,9.3,2.6,13.5c4.3-12.2,8.6-24.4,12.8-36.6c2.9-8.3,6.4-13.9,0.5-21.2
		C663.3,155.9,660.4,166.1,656,175.6z M517.4,661.1c-0.6-4.6-2.6-8.6-3.6-13c-0.9-4-0.5-8.3-1-12.4c-4.1,6.6-3.3,16.7-2.8,24
		c0.7,9.8,2.5,20.1,6.8,29.1C516.7,679.6,518.6,670.3,517.4,661.1z M522.3,849.3c-2.1-9.3-4.4-18.5-7.1-27.6
		c-0.6,18.5-0.4,37.2,10,53.3C529.1,868.6,523.9,856.5,522.3,849.3z M511,608.1c13.2-6.4,7.3-23.8,6-35.1
		C504.8,582.4,509.3,594.7,511,608.1z M527.6,782.3c-5.2,19.5-2.6,37.8-0.2,56.2C529.8,820.1,532.1,801.8,527.6,782.3z M504.4,605.4
		c-4.1,14.9-3.3,30.5-0.3,45.6C506.3,635.1,509,621.2,504.4,605.4z M503.4,691.5c-2.8,6-3.5,27.9-1,43.2
		C506.2,726.4,506.5,700.5,503.4,691.5z M403.1,238.2c-0.2-15-6.7-22.5-22.1-24.6C388.4,221.9,395.8,230.1,403.1,238.2z M546.5,841
		c0.2-4.8-3.7-11.7-5.2-16.2c-5.9,8-5.2,22.3-3.3,31.4c0.3-2.7,0.6-5.3,0.9-8C542.8,846.8,546.3,845.5,546.5,841z M518.1,778.7
		c-0.1-3.3,0.5-19.3-4.9-11.5c-2.8,3.9-0.2,13.1,0.2,17.7c0.3,3.4,0.6,6.8,1,10.3c0.3,3.7-0.6,5.1,3.3,5.1
		C517.8,793,518.2,785.8,518.1,778.7z M639.1,582.1c-1.2,9.8-2.3,19.6-3.5,29.4C645.9,602.2,644.3,592.3,639.1,582.1z"/>
	<path class="st0" d="M476.1,119.3c-2.8,0.8-5.6,1.7-8.5,2.5c0-2.5,0-5,0-7.5c-3.3,0.2-6.6,0.4-9.8,0.6c-5.1,0.3-4.9,0.3-5.8,5.3
		c-1.2,6.6-2.5,13.2-3.3,19.8c-1.6,13.6-0.9,27.4,4.3,40.3c4.5-4.1,8.9-8.5,12-13.8c2.7-4.5,3.6-9.4,5.3-14.3
		c1.9-5.5,4.3-10.7,5.9-16.3C478.2,129.3,477.5,125.7,476.1,119.3z"/>
	<path class="st0" d="M620.4,465c3.7-6.7-0.7-16.4-2.5-23.7c-1-4-1.9-8-3.8-11.8c-2.3-4.7-3.1-5.3-7.8-7.2
		c1.7,7.7,3.4,15.5,5.4,23.2c0.9,3.5,1.9,7,2.9,10.5C615.8,459.7,616,465.1,620.4,465z"/>
</g>
</svg>
