<?xml version="1.0" encoding="utf-8"?>
<!-- Generator: Adobe Illustrator 22.0.1, SVG Export Plug-In . SVG Version: 6.00 Build 0)  -->
<svg version="1.1" xmlns="http://www.w3.org/2000/svg" xmlns:xlink="http://www.w3.org/1999/xlink" x="0px" y="0px"
	 viewBox="0 0 1080 1080" style="enable-background:new 0 0 1080 1080;" xml:space="preserve">
<style type="text/css">
	.st0{fill:#A14A7B;}
</style>
<g id="Animal">
</g>
<g id="Layer_4">
	<path class="st0" d="M1043,503.9c-1.2-4.6-0.6-9.6-2.4-14.3c-2.2-5.7-6.6-11.1-10.1-16.1c-6.8-9.8-13-19-23.2-25.4
		c-9.5-5.9-19.2-11.4-30.5-12.6c-11.1-1.2-23.4,4.6-33.3,9.1c-21.5,9.8-42.9,22.3-62.7,35.2c-13.1,8.6-26.7,14.7-42.3,17.4
		c-10.8,1.9-25.1,4.2-35.6,0c-3.9-1.6-12.2-4.6-14.8-7.9c33.8,0,87.2,0.6,95.5-42c0.8-3.9,0.5-7.6,0.3-11.5
		c-0.2-4.8,1.4-8.9,0.7-13.6c-1.4-8.8-3.5-18-5.8-26.6c-4.6-17.7-15.3-37.7-27.4-51.4c-13.7-15.5-29.8-29-46.1-41.6
		c-15.8-12.2-33.1-20.6-50.9-29.2c-8.3-4.1-17-4.7-25.8-7.1c-10-2.7-20.3-3.6-30.6-5.2c-20.9-3.2-41.7-5.4-62.9-6.8
		c-17.9-1.2-36.1,1.3-54-0.2c-9.4-0.8-18.8-1.6-28.1-2.5c0.7-1.3,6.6-9.8,4.8-10.9c-2.4-1.5-7.5,6.5-9.7,7.7
		c-1.4,0.7-4.3,1.6-5.7,0.1c-2.4-2.7,4-12.4,5.1-15.2c2.9-6.9-2.5-2-5.6,0.1c-3,2.2-2.6,1.8-6.3,0.1c-0.9-0.4-5.2-1.6-5.6-2.5
		c-1.1-3,6.5-9.6,7.5-12.4c1.5-3.9-0.3-2.7-2.9-0.5c-1.8,1.5-3.4,3.1-5.1,4.7c-1.7,1.6-8.1,8.6-11.3,5.6
		c-4.4-4.1,11.1-21.3,8.5-22.4c-3.9-1.8-13.3,12.2-17.5,13.4c-10.7,3.1-1.8-15.3,0-19.1c1.9-3.9,6.2-14.6-1.1-6.9
		c-4,4.1-7.4,8.6-10.5,13.4c-6.5,9.9-11.4,20.8-16.8,31.3c-0.3-1.8-0.5-6.8-1.1-7.4c-1.7-2-2.3,1.5-3.6,3.7
		c-4.4,7.2-15.9,10.9-23.5,14.1c-17.6,7.6-35.2,14.6-52.6,22.8c-17.2,8.1-34,17.2-51.4,24.8c-18.1,7.9-36.5,15.4-53.4,25.7
		c-16.6,10.2-34.4,17.9-51.8,26.4c-17.9,8.8-35.6,17.9-53.5,26.8c-17.4,8.6-34,18.2-50.9,27.6c-16.6,9.2-27.9,20.3-38.6,35.8
		c-5.2,7.5-10.4,14.5-14.4,22.7c-4.5,9.2-8.3,18.7-12.9,27.9c-3.8,7.5-9.9,13.1-13.7,20.6c-3.5,7-11.7,8.3-15.1,16.1
		c-2.7,6.3-0.5,12.4-3.6,18.3c-4.1,7.6-4.4,14.1,1.2,20.9c12.2,14.8,26.2,27.5,39.4,41.3c26.7,27.9,59.7,50.1,81.1,82.6
		c3.6,5.4,8.1,16.2,16,11c2.7-1.8,4.8-4.6,7.3-6.7c4.5-3.8,7.9-1.8,12,1.8c6,5.2,10.2,12.1,15.8,17.7c5.9,6,13.4,9.9,21.2,12.8
		c20.3,7.5,41.2,14.7,62,20.6c9.8,2.8,19.3,7,29.3,9.1c3.6,0.8,10.9,0.4,13.6,2.8c2.7,2.4,1.9,10.4,2.3,13.8
		c2.3,22.4,3.2,44.5,9.7,66.2c1.4,4.7,2.8,11.6,5.7,15.6c5.3,7.2,1.6-5.2,1.1-8.2c-1.8-11.1-1.5-22.4-1.7-33.6
		c2.9,2.9,3.4,12.5,4.5,16.4c1.5,5.2,3.1,10.4,4.9,15.6c3.4,10.2,7.5,19.8,12.6,29.3c3.5,6.6,5.4,18.1,14.8,17.2
		c7.9-0.8,17.4-8.8,22.1-14.8c13-16.7,9-39.3,7.7-59c-0.3-4,0-9-1.7-12.8c-1.7-3.9-5.7-6.6-8.7-9.4c-8-7.6-15.2-15.8-22-24.4
		c28.2,9.4,57,11.4,86.5,12.5c7.3,0.3,14.6,0.4,21.9,0.1c3.7-0.1,7.3-0.4,10.9-0.7c1.9-0.2,9.5-2.4,10.9-1.5
		c1.5,0.9,2.5,7.2,3.1,8.9c1.1,3.4,2.1,6.8,3.2,10.1c2.2,6.5,4.8,12.9,8.6,18.6c3.9-6.6,0.9-15.5,3-22.8c0.5-1.7,1.2-4.2,3.8-4.1
		c0.1,0,5,3.6,5,3.3c3.9-2.3-1-10.3,2.2-13.8c1.2-1.3,7.2-4.1,8.8-3.5c0-6.1-1.2-13.2,5.9-15.7c7.6-2.7,15.6,0,22.5,3.3
		c14.5,7,32.7,9.1,48.6,9.6c8.6,0.3,17,1.3,25.6,1.8c8.7,0.4,17.4-1.3,26-2.5c8.6-1.2,17.2-2.5,25.7-4.1c6.7-1.2,13.6-1.5,19.2-5.6
		c4.6-3.4,10.2-4.4,15.6-7c8.3-3.9,16.3-8.8,24.2-13.5c13.8-8.4,26.9-17.5,39.7-27.4c13.8-10.7,25.3-23.4,36.9-36.5
		c4.9-5.5,8.3-11.3,11.8-17.7c4.3-7.9,10.3-16,13.3-24.4c2.6-7.4,5.5-16.8,6-24.6c0.5-9-1.8-15.6-6.3-23.3
		c-9.2-15.7-26-23.1-43.4-27.1c9.8,1.8,19.6,3.6,29.4,5.4c11.6,2.1,21.8,3.2,32.2,9c11.5,6.4,23.3,11.9,35.3,17.2
		c11.9,5.3,24,11.3,36.7,14.2c11.6,2.6,23.6,4.7,34.6-0.9c8.9-4.6,16.9-15.8,22.4-23.9c3.7-5.5,7.7-10.8,10.1-17.1
		c2.4-6.2,4.2-12.9,6.3-19.2c2.4-7,3.2-14.2,4-21.5C1042.1,517.8,1044.9,511,1043,503.9z M248,669.5C248,669.5,248,669.5,248,669.5
		C248,669.5,248,669.5,248,669.5z M846.3,340.9c-1.2-1.2-2.4-2.4-3.6-3.7C844,338.3,845.2,339.6,846.3,340.9z"/>
</g>
</svg>
