<?xml version="1.0" encoding="utf-8"?>
<!-- Generator: Adobe Illustrator 22.0.1, SVG Export Plug-In . SVG Version: 6.00 Build 0)  -->
<svg version="1.1" id="Layer_4" xmlns="http://www.w3.org/2000/svg" xmlns:xlink="http://www.w3.org/1999/xlink" x="0px" y="0px"
	 viewBox="0 0 1080 1080" style="enable-background:new 0 0 1080 1080;" xml:space="preserve">
<style type="text/css">
	.st0{fill:#E08B1B;}
</style>
<path class="st0" d="M1034.9,574.2c-5.2-23.1-21-39.3-45.3-42.7c-7.1-1-18.4,5.4-21.4-3.3c-1.3-4-0.9-8.9-1.8-13
	c-1.3-5.5-3.6-10.2-6.5-15c-4.5-7.2-9.1-17-7-25.8c2.1-8.7,12-13.6,16.8-20.9c5.8-8.8,9-19.3,12.5-29.2c2.6-7.3,7.4-17.4,2.4-24.6
	c-4.4-6.4-12.2-11.4-17.6-16.9c-6-6.1-11.6-13.5-18.2-19c-9.8-8-27.4-2.1-39.3-3.6c-20.1-2.6-41.4-4.7-61.4-0.6
	c-8.4,1.7-16.9,5.2-25.6,3.2c-7-1.6-13.3-6.6-19.4-10.1c-17.5-9.9-35.5-17.4-53.6-25.8c-13.9-6.5-22.6-19.8-34.1-29.4
	c-7.1-5.9-16.5-7.4-25.2-9.5c-7.9-1.9-15.9-4.5-23.9-5.9c-8.7-1.6-16.5,2.8-24.6,5.4c-39.6,12.7-84,17.2-125.2,11.9
	c-18.2-2.3-35.3-6.5-53.9-6.4c-19.3,0.1-38.6,1-57.9,1.1c-6.9,0.1-13.5-0.6-20.1-2.8c-17.6-5.9-34.9-12.6-52.7-17.8
	c-6.5-1.9-13.4-4.1-20.3-3.7c-9.5,0.7-18.7,7.5-28,7c-7.3-0.4-11.5-7.7-16.3-12.3c-6.5-6.2-13.2-11.6-21.5-15.2
	c-19.6-8.3-47.3-6.4-64.6,6.5c-8.9,6.6-13.6,15.3-15.7,26c-1.4,7,0,18.4-6.4,23.2c-5.2,4-14.3,6.6-20.3,9.6c-9,4.5-18,9-27,13.5
	c-12,6-23.3,11.4-34.5,18.7c-15.6,10.1-32.6,17.2-41.8,34.4c-10.5,19.7-2.8,41.2,13.1,55.2c7.4,6.5,16.3,10.2,22.9,17.6
	c6.1,6.8,11.7,13.3,19.1,18.8c12.7,9.4,29.2,12.1,43.5,18.2c8.7,3.7,21.2,8.1,26,16.9c2,3.8,1.4,8.6,3.9,12.1
	c2.4,3.4,5.6,3.7,9.4,4.5c14.7,2.9,26.2,12.3,39.1,19.6c17.1,9.7,35.4,17.3,52.7,26.8c6.9,3.8,14.1,7.3,20.6,11.8
	c8.7,6,14.1,11.9,24.5,14.6c11.9,3.1,7.8,17-2.7,19.4c-4.3,1-10.1,1.1-14.4,0c-5.9-1.4-8.8-6.5-14-9.1c-11.5-5.9-19.3,0.6-14.1,12.4
	c1,2.2,3.3,3.8,1.3,5.8c-1.8,1.8-7.4,0.7-9.5,0.4c-6.4-0.6-14.7-4.3-21-3.5c-9.1,1.2-9.6,9.6-2.3,12.7c9.1,3.9,19,3.3,28.5,5.2
	c10.9,2.1,20.2,8.9,30.8,12.1c9.9,3,19.7,5.1,29.2,9.4c10.4,4.7,20.2,10.7,29.9,16.6c16.7,10.1,34.9,25.6,54.9,27.6
	c22.6,2.3,46.6-9.1,67.1-17.1c7.9-3.1,15.6-6.6,23.4-9.9c11.2-4.8,22.9-4.5,34.8-2.8c9.5,1.3,18.1,6.5,27.7,8.1
	c10.9,1.8,24.3,7,35.3,4.1c1.4,11.4,4.1,23.1,10.1,33c4.1,6.8,9.6,12.1,12,19.9c3,9.7,1.5,16.5-9.2,14.3c-11.7-2.4-21.5-7.1-33.6-7
	c-36.3,0.3-71.7-15.9-108.4-12.3c-8.7,0.8-17.2-0.3-25.9,0.3c-4.7,0.3-27.3,9.2-19.3,15.5c2.7,2.1,11.5,0.3,14.5,0.1
	c5.6-0.4,11.2-1.4,16.8-1.2c12.2,0.2,24.6,3,36.6,4.8c19,2.9,36.4,10.8,53.6,18.9c17.4,8.1,36.7,5.2,54.5,12.9
	c10.5,4.5,7.4,5.7-1.5,7.4c-9.4,1.9-17.1,3.5-25,9.4c-5.7,4.2-22.3,18.6-20.1,26.9c1.3,4.9,8.1,4.7,11.7,2.5
	c4.3-2.6,6.6-8.5,10.3-11.9c17-15.6,38.5-10.5,59.4-9.6c18.3,0.8,35.1,5.8,52.9,9.9c19.1,4.3,38.7,6.1,58.1,8.5
	c18.2,2.2,37.4,6.2,55.8,4.6c15.5-1.4,30.9-6.6,46.1-9.8c14.8-3.1,29.5-7,44.3-10c11.5-2.4,24.4-2.3,35.4-6.8
	c12.1-5,16.3-14.2,23-24.4c8-12.1,17.3-23.4,25.6-35.3c5.2-7.5,10.2-14.8,14.1-23c6.6-14,12.6-28.2,19-42.2
	c11.3-24.7,24.6-49.5,29.2-76.5C1037.1,596.4,1037.4,585.2,1034.9,574.2z"/>
</svg>
