<?xml version="1.0" encoding="utf-8"?>
<!-- Generator: Adobe Illustrator 22.0.1, SVG Export Plug-In . SVG Version: 6.00 Build 0)  -->
<svg version="1.1" id="Layer_3" xmlns="http://www.w3.org/2000/svg" xmlns:xlink="http://www.w3.org/1999/xlink" x="0px" y="0px"
	 viewBox="0 0 1080 1080" style="enable-background:new 0 0 1080 1080;" xml:space="preserve">
<style type="text/css">
	.st0{fill:#A14A7B;}
</style>
<path class="st0" d="M508.2,966.5c-2.3,3-4.6,6.1-6.9,9.1c-2.4-0.8-2.6-3-0.4-6.6c-10.2,9.4-8.8,30.8-19.4,39
	c1.2-4.3,0.3-6.8-2.7-7.2c-2.7,5.9-4.4,12-4.9,18.5c-2-7-4.4-6.2-7.2,2.5c-2.6-17.6,7.7-26.5,16.4-39.5c-2.1-1.3-4.7,2.3-6.9,3.6
	c-2.3-3.8-1.7-7.3,1.8-10.4c-8.7,0.4-6.3,4.8-5.8,12.9c-8.2-2.3,0.9-9.8-5.6-12.5c-1.5,3.7-4,6.5-7.3,8.5c-0.7-4.2-3-5.7-7-4.3
	c2.9-12.2,11.6-6.4,15.4-21.8c-10.5-1-46,8.1-51.5,2.7c-1.2,4.8-2.4,9.6-3.6,14.4c-3.8-9-9.4-8.4-17.4-2.1c-2.4-3.7,5.7-3.9,2.4-7.8
	c-2.9,5.9-5.8,7.6-8.7,5.2c5.6-2.6,7-5.2,4.4-7.8c-9.6,7.5-11.9,11.5-8.4,1.3c-1.6,1-12.6,0.7-13.4,0.4c0.5,0.2-3.9,10.5-4.4,11.1
	c-2.3-3.7-2.7-7.8-1-12.3c-2.2,4.2-4.4,8.5-6.6,12.7c-1.3-2.6-3.1-4.9-5.4-6.7c-1.2,2.6-2.7,5.1-4.4,7.4c-7.1-22-0.1,6.4-10.8,1.3
	c3.2-12.2-7.6,0.3-13.2-1c3,4.4,3,7.5,0,9.4c-3.9-7.4-7.4-6.9-10.4,1.6c-0.8-6.6-3.3-6.9-7.4-0.9c-0.8-12.2,11.2-8.7,15.5-14.1
	c-10.7-6.2,3.1-4.6,0.9-12.2c-1.4-5.1-6.6-4.4-5-11.7c-7.1,0.7-8.2,7.7-12.8,11.6c2.9-16.3-20.6,21,2.3-12.3
	c-11.7,0-0.2-15.9-0.7-15.9c0.8,15.1,5.7-1.3,8.5-5.9c-2.8-4.8-2-8.2,2.4-10.2c4.1-0.4,6.8-2.5,8.1-6.5c-5.6,5.3-9,6-10.4,2
	c2-0.9,13.4-7.8,16-6c-2.2,5.6-4.3,11.2-6.5,16.7c8.1,1.7,10.7-19.1,21.1-23.2c-3.3,3.6-4.9,7.6-4.7,12.1c14.9,0.1,21-18,31.9-24
	c-9-3.9,6.4-15.5,9.1-20c-2.7,1.6-5.4,3.1-8.1,4.7c3.9-8,6.6-14.9-0.8-4.9c-5.7-3.5,16-27.9-5.7-3.4c4.9-16.2,31-16.4,24.7-32
	c-1.8,5.7-5.4,10-10.8,12.8c-3.4-2.3-5.1-5.7-5.1-10.3c-2.4,5.3-4.8,10.6-7.1,16c-1.3-0.4-9.1-1.4-9.3-1.5c17.3-23.6-7.7,1,4.9-19.3
	c-10.2,5-12.9-4.3-15.6,9.6c2.1,0.2-9.6-9.7-8-7.6c-1.3,1.1-2.7,2.2-4,3.4c0-13.7,3.6-19.3,5.1-32.3c-9.7,6.4-8,5.4-6.1-7
	c-7.2,2.6-7.7,13.6-1.1,15.6c-3.8,4-7.6,5.2-11.5,3.6c5-9.7-2.3-10.8-1.7-24.3c0.4-7.6,17.6-30.4,12.3-34.1
	c-5.2,5.6-19.8,14.7-16.5,23.6c-5.2-0.1-6.1-9.5-12.8-10.5c-3.7-0.6-7,8.9-9.6,11.4c-1.6-3.8-1.2-7.4,1.3-10.9
	c-11,6.4-15.4,7.1-18.6,18.3c-3-3.6-4.2-7.9-3.7-12.8c-9.5-0.8-1.4,20.8-9.6,19.9c0.7-6.7,5-14.8-3.3-13.1c1.4-6.6,2-12.9,3.8-19.2
	c-14.2,3.4-6.9,4.1-13.2-2.8c18-1.8,30.1-19.4,41.7-30.5c-5.4-0.7-10.8-1.4-16.2-2.1c0.5-5.3,14.4-0.3,17.1-6.2
	c4.2-9.1-11.9-1.9-12.6-3.1c17.2-12.7-5.7-12.4,6.7-22.5c-5.8-3.8-6.1,2.9-9.1,6.4c-8.1-2.2,1.3-3.9-0.6-7.4
	c-13.6-5.4-11.6,11.4-14.3,19.1c0.1-5.4-2.4-5.8-7.4-1.3c-2.1-2.6-0.9-5.2,3.5-7.9c-8.2,2.1-8,12.6-16.2,15.2
	c4.1-3.6,4.7-6.6,1.9-8.9c-19.5,14.6-10.2,0.4-12.7-7.4c-1.3-4.2,20-0.4,2.5-7c0.4-9.2,43.6-15.6,51.1-13.9c1.1-6.9-7.8-3.4-9.9-6
	c-4.2-5.1-3.3-5-5.4-13.3c-4.8,2.4-28.9,13.6-10.3,0.6c0,0-21.6,1-21.8-0.9c12.5-2.3,15.7-0.8,17.7-12.9c-9.9,4.8-17.8,5.2-27.4,3.4
	c1.1-3.8,3.6-6.8,7.4-8.8c-6.5,0-13,4-19.3,2c1.9-2,4.2-3.1,6.9-3.5c-0.7-3.7-3.9-4.5-9.6-2.3c4.8-7.7,10.9,3.6,15.7-5.6
	c-2.1,1-4.1,0.9-5.9-0.4c0.6-2.2,1.4-4.2,2.4-6.3c-3.3,0.9-17.6,2.4-20.8,2.3c12.5-17.8-2.5,1.8-7.3-5.8c15.9-8.7,9.3-9.5-1.7-12
	c7.6-4.9,10.6-1.2-0.3-9.5c6.7-4.5,13.1,2.1,18.4,5.5c-1.7,2.5-14.8-20.7-16.1-24.6c2.4-2,4.7-1.1,7,2.7c-0.9-3-0.2-4.9,2.1-5.7
	c2.3,10.1,8.5,18.8,16.5,25.3c-1.3-5.9-3.3-10.4-1.1-16c6.8,7.2-1.4,16.3,9.3,21.3c-10-20.1,5.3,13,7.9-4.2
	c1.6-10.4-12.2-13.9-9.2-26.4c12.6,23.8,1.5,2.9,5.7-0.5c4.1,4.3,2.8,14.5,4.5,20.4c3.6-0.8,3.4-9.2,6.6-12.2c2,4.9-11.4,35,3,33.6
	c-6.1-3.3-2.1-14.5-0.7-22.8c-1.8,10.8,19.5,42.9,35,33.5c-4.5-5.6-10-5.8-12.8-12.5c2.8-0.5,5.4-0.3,8,0.7c-4.4-4.7-4.9-8-1.3-9.6
	c2,3,4.1,5.8,6.4,8.6c0.1-2.5,1.1-4.3,3-5.4c3.6,3.9,10.3,19.9,17.5,7.1c-2.1,13.4,1.9,9.6,10.8,19.2c2.7-13.2,10.4,1.7,8.5,7.1
	c5.3-1,10.1-3.2,14.4-6.8c2.3,3.1-4,5.7,3,6.7c0.7,0.1,20.8,4.5,18.6,0.5c-3.2-5.8-11.5,4.5-13.9-5.8c15.2,0-9.1-0.9-7.7-6.2
	c7.2,3.7,9.1,2,5.6-5c5.7,1.7,11.3,3.3,17,5c-2.2-7.7-9.6-4.8-14.1-9.5c1.6-0.9,3.4-1.1,5.2-0.6c-7.1-14.4,2-14,6.9-29.9
	c2,5.9-4.3,18.9-2.3,26.7c3.3,12.8,9.9,4,5.4,16.8c5.1,7,9.4,8.7,13.1,5.2c-1.8-2.5-4.2-4.2-7.2-5.1c1.4-1.2,2.9-2.3,4.3-3.5
	c9.1,4.4,8.3,9.6,0.1,16c19.1,3.4,2.6,13.1,20.2,20.4c-2.1,1.1-4.2,2.1-6.3,3c-4.3,4.6,12.3,3.9,16.7-0.8
	c-11.8,2.5-25.7-24.9-17.9-29.4c-1.7,3.4,12.8,21.3,15.4,22.1c9.4,2.6,28.8-15.7,9.9-5c1.8,1.4,18-34.3,18-33.9
	c-6.2,0.7-9,3.9-8.4,9.6c-5.3-3.9-4-2-9.4,0.1c-0.4-5.4,2.2-10.1,0.2-15.1c-3,0.5-4.6,2.4-4.7,5.7c-3.2-0.2-3.6-2.7-1.2-7.5
	c-1.5,5.4-3.7,7.1-6.5,5.2c0.5-1.3-2.6-26.9-2.2-26.8c-6-1.5-16.9,13.5-19.5,18c-4.9-16.7-5.6,0.6-9.1,7c-2-11.7-4,1.4-3.8,4.6
	c-8.7-7.8,5.2-37.2-2.8-37.2c2.5-2.5,4.9-5.2,7.1-8.1c0.1,0.1-13.9,3.9-14.1,4c-3.2-3.9-2.8-7.9,1.2-11.7c-2.4,1.5-4.9,3-7.5,4.3
	c-9.9-2.2-2.9-18.3-0.7-22.9c-11.3,6.1-7,11-13.8,20.8c1.6-5.4,1.2-10.6-1.1-15.7c-5.6,7.1-9.1,14-19.2,16.3
	c3.3-1.4,4.4-3.1,3.1-5.1c-2.6,2.4-4.5,2.6-5.7,0.5c2.4-2.1,11.2-7.5,11.4-11.3c-5.3,0.1-15.7,7-21,8.4c1.4-7.9-0.1-18.2,10.3-14.5
	c-0.7-12-10.5-0.3-14.2-3.4c8-9.4,24.8-10.7,34.1-19.3c2.3-2.1,2.1-7.5,5.1-10.1c2.8-2.5,11.8-5.7,13.2-8.3
	c-15.8-3.2,8.3-6.5,9.3-9.5c4.1-12.3-25.8-5.8-24.2-3.1c5.3-3.2,3.1-4,5-6.7c5.1-7.2,9.1-2.1,16.8,1.4c-4.1-5.9-26.9-27.7-14-33.5
	c6.9-3.1,13.7,7,17.8,9.7c-3.4-2.2,5.7,4.8,11,6.3c-1.1,2.2-3.1,2.8-6,1.8c0.8,8,13.5,0.8,15.8-0.2c-3.8-5.8-8.4-21.5-0.2-25.7
	c-5.5,2.5-12.5,4.6-18.9,6.2c3.5-10.3,8.8-12.8,9.9-24.8c9,7.7,7.5,0,0.8-5.2c-2.3,3.6-16.5,19.4-5.7,14.5
	c-8.7,25.9-29.3,0.4-7.8-11.3c-1.5,1.2-2,2.8-1.5,4.7c6.3-0.5,31.8-21.8,35.6-27.4c-6.3,3.5-9.5,3.1-9.8-1.1
	c6.4-2,18.2-0.1,19.7-1.1c-1.9-7.3-9.2-7.1-14.7-9.8c5.3-6.5,2.1-4.9-4.2-1.4c2.4-5.1,1.1-7.2-4-6.1c10.7-23.6-21.3-27.4-37-27.4
	c-0.8-2.3,0.5-3.6,4-4c-4.2-8.1-20.5,1.1-21.5-4.7c9.6-1.1,25.6,1.5,33.3-4.3c-6.9-2.9-14.3-1.7-21.7-2.4c12.7-5.1-4.1-1.8-3.7-9
	c1.9-0.3,24.5,6.7,25.1,2.7c0.8-5.7-24.9-7.7-21.4-16.1c3.6-8.7,16.7,3.4,20.1-2.2c3.7-6.1-10.7-14.2-7.5-20.3
	c11.6,10.6,15.8,22.1,24.5,34.7c4.8,6.9,20.6,17.6,22.9,24.4c2.2,6.5-10.7-0.2-9.4,0.4c-4.8,8.1,75.9,71.2,99.8,53.9
	c-7.2-3.3-16.4-4.1-23.4-2.2c-4.7-9.5,23-12-7.2-9.2c-0.9-2.8,0.9-4,5.5-3.8c-11.7-8.4,6.4-22-2.6-4.4c7.9-2.7,6.9-15.9,18.2-21
	c-1.5-4.3-5.1-4.7-11-1.3c2.7-9.8,5.2-17.3,2.8-27.3c-8.2,3.8-15.3,6-19.1,15.2c-3.8-2.4,6.9-18.2,4-24.6c-4.5,6.9-5,15.5-13.7,18.8
	c3.9-9.5-3.9-5.9-3.9-5.7c0.7-3.9,7.9-11.7,10.2-14.7c-24.4,0,1.9-4.1-11.7-7.5c-0.7-0.2-7,8.1-6.9,8c-1.9-4.2-2.2-8.6-0.8-13.2
	c-6.2,3.6-8,10.8-14.3,13.7c-0.2-3.5,1.1-6.4,4-8.7c-24.3,12.2,9-25.5,10-35.1c-5.8,0.1-20.4,26.2-23.9,30.8
	c-4.1-2.4,11.1-22.8,12.6-25.8c-22,15.6,3.9-4.8-0.1-7.6c7.1-1,6.6-3.5-1.3-7.4c11.9-1.1,21.1-11.1,3.8-12.9
	c-0.8-3.8,1.9-5.6,8.2-5.4c-0.8-3-9.8-1.2-10.2-1.2c0.3-1.6,0.7-3.1,1.1-4.7c-6.6-1.3-11.7-7.4-18.5-12.5c6.4,0.8,9.1-1.1,8.1-6
	c-3.6,2.4-8,0.5-14.2,1.7c-0.8-3,4-4.1,6.5-5.7c-2.6-2.3-11.3-4.5-10.9-6.7c14.5,3.2,0.8,0.4,5.6-3c2.6,5.5,6.5,8.7,11.9,9.6
	c-0.7-4-3.1-6.7-7.3-8c3.7-6.9,21,14.9,2.9-6c16.5,3.3,4.8,14.2,9.2,18.6c2.1,2.1,19.2,12,23,4.1c2.5-5.3-11-5.7-12.7-5.6
	c4.6-5.8-0.8-6.3-3-10.9c3.2-0.8,6,0.1,8.5,2.5c5.2-7-15.8-10.3-8.5-16.7c8.3,8.9,16.3,15.8,26.2,22.9c-3-1-5.3-0.2-7.1,2.3
	c7.2,6,10.8-0.2,11.8-6.8c2.2-14.3-12.2-8-17.7-17.3c10.7-2.4,13.2-5.6,24.2,2.2c-0.3-6.7-4.1-10.3-11.2-10.9
	c5.2-1,24.2,3.1,25.1-4.3c-6.5-1.8-11.2-0.4-8.7-8.4c-5,2.5-15.8,7.6-17.8,6c4.6-6.5,8.8-13.4,12.4-20.5c-8.7-2.6-17.5-5.2-26.2-7.8
	c11.3-7.3-5.1-6.4-13.5-9.9c6.9-9.4,21.6,7.9,23.8,8.6c4.4,0.9,7.8-0.6,10.3-4.6c2.9,5.5,6.4,6.3,10.3,2.4c-0.7,6.1,7.6,7.8,10,4.4
	c-2.9-2.1-5.8-4.3-8.7-6.5c0,0,16.3-9.2,18.9-10.3c-2.1-7.4-6.6-11-13.6-10.9c3.5,10.9-23.4,5.5-28.8,4.5c6.4-17,33.6-2.2,47.1-19.2
	c-1.4,0.1-28.1,4.1-13.3-1.1c-7.1,1.2-10.6-0.3-10.5-4.6c5.6-1.7,10.6-0.4,14.8,4c2,4.8,3.6-46.7-5.3-41.2c3,4.1,8.8,28.6,15.9,18.5
	c1.6,13.7,2.8,15.7,8.4,24.8c14.1-4.3-7.9-19.3,6.5-18.4c-0.5,2.9,5.3,12.2,8.4,7.3c2.2-3.4-25.5-23.2-16.2-27.5
	c-6-1.5-8.8-6-8.2-13.6c13.1,7.1,8.5,5,15.3,12.8c0.4-2.2,0.7-4.4,1.1-6.7c4,5,8,10.1,12,15.1c2-4.8,10.1-10.4,8.1-14.9
	c-9.1,4.6-7.1-9.2-4.6-14.1c2.1,0.5,2.3,6.5,3.8,8.8c2.3-3,11.9-31.2,18.3-25.1c-5.6,3.3-5.7,6.2-0.5,8.6c-11,1.4-10.4,0.8-1.9,7.5
	c-22.4,0,3.8,4.8,11.6,3.8c-1.4,2.9-14.5,23.4-9.9,26c3.5-5.1,7.1-10.2,10.6-15.4c10.3,6.2,0.1,18.2,5.6,22.8
	c-7.4,6.2-3-3.6-8.9-0.9c6.1,14.2,13.5-5.6,22.1-6.4c-3.6,6.6-7.7,14.4-8.9,21.6c4.1,0.7,7.5-0.7,10.3-4.2c3.6,3.5-17.2,25.7-2.8,21
	c-2.4,2-2.7,3.6-1,4.6c16-13.4-1.2,0.2-2.6-9.1c8.9-2.7,24-4.9,10.9,6.7c2.8-1,4.3-0.5,4.5,1.5c-2.8,0.6-4.8,2.3-6.1,4.8
	c8,5.4,10.9,8.1,20,10.5c-9.2,4.2-9.2,6.7,0,7.6c-5.2,3.6-11.4-1.1-15.5,4.9c3-1.9,6-2,8.8-0.5c-4.6,9.7-6.7,4.7-15.8,3.5
	c3,2.4,6.2,4.6,9.7,6.5c-2.7,1.1-9.4-0.2-10.5,1.7c8.4,9.7,9.5,7.6,21.5,10c0,0.2-4.1,5.2-4.9,6.7c-2.6-1-13.9-7.9-17.8-5.7
	c6.3,6.2,7.6,7.9,1.2,14c4.2,5.5,24.5-6.3,6,4.9c2.2,0.5,4.2,1.3,6.1,2.6c-2.3,2.6-5.2,4.3-8.7,5.2c5.7-1.3,8.3-0.2,7.9,3.3
	c-6.3-0.5-12.4,0.3-18.2,2.6c7.2,4,17.6,5.9,15,14.4c-6.3-3.2-12.5-6.4-18.8-9.6c-1.4,2.1,10.8,11.2,11.8,12.1
	c-2.5,6.7-9.8-3.8-13.1,9.2c-1.6-3.2-4.2-4.8-7.6-4.8c4.8,16.4,1,16.2,20.6,16.2c-3.6,2.8-4.6,6.4-3.1,10.8
	c10.1-5.5,2.2-20.9-5.8-14.5c5.7-19.5,30.8-13.5,32.5-35.7c10.8,5,6.9-10.8,11.9-15.9c0,4.7,0,9.3,0,14c4.9,0.9,2.2-7.2,7.9-4.4
	c-6.8,16.4,21.9-6.8,14.4,17.3c-3.5-6.5-10.4-12.9-16.6-2.4c4.5-0.9,8.2,0.2,11,3.3c-6.4,3-17.9-5.9-18.6,1.4c2-0.4,3.9,0,5.7,1.1
	c-1.1,3.3-3.4,5.3-6.8,5.9c1.2,3.4,17.3-1.2,12.4,12.5c6.2-5.4,5.4-9.9-2.3-13.3c15.1-10.4,1.3,2.4,10.5,1
	c-0.5-5.4,15-18.3,17.1-16.5c-3.3,5.8-8.7,10.4-8.8,17.3c5.4-1.8,9.9-5.2,13.5-10.1c16.4,17.8,15.7-20.3,33.6-12.7
	c-1.1,2.1-2.7,3.9-4.7,5.2c3.3-0.3,4.6,0.7,4.2,3c-5.4,0-10.7-1.3-12.9,4.2c2.1,0.3,3.8-0.3,5.2-1.9c2.5,15.9-16.9-2.2-9.2,16.1
	c-7.8-1.4-11,2.7-9.7,12.3c-17.6-7-16.2,25.1-21.5,36.2c1.8,1.9,3.9,1.6,6.1-1c-2.1,2.3-2.8,5-2.2,8.1c0.6,5.7,6.6-11.8,6.8-12.4
	c3.4,0,3.7,11.3,4.1,13.6c4-4.7,4.4-26.8-2.4-16.2c-1.7-4.1-3.4-8.3-5.1-12.4c19.4-11.6,10.1,33.1,6.6,38.8c1.8,1.7,12-5.8,13.1-6.5
	c2.2,9.1-8.3,4.4-2,12.8c-4.3,0.9-9.1-4.7-12.9-0.4c2.8,3.8,5.9,15.2,4.4,12.7c0.7,1.3-5.6,3.1-2.3,6.5c5.6,5.7,10.6-3.3,6-8.2
	c4.5,4.5,7.5,5.1,9.1,1.8c-12.5-10.5,25-9.2,20.4,3c-2.9-1.2-5.3-3-7-5.6c-2.9,12.3,4.1,8.7,7.4,18.7c-10,0.7-12.4-11.2-22.2-5.4
	c2.7,2.1,5.6,4,8.6,5.7c-1.9,3.6-12.6-5.6-19.1-0.2c4.1,2.3,7,1.6,11.9,3.1c-6.2,9.3-1.9,9.9-14.3,11.3c13.3,11,37.3-0.4,43.7,27.3
	c-9.7-3.6-4.3-17.3-15.9-16.4c2.4,2.2,4.3,4.8,5.8,7.8c1.3,2.5-16.8,0-18.6-0.9c-1.5,6.7,5.8,5.5,7.8,10.2
	c-5.2-0.9-10.5-1.8-15.7-2.7c-0.7,4.2,20.1,5,24.9,11.7c-15.3-3.9-1.6-1-5.2,3.4c-4.5-3-9-5.9-13.5-8.9c0.8,4.4,1.6,8.7,2.4,13.1
	c-4-2.8-7.9-5.5-11.9-8.3c6,5.4-1.3,23.3,7.9,26.5c0-5.5,0-11,0-16.4c17,9-7.1,17,5.2,25.4c-2.2,1.8-4.4,1-6.6-2.2
	c2.2,23.7-11.2-40-17.7-5.5c-9.6-2.7-9.7,3.3-11.5-4.7c-13.8,3.6,27.6,23.4-9.7,23.4c-4.4,20.1,35.4,4.6,41.3-5.5
	c1.1,3.6,3.1,4.5,6,2.6c0.8-9.3-0.7-9.7,6.6-14.7c2.3,3.3-1.9,7,4.6,7.3c-3.9,3.9-13.9,11.9,2.4,13.4c-5.5,2-7.4,4.6-5.8,7.9
	c26-14.6-5.6,4.8-4.1,12.1c2.7-1.7,4.7-3.9,6.2-6.7c8,9.4,11.2,1.6,20,8.2c-1.7,2.4-3.6,4.5-5.8,6.5c5.7,2.9,25.7,14,15.8-0.5
	c1.9,0.2,40.2,13.2,37.8,6.2c-1.3-2-2.9-3.8-4.6-5.5c5.8-1.1,12.1-1.4,10.4,5.7c14.2,1.3,6.3-11,2.9-15.1c0.2-0.1,8.4-2,8.4-1.9
	c0-3.7-1.2-7-3.8-10c15.8,0,7,3.4,9.6,12.4c6.4-4.2,7.2-25.8,14.6-27.2c2-0.4,1.8,5.3,5.3,3.8c3.9-1.6,4.9-6.6,9-8.6
	c1.7,6.6-4.9,9.6,3.7,11.3c-6.6,6.6-13.2,13.2-19.8,19.8c9.5,0,17.5-6.2,27.1-5.1c-3.8,9.8-14.1,6.7-5.4,16.8c0.2-0.3-26.4-7.6-35,2
	c1,0.5,32.6,11.1,24.8,14.8c-3.4,1.6-41.1-17.1-37.9-4.7c6.1-1.1,22.7,9.4,26.6,16.2c-11.1-1.2-21.8-7.2-32.8-14
	c-3.5,14.7,31.6,10.8,9.4,22.1c24.9,11,54-15.4,80.1-7.2c-28.2,6.8,2.2,6.4-5.1,7.4c-7.2,1-11.8-5.8-19.6-3.5
	c2.2,4.2,3.9,4.9,7.3,8.7c-5.3,1.3-13.1,6.4-13.7,10.4c15.9,1.9,24.6,15,43.5,18.1c-15.4,7.7-1.9,0.4-2.5,7.1
	c-2.7-0.3-15.3-3.4-16.8,0c3.2,1.2,5.8,3.2,7.6,6.1c-1.9,0.2-23.2,0.3-23.5,1c2.9,1.1,5.4,2.8,7.5,5.1c-2.6,4.3-6.8,6.1-12.6,5.4
	c6,0.9,8,2.8,6.2,5.7c-8.7-3.3-17.2-2.4-13.9,11.5c-2.5-3-5.5-5.4-9.1-7.1c7.1,17-5.8-6.8-11.6-2.8c2.1,5.4,4.2,10.8,6.4,16.1
	c-8.8-4.7-4.5-16.6-16.4-9.3c16.2,9.7-1.1,8.7-2.3,13c5,1.6,13.8,2,15.7,8.3c-12.3-4.2-8.7-2.4,2,5.6c-6.8,0.8-28.8-22.1-13.9,1.2
	c-8,0.1-12.5-12.8-20.8-16c1,1.8,11.5,16.1,10,16.5c-7.6,2-10.7-6.2-17.6-6.2c0.2,13.5,30.7,15.5,38.4,27c-8.7,7.2-9.4,4.4-19.9-1.9
	c5,22.1-9.9-3.4-14,1.6c-5.5,6.7-1.5,10.7-0.5,15.7c0.8,3.9,5.8,11.5,6.4,16.5c0.8,6-3.5,5.5-0.5,14.4c-1.4-1.6-8.7-13.8-10.6-13.1
	c1.8,4.8,3.5,9.6,5.3,14.4c-1.3,0.7-12.8-18.2-12.7-18c-3.1,1.4-1.2,8.4-2.6,12.1c-4.6-6.1,0.9-20.1-7.9-21.8
	c1.2,3.6,0.9,7.1-0.8,10.4c-6.9-6.2-2.4-20.2-11.5-22.3c-2.6,10,1.4,16.9-0.5,26.5c-5.1-6.1-5.3-11.8-6.8-19.5
	c-13.4-1.2-9.3,17.3-5,23.3c2.7,3.7,16.5,10.6,21.3,14.1c-2,2.5-17.7-6-20.6-8.7c-3,2.3,5,11.7,6.2,15.7c-4.6-0.9-8.8-2.6-12.8-5.3
	c-1.7,2.3,4.7,24.6,1,24.9c-2.9-0.2-4.2-2.1-3.9-5.7c-0.7,2.3-1.7,4.4-3,6.5c-2.4-8,0.5-15.6-1.8-23.9c-5.7,0.1-2,15.1-6.6,18
	c-2.4-4.6-4.7-9.1-7.1-13.7c-14.1,19.1,15.4,48.7,18.2,66.4c10.2-5.4,7.9-24,15.6-29c7.8-5,19,7.1,12,11.8c0.9,2.1,5,1.5,7.2,3.2
	c-9.3,8.6-23.1,1.2-23.9,19.1c2.8-2.3,27.1-21,28.9-9.7c-4.3,1.1-8.6,2.2-12.8,3.4c2.2,1.5,3.9,3.3,5.1,5.6c4-3.3,21.2-6.4,23-9.8
	c2.9-5.5-5-14.1-2.4-15.9c9.8,11.9,16.8,6.7,28.8,7.7c4,0.3,12.9-1,17,2.8c6.9,6.3,3.5,20.1-4.1,7.8c-6.5,7.1,26.2,16.7,31.2,17.8
	c20.3,4.7,43.1-10.9,60.8,5.1c-13.6,0-2.1-0.5-5.1,4.5c-5.5-8.5-10.2-10.5-13.9-6.1c2.7,2,3.5,4.2,2.3,6.5
	c-10-4.3-24.4,2.6-16.1,11.7c-11.2-2.7-14.1-4.7-21.7-13.3c1,5.1,2.5,10,4.2,14.8c-11.6-5.8-15.2-3.6-24.3-9.6
	c2.7,9.9-0.4,12.7-6.6,4.7c-0.2,3.2-1.5,4.9-4,5.1c-3.7-13.4-11.2-11.7-17.5-21.5c-3.5,6.7-9.4-0.4-15.1-1.2
	c-13.2-1.8-4.1-0.9-12.4,5.2c-2.8-3.4-5.5-6.8-8.3-10.1c-11.3,18.2,67.5,31.4,65.3,40.9c-5.2-4.6-8.9-5.2-10.9-1.7
	c5.7,3.5,41.8,20.3,39.8,24.6c-3.8-4.9-7-5.9-9.6-3.1c4.6,2.2,5.9,4.5,3.9,6.8c-12.4-8.9-17.3,0.2-32.8-10.5
	c-1.3,1.6-1.9,3.5-1.9,5.8c-7.1-7.8-0.8-10.3-10.8-14.6c-3.4-1.5-1.2,14.7-16,4.5c7.1,23.9-8.9-10.1-11.9-9.4
	c1.2,5.5,3.5,10.3,1.1,15.5c-4.5-4.5-2.9-10.6-5.7-16.2c-2,1.1-1.2,4.8-1.8,7.2c-6.3-4-8.5-9-12.3-12.1c-3-2.5-6-5.4-10.4-8.3
	c-13.6-9.3-4.3,12.2-17.7-2.8c-3.2,2.4,1.6,3.6-0.2,6.6c-6.7-4.2-9.8-7.2-16-0.2c-6.2,5.2-15,4.9-23.4,8c11.5,2,26.1,2.8,29.3,17.4
	c-10.7-4.6-6.7,0.8-5.9,10c5.3-7.8,20.9,13.9,10.3,17.9c1.4,1.8,20.5,9.4,23.1,10.8c7.4,4.1,22,18.4,22.1-0.9
	c-4.1,1.4-7,4.1-8.8,8.3c-2.8-6.2,4.3-7,3.8-12.4c0,0.2-5.6-20.1-4.5-14.7c5.7,0,2.4-7.6,1.8-10.3c2.7-0.9,15.4,36.5,20.3,40.3
	c10.5,8.1,20.5,4.9,29.4,13c6,5.6,6.3,11.3,13.1,16.1c0.7-8.2-6-11.1-8.9-17.6c2.4-3.9,6.2,4,4.2-5.1c16.4,16.8,32.3,31.8,40.6,53.9
	c-11.1-5.3,0.9,3.3-5,4.7c-0.5-2.1-3.1-21.8-6.8-21.6c0,10.4,4.2,16.9-7.9,12.8c7.5,3.5,9.3,6.8,5.4,10c-4.8-3.2-37-26.8-37.9-26.4
	c2.7,7.2,6.6,22.1,9.3,26c-0.9,0.5-9.8,13.2-8.1,13.6c-6.1-1.7-15.7-30.2-19.3-36.7c-9.1,8.8-5.6,15.3-6.2,27
	c-2.4-2.9-4.3-6.2-5.8-9.7c0.7,4.2-0.6,7.1-3.9,8.7c3.9-0.9-21.5-20.1-22.8-20.7c1.1,4.6,0.2,6.9-2.8,6.8
	c-1.5-5.6-3.1-11.1-4.6-16.7c-6.3,2.7-4.1,17.8-5.3,23.4c-0.3-2.8-1.6-4.5-3.7-4.9c6.3,5.8,7.1,9.6,2.3,11.5
	c-8.8-11.5-8.6-12.3-13.7-26.2c-12.1,3.4,9.7,36.2,7.2,47.4c0.1-8.5-2.1-11.7-6.6-9.6c1.2,2.9,1.2,5.8-0.1,8.5
	c-4.2-3-6.6-8.7-9.2-13c-6.1,19.5-3-12.8-6.4-17.6c-3.1-0.2-5.4,10.2-8.7,12.8c-2.8-8,8.5-16.6,0.8-22.4c-0.5,10.2-4.2,2.3-7.8,6.9
	c0.2,2.4,0.3,4.8,0.3,7.1c-3.8,1.8-5.7-0.8-5.8-7.8c-5.1,25.4-2.1-17.2-6.6-17.6c-1.9,6.3-2,10.2-7.2,14c-5.2-12.4,7.5-8.9-7.5-19.2
	c0.6,2.6,0,4.9-1.8,6.7c-2.2-2.4-2.6-7.7-7.1-5.9c1.8,3.5,2.3,7,1.4,10.7c-2.9-2.2-5-5.1-6.1-8.7c2,6.5,0.9,9.6-3.1,9.2
	c-3.6-5.1,3.3-12.5-6.1-14.1c3.3,10.6,1.8,7.4-4.5,2.9c-0.2,0.6,1.8,58.6-4,54.9c-2.8-1.9-3.6-4.8-2.2-8.5c-4.1-1.1-2.2,6.6-6.9,5.4
	c1.1-7.6,10.4-19.4,7.1-26.7c-2.7,6.4-7.1,10.1-13.3,11.1c1.5-7.1,9.1-10.3,9.8-17.4c-5,2.5-10,5-15,7.6c3-7,8.6-12,4.5-20.3
	c-1.3,4.8-3,9.5-5.1,14c-2.6,1.1-9.6-6.8-8.1-8.2c8.4,10.5,10.1-14.8,7.7-18.1c-11.4,14.4-12.6,5.3-23.6-6
	c-1.5,13.4,13.9,25.4-0.1,37.8c-4.2-7.1-4.2-17-7.7-25c-7.4,15.8,0.3,48.7,1.4,65.6c1.2,18.1-6,42-32.5,24.4
	c-20.2-13.4,10.7-37.4-1.5-49.9C523.2,955.4,506.5,956.5,508.2,966.5z"/>
</svg>
