<?xml version="1.0" encoding="utf-8"?>
<!-- Generator: Adobe Illustrator 22.0.1, SVG Export Plug-In . SVG Version: 6.00 Build 0)  -->
<svg version="1.1" id="Layer_4" xmlns="http://www.w3.org/2000/svg" xmlns:xlink="http://www.w3.org/1999/xlink" x="0px" y="0px"
	 viewBox="0 0 1080 1080" style="enable-background:new 0 0 1080 1080;" xml:space="preserve">
<style type="text/css">
	.st0{fill:#77395E;}
</style>
<g>
	<path class="st0" d="M609.7,861.6c8.4,6.7,21,9.9,30.8,14.1c10,4.3,19.5,9.4,29.1,14.3c9.1,4.6,18.9,7.7,27.5,13.2
		c8.6,5.5,16.8,12.1,24.5,18.9c7.2,6.3,15.8,13.1,16.7,23.3c0.3,4-0.5,8.4-2.7,11.7c-2.8,4.1-6.7,2.4-10.2-0.4
		c-3.5-2.8-5.9-6.8-8.8-10.2c-3.5-4.1-8.2-7.2-12.7-10.2c-8.8-6-18.4-10.8-28.2-15.2c-20-8.9-41.1-13.7-62.2-19.4
		c-22-6-44-11.8-66.1-17.4c-3.2-0.8-6.1-2.9-9.3-1.1c-5.4,3.1-2.6,7.1-0.3,11.2c5,9.1,13.6,16.6,20.7,24.1c7,7.3,10.7,15.1,15.2,24
		c4,7.8,6.3,20.3-0.5,27.4c-2.2,2.2-6.2,4.7-8.9,2.1c-2.4-2.3-2.7-7.9-3.7-10.9c-3.1-9.5-12.1-17.1-19-23.8
		c-8-7.9-16.2-15.5-24.4-23.3c-7.6-7.3-14.2-16.4-22.5-22.9c-7.6-5.9-17.8-9.8-26.4-14c-10.3-5.1-21.6-8.6-32.1-13.2
		c-10.4-4.6-20.8-9.4-31.2-14.1c-9.2-4.2-19-7.1-28.4-11c-4.2-1.7-8.5-3.3-13-3.8c-2.5-0.2-5,0.3-7.4,0c-2.9-0.3-6.1-1.7-9-2.6
		c-5-1.5-10-2.8-14.9-4.6c-4.7-1.7-8.7-4.8-13.6-6.4c-9.1-3-18.9-3.3-28.2-5.5c-4.2-1-8.4-2.4-12.2-4.5c-4.9-2.8-9.7-4-15.1-5.5
		c-20.1-5.6-39.8-13-59.2-20.9c-9.7-3.9-20.3-6-29.5-10.9c-8.8-4.6-17.6-10-25.2-16.4c-13.8-11.6-28.2-27.4-34.3-44.6
		c-3.5-10.1-4.9-20.5-8-30.6c-1.4-4.7-3.3-9.2-4.6-13.9c-1.6-5.7-2-11.7-4.2-17.2c-1.8-4.5-3.6-9.1-5.6-13.5
		c-2.2-4.8-5.3-9-7.4-13.7c-3.7-8.2-4.4-17.5-0.1-25.6c9.4-18.1,25.4-30.4,45-35.6c9.8-2.6,20.1-3.5,30.2-5c-1.4-2.7-2.9-5.3-4.3-8
		c-1.4-2.6-0.9-2.7-3.6-3c-1.1-0.1-2.7,0.2-3.9,0.3c-6.2,0.5-12.3,1.2-18.4,1.9c-5.8,0.7-8.1-1.1-12.6-4.2c-2.5-1.7-0.3-1-3-0.6
		c-1.3,0.2-2.5,1.7-3.7,1.7c-2.7,0.1-8.4-3.6-10.8-4.6c-3-1.3-6-2.1-8-4.5c-2.2-2.7-1.2-3.1-5.2-3.5c-5.5-0.6-10.4-3.1-14.3-7.1
		c-7.9-7.9-12.4-20-9.8-31.1c3.1-13.1,15.9-23.9,24.5-33.7c9.5-10.9,18.8-22.4,30.6-31c11.2-8.1,23.3-15.8,35.5-22.4
		c5.7-3,11.7-5.4,17.3-8.6c5.3-3.1,10-7.1,15.3-10.1c4.9-2.7,10.3-3.5,15.5-5.6c7.3-3,14.6-6.2,22-9c13.6-5.3,27.4-9.9,40.9-15.4
		c12.6-5.1,25.3-10.6,38.3-14.7c14.4-4.5,29.7-4.9,44.6-6.1c6.9-0.6,13.2-3.3,20-4.2c3.4-0.4,6.7-0.1,10.1-0.6
		c4-0.6,7.8-2.1,11.7-3.3c13.8-4.1,28.2-5.9,42.5-6.7c14.8-0.8,29.6-0.5,44.3-0.7c15.4-0.2,30.1-2.1,45.3-4.5
		c14.6-2.3,29.2-4.3,43.6-7.6c14.3-3.3,28.2-8,42.2-12.4c5.9-1.9,12.6-2.5,18.3-4.6c6.4-2.3,12.4-5.4,18.9-7.6
		c13.9-4.6,27.8-9.1,41.4-14.4c5.7-2.2,11.4-4.9,17.4-6.4c2.1-0.5,4.4-0.8,6.3-1.6c2-0.9,3.3-2.3,5.3-3.3c5.7-3,12.2-5,18-7.7
		c6.2-2.8,12.5-5.7,19.1-7.8c10.2-3.3,20.2-5,25.1-15.8c2.6-5.7,3.5-10.6,7.9-15.5c4.6-5,9.2-10.5,14.6-14.8c19-15,47.6-17.1,69-6.2
		c9.7,4.9,19.5,12.2,25.2,21.7c2.6,4.4,4.3,9.4,4.9,14.5c0.6,5.1,0.1,10.8,4,14.8c4.1,4.1,12.2,4.6,17.7,5.8
		c7.2,1.7,14.4,3.5,21.7,4.5c14.1,2.1,27.1,7.2,40.3,12.5c23.6,9.5,42.3,31.4,35.8,58.3c-6.6,27.4-27.6,47-45.5,67.4
		c-9.8,11.1-20.4,21.5-30.3,32.5c-9.4,10.4-17.7,21.6-28,31.1c-5,4.7-10.5,7.4-16.4,10.9c-5.5,3.3-10.3,7.8-15.1,12
		c-11,9.7-22.1,19.4-33.4,28.7c-10.4,8.6-20.8,17.5-31.4,25.7c-10.5,8.1-23.7,14.2-35.5,20.2c-4.2,2.1-34.6,10.5-32.6,15.5
		c-0.9-0.7-1.9-1.3-2.8-2c-3.9,6.9-7.2,14.1-11.1,21c-3.7,6.6-10.2,12.2-15,18.2c-5.4,6.8-10.8,13.7-16.1,20.6
		c-4.2,5.4-10.1,11.1-9.9,18.5c23.2,0,47.2-1.8,70.2-5.2c12-1.8,22.6-5.2,34.1-8.8c9.5-3,14.3-7.9,19.2-16.4
		c4.6-8.2,11.9-17.7,20.4-22.3c2.7-1.5,6.9-1.8,9.6-0.2c4.4,2.6,2.4,6.2,0.1,9.5c-1.3,1.9-6.1,9.1-5.2,11.4
		c1.1,2.6,13.2-4.4,15.2-5.3c10.5-5,20.7-9.6,31.6-13.4c5.9-2.1,11.6-4.8,17.6-6.9c4.4-1.6,8.5-2,10.9,2.8c2.5,4.9,1,8.5-3.5,11.1
		c-2.8,1.6-5.8,3-8.7,4.4c-2,1-6.5,4.2-7.7,2.3c-1,2.6-1.1,2.8-3.9,3.1c-1.9,0.2-3.6,0.5-5.4,1.2c-3.1,1.3-5.6,3.7-7.9,6.1
		c-2.2,2.3-5.1,4.8-7,7.3c-0.8,1-2.1,3.3-0.3,4.1c0.8,0.4,5.4-3,6.5-3.6c15.5-8.6,31.2-16.1,47.4-23.3c7.5-3.3,15.8-6.3,24.1-5.6
		c6.3,0.5,16.5,5.1,16.1,12.8c-0.5,10.1-11.1,7.5-17.9,7.2c-8.8-0.5-17.2,2.8-24.7,7c-18.8,10.4-36.5,23.3-54,35.7
		c3.2,2.9,5.4,4.9,9.6,6.3c4.4,1.5,8.8,2.2,13.4,2.7c9.1,1.1,18.2,2.1,27.2,3.5c13.3,2.1,31.6,5.2,34.7,21c0.7,3.7,0.3,6.6-3.5,8.3
		c-3.8,1.6-7.5-0.8-10.9-2.4c-7.8-3.9-16-8.4-25-8.6c-18.7-0.4-36.8,4.8-54.9,8.7c-8.7,1.9-17.6,2.1-26.2,3.9
		c-9.2,2-18.3,4.5-27.4,6.8c-18.3,4.7-36.5,9.4-55,13.6c-9.4,2.2-18.2,2.5-27.7,3.3c-9.4,0.8-18.8,2.4-28.1,3.7
		c-18.7,2.6-38,6.5-56.8,6.5c-18.7,0.1-38.9,2.2-56.2-6.5c-2.8-1.4-5.5-3.2-7.6-5.6c-1.3-1.4-2.4-3-3.3-4.6
		c-0.7-1.3-1.2-4.2-2.2-5.2c-2.1-2.1-10.6-0.8-14.1-0.8c-5.6,0-11.2,0-16.7,0c2.2,10.5,4.9,20.9,5.7,31.6c0.4,4.9,0.3,9.8-0.5,14.6
		c-0.8,4.6-0.4,9.1-1.2,13.6c-1.4,8.4-5.5,15.9-8.4,23.9c-1.8,4.8-1.5,5.2,3,7.2c4.4,1.9,8.7,4.3,12.9,6.6
		c8.1,4.6,16.1,9.6,24.8,13.1c9.5,3.8,19.9,5.5,29.9,7.8c9.6,2.3,19.7,3.1,28.6,7.6c4.6,2.3,9,5.1,13.3,7.8c3.3,2.1,7.6,3.6,8.5,7.8
		c0.8,3.7-0.7,9.7-4.3,11.6c-4,2.1-8.9-2.3-12.4-3.8c-5-2.1-10.3-3.5-15.7-4.3c-2.6-0.4-5.1-0.5-7.7-0.7
		C614.3,860.1,610.2,858.9,609.7,861.6z"/>
</g>
</svg>
