<?xml version="1.0" encoding="utf-8"?>
<!-- Generator: Adobe Illustrator 22.0.1, SVG Export Plug-In . SVG Version: 6.00 Build 0)  -->
<svg version="1.1" id="Animal" xmlns="http://www.w3.org/2000/svg" xmlns:xlink="http://www.w3.org/1999/xlink" x="0px" y="0px"
	 viewBox="0 0 1080 1080" style="enable-background:new 0 0 1080 1080;" xml:space="preserve">
<style type="text/css">
	.st0{fill:#A14A7B;}
</style>
<path class="st0" d="M1033.7,630.1c-17.1-52.7-41.7-96.9-73-142.2c-5.6-8.1-11.9-15.8-19-22.6c-10.9-10.5-26.7-17.8-35.1-30.6
	c-13.1-20,0.6-47.2-9.8-69c-5.2-11-15.4-18.5-22.3-28.5c-3.8-5.5-10.1-21-15.6-13.3c-2.7,3.8-2,17.8-2.7,22.5
	c-0.9,6.4-1.9,12.7-2.7,19c-1.6,12,0.2,25.4-2.1,37c-2.4,12.1-7.2,1.9-15.5-3.9c-11.6-8.1-22.3-15.6-31.9-26.1
	c-16.1-17.4-34.2-32.2-46.4-52.7c-13.5-22.7-31.9-40.6-47.5-61.6c-7.3-9.8-13.5-20.2-23.9-27c-11.4-7.4-25.1-11.4-37.1-17.8
	c-46.1-25-108-35.9-159.1-19.8c-25.4,8-53.5,18.2-76.3,32.2c-19.3,11.9-35.4,30.7-53.5,44.5c-17.5,13.4-26.8,33.3-38.6,51.6
	c-12.5,19.4-22.9,40.3-36.1,59.2c-12.5,17.9-30.1,33.4-50.4,41.8c-21,8.7-44.4,6.1-66,13.8c-53.1,19-101.7,65.9-118.3,120.2
	c-7.8,25.6-12.1,54.7-10.3,81.6c1.7,25.9,21.9,47.6,42.8,61.3c37.4,24.5,91.6,24.7,112.9,68.3c11.9,24.4,14.7,54.1,17,80.8
	c1.9,21.2,12.6,68.4,34.1,31c12.4-21.5,6.2-51.5,3.6-75c-2.8-25.4-12.4-52.8-27-74c-16-23.3-43.1-41.2-69.9-49.8
	c-21.1-6.8-60.1-7.9-60.6-37.5c-0.8-46.3,10-95.7,50.3-123.5c21.7-15,50.5-17.9,76.1-20.5c27.9-2.8,39.6,12.3,48.8,37.6
	c9.6,26.5,10.4,43.7,7.8,71.5c-2.1,22.5,0,32.9,19.3,43.5c11.1,6.1,22.2,13.5,31.4,22.3c8.3,7.9,12.7,18.6,22.1,25.4
	c8,5.8,21.5,9.9,26.7,18.8c5.3,9.2-1.3,20.5,1.7,30.9c2.2,7.3,11.5,25.8,21.1,21.7c9.6-4.1,3.6-28.6,11.7-30.3
	c2.1-0.4,8.3,7.7,10.3,8.8c4.1,2.5,12.8,6,17.3,6.9c15.7,3.2,1.8-8,7.7-17c6.2-9.4,21.9,5.2,30-1.4c8.4-6.8-8.3-20.6-9.8-29.8
	c7,0.2,10.7-3.7,17.3-4.3c5.3-0.5,12.9,1.8,18.4,2.8c10.6,2.1,18.3,7.4,27.7,12.5c12.1,6.5,24.8,13.2,38.6,13
	c16.7-0.3,32.5-3.8,48.5,3.5c9.5,4.4,22.9,13.1,29.5,21.6c2.8,3.6,3.8,7.9,6.5,11.6c4.9,6.6,10,7.5,11.8,16.1
	c1.1,5.4-2.2,12.5-0.6,17.4c1.6,5,4.9,4.4,8.6,7.9c5.4,5.2,4.2,8.9,12.6,6.7c5-1.3,16.3-8.3,14.1-14.5c6,11.7,14.5,20.9,27,25.8
	c15.8,6.2,16-7.3,11.9-19.7c2.9,4.6,20.3,10.6,25.2,9.6c15.1-3.2,0.3-24.3,3-25.7c1.4-0.7,11.3,9,15.5,5.3
	c1.7-1.5,0.3-11.6-0.6-14.1c-3.4-9.8-8.6-8.3-16-13.2c-4.5-2.9-4.8-8.3-12.3-10.2c-6.8-1.7-15.3,2-21.4-0.7
	c-1.1-0.5-3.1-5.2-4.6-6.3c-3.2-2.3-8.1-2-11.5-3.8c-7.1-3.9-5.5-6.4-9.4-13.2c-4-6.9-12.4-13.2-17.6-19.4
	c18.2-2.8,36.4-5.7,54.6-8.8c7.1-1.2,16.1-4.5,23.2-4.1c7.4,0.4,6.3,0,8.4,6.2c2.3,7.1-4.2,21.4,1.5,27.5c2.6,2.8,9.6,2.7,13.4,1.7
	c0.7-0.2,10.6-4.6,9.1-5.2c-3.6-1.4,5.5,12.9,5.4,12.7c3,5.1,1.4,9,8.6,10c9.9,1.3,17.4-22.8,18.3-22.7c-0.7-0.1-0.7,6.6,0,7.6
	c2.5,3.5,5.2,4,8.3,6.4c7.3,5.7,6.5,7.3,13.2,1.2c3.5-3.2,5.7-13.5,8-15.2c4.5-3.3,4.6,6.9,8.5-1.3c6.4-13.7-16.9-24.7-18.6-35.2
	c-1.3-8.4,2.8-5.8,9.8-5.8c6.4,0,12.9,0,19.3,0c12.1,0,24.1,0,36.2,0c20.3,0,40.5,0.3,60.8,1.1c15.9,0.6,37.6-1.2,51.6-9.8
	C1045.7,672.7,1039.1,646.5,1033.7,630.1z M697.1,799c-0.4-0.6-0.6-0.9-0.6-0.9C696.6,798.1,696.7,798.4,697.1,799z"/>
</svg>
