<?xml version="1.0" encoding="utf-8"?>
<!-- Generator: Adobe Illustrator 22.0.1, SVG Export Plug-In . SVG Version: 6.00 Build 0)  -->
<svg version="1.1" id="Layer_4" xmlns="http://www.w3.org/2000/svg" xmlns:xlink="http://www.w3.org/1999/xlink" x="0px" y="0px"
	 viewBox="0 0 1080 1080" style="enable-background:new 0 0 1080 1080;" xml:space="preserve">
<style type="text/css">
	.st0{fill:#77395E;}
</style>
<path class="st0" d="M1033.5,812c-5.7-2.2-10.2-3-12-3.4c-7.3-1.6-11.1-4.4-18.8-8.6c-11.8-6.4-16-7-30.8-13.7
	c-16.3-7.3-20.2-10.7-44.5-24c-11.2-6.1-6.6-3.3-59.9-30.8c-17.3-8.9-28.3-14.6-42.8-24c-15.8-10.2-23.1-16.5-27.4-20.5
	c-10.4-9.7-17-18.5-22.2-25.7c-7.5-10.1-9.5-14.5-20.5-32.5c-2.8-4.6-9.8-15.6-24-37.6c-20.7-32.3-20.6-31.8-27.4-42.8
	c-11.1-18.1-9.8-17.3-24-41.1c-13-21.8-14.5-23.2-32.5-53c-17.4-28.7-14.8-25.4-20.5-34.2c-13-19.8-18.5-24.9-39.4-53
	c-17.2-23.2-12.8-18.9-25.7-35.9c-35.4-46.7-38.6-39.6-47.9-56.5c-1.8-3.2-6.3-11.9-15.4-15.4c-2.9-1.1-5-1.2-12-1.7
	c-8-0.5-16-1.2-24-1.7c-4.2-0.3-12.6-1.3-29.1-3.4c-25.8-3.3-25.5-3.6-29.1-3.4c-15.6,0.6-27.3,6.1-32.5,8.6
	c-15.7,7.5-25.3,17.8-29.1,22.2c-9,10.5-12.6,19.9-18.8,35.9c-3.6,9.4-5.4,14.2-5.1,20.5c0.3,6.1,2.2,10,0,12
	c-2.5,2.3-6.8-0.9-15.4-1.7c-6.3-0.6-7.7,0.8-17.1,1.7c-11.1,1.1-12.3-0.5-24,0c-13.5,0.5-12.7,2.7-25.7,3.4
	c-4.6,0.3-15.6,0.8-29.1-1.7c-9.9-1.8-12.7-3.7-20.5-3.4c-7.2,0.3-8.8,2-17.1,3.4c-8.3,1.4-11.5,0.5-27.4,0
	c-14.3-0.5-21.4-0.7-29.1,0c-11.5,1-19.6,3.3-32.5,6.8c-10.8,3-29.5,8.7-29.1,10.3c0.3,1.2,12.3-0.5,18.8-1.7
	c18.6-3.3,20.4-6.8,34.2-8.6c3.1-0.4,11.2-0.3,27.4,0c21.1,0.3,23.9,0.9,24,1.7c0.1,1.2-5.7,2.7-15.4,5.1
	c-10.7,2.7-14.9,3.2-22.2,5.1c-8.9,2.3-9.6,3.3-20.5,6.8c-18,5.8-19.4,4-32.5,8.6c-14.9,5.2-27.8,12.6-27.4,13.7
	c0.3,0.7,5.7-1,13.7-3.4c15.9-4.8,31.9-9.1,47.9-13.7c40.1-11.5,37.3-9.1,47.9-13.7c8.4-3.7,19-9,20.5-6.8c0.4,0.5,0.4,1.6-3.4,6.8
	c-5.1,6.9-10,13.7-18.8,18.8c-7.8,4.6-13.4,4.9-22.2,6.8c-17.8,4-32.4,12.4-61.6,29.1c-8.7,5-19.3,11-18.8,12
	c0.8,1.5,31-9.9,49.6-20.5c2.1-1.2,8.3-4.8,17.1-8.6c2.1-0.9,5.9-2.3,13.7-5.1c9.7-3.5,11.5-4.1,12-3.4c0.7,1-2.2,3.9-8.6,10.3
	c-13.9,13.8-16.4,15.4-20.5,20.5c-6.7,8.3-11.4,18-10.3,18.8c1.3,1,10.2-8.9,24-24c6.3-6.9,12.7-13.6,18.8-20.5
	c6.3-7.2,10.9-12.7,12-12c1,0.6-1.3,5.6-1.7,6.8c-3.3,9.3-9.5,14.8-12,17.1c-2.6,2.4-10.3,14.7-25.7,39.4
	c-11.3,18-12.8,21.5-12,22.2c1.3,1.1,7.6-4,12-8.6c4.1-4.3,5-6.7,10.3-15.4c8-13.2,9-12.7,15.4-24c4.7-8.3,4.2-8.6,6.8-12
	c4.9-6.3,8.8-7.9,10.3-13.7c0.9-3.6,0.1-5.3,1.7-6.8c2.2-2,5,0,12,0c2.1,0,6-0.6,13.7-1.7c5.3-0.8,7.1-1.2,8.6,0
	c2.6,2,1.9,6.8,1.7,8.6c-1.3,10.6,2.9-3.1,1.7,35.9c-0.4,11.2-0.9,19.5-1.7,30.8c-1.4,19.6-2.8,32.3-1.7,32.5
	c0.9,0.1,2.8-7.5,3.4-10.3c1.3-5.3,5.1-22.1,5.1-61.6c0-17,0-25.5,0-25.7c-0.4-1.3-1.7-5.3,0-6.8c1.1-1,2.8-0.3,5.1,0
	c7.1,1.1,14.1-1.6,18.8-3.4c3.7-1.4,5.4-2.6,6.8-1.7c2.1,1.2,1.8,5.2,1.7,6.8c-0.3,8,2.7,7.8,8.6,30.8c3.8,15,2.3,13.9,5.1,22.2
	c3.8,11.1,9.4,20.9,10.3,20.5c0.4-0.2-0.2-2.1-1.7-8.6c-2.1-9-1.4-7-3.4-15.4c-7.2-30.5-10.8-45.7-12-47.9c-0.9-1.7-3.4-6.1-1.7-8.6
	c1.2-1.7,3.9-1.6,6.8-1.7c4.6-0.2,8.8-1.3,17.1-3.4c7.1-1.8,5.5-2.8,17.1-6.8c9.3-3.2,12.6-3.5,15.4-3.4c1.5,0,4.4,0.6,10.3,1.7
	c7.5,1.4,9.1,2,10.3,3.4c2,2.3,1.7,5.3,1.7,8.6c0,4.5,1.7,10.4,5.1,22.2c3.2,10.9,4.4,9.8,6.8,18.8c1.6,5.7,1.2,6.6,3.4,22.2
	c2.5,17.9,4,23.8,8.6,29.1c1,1.2,5.5,6.3,8.6,5.1c1.4-0.5,1.2-1.8,3.4-5.1c2.7-4,5.5-6,6.8-6.8c2.1-1.3,3.6-2.2,5.1-1.7
	c2.4,0.7,3.4,4.3,3.4,6.8c0.1,3.6-2.4,5.5-3.4,8.6c-2.4,7.1-2.9,12.4-3.4,15.4c-1.2,7.2-3.7,9.7-10.3,22.2
	c-11.6,22.1-8.8,23.6-20.5,46.2c-1.8,3.5-3.6,6.8-5.1,12c-3,10.3-1.9,18.2-1.7,24c0.2,5.8-0.6,9.7-8.6,34.2
	c-12.9,39.8-18.2,52.6-17.1,53c1.3,0.6,12.3-17.2,20.5-39.4c6.4-17.2,8.9-31.1,10.3-30.8c1.3,0.2-1,12.2,0,30.8
	c0.6,11.8,2.4,24,3.4,24c1,0,0.8-12.3,1.7-37.6c1.1-29.7,1.7-46.1,3.4-46.2c0.9,0,2.9,4.6,1.7,8.6c-1,3.6-4,4.9-3.4,6.8
	c0.5,1.7,3.2,1.2,5.1,3.4c1.8,2,1.7,4.7,1.7,6.8c-0.1,5.1,0.1,10.3,0,15.4c-0.2,17.9-1,26-1.7,44.5c-0.6,15.1-1.4,35.8,0,35.9
	c0.9,0.1,2.6-9.7,3.4-15.4c1.1-8.2,0.8-11.4,1.7-22.2c0.5-5.4,0.6-4.7,1.7-15.4c2.2-20.3,2.4-27.3,3.4-27.4c1.1,0,2,7,3.4,15.4
	c0,0,2.9,16.8,10.3,42.8c5.6,19.7,12.8,37.9,13.7,37.6c0.8-0.2-3.1-13.7-10.3-44.5c-5.5-23.5-9.9-42.4-8.6-42.8
	c1.3-0.4,8.2,18.6,12,29.1c6.3,17.5,7.9,24.1,8.6,24c1.2-0.3,1.1-21.2-8.6-41.1c-7.5-15.3-11.2-23-12-24c-1.5-1.9-5.1-6.2-5.1-12
	c0-2.6,0.8-3.9,1.7-6.8c2.9-8.9,0.8-12,3.4-25.7c1.2-6.2,2.1-7.6,3.4-8.6c1.3-0.9,2.4-0.8,12,0c5.8,0.5,7.1,0.5,8.6,1.7
	c1.9,1.6,2,3.9,3.4,6.8c3,6.3,4.8,11.1,5.1,12c2.2,5.8,11.7,26,25.7,46.2c16.3,23.7,33.5,39.9,42.8,47.9
	c18.4,16,33.4,24.4,59.9,39.4c0,0,24.1,13.6,47.9,22.2c12.5,4.6,18.8,6.8,24,6.8c4.3,0,8.9-0.7,10.3,1.7c1.3,2.2-1.2,5.2-3.4,10.3
	c-2.3,5.3-2.7,9.8-3.4,18.8c-0.9,11.5-1.4,17.5,1.7,24c3.5,7.3,10.8,13.4,13.7,12c2.2-1.1,1.8-6.4,1.7-6.8c-0.4-4-2.4-4.8-5.1-10.3
	c-1.3-2.6-3.7-7.6-3.4-13.7c0.2-4,1.4-6.3,1.7-6.8c0.5-0.9,2.2-3.6,5.1-5.1c4.2-2.1,7.7-0.2,12,0c5.8,0.2,7.5-3.2,17.1-8.6
	c15.9-8.9,21-5,30.8-13.7c2.9-2.6,4.5-4.7,8.6-6.8c5.9-3.1,9.6-2.3,15.4-3.4c6.4-1.3,12.3-5.4,24-13.7c5.8-4.1,10-7.5,15.4-12
	c11.5-9.4,12.4-11.2,18.8-15.4c6.6-4.3,11.7-7.7,18.8-8.6c8.2-1,14.8,1.7,18.8,3.4c24,10.3,35.9,15.4,44.5,20.5
	c5.9,3.5,23.3,12.6,58.2,30.8c16.7,8.7,31.3,16.3,51.3,25.7c9,4.2,31.9,14.8,53,22.2c14.7,5.2,13.6,3.6,20.5,6.8
	c5.8,2.7,10.4,5.6,17.1,5.1c3.8-0.3,8.4-1.6,8.6-3.4C1042.2,815.3,1037.4,813.5,1033.5,812z M212.2,377.4c-1.3,0.9-2.9,0.4-5.1,0
	c0,0-4.6,0-13.7,0c-12.5,0-18.8,0-18.8,0c-5.4,0.4-11.7,1.2-12,0c-0.2-0.6,1.3-1.1,3.4-3.4c1.8-2,1.7-2.8,3.4-5.1
	c1.4-2,2.9-4,5.1-5.1c2.5-1.2,4.7-0.7,8.6,0c0,0,5.1,0.9,13.7,1.7c10.4,1,13.1-0.8,15.4,1.7C214.8,369.9,214.5,375.7,212.2,377.4z"
	/>
</svg>
